%TF.GenerationSoftware,KiCad,Pcbnew,7.0.9-7.0.9~ubuntu20.04.1*%
%TF.CreationDate,2023-11-16T21:13:08+01:00*%
%TF.ProjectId,kicad-pmod_i2s2,6b696361-642d-4706-9d6f-645f69327332,1.0*%
%TF.SameCoordinates,Original*%
%TF.FileFunction,Drillmap*%
%TF.FilePolarity,Positive*%
%FSLAX45Y45*%
G04 Gerber Fmt 4.5, Leading zero omitted, Abs format (unit mm)*
G04 Created by KiCad (PCBNEW 7.0.9-7.0.9~ubuntu20.04.1) date 2023-11-16 21:13:08*
%MOMM*%
%LPD*%
G01*
G04 APERTURE LIST*
%ADD10C,0.100000*%
%ADD11C,0.200000*%
G04 APERTURE END LIST*
D10*
X13004800Y-8585200D02*
G75*
G03*
X13081000Y-8509000I0J76200D01*
G01*
X11049000Y-8509000D02*
G75*
G03*
X11125200Y-8585200I76200J0D01*
G01*
X11125200Y-8585200D02*
X13004800Y-8585200D01*
X11049000Y-3695700D02*
X11049000Y-8509000D01*
X13042900Y-3657600D02*
X11087100Y-3657600D01*
X13081000Y-8509000D02*
X13081000Y-3695700D01*
X11087100Y-3657600D02*
G75*
G03*
X11049000Y-3695700I0J-38100D01*
G01*
X13081000Y-3695700D02*
G75*
G03*
X13042900Y-3657600I-38100J0D01*
G01*
D11*
D10*
X11079800Y-6761800D02*
X11119800Y-6801800D01*
X11119800Y-6761800D02*
X11079800Y-6801800D01*
X11276660Y-5789680D02*
X11316660Y-5829680D01*
X11316660Y-5789680D02*
X11276660Y-5829680D01*
X11308400Y-6177600D02*
X11348400Y-6217600D01*
X11348400Y-6177600D02*
X11308400Y-6217600D01*
X11312160Y-5672020D02*
X11352160Y-5712020D01*
X11352160Y-5672020D02*
X11312160Y-5712020D01*
X11369530Y-7646390D02*
X11409530Y-7686390D01*
X11409530Y-7646390D02*
X11369530Y-7686390D01*
X11376230Y-5426140D02*
X11416230Y-5466140D01*
X11416230Y-5426140D02*
X11376230Y-5466140D01*
X11397170Y-7923800D02*
X11437170Y-7963800D01*
X11437170Y-7923800D02*
X11397170Y-7963800D01*
X11537000Y-3764600D02*
X11577000Y-3804600D01*
X11577000Y-3764600D02*
X11537000Y-3804600D01*
X11587800Y-6152200D02*
X11627800Y-6192200D01*
X11627800Y-6152200D02*
X11587800Y-6192200D01*
X11613200Y-5288600D02*
X11653200Y-5328600D01*
X11653200Y-5288600D02*
X11613200Y-5328600D01*
X11638600Y-4577400D02*
X11678600Y-4617400D01*
X11678600Y-4577400D02*
X11638600Y-4617400D01*
X11765600Y-7269800D02*
X11805600Y-7309800D01*
X11805600Y-7269800D02*
X11765600Y-7309800D01*
X11791000Y-3764600D02*
X11831000Y-3804600D01*
X11831000Y-3764600D02*
X11791000Y-3804600D01*
X11791000Y-6533200D02*
X11831000Y-6573200D01*
X11831000Y-6533200D02*
X11791000Y-6573200D01*
X11816400Y-7879400D02*
X11856400Y-7919400D01*
X11856400Y-7879400D02*
X11816400Y-7919400D01*
X11826020Y-5715870D02*
X11866020Y-5755870D01*
X11866020Y-5715870D02*
X11826020Y-5755870D01*
X11918000Y-5060000D02*
X11958000Y-5100000D01*
X11958000Y-5060000D02*
X11918000Y-5100000D01*
X11994200Y-8285800D02*
X12034200Y-8325800D01*
X12034200Y-8285800D02*
X11994200Y-8325800D01*
X12045000Y-6482400D02*
X12085000Y-6522400D01*
X12085000Y-6482400D02*
X12045000Y-6522400D01*
X12121200Y-7346000D02*
X12161200Y-7386000D01*
X12161200Y-7346000D02*
X12121200Y-7386000D01*
X12146600Y-7701600D02*
X12186600Y-7741600D01*
X12186600Y-7701600D02*
X12146600Y-7741600D01*
X12385530Y-7813400D02*
X12425530Y-7853400D01*
X12425530Y-7813400D02*
X12385530Y-7853400D01*
X12465900Y-7388890D02*
X12505900Y-7428890D01*
X12505900Y-7388890D02*
X12465900Y-7428890D01*
X12553000Y-5695000D02*
X12593000Y-5735000D01*
X12593000Y-5695000D02*
X12553000Y-5735000D01*
X12553000Y-6126800D02*
X12593000Y-6166800D01*
X12593000Y-6126800D02*
X12553000Y-6166800D01*
X12629200Y-6558600D02*
X12669200Y-6598600D01*
X12669200Y-6558600D02*
X12629200Y-6598600D01*
X12629200Y-6812600D02*
X12669200Y-6852600D01*
X12669200Y-6812600D02*
X12629200Y-6852600D01*
X12654600Y-7371400D02*
X12694600Y-7411400D01*
X12694600Y-7371400D02*
X12654600Y-7411400D01*
X12667630Y-5058500D02*
X12707630Y-5098500D01*
X12707630Y-5058500D02*
X12667630Y-5098500D01*
X12705400Y-4552000D02*
X12745400Y-4592000D01*
X12745400Y-4552000D02*
X12705400Y-4592000D01*
X12756200Y-6203000D02*
X12796200Y-6243000D01*
X12796200Y-6203000D02*
X12756200Y-6243000D01*
X12781600Y-7219000D02*
X12821600Y-7259000D01*
X12821600Y-7219000D02*
X12781600Y-7259000D01*
X12781600Y-7904800D02*
X12821600Y-7944800D01*
X12821600Y-7904800D02*
X12781600Y-7944800D01*
X12934000Y-5187000D02*
X12974000Y-5227000D01*
X12974000Y-5187000D02*
X12934000Y-5227000D01*
X12934000Y-5822000D02*
X12974000Y-5862000D01*
X12974000Y-5822000D02*
X12934000Y-5862000D01*
X11480000Y-4064000D02*
G75*
G03*
X11480000Y-4064000I-50000J0D01*
G01*
X11480000Y-4318000D02*
G75*
G03*
X11480000Y-4318000I-50000J0D01*
G01*
X11734000Y-4064000D02*
G75*
G03*
X11734000Y-4064000I-50000J0D01*
G01*
X11734000Y-4318000D02*
G75*
G03*
X11734000Y-4318000I-50000J0D01*
G01*
X11988000Y-4064000D02*
G75*
G03*
X11988000Y-4064000I-50000J0D01*
G01*
X11988000Y-4318000D02*
G75*
G03*
X11988000Y-4318000I-50000J0D01*
G01*
X12115000Y-5588000D02*
G75*
G03*
X12115000Y-5588000I-50000J0D01*
G01*
X12115000Y-5842000D02*
G75*
G03*
X12115000Y-5842000I-50000J0D01*
G01*
X12115000Y-6096000D02*
G75*
G03*
X12115000Y-6096000I-50000J0D01*
G01*
X12242000Y-4064000D02*
G75*
G03*
X12242000Y-4064000I-50000J0D01*
G01*
X12242000Y-4318000D02*
G75*
G03*
X12242000Y-4318000I-50000J0D01*
G01*
X12496000Y-4064000D02*
G75*
G03*
X12496000Y-4064000I-50000J0D01*
G01*
X12496000Y-4318000D02*
G75*
G03*
X12496000Y-4318000I-50000J0D01*
G01*
X12750000Y-4064000D02*
G75*
G03*
X12750000Y-4064000I-50000J0D01*
G01*
X12750000Y-4318000D02*
G75*
G03*
X12750000Y-4318000I-50000J0D01*
G01*
D11*
X11304777Y-8901684D02*
X11304777Y-8701684D01*
X11304777Y-8701684D02*
X11352396Y-8701684D01*
X11352396Y-8701684D02*
X11380967Y-8711208D01*
X11380967Y-8711208D02*
X11400015Y-8730255D01*
X11400015Y-8730255D02*
X11409539Y-8749303D01*
X11409539Y-8749303D02*
X11419062Y-8787398D01*
X11419062Y-8787398D02*
X11419062Y-8815970D01*
X11419062Y-8815970D02*
X11409539Y-8854065D01*
X11409539Y-8854065D02*
X11400015Y-8873112D01*
X11400015Y-8873112D02*
X11380967Y-8892160D01*
X11380967Y-8892160D02*
X11352396Y-8901684D01*
X11352396Y-8901684D02*
X11304777Y-8901684D01*
X11504777Y-8901684D02*
X11504777Y-8768350D01*
X11504777Y-8806446D02*
X11514301Y-8787398D01*
X11514301Y-8787398D02*
X11523824Y-8777874D01*
X11523824Y-8777874D02*
X11542872Y-8768350D01*
X11542872Y-8768350D02*
X11561920Y-8768350D01*
X11628586Y-8901684D02*
X11628586Y-8768350D01*
X11628586Y-8701684D02*
X11619062Y-8711208D01*
X11619062Y-8711208D02*
X11628586Y-8720731D01*
X11628586Y-8720731D02*
X11638110Y-8711208D01*
X11638110Y-8711208D02*
X11628586Y-8701684D01*
X11628586Y-8701684D02*
X11628586Y-8720731D01*
X11752396Y-8901684D02*
X11733348Y-8892160D01*
X11733348Y-8892160D02*
X11723824Y-8873112D01*
X11723824Y-8873112D02*
X11723824Y-8701684D01*
X11857158Y-8901684D02*
X11838110Y-8892160D01*
X11838110Y-8892160D02*
X11828586Y-8873112D01*
X11828586Y-8873112D02*
X11828586Y-8701684D01*
X12085729Y-8901684D02*
X12085729Y-8701684D01*
X12085729Y-8701684D02*
X12152396Y-8844541D01*
X12152396Y-8844541D02*
X12219062Y-8701684D01*
X12219062Y-8701684D02*
X12219062Y-8901684D01*
X12400015Y-8901684D02*
X12400015Y-8796922D01*
X12400015Y-8796922D02*
X12390491Y-8777874D01*
X12390491Y-8777874D02*
X12371443Y-8768350D01*
X12371443Y-8768350D02*
X12333348Y-8768350D01*
X12333348Y-8768350D02*
X12314301Y-8777874D01*
X12400015Y-8892160D02*
X12380967Y-8901684D01*
X12380967Y-8901684D02*
X12333348Y-8901684D01*
X12333348Y-8901684D02*
X12314301Y-8892160D01*
X12314301Y-8892160D02*
X12304777Y-8873112D01*
X12304777Y-8873112D02*
X12304777Y-8854065D01*
X12304777Y-8854065D02*
X12314301Y-8835017D01*
X12314301Y-8835017D02*
X12333348Y-8825493D01*
X12333348Y-8825493D02*
X12380967Y-8825493D01*
X12380967Y-8825493D02*
X12400015Y-8815970D01*
X12495253Y-8768350D02*
X12495253Y-8968350D01*
X12495253Y-8777874D02*
X12514301Y-8768350D01*
X12514301Y-8768350D02*
X12552396Y-8768350D01*
X12552396Y-8768350D02*
X12571443Y-8777874D01*
X12571443Y-8777874D02*
X12580967Y-8787398D01*
X12580967Y-8787398D02*
X12590491Y-8806446D01*
X12590491Y-8806446D02*
X12590491Y-8863589D01*
X12590491Y-8863589D02*
X12580967Y-8882636D01*
X12580967Y-8882636D02*
X12571443Y-8892160D01*
X12571443Y-8892160D02*
X12552396Y-8901684D01*
X12552396Y-8901684D02*
X12514301Y-8901684D01*
X12514301Y-8901684D02*
X12495253Y-8892160D01*
X12676205Y-8882636D02*
X12685729Y-8892160D01*
X12685729Y-8892160D02*
X12676205Y-8901684D01*
X12676205Y-8901684D02*
X12666682Y-8892160D01*
X12666682Y-8892160D02*
X12676205Y-8882636D01*
X12676205Y-8882636D02*
X12676205Y-8901684D01*
X12676205Y-8777874D02*
X12685729Y-8787398D01*
X12685729Y-8787398D02*
X12676205Y-8796922D01*
X12676205Y-8796922D02*
X12666682Y-8787398D01*
X12666682Y-8787398D02*
X12676205Y-8777874D01*
X12676205Y-8777874D02*
X12676205Y-8796922D01*
D10*
X11004000Y-9210200D02*
X11044000Y-9250200D01*
X11044000Y-9210200D02*
X11004000Y-9250200D01*
D11*
X11342872Y-9121684D02*
X11361920Y-9121684D01*
X11361920Y-9121684D02*
X11380967Y-9131208D01*
X11380967Y-9131208D02*
X11390491Y-9140731D01*
X11390491Y-9140731D02*
X11400015Y-9159779D01*
X11400015Y-9159779D02*
X11409539Y-9197874D01*
X11409539Y-9197874D02*
X11409539Y-9245493D01*
X11409539Y-9245493D02*
X11400015Y-9283589D01*
X11400015Y-9283589D02*
X11390491Y-9302636D01*
X11390491Y-9302636D02*
X11380967Y-9312160D01*
X11380967Y-9312160D02*
X11361920Y-9321684D01*
X11361920Y-9321684D02*
X11342872Y-9321684D01*
X11342872Y-9321684D02*
X11323824Y-9312160D01*
X11323824Y-9312160D02*
X11314301Y-9302636D01*
X11314301Y-9302636D02*
X11304777Y-9283589D01*
X11304777Y-9283589D02*
X11295253Y-9245493D01*
X11295253Y-9245493D02*
X11295253Y-9197874D01*
X11295253Y-9197874D02*
X11304777Y-9159779D01*
X11304777Y-9159779D02*
X11314301Y-9140731D01*
X11314301Y-9140731D02*
X11323824Y-9131208D01*
X11323824Y-9131208D02*
X11342872Y-9121684D01*
X11495253Y-9302636D02*
X11504777Y-9312160D01*
X11504777Y-9312160D02*
X11495253Y-9321684D01*
X11495253Y-9321684D02*
X11485729Y-9312160D01*
X11485729Y-9312160D02*
X11495253Y-9302636D01*
X11495253Y-9302636D02*
X11495253Y-9321684D01*
X11676205Y-9188350D02*
X11676205Y-9321684D01*
X11628586Y-9112160D02*
X11580967Y-9255017D01*
X11580967Y-9255017D02*
X11704777Y-9255017D01*
X11819062Y-9121684D02*
X11838110Y-9121684D01*
X11838110Y-9121684D02*
X11857158Y-9131208D01*
X11857158Y-9131208D02*
X11866682Y-9140731D01*
X11866682Y-9140731D02*
X11876205Y-9159779D01*
X11876205Y-9159779D02*
X11885729Y-9197874D01*
X11885729Y-9197874D02*
X11885729Y-9245493D01*
X11885729Y-9245493D02*
X11876205Y-9283589D01*
X11876205Y-9283589D02*
X11866682Y-9302636D01*
X11866682Y-9302636D02*
X11857158Y-9312160D01*
X11857158Y-9312160D02*
X11838110Y-9321684D01*
X11838110Y-9321684D02*
X11819062Y-9321684D01*
X11819062Y-9321684D02*
X11800015Y-9312160D01*
X11800015Y-9312160D02*
X11790491Y-9302636D01*
X11790491Y-9302636D02*
X11780967Y-9283589D01*
X11780967Y-9283589D02*
X11771443Y-9245493D01*
X11771443Y-9245493D02*
X11771443Y-9197874D01*
X11771443Y-9197874D02*
X11780967Y-9159779D01*
X11780967Y-9159779D02*
X11790491Y-9140731D01*
X11790491Y-9140731D02*
X11800015Y-9131208D01*
X11800015Y-9131208D02*
X11819062Y-9121684D01*
X12009539Y-9121684D02*
X12028586Y-9121684D01*
X12028586Y-9121684D02*
X12047634Y-9131208D01*
X12047634Y-9131208D02*
X12057158Y-9140731D01*
X12057158Y-9140731D02*
X12066682Y-9159779D01*
X12066682Y-9159779D02*
X12076205Y-9197874D01*
X12076205Y-9197874D02*
X12076205Y-9245493D01*
X12076205Y-9245493D02*
X12066682Y-9283589D01*
X12066682Y-9283589D02*
X12057158Y-9302636D01*
X12057158Y-9302636D02*
X12047634Y-9312160D01*
X12047634Y-9312160D02*
X12028586Y-9321684D01*
X12028586Y-9321684D02*
X12009539Y-9321684D01*
X12009539Y-9321684D02*
X11990491Y-9312160D01*
X11990491Y-9312160D02*
X11980967Y-9302636D01*
X11980967Y-9302636D02*
X11971443Y-9283589D01*
X11971443Y-9283589D02*
X11961920Y-9245493D01*
X11961920Y-9245493D02*
X11961920Y-9197874D01*
X11961920Y-9197874D02*
X11971443Y-9159779D01*
X11971443Y-9159779D02*
X11980967Y-9140731D01*
X11980967Y-9140731D02*
X11990491Y-9131208D01*
X11990491Y-9131208D02*
X12009539Y-9121684D01*
X12161920Y-9321684D02*
X12161920Y-9188350D01*
X12161920Y-9207398D02*
X12171443Y-9197874D01*
X12171443Y-9197874D02*
X12190491Y-9188350D01*
X12190491Y-9188350D02*
X12219063Y-9188350D01*
X12219063Y-9188350D02*
X12238110Y-9197874D01*
X12238110Y-9197874D02*
X12247634Y-9216922D01*
X12247634Y-9216922D02*
X12247634Y-9321684D01*
X12247634Y-9216922D02*
X12257158Y-9197874D01*
X12257158Y-9197874D02*
X12276205Y-9188350D01*
X12276205Y-9188350D02*
X12304777Y-9188350D01*
X12304777Y-9188350D02*
X12323824Y-9197874D01*
X12323824Y-9197874D02*
X12333348Y-9216922D01*
X12333348Y-9216922D02*
X12333348Y-9321684D01*
X12428586Y-9321684D02*
X12428586Y-9188350D01*
X12428586Y-9207398D02*
X12438110Y-9197874D01*
X12438110Y-9197874D02*
X12457158Y-9188350D01*
X12457158Y-9188350D02*
X12485729Y-9188350D01*
X12485729Y-9188350D02*
X12504777Y-9197874D01*
X12504777Y-9197874D02*
X12514301Y-9216922D01*
X12514301Y-9216922D02*
X12514301Y-9321684D01*
X12514301Y-9216922D02*
X12523824Y-9197874D01*
X12523824Y-9197874D02*
X12542872Y-9188350D01*
X12542872Y-9188350D02*
X12571443Y-9188350D01*
X12571443Y-9188350D02*
X12590491Y-9197874D01*
X12590491Y-9197874D02*
X12600015Y-9216922D01*
X12600015Y-9216922D02*
X12600015Y-9321684D01*
X12990491Y-9112160D02*
X12819063Y-9369303D01*
X13247634Y-9121684D02*
X13266682Y-9121684D01*
X13266682Y-9121684D02*
X13285729Y-9131208D01*
X13285729Y-9131208D02*
X13295253Y-9140731D01*
X13295253Y-9140731D02*
X13304777Y-9159779D01*
X13304777Y-9159779D02*
X13314301Y-9197874D01*
X13314301Y-9197874D02*
X13314301Y-9245493D01*
X13314301Y-9245493D02*
X13304777Y-9283589D01*
X13304777Y-9283589D02*
X13295253Y-9302636D01*
X13295253Y-9302636D02*
X13285729Y-9312160D01*
X13285729Y-9312160D02*
X13266682Y-9321684D01*
X13266682Y-9321684D02*
X13247634Y-9321684D01*
X13247634Y-9321684D02*
X13228586Y-9312160D01*
X13228586Y-9312160D02*
X13219063Y-9302636D01*
X13219063Y-9302636D02*
X13209539Y-9283589D01*
X13209539Y-9283589D02*
X13200015Y-9245493D01*
X13200015Y-9245493D02*
X13200015Y-9197874D01*
X13200015Y-9197874D02*
X13209539Y-9159779D01*
X13209539Y-9159779D02*
X13219063Y-9140731D01*
X13219063Y-9140731D02*
X13228586Y-9131208D01*
X13228586Y-9131208D02*
X13247634Y-9121684D01*
X13400015Y-9302636D02*
X13409539Y-9312160D01*
X13409539Y-9312160D02*
X13400015Y-9321684D01*
X13400015Y-9321684D02*
X13390491Y-9312160D01*
X13390491Y-9312160D02*
X13400015Y-9302636D01*
X13400015Y-9302636D02*
X13400015Y-9321684D01*
X13533348Y-9121684D02*
X13552396Y-9121684D01*
X13552396Y-9121684D02*
X13571444Y-9131208D01*
X13571444Y-9131208D02*
X13580967Y-9140731D01*
X13580967Y-9140731D02*
X13590491Y-9159779D01*
X13590491Y-9159779D02*
X13600015Y-9197874D01*
X13600015Y-9197874D02*
X13600015Y-9245493D01*
X13600015Y-9245493D02*
X13590491Y-9283589D01*
X13590491Y-9283589D02*
X13580967Y-9302636D01*
X13580967Y-9302636D02*
X13571444Y-9312160D01*
X13571444Y-9312160D02*
X13552396Y-9321684D01*
X13552396Y-9321684D02*
X13533348Y-9321684D01*
X13533348Y-9321684D02*
X13514301Y-9312160D01*
X13514301Y-9312160D02*
X13504777Y-9302636D01*
X13504777Y-9302636D02*
X13495253Y-9283589D01*
X13495253Y-9283589D02*
X13485729Y-9245493D01*
X13485729Y-9245493D02*
X13485729Y-9197874D01*
X13485729Y-9197874D02*
X13495253Y-9159779D01*
X13495253Y-9159779D02*
X13504777Y-9140731D01*
X13504777Y-9140731D02*
X13514301Y-9131208D01*
X13514301Y-9131208D02*
X13533348Y-9121684D01*
X13790491Y-9321684D02*
X13676206Y-9321684D01*
X13733348Y-9321684D02*
X13733348Y-9121684D01*
X13733348Y-9121684D02*
X13714301Y-9150255D01*
X13714301Y-9150255D02*
X13695253Y-9169303D01*
X13695253Y-9169303D02*
X13676206Y-9178827D01*
X13971444Y-9121684D02*
X13876206Y-9121684D01*
X13876206Y-9121684D02*
X13866682Y-9216922D01*
X13866682Y-9216922D02*
X13876206Y-9207398D01*
X13876206Y-9207398D02*
X13895253Y-9197874D01*
X13895253Y-9197874D02*
X13942872Y-9197874D01*
X13942872Y-9197874D02*
X13961920Y-9207398D01*
X13961920Y-9207398D02*
X13971444Y-9216922D01*
X13971444Y-9216922D02*
X13980967Y-9235970D01*
X13980967Y-9235970D02*
X13980967Y-9283589D01*
X13980967Y-9283589D02*
X13971444Y-9302636D01*
X13971444Y-9302636D02*
X13961920Y-9312160D01*
X13961920Y-9312160D02*
X13942872Y-9321684D01*
X13942872Y-9321684D02*
X13895253Y-9321684D01*
X13895253Y-9321684D02*
X13876206Y-9312160D01*
X13876206Y-9312160D02*
X13866682Y-9302636D01*
X14047634Y-9121684D02*
X14180967Y-9121684D01*
X14180967Y-9121684D02*
X14095253Y-9321684D01*
X14247634Y-9121684D02*
X14247634Y-9159779D01*
X14323825Y-9121684D02*
X14323825Y-9159779D01*
X14619063Y-9397874D02*
X14609539Y-9388350D01*
X14609539Y-9388350D02*
X14590491Y-9359779D01*
X14590491Y-9359779D02*
X14580968Y-9340731D01*
X14580968Y-9340731D02*
X14571444Y-9312160D01*
X14571444Y-9312160D02*
X14561920Y-9264541D01*
X14561920Y-9264541D02*
X14561920Y-9226446D01*
X14561920Y-9226446D02*
X14571444Y-9178827D01*
X14571444Y-9178827D02*
X14580968Y-9150255D01*
X14580968Y-9150255D02*
X14590491Y-9131208D01*
X14590491Y-9131208D02*
X14609539Y-9102636D01*
X14609539Y-9102636D02*
X14619063Y-9093112D01*
X14676206Y-9121684D02*
X14800015Y-9121684D01*
X14800015Y-9121684D02*
X14733348Y-9197874D01*
X14733348Y-9197874D02*
X14761920Y-9197874D01*
X14761920Y-9197874D02*
X14780968Y-9207398D01*
X14780968Y-9207398D02*
X14790491Y-9216922D01*
X14790491Y-9216922D02*
X14800015Y-9235970D01*
X14800015Y-9235970D02*
X14800015Y-9283589D01*
X14800015Y-9283589D02*
X14790491Y-9302636D01*
X14790491Y-9302636D02*
X14780968Y-9312160D01*
X14780968Y-9312160D02*
X14761920Y-9321684D01*
X14761920Y-9321684D02*
X14704777Y-9321684D01*
X14704777Y-9321684D02*
X14685729Y-9312160D01*
X14685729Y-9312160D02*
X14676206Y-9302636D01*
X14980968Y-9121684D02*
X14885729Y-9121684D01*
X14885729Y-9121684D02*
X14876206Y-9216922D01*
X14876206Y-9216922D02*
X14885729Y-9207398D01*
X14885729Y-9207398D02*
X14904777Y-9197874D01*
X14904777Y-9197874D02*
X14952396Y-9197874D01*
X14952396Y-9197874D02*
X14971444Y-9207398D01*
X14971444Y-9207398D02*
X14980968Y-9216922D01*
X14980968Y-9216922D02*
X14990491Y-9235970D01*
X14990491Y-9235970D02*
X14990491Y-9283589D01*
X14990491Y-9283589D02*
X14980968Y-9302636D01*
X14980968Y-9302636D02*
X14971444Y-9312160D01*
X14971444Y-9312160D02*
X14952396Y-9321684D01*
X14952396Y-9321684D02*
X14904777Y-9321684D01*
X14904777Y-9321684D02*
X14885729Y-9312160D01*
X14885729Y-9312160D02*
X14876206Y-9302636D01*
X15228587Y-9321684D02*
X15228587Y-9121684D01*
X15314301Y-9321684D02*
X15314301Y-9216922D01*
X15314301Y-9216922D02*
X15304777Y-9197874D01*
X15304777Y-9197874D02*
X15285730Y-9188350D01*
X15285730Y-9188350D02*
X15257158Y-9188350D01*
X15257158Y-9188350D02*
X15238110Y-9197874D01*
X15238110Y-9197874D02*
X15228587Y-9207398D01*
X15438110Y-9321684D02*
X15419063Y-9312160D01*
X15419063Y-9312160D02*
X15409539Y-9302636D01*
X15409539Y-9302636D02*
X15400015Y-9283589D01*
X15400015Y-9283589D02*
X15400015Y-9226446D01*
X15400015Y-9226446D02*
X15409539Y-9207398D01*
X15409539Y-9207398D02*
X15419063Y-9197874D01*
X15419063Y-9197874D02*
X15438110Y-9188350D01*
X15438110Y-9188350D02*
X15466682Y-9188350D01*
X15466682Y-9188350D02*
X15485730Y-9197874D01*
X15485730Y-9197874D02*
X15495253Y-9207398D01*
X15495253Y-9207398D02*
X15504777Y-9226446D01*
X15504777Y-9226446D02*
X15504777Y-9283589D01*
X15504777Y-9283589D02*
X15495253Y-9302636D01*
X15495253Y-9302636D02*
X15485730Y-9312160D01*
X15485730Y-9312160D02*
X15466682Y-9321684D01*
X15466682Y-9321684D02*
X15438110Y-9321684D01*
X15619063Y-9321684D02*
X15600015Y-9312160D01*
X15600015Y-9312160D02*
X15590491Y-9293112D01*
X15590491Y-9293112D02*
X15590491Y-9121684D01*
X15771444Y-9312160D02*
X15752396Y-9321684D01*
X15752396Y-9321684D02*
X15714301Y-9321684D01*
X15714301Y-9321684D02*
X15695253Y-9312160D01*
X15695253Y-9312160D02*
X15685730Y-9293112D01*
X15685730Y-9293112D02*
X15685730Y-9216922D01*
X15685730Y-9216922D02*
X15695253Y-9197874D01*
X15695253Y-9197874D02*
X15714301Y-9188350D01*
X15714301Y-9188350D02*
X15752396Y-9188350D01*
X15752396Y-9188350D02*
X15771444Y-9197874D01*
X15771444Y-9197874D02*
X15780968Y-9216922D01*
X15780968Y-9216922D02*
X15780968Y-9235970D01*
X15780968Y-9235970D02*
X15685730Y-9255017D01*
X15857158Y-9312160D02*
X15876206Y-9321684D01*
X15876206Y-9321684D02*
X15914301Y-9321684D01*
X15914301Y-9321684D02*
X15933349Y-9312160D01*
X15933349Y-9312160D02*
X15942872Y-9293112D01*
X15942872Y-9293112D02*
X15942872Y-9283589D01*
X15942872Y-9283589D02*
X15933349Y-9264541D01*
X15933349Y-9264541D02*
X15914301Y-9255017D01*
X15914301Y-9255017D02*
X15885730Y-9255017D01*
X15885730Y-9255017D02*
X15866682Y-9245493D01*
X15866682Y-9245493D02*
X15857158Y-9226446D01*
X15857158Y-9226446D02*
X15857158Y-9216922D01*
X15857158Y-9216922D02*
X15866682Y-9197874D01*
X15866682Y-9197874D02*
X15885730Y-9188350D01*
X15885730Y-9188350D02*
X15914301Y-9188350D01*
X15914301Y-9188350D02*
X15933349Y-9197874D01*
X16009539Y-9397874D02*
X16019063Y-9388350D01*
X16019063Y-9388350D02*
X16038111Y-9359779D01*
X16038111Y-9359779D02*
X16047634Y-9340731D01*
X16047634Y-9340731D02*
X16057158Y-9312160D01*
X16057158Y-9312160D02*
X16066682Y-9264541D01*
X16066682Y-9264541D02*
X16066682Y-9226446D01*
X16066682Y-9226446D02*
X16057158Y-9178827D01*
X16057158Y-9178827D02*
X16047634Y-9150255D01*
X16047634Y-9150255D02*
X16038111Y-9131208D01*
X16038111Y-9131208D02*
X16019063Y-9102636D01*
X16019063Y-9102636D02*
X16009539Y-9093112D01*
D10*
X11044000Y-9494200D02*
G75*
G03*
X11044000Y-9494200I-50000J0D01*
G01*
D11*
X11409539Y-9585684D02*
X11295253Y-9585684D01*
X11352396Y-9585684D02*
X11352396Y-9385684D01*
X11352396Y-9385684D02*
X11333348Y-9414255D01*
X11333348Y-9414255D02*
X11314301Y-9433303D01*
X11314301Y-9433303D02*
X11295253Y-9442827D01*
X11495253Y-9566636D02*
X11504777Y-9576160D01*
X11504777Y-9576160D02*
X11495253Y-9585684D01*
X11495253Y-9585684D02*
X11485729Y-9576160D01*
X11485729Y-9576160D02*
X11495253Y-9566636D01*
X11495253Y-9566636D02*
X11495253Y-9585684D01*
X11628586Y-9385684D02*
X11647634Y-9385684D01*
X11647634Y-9385684D02*
X11666682Y-9395208D01*
X11666682Y-9395208D02*
X11676205Y-9404731D01*
X11676205Y-9404731D02*
X11685729Y-9423779D01*
X11685729Y-9423779D02*
X11695253Y-9461874D01*
X11695253Y-9461874D02*
X11695253Y-9509493D01*
X11695253Y-9509493D02*
X11685729Y-9547589D01*
X11685729Y-9547589D02*
X11676205Y-9566636D01*
X11676205Y-9566636D02*
X11666682Y-9576160D01*
X11666682Y-9576160D02*
X11647634Y-9585684D01*
X11647634Y-9585684D02*
X11628586Y-9585684D01*
X11628586Y-9585684D02*
X11609539Y-9576160D01*
X11609539Y-9576160D02*
X11600015Y-9566636D01*
X11600015Y-9566636D02*
X11590491Y-9547589D01*
X11590491Y-9547589D02*
X11580967Y-9509493D01*
X11580967Y-9509493D02*
X11580967Y-9461874D01*
X11580967Y-9461874D02*
X11590491Y-9423779D01*
X11590491Y-9423779D02*
X11600015Y-9404731D01*
X11600015Y-9404731D02*
X11609539Y-9395208D01*
X11609539Y-9395208D02*
X11628586Y-9385684D01*
X11819062Y-9385684D02*
X11838110Y-9385684D01*
X11838110Y-9385684D02*
X11857158Y-9395208D01*
X11857158Y-9395208D02*
X11866682Y-9404731D01*
X11866682Y-9404731D02*
X11876205Y-9423779D01*
X11876205Y-9423779D02*
X11885729Y-9461874D01*
X11885729Y-9461874D02*
X11885729Y-9509493D01*
X11885729Y-9509493D02*
X11876205Y-9547589D01*
X11876205Y-9547589D02*
X11866682Y-9566636D01*
X11866682Y-9566636D02*
X11857158Y-9576160D01*
X11857158Y-9576160D02*
X11838110Y-9585684D01*
X11838110Y-9585684D02*
X11819062Y-9585684D01*
X11819062Y-9585684D02*
X11800015Y-9576160D01*
X11800015Y-9576160D02*
X11790491Y-9566636D01*
X11790491Y-9566636D02*
X11780967Y-9547589D01*
X11780967Y-9547589D02*
X11771443Y-9509493D01*
X11771443Y-9509493D02*
X11771443Y-9461874D01*
X11771443Y-9461874D02*
X11780967Y-9423779D01*
X11780967Y-9423779D02*
X11790491Y-9404731D01*
X11790491Y-9404731D02*
X11800015Y-9395208D01*
X11800015Y-9395208D02*
X11819062Y-9385684D01*
X12009539Y-9385684D02*
X12028586Y-9385684D01*
X12028586Y-9385684D02*
X12047634Y-9395208D01*
X12047634Y-9395208D02*
X12057158Y-9404731D01*
X12057158Y-9404731D02*
X12066682Y-9423779D01*
X12066682Y-9423779D02*
X12076205Y-9461874D01*
X12076205Y-9461874D02*
X12076205Y-9509493D01*
X12076205Y-9509493D02*
X12066682Y-9547589D01*
X12066682Y-9547589D02*
X12057158Y-9566636D01*
X12057158Y-9566636D02*
X12047634Y-9576160D01*
X12047634Y-9576160D02*
X12028586Y-9585684D01*
X12028586Y-9585684D02*
X12009539Y-9585684D01*
X12009539Y-9585684D02*
X11990491Y-9576160D01*
X11990491Y-9576160D02*
X11980967Y-9566636D01*
X11980967Y-9566636D02*
X11971443Y-9547589D01*
X11971443Y-9547589D02*
X11961920Y-9509493D01*
X11961920Y-9509493D02*
X11961920Y-9461874D01*
X11961920Y-9461874D02*
X11971443Y-9423779D01*
X11971443Y-9423779D02*
X11980967Y-9404731D01*
X11980967Y-9404731D02*
X11990491Y-9395208D01*
X11990491Y-9395208D02*
X12009539Y-9385684D01*
X12161920Y-9585684D02*
X12161920Y-9452350D01*
X12161920Y-9471398D02*
X12171443Y-9461874D01*
X12171443Y-9461874D02*
X12190491Y-9452350D01*
X12190491Y-9452350D02*
X12219063Y-9452350D01*
X12219063Y-9452350D02*
X12238110Y-9461874D01*
X12238110Y-9461874D02*
X12247634Y-9480922D01*
X12247634Y-9480922D02*
X12247634Y-9585684D01*
X12247634Y-9480922D02*
X12257158Y-9461874D01*
X12257158Y-9461874D02*
X12276205Y-9452350D01*
X12276205Y-9452350D02*
X12304777Y-9452350D01*
X12304777Y-9452350D02*
X12323824Y-9461874D01*
X12323824Y-9461874D02*
X12333348Y-9480922D01*
X12333348Y-9480922D02*
X12333348Y-9585684D01*
X12428586Y-9585684D02*
X12428586Y-9452350D01*
X12428586Y-9471398D02*
X12438110Y-9461874D01*
X12438110Y-9461874D02*
X12457158Y-9452350D01*
X12457158Y-9452350D02*
X12485729Y-9452350D01*
X12485729Y-9452350D02*
X12504777Y-9461874D01*
X12504777Y-9461874D02*
X12514301Y-9480922D01*
X12514301Y-9480922D02*
X12514301Y-9585684D01*
X12514301Y-9480922D02*
X12523824Y-9461874D01*
X12523824Y-9461874D02*
X12542872Y-9452350D01*
X12542872Y-9452350D02*
X12571443Y-9452350D01*
X12571443Y-9452350D02*
X12590491Y-9461874D01*
X12590491Y-9461874D02*
X12600015Y-9480922D01*
X12600015Y-9480922D02*
X12600015Y-9585684D01*
X12990491Y-9376160D02*
X12819063Y-9633303D01*
X13247634Y-9385684D02*
X13266682Y-9385684D01*
X13266682Y-9385684D02*
X13285729Y-9395208D01*
X13285729Y-9395208D02*
X13295253Y-9404731D01*
X13295253Y-9404731D02*
X13304777Y-9423779D01*
X13304777Y-9423779D02*
X13314301Y-9461874D01*
X13314301Y-9461874D02*
X13314301Y-9509493D01*
X13314301Y-9509493D02*
X13304777Y-9547589D01*
X13304777Y-9547589D02*
X13295253Y-9566636D01*
X13295253Y-9566636D02*
X13285729Y-9576160D01*
X13285729Y-9576160D02*
X13266682Y-9585684D01*
X13266682Y-9585684D02*
X13247634Y-9585684D01*
X13247634Y-9585684D02*
X13228586Y-9576160D01*
X13228586Y-9576160D02*
X13219063Y-9566636D01*
X13219063Y-9566636D02*
X13209539Y-9547589D01*
X13209539Y-9547589D02*
X13200015Y-9509493D01*
X13200015Y-9509493D02*
X13200015Y-9461874D01*
X13200015Y-9461874D02*
X13209539Y-9423779D01*
X13209539Y-9423779D02*
X13219063Y-9404731D01*
X13219063Y-9404731D02*
X13228586Y-9395208D01*
X13228586Y-9395208D02*
X13247634Y-9385684D01*
X13400015Y-9566636D02*
X13409539Y-9576160D01*
X13409539Y-9576160D02*
X13400015Y-9585684D01*
X13400015Y-9585684D02*
X13390491Y-9576160D01*
X13390491Y-9576160D02*
X13400015Y-9566636D01*
X13400015Y-9566636D02*
X13400015Y-9585684D01*
X13533348Y-9385684D02*
X13552396Y-9385684D01*
X13552396Y-9385684D02*
X13571444Y-9395208D01*
X13571444Y-9395208D02*
X13580967Y-9404731D01*
X13580967Y-9404731D02*
X13590491Y-9423779D01*
X13590491Y-9423779D02*
X13600015Y-9461874D01*
X13600015Y-9461874D02*
X13600015Y-9509493D01*
X13600015Y-9509493D02*
X13590491Y-9547589D01*
X13590491Y-9547589D02*
X13580967Y-9566636D01*
X13580967Y-9566636D02*
X13571444Y-9576160D01*
X13571444Y-9576160D02*
X13552396Y-9585684D01*
X13552396Y-9585684D02*
X13533348Y-9585684D01*
X13533348Y-9585684D02*
X13514301Y-9576160D01*
X13514301Y-9576160D02*
X13504777Y-9566636D01*
X13504777Y-9566636D02*
X13495253Y-9547589D01*
X13495253Y-9547589D02*
X13485729Y-9509493D01*
X13485729Y-9509493D02*
X13485729Y-9461874D01*
X13485729Y-9461874D02*
X13495253Y-9423779D01*
X13495253Y-9423779D02*
X13504777Y-9404731D01*
X13504777Y-9404731D02*
X13514301Y-9395208D01*
X13514301Y-9395208D02*
X13533348Y-9385684D01*
X13666682Y-9385684D02*
X13790491Y-9385684D01*
X13790491Y-9385684D02*
X13723825Y-9461874D01*
X13723825Y-9461874D02*
X13752396Y-9461874D01*
X13752396Y-9461874D02*
X13771444Y-9471398D01*
X13771444Y-9471398D02*
X13780967Y-9480922D01*
X13780967Y-9480922D02*
X13790491Y-9499970D01*
X13790491Y-9499970D02*
X13790491Y-9547589D01*
X13790491Y-9547589D02*
X13780967Y-9566636D01*
X13780967Y-9566636D02*
X13771444Y-9576160D01*
X13771444Y-9576160D02*
X13752396Y-9585684D01*
X13752396Y-9585684D02*
X13695253Y-9585684D01*
X13695253Y-9585684D02*
X13676206Y-9576160D01*
X13676206Y-9576160D02*
X13666682Y-9566636D01*
X13885729Y-9585684D02*
X13923825Y-9585684D01*
X13923825Y-9585684D02*
X13942872Y-9576160D01*
X13942872Y-9576160D02*
X13952396Y-9566636D01*
X13952396Y-9566636D02*
X13971444Y-9538065D01*
X13971444Y-9538065D02*
X13980967Y-9499970D01*
X13980967Y-9499970D02*
X13980967Y-9423779D01*
X13980967Y-9423779D02*
X13971444Y-9404731D01*
X13971444Y-9404731D02*
X13961920Y-9395208D01*
X13961920Y-9395208D02*
X13942872Y-9385684D01*
X13942872Y-9385684D02*
X13904777Y-9385684D01*
X13904777Y-9385684D02*
X13885729Y-9395208D01*
X13885729Y-9395208D02*
X13876206Y-9404731D01*
X13876206Y-9404731D02*
X13866682Y-9423779D01*
X13866682Y-9423779D02*
X13866682Y-9471398D01*
X13866682Y-9471398D02*
X13876206Y-9490446D01*
X13876206Y-9490446D02*
X13885729Y-9499970D01*
X13885729Y-9499970D02*
X13904777Y-9509493D01*
X13904777Y-9509493D02*
X13942872Y-9509493D01*
X13942872Y-9509493D02*
X13961920Y-9499970D01*
X13961920Y-9499970D02*
X13971444Y-9490446D01*
X13971444Y-9490446D02*
X13980967Y-9471398D01*
X14152396Y-9452350D02*
X14152396Y-9585684D01*
X14104777Y-9376160D02*
X14057158Y-9519017D01*
X14057158Y-9519017D02*
X14180967Y-9519017D01*
X14247634Y-9385684D02*
X14247634Y-9423779D01*
X14323825Y-9385684D02*
X14323825Y-9423779D01*
X14619063Y-9661874D02*
X14609539Y-9652350D01*
X14609539Y-9652350D02*
X14590491Y-9623779D01*
X14590491Y-9623779D02*
X14580968Y-9604731D01*
X14580968Y-9604731D02*
X14571444Y-9576160D01*
X14571444Y-9576160D02*
X14561920Y-9528541D01*
X14561920Y-9528541D02*
X14561920Y-9490446D01*
X14561920Y-9490446D02*
X14571444Y-9442827D01*
X14571444Y-9442827D02*
X14580968Y-9414255D01*
X14580968Y-9414255D02*
X14590491Y-9395208D01*
X14590491Y-9395208D02*
X14609539Y-9366636D01*
X14609539Y-9366636D02*
X14619063Y-9357112D01*
X14800015Y-9585684D02*
X14685729Y-9585684D01*
X14742872Y-9585684D02*
X14742872Y-9385684D01*
X14742872Y-9385684D02*
X14723825Y-9414255D01*
X14723825Y-9414255D02*
X14704777Y-9433303D01*
X14704777Y-9433303D02*
X14685729Y-9442827D01*
X14980968Y-9385684D02*
X14885729Y-9385684D01*
X14885729Y-9385684D02*
X14876206Y-9480922D01*
X14876206Y-9480922D02*
X14885729Y-9471398D01*
X14885729Y-9471398D02*
X14904777Y-9461874D01*
X14904777Y-9461874D02*
X14952396Y-9461874D01*
X14952396Y-9461874D02*
X14971444Y-9471398D01*
X14971444Y-9471398D02*
X14980968Y-9480922D01*
X14980968Y-9480922D02*
X14990491Y-9499970D01*
X14990491Y-9499970D02*
X14990491Y-9547589D01*
X14990491Y-9547589D02*
X14980968Y-9566636D01*
X14980968Y-9566636D02*
X14971444Y-9576160D01*
X14971444Y-9576160D02*
X14952396Y-9585684D01*
X14952396Y-9585684D02*
X14904777Y-9585684D01*
X14904777Y-9585684D02*
X14885729Y-9576160D01*
X14885729Y-9576160D02*
X14876206Y-9566636D01*
X15228587Y-9585684D02*
X15228587Y-9385684D01*
X15314301Y-9585684D02*
X15314301Y-9480922D01*
X15314301Y-9480922D02*
X15304777Y-9461874D01*
X15304777Y-9461874D02*
X15285730Y-9452350D01*
X15285730Y-9452350D02*
X15257158Y-9452350D01*
X15257158Y-9452350D02*
X15238110Y-9461874D01*
X15238110Y-9461874D02*
X15228587Y-9471398D01*
X15438110Y-9585684D02*
X15419063Y-9576160D01*
X15419063Y-9576160D02*
X15409539Y-9566636D01*
X15409539Y-9566636D02*
X15400015Y-9547589D01*
X15400015Y-9547589D02*
X15400015Y-9490446D01*
X15400015Y-9490446D02*
X15409539Y-9471398D01*
X15409539Y-9471398D02*
X15419063Y-9461874D01*
X15419063Y-9461874D02*
X15438110Y-9452350D01*
X15438110Y-9452350D02*
X15466682Y-9452350D01*
X15466682Y-9452350D02*
X15485730Y-9461874D01*
X15485730Y-9461874D02*
X15495253Y-9471398D01*
X15495253Y-9471398D02*
X15504777Y-9490446D01*
X15504777Y-9490446D02*
X15504777Y-9547589D01*
X15504777Y-9547589D02*
X15495253Y-9566636D01*
X15495253Y-9566636D02*
X15485730Y-9576160D01*
X15485730Y-9576160D02*
X15466682Y-9585684D01*
X15466682Y-9585684D02*
X15438110Y-9585684D01*
X15619063Y-9585684D02*
X15600015Y-9576160D01*
X15600015Y-9576160D02*
X15590491Y-9557112D01*
X15590491Y-9557112D02*
X15590491Y-9385684D01*
X15771444Y-9576160D02*
X15752396Y-9585684D01*
X15752396Y-9585684D02*
X15714301Y-9585684D01*
X15714301Y-9585684D02*
X15695253Y-9576160D01*
X15695253Y-9576160D02*
X15685730Y-9557112D01*
X15685730Y-9557112D02*
X15685730Y-9480922D01*
X15685730Y-9480922D02*
X15695253Y-9461874D01*
X15695253Y-9461874D02*
X15714301Y-9452350D01*
X15714301Y-9452350D02*
X15752396Y-9452350D01*
X15752396Y-9452350D02*
X15771444Y-9461874D01*
X15771444Y-9461874D02*
X15780968Y-9480922D01*
X15780968Y-9480922D02*
X15780968Y-9499970D01*
X15780968Y-9499970D02*
X15685730Y-9519017D01*
X15857158Y-9576160D02*
X15876206Y-9585684D01*
X15876206Y-9585684D02*
X15914301Y-9585684D01*
X15914301Y-9585684D02*
X15933349Y-9576160D01*
X15933349Y-9576160D02*
X15942872Y-9557112D01*
X15942872Y-9557112D02*
X15942872Y-9547589D01*
X15942872Y-9547589D02*
X15933349Y-9528541D01*
X15933349Y-9528541D02*
X15914301Y-9519017D01*
X15914301Y-9519017D02*
X15885730Y-9519017D01*
X15885730Y-9519017D02*
X15866682Y-9509493D01*
X15866682Y-9509493D02*
X15857158Y-9490446D01*
X15857158Y-9490446D02*
X15857158Y-9480922D01*
X15857158Y-9480922D02*
X15866682Y-9461874D01*
X15866682Y-9461874D02*
X15885730Y-9452350D01*
X15885730Y-9452350D02*
X15914301Y-9452350D01*
X15914301Y-9452350D02*
X15933349Y-9461874D01*
X16009539Y-9661874D02*
X16019063Y-9652350D01*
X16019063Y-9652350D02*
X16038111Y-9623779D01*
X16038111Y-9623779D02*
X16047634Y-9604731D01*
X16047634Y-9604731D02*
X16057158Y-9576160D01*
X16057158Y-9576160D02*
X16066682Y-9528541D01*
X16066682Y-9528541D02*
X16066682Y-9490446D01*
X16066682Y-9490446D02*
X16057158Y-9442827D01*
X16057158Y-9442827D02*
X16047634Y-9414255D01*
X16047634Y-9414255D02*
X16038111Y-9395208D01*
X16038111Y-9395208D02*
X16019063Y-9366636D01*
X16019063Y-9366636D02*
X16009539Y-9357112D01*
M02*
