G04 #@! TF.GenerationSoftware,KiCad,Pcbnew,7.0.9-7.0.9~ubuntu20.04.1*
G04 #@! TF.CreationDate,2023-11-16T21:07:46+01:00*
G04 #@! TF.ProjectId,kicad-pmod_i2s2,6b696361-642d-4706-9d6f-645f69327332,1.0*
G04 #@! TF.SameCoordinates,Original*
G04 #@! TF.FileFunction,Soldermask,Bot*
G04 #@! TF.FilePolarity,Negative*
%FSLAX46Y46*%
G04 Gerber Fmt 4.6, Leading zero omitted, Abs format (unit mm)*
G04 Created by KiCad (PCBNEW 7.0.9-7.0.9~ubuntu20.04.1) date 2023-11-16 21:07:46*
%MOMM*%
%LPD*%
G01*
G04 APERTURE LIST*
G04 Aperture macros list*
%AMRoundRect*
0 Rectangle with rounded corners*
0 $1 Rounding radius*
0 $2 $3 $4 $5 $6 $7 $8 $9 X,Y pos of 4 corners*
0 Add a 4 corners polygon primitive as box body*
4,1,4,$2,$3,$4,$5,$6,$7,$8,$9,$2,$3,0*
0 Add four circle primitives for the rounded corners*
1,1,$1+$1,$2,$3*
1,1,$1+$1,$4,$5*
1,1,$1+$1,$6,$7*
1,1,$1+$1,$8,$9*
0 Add four rect primitives between the rounded corners*
20,1,$1+$1,$2,$3,$4,$5,0*
20,1,$1+$1,$4,$5,$6,$7,0*
20,1,$1+$1,$6,$7,$8,$9,0*
20,1,$1+$1,$8,$9,$2,$3,0*%
G04 Aperture macros list end*
%ADD10C,1.500000*%
%ADD11R,1.700000X1.700000*%
%ADD12O,1.700000X1.700000*%
%ADD13RoundRect,0.237500X-0.237500X0.300000X-0.237500X-0.300000X0.237500X-0.300000X0.237500X0.300000X0*%
%ADD14RoundRect,0.237500X-0.300000X-0.237500X0.300000X-0.237500X0.300000X0.237500X-0.300000X0.237500X0*%
%ADD15RoundRect,0.237500X-0.237500X0.250000X-0.237500X-0.250000X0.237500X-0.250000X0.237500X0.250000X0*%
%ADD16RoundRect,0.237500X0.237500X-0.300000X0.237500X0.300000X-0.237500X0.300000X-0.237500X-0.300000X0*%
%ADD17RoundRect,0.237500X0.250000X0.237500X-0.250000X0.237500X-0.250000X-0.237500X0.250000X-0.237500X0*%
%ADD18RoundRect,0.237500X-0.250000X-0.237500X0.250000X-0.237500X0.250000X0.237500X-0.250000X0.237500X0*%
%ADD19RoundRect,0.237500X0.300000X0.237500X-0.300000X0.237500X-0.300000X-0.237500X0.300000X-0.237500X0*%
%ADD20R,0.250000X1.100000*%
%ADD21R,0.650000X1.560000*%
%ADD22RoundRect,0.237500X0.287500X0.237500X-0.287500X0.237500X-0.287500X-0.237500X0.287500X-0.237500X0*%
G04 APERTURE END LIST*
D10*
X125730000Y-84135000D03*
X125730000Y-77135000D03*
D11*
X120650000Y-55880000D03*
D12*
X120650000Y-58420000D03*
X120650000Y-60960000D03*
D11*
X127000000Y-43180000D03*
D12*
X127000000Y-40640000D03*
X124460000Y-43180000D03*
X124460000Y-40640000D03*
X121920000Y-43180000D03*
X121920000Y-40640000D03*
X119380000Y-43180000D03*
X119380000Y-40640000D03*
X116840000Y-43180000D03*
X116840000Y-40640000D03*
X114300000Y-43180000D03*
X114300000Y-40640000D03*
D10*
X115570000Y-84135000D03*
X115570000Y-77135000D03*
D13*
X117348000Y-59081500D03*
X117348000Y-60806500D03*
D14*
X122327500Y-63485000D03*
X124052500Y-63485000D03*
D15*
X129540000Y-70207500D03*
X129540000Y-72032500D03*
D16*
X115570000Y-68157500D03*
X115570000Y-66432500D03*
D13*
X129540000Y-55525500D03*
X129540000Y-57250500D03*
X115570000Y-70242500D03*
X115570000Y-71967500D03*
D17*
X121562500Y-46990000D03*
X119737500Y-46990000D03*
X116482500Y-75184000D03*
X114657500Y-75184000D03*
D14*
X113437500Y-46975000D03*
X115162500Y-46975000D03*
X113437500Y-52055000D03*
X115162500Y-52055000D03*
D18*
X123547500Y-67056000D03*
X125372500Y-67056000D03*
D14*
X111913500Y-63500000D03*
X113638500Y-63500000D03*
D13*
X127508000Y-55525500D03*
X127508000Y-57250500D03*
D14*
X126137500Y-63485000D03*
X127862500Y-63485000D03*
D19*
X117702500Y-63500000D03*
X115977500Y-63500000D03*
D20*
X112910000Y-55762000D03*
X113410000Y-55762000D03*
X113910000Y-55762000D03*
X114410000Y-55762000D03*
X114910000Y-55762000D03*
X114910000Y-60062000D03*
X114410000Y-60062000D03*
X113910000Y-60062000D03*
X113410000Y-60062000D03*
X112910000Y-60062000D03*
D14*
X124867500Y-79248000D03*
X126592500Y-79248000D03*
D20*
X123460000Y-54985000D03*
X123960000Y-54985000D03*
X124460000Y-54985000D03*
X124960000Y-54985000D03*
X125460000Y-54985000D03*
X125460000Y-59285000D03*
X124960000Y-59285000D03*
X124460000Y-59285000D03*
X123960000Y-59285000D03*
X123460000Y-59285000D03*
D18*
X118467500Y-80518000D03*
X120292500Y-80518000D03*
D14*
X124867500Y-75184000D03*
X126592500Y-75184000D03*
X119533500Y-72136000D03*
X121258500Y-72136000D03*
D21*
X119446000Y-66722000D03*
X120396000Y-66722000D03*
X121346000Y-66722000D03*
X121346000Y-69422000D03*
X119446000Y-69422000D03*
D13*
X127508000Y-59489000D03*
X127508000Y-61214000D03*
D15*
X123444000Y-70192500D03*
X123444000Y-72017500D03*
D19*
X127862500Y-46975000D03*
X126137500Y-46975000D03*
D15*
X126492000Y-70192500D03*
X126492000Y-72017500D03*
D14*
X127661500Y-67056000D03*
X129386500Y-67056000D03*
D19*
X113638500Y-66548000D03*
X111913500Y-66548000D03*
D13*
X113030000Y-70242500D03*
X113030000Y-71967500D03*
D22*
X127875000Y-49515000D03*
X126125000Y-49515000D03*
D18*
X118467500Y-77216000D03*
X120292500Y-77216000D03*
D17*
X116482500Y-80518000D03*
X114657500Y-80518000D03*
D22*
X115175000Y-49515000D03*
X113425000Y-49515000D03*
D14*
X126137500Y-52055000D03*
X127862500Y-52055000D03*
D18*
X119737500Y-52055000D03*
X121562500Y-52055000D03*
D13*
X117348000Y-55525500D03*
X117348000Y-57250500D03*
M02*
