G04 #@! TF.GenerationSoftware,KiCad,Pcbnew,7.0.9-7.0.9~ubuntu20.04.1*
G04 #@! TF.CreationDate,2023-11-16T21:07:46+01:00*
G04 #@! TF.ProjectId,kicad-pmod_i2s2,6b696361-642d-4706-9d6f-645f69327332,1.0*
G04 #@! TF.SameCoordinates,Original*
G04 #@! TF.FileFunction,Legend,Bot*
G04 #@! TF.FilePolarity,Positive*
%FSLAX46Y46*%
G04 Gerber Fmt 4.6, Leading zero omitted, Abs format (unit mm)*
G04 Created by KiCad (PCBNEW 7.0.9-7.0.9~ubuntu20.04.1) date 2023-11-16 21:07:46*
%MOMM*%
%LPD*%
G01*
G04 APERTURE LIST*
G04 Aperture macros list*
%AMRoundRect*
0 Rectangle with rounded corners*
0 $1 Rounding radius*
0 $2 $3 $4 $5 $6 $7 $8 $9 X,Y pos of 4 corners*
0 Add a 4 corners polygon primitive as box body*
4,1,4,$2,$3,$4,$5,$6,$7,$8,$9,$2,$3,0*
0 Add four circle primitives for the rounded corners*
1,1,$1+$1,$2,$3*
1,1,$1+$1,$4,$5*
1,1,$1+$1,$6,$7*
1,1,$1+$1,$8,$9*
0 Add four rect primitives between the rounded corners*
20,1,$1+$1,$2,$3,$4,$5,0*
20,1,$1+$1,$4,$5,$6,$7,0*
20,1,$1+$1,$6,$7,$8,$9,0*
20,1,$1+$1,$8,$9,$2,$3,0*%
G04 Aperture macros list end*
%ADD10C,0.150000*%
%ADD11C,0.120000*%
%ADD12C,1.500000*%
%ADD13R,1.700000X1.700000*%
%ADD14O,1.700000X1.700000*%
%ADD15RoundRect,0.237500X-0.237500X0.300000X-0.237500X-0.300000X0.237500X-0.300000X0.237500X0.300000X0*%
%ADD16RoundRect,0.237500X-0.300000X-0.237500X0.300000X-0.237500X0.300000X0.237500X-0.300000X0.237500X0*%
%ADD17RoundRect,0.237500X-0.237500X0.250000X-0.237500X-0.250000X0.237500X-0.250000X0.237500X0.250000X0*%
%ADD18RoundRect,0.237500X0.237500X-0.300000X0.237500X0.300000X-0.237500X0.300000X-0.237500X-0.300000X0*%
%ADD19RoundRect,0.237500X0.250000X0.237500X-0.250000X0.237500X-0.250000X-0.237500X0.250000X-0.237500X0*%
%ADD20RoundRect,0.237500X-0.250000X-0.237500X0.250000X-0.237500X0.250000X0.237500X-0.250000X0.237500X0*%
%ADD21RoundRect,0.237500X0.300000X0.237500X-0.300000X0.237500X-0.300000X-0.237500X0.300000X-0.237500X0*%
%ADD22R,0.250000X1.100000*%
%ADD23R,0.650000X1.560000*%
%ADD24RoundRect,0.237500X0.287500X0.237500X-0.287500X0.237500X-0.287500X-0.237500X0.287500X-0.237500X0*%
G04 APERTURE END LIST*
D10*
X119231580Y-59777333D02*
X119279200Y-59729714D01*
X119279200Y-59729714D02*
X119326819Y-59586857D01*
X119326819Y-59586857D02*
X119326819Y-59491619D01*
X119326819Y-59491619D02*
X119279200Y-59348762D01*
X119279200Y-59348762D02*
X119183961Y-59253524D01*
X119183961Y-59253524D02*
X119088723Y-59205905D01*
X119088723Y-59205905D02*
X118898247Y-59158286D01*
X118898247Y-59158286D02*
X118755390Y-59158286D01*
X118755390Y-59158286D02*
X118564914Y-59205905D01*
X118564914Y-59205905D02*
X118469676Y-59253524D01*
X118469676Y-59253524D02*
X118374438Y-59348762D01*
X118374438Y-59348762D02*
X118326819Y-59491619D01*
X118326819Y-59491619D02*
X118326819Y-59586857D01*
X118326819Y-59586857D02*
X118374438Y-59729714D01*
X118374438Y-59729714D02*
X118422057Y-59777333D01*
X118326819Y-60682095D02*
X118326819Y-60205905D01*
X118326819Y-60205905D02*
X118803009Y-60158286D01*
X118803009Y-60158286D02*
X118755390Y-60205905D01*
X118755390Y-60205905D02*
X118707771Y-60301143D01*
X118707771Y-60301143D02*
X118707771Y-60539238D01*
X118707771Y-60539238D02*
X118755390Y-60634476D01*
X118755390Y-60634476D02*
X118803009Y-60682095D01*
X118803009Y-60682095D02*
X118898247Y-60729714D01*
X118898247Y-60729714D02*
X119136342Y-60729714D01*
X119136342Y-60729714D02*
X119231580Y-60682095D01*
X119231580Y-60682095D02*
X119279200Y-60634476D01*
X119279200Y-60634476D02*
X119326819Y-60539238D01*
X119326819Y-60539238D02*
X119326819Y-60301143D01*
X119326819Y-60301143D02*
X119279200Y-60205905D01*
X119279200Y-60205905D02*
X119231580Y-60158286D01*
X123832857Y-65274580D02*
X123880476Y-65322200D01*
X123880476Y-65322200D02*
X124023333Y-65369819D01*
X124023333Y-65369819D02*
X124118571Y-65369819D01*
X124118571Y-65369819D02*
X124261428Y-65322200D01*
X124261428Y-65322200D02*
X124356666Y-65226961D01*
X124356666Y-65226961D02*
X124404285Y-65131723D01*
X124404285Y-65131723D02*
X124451904Y-64941247D01*
X124451904Y-64941247D02*
X124451904Y-64798390D01*
X124451904Y-64798390D02*
X124404285Y-64607914D01*
X124404285Y-64607914D02*
X124356666Y-64512676D01*
X124356666Y-64512676D02*
X124261428Y-64417438D01*
X124261428Y-64417438D02*
X124118571Y-64369819D01*
X124118571Y-64369819D02*
X124023333Y-64369819D01*
X124023333Y-64369819D02*
X123880476Y-64417438D01*
X123880476Y-64417438D02*
X123832857Y-64465057D01*
X122880476Y-65369819D02*
X123451904Y-65369819D01*
X123166190Y-65369819D02*
X123166190Y-64369819D01*
X123166190Y-64369819D02*
X123261428Y-64512676D01*
X123261428Y-64512676D02*
X123356666Y-64607914D01*
X123356666Y-64607914D02*
X123451904Y-64655533D01*
X122023333Y-64703152D02*
X122023333Y-65369819D01*
X122261428Y-64322200D02*
X122499523Y-65036485D01*
X122499523Y-65036485D02*
X121880476Y-65036485D01*
X128564819Y-70953333D02*
X128088628Y-70620000D01*
X128564819Y-70381905D02*
X127564819Y-70381905D01*
X127564819Y-70381905D02*
X127564819Y-70762857D01*
X127564819Y-70762857D02*
X127612438Y-70858095D01*
X127612438Y-70858095D02*
X127660057Y-70905714D01*
X127660057Y-70905714D02*
X127755295Y-70953333D01*
X127755295Y-70953333D02*
X127898152Y-70953333D01*
X127898152Y-70953333D02*
X127993390Y-70905714D01*
X127993390Y-70905714D02*
X128041009Y-70858095D01*
X128041009Y-70858095D02*
X128088628Y-70762857D01*
X128088628Y-70762857D02*
X128088628Y-70381905D01*
X127564819Y-71286667D02*
X127564819Y-71905714D01*
X127564819Y-71905714D02*
X127945771Y-71572381D01*
X127945771Y-71572381D02*
X127945771Y-71715238D01*
X127945771Y-71715238D02*
X127993390Y-71810476D01*
X127993390Y-71810476D02*
X128041009Y-71858095D01*
X128041009Y-71858095D02*
X128136247Y-71905714D01*
X128136247Y-71905714D02*
X128374342Y-71905714D01*
X128374342Y-71905714D02*
X128469580Y-71858095D01*
X128469580Y-71858095D02*
X128517200Y-71810476D01*
X128517200Y-71810476D02*
X128564819Y-71715238D01*
X128564819Y-71715238D02*
X128564819Y-71429524D01*
X128564819Y-71429524D02*
X128517200Y-71334286D01*
X128517200Y-71334286D02*
X128469580Y-71286667D01*
X117707580Y-66652142D02*
X117755200Y-66604523D01*
X117755200Y-66604523D02*
X117802819Y-66461666D01*
X117802819Y-66461666D02*
X117802819Y-66366428D01*
X117802819Y-66366428D02*
X117755200Y-66223571D01*
X117755200Y-66223571D02*
X117659961Y-66128333D01*
X117659961Y-66128333D02*
X117564723Y-66080714D01*
X117564723Y-66080714D02*
X117374247Y-66033095D01*
X117374247Y-66033095D02*
X117231390Y-66033095D01*
X117231390Y-66033095D02*
X117040914Y-66080714D01*
X117040914Y-66080714D02*
X116945676Y-66128333D01*
X116945676Y-66128333D02*
X116850438Y-66223571D01*
X116850438Y-66223571D02*
X116802819Y-66366428D01*
X116802819Y-66366428D02*
X116802819Y-66461666D01*
X116802819Y-66461666D02*
X116850438Y-66604523D01*
X116850438Y-66604523D02*
X116898057Y-66652142D01*
X117802819Y-67604523D02*
X117802819Y-67033095D01*
X117802819Y-67318809D02*
X116802819Y-67318809D01*
X116802819Y-67318809D02*
X116945676Y-67223571D01*
X116945676Y-67223571D02*
X117040914Y-67128333D01*
X117040914Y-67128333D02*
X117088533Y-67033095D01*
X116802819Y-67937857D02*
X116802819Y-68604523D01*
X116802819Y-68604523D02*
X117802819Y-68175952D01*
X129899580Y-53681333D02*
X129947200Y-53633714D01*
X129947200Y-53633714D02*
X129994819Y-53490857D01*
X129994819Y-53490857D02*
X129994819Y-53395619D01*
X129994819Y-53395619D02*
X129947200Y-53252762D01*
X129947200Y-53252762D02*
X129851961Y-53157524D01*
X129851961Y-53157524D02*
X129756723Y-53109905D01*
X129756723Y-53109905D02*
X129566247Y-53062286D01*
X129566247Y-53062286D02*
X129423390Y-53062286D01*
X129423390Y-53062286D02*
X129232914Y-53109905D01*
X129232914Y-53109905D02*
X129137676Y-53157524D01*
X129137676Y-53157524D02*
X129042438Y-53252762D01*
X129042438Y-53252762D02*
X128994819Y-53395619D01*
X128994819Y-53395619D02*
X128994819Y-53490857D01*
X128994819Y-53490857D02*
X129042438Y-53633714D01*
X129042438Y-53633714D02*
X129090057Y-53681333D01*
X129423390Y-54252762D02*
X129375771Y-54157524D01*
X129375771Y-54157524D02*
X129328152Y-54109905D01*
X129328152Y-54109905D02*
X129232914Y-54062286D01*
X129232914Y-54062286D02*
X129185295Y-54062286D01*
X129185295Y-54062286D02*
X129090057Y-54109905D01*
X129090057Y-54109905D02*
X129042438Y-54157524D01*
X129042438Y-54157524D02*
X128994819Y-54252762D01*
X128994819Y-54252762D02*
X128994819Y-54443238D01*
X128994819Y-54443238D02*
X129042438Y-54538476D01*
X129042438Y-54538476D02*
X129090057Y-54586095D01*
X129090057Y-54586095D02*
X129185295Y-54633714D01*
X129185295Y-54633714D02*
X129232914Y-54633714D01*
X129232914Y-54633714D02*
X129328152Y-54586095D01*
X129328152Y-54586095D02*
X129375771Y-54538476D01*
X129375771Y-54538476D02*
X129423390Y-54443238D01*
X129423390Y-54443238D02*
X129423390Y-54252762D01*
X129423390Y-54252762D02*
X129471009Y-54157524D01*
X129471009Y-54157524D02*
X129518628Y-54109905D01*
X129518628Y-54109905D02*
X129613866Y-54062286D01*
X129613866Y-54062286D02*
X129804342Y-54062286D01*
X129804342Y-54062286D02*
X129899580Y-54109905D01*
X129899580Y-54109905D02*
X129947200Y-54157524D01*
X129947200Y-54157524D02*
X129994819Y-54252762D01*
X129994819Y-54252762D02*
X129994819Y-54443238D01*
X129994819Y-54443238D02*
X129947200Y-54538476D01*
X129947200Y-54538476D02*
X129899580Y-54586095D01*
X129899580Y-54586095D02*
X129804342Y-54633714D01*
X129804342Y-54633714D02*
X129613866Y-54633714D01*
X129613866Y-54633714D02*
X129518628Y-54586095D01*
X129518628Y-54586095D02*
X129471009Y-54538476D01*
X129471009Y-54538476D02*
X129423390Y-54443238D01*
X117707580Y-70462142D02*
X117755200Y-70414523D01*
X117755200Y-70414523D02*
X117802819Y-70271666D01*
X117802819Y-70271666D02*
X117802819Y-70176428D01*
X117802819Y-70176428D02*
X117755200Y-70033571D01*
X117755200Y-70033571D02*
X117659961Y-69938333D01*
X117659961Y-69938333D02*
X117564723Y-69890714D01*
X117564723Y-69890714D02*
X117374247Y-69843095D01*
X117374247Y-69843095D02*
X117231390Y-69843095D01*
X117231390Y-69843095D02*
X117040914Y-69890714D01*
X117040914Y-69890714D02*
X116945676Y-69938333D01*
X116945676Y-69938333D02*
X116850438Y-70033571D01*
X116850438Y-70033571D02*
X116802819Y-70176428D01*
X116802819Y-70176428D02*
X116802819Y-70271666D01*
X116802819Y-70271666D02*
X116850438Y-70414523D01*
X116850438Y-70414523D02*
X116898057Y-70462142D01*
X117802819Y-71414523D02*
X117802819Y-70843095D01*
X117802819Y-71128809D02*
X116802819Y-71128809D01*
X116802819Y-71128809D02*
X116945676Y-71033571D01*
X116945676Y-71033571D02*
X117040914Y-70938333D01*
X117040914Y-70938333D02*
X117088533Y-70843095D01*
X117802819Y-71890714D02*
X117802819Y-72081190D01*
X117802819Y-72081190D02*
X117755200Y-72176428D01*
X117755200Y-72176428D02*
X117707580Y-72224047D01*
X117707580Y-72224047D02*
X117564723Y-72319285D01*
X117564723Y-72319285D02*
X117374247Y-72366904D01*
X117374247Y-72366904D02*
X116993295Y-72366904D01*
X116993295Y-72366904D02*
X116898057Y-72319285D01*
X116898057Y-72319285D02*
X116850438Y-72271666D01*
X116850438Y-72271666D02*
X116802819Y-72176428D01*
X116802819Y-72176428D02*
X116802819Y-71985952D01*
X116802819Y-71985952D02*
X116850438Y-71890714D01*
X116850438Y-71890714D02*
X116898057Y-71843095D01*
X116898057Y-71843095D02*
X116993295Y-71795476D01*
X116993295Y-71795476D02*
X117231390Y-71795476D01*
X117231390Y-71795476D02*
X117326628Y-71843095D01*
X117326628Y-71843095D02*
X117374247Y-71890714D01*
X117374247Y-71890714D02*
X117421866Y-71985952D01*
X117421866Y-71985952D02*
X117421866Y-72176428D01*
X117421866Y-72176428D02*
X117374247Y-72271666D01*
X117374247Y-72271666D02*
X117326628Y-72319285D01*
X117326628Y-72319285D02*
X117231390Y-72366904D01*
X120816666Y-48968819D02*
X121149999Y-48492628D01*
X121388094Y-48968819D02*
X121388094Y-47968819D01*
X121388094Y-47968819D02*
X121007142Y-47968819D01*
X121007142Y-47968819D02*
X120911904Y-48016438D01*
X120911904Y-48016438D02*
X120864285Y-48064057D01*
X120864285Y-48064057D02*
X120816666Y-48159295D01*
X120816666Y-48159295D02*
X120816666Y-48302152D01*
X120816666Y-48302152D02*
X120864285Y-48397390D01*
X120864285Y-48397390D02*
X120911904Y-48445009D01*
X120911904Y-48445009D02*
X121007142Y-48492628D01*
X121007142Y-48492628D02*
X121388094Y-48492628D01*
X119864285Y-48968819D02*
X120435713Y-48968819D01*
X120149999Y-48968819D02*
X120149999Y-47968819D01*
X120149999Y-47968819D02*
X120245237Y-48111676D01*
X120245237Y-48111676D02*
X120340475Y-48206914D01*
X120340475Y-48206914D02*
X120435713Y-48254533D01*
X116212857Y-74208819D02*
X116546190Y-73732628D01*
X116784285Y-74208819D02*
X116784285Y-73208819D01*
X116784285Y-73208819D02*
X116403333Y-73208819D01*
X116403333Y-73208819D02*
X116308095Y-73256438D01*
X116308095Y-73256438D02*
X116260476Y-73304057D01*
X116260476Y-73304057D02*
X116212857Y-73399295D01*
X116212857Y-73399295D02*
X116212857Y-73542152D01*
X116212857Y-73542152D02*
X116260476Y-73637390D01*
X116260476Y-73637390D02*
X116308095Y-73685009D01*
X116308095Y-73685009D02*
X116403333Y-73732628D01*
X116403333Y-73732628D02*
X116784285Y-73732628D01*
X115260476Y-74208819D02*
X115831904Y-74208819D01*
X115546190Y-74208819D02*
X115546190Y-73208819D01*
X115546190Y-73208819D02*
X115641428Y-73351676D01*
X115641428Y-73351676D02*
X115736666Y-73446914D01*
X115736666Y-73446914D02*
X115831904Y-73494533D01*
X114641428Y-73208819D02*
X114546190Y-73208819D01*
X114546190Y-73208819D02*
X114450952Y-73256438D01*
X114450952Y-73256438D02*
X114403333Y-73304057D01*
X114403333Y-73304057D02*
X114355714Y-73399295D01*
X114355714Y-73399295D02*
X114308095Y-73589771D01*
X114308095Y-73589771D02*
X114308095Y-73827866D01*
X114308095Y-73827866D02*
X114355714Y-74018342D01*
X114355714Y-74018342D02*
X114403333Y-74113580D01*
X114403333Y-74113580D02*
X114450952Y-74161200D01*
X114450952Y-74161200D02*
X114546190Y-74208819D01*
X114546190Y-74208819D02*
X114641428Y-74208819D01*
X114641428Y-74208819D02*
X114736666Y-74161200D01*
X114736666Y-74161200D02*
X114784285Y-74113580D01*
X114784285Y-74113580D02*
X114831904Y-74018342D01*
X114831904Y-74018342D02*
X114879523Y-73827866D01*
X114879523Y-73827866D02*
X114879523Y-73589771D01*
X114879523Y-73589771D02*
X114831904Y-73399295D01*
X114831904Y-73399295D02*
X114784285Y-73304057D01*
X114784285Y-73304057D02*
X114736666Y-73256438D01*
X114736666Y-73256438D02*
X114641428Y-73208819D01*
X117514666Y-47334580D02*
X117562285Y-47382200D01*
X117562285Y-47382200D02*
X117705142Y-47429819D01*
X117705142Y-47429819D02*
X117800380Y-47429819D01*
X117800380Y-47429819D02*
X117943237Y-47382200D01*
X117943237Y-47382200D02*
X118038475Y-47286961D01*
X118038475Y-47286961D02*
X118086094Y-47191723D01*
X118086094Y-47191723D02*
X118133713Y-47001247D01*
X118133713Y-47001247D02*
X118133713Y-46858390D01*
X118133713Y-46858390D02*
X118086094Y-46667914D01*
X118086094Y-46667914D02*
X118038475Y-46572676D01*
X118038475Y-46572676D02*
X117943237Y-46477438D01*
X117943237Y-46477438D02*
X117800380Y-46429819D01*
X117800380Y-46429819D02*
X117705142Y-46429819D01*
X117705142Y-46429819D02*
X117562285Y-46477438D01*
X117562285Y-46477438D02*
X117514666Y-46525057D01*
X117181332Y-46429819D02*
X116562285Y-46429819D01*
X116562285Y-46429819D02*
X116895618Y-46810771D01*
X116895618Y-46810771D02*
X116752761Y-46810771D01*
X116752761Y-46810771D02*
X116657523Y-46858390D01*
X116657523Y-46858390D02*
X116609904Y-46906009D01*
X116609904Y-46906009D02*
X116562285Y-47001247D01*
X116562285Y-47001247D02*
X116562285Y-47239342D01*
X116562285Y-47239342D02*
X116609904Y-47334580D01*
X116609904Y-47334580D02*
X116657523Y-47382200D01*
X116657523Y-47382200D02*
X116752761Y-47429819D01*
X116752761Y-47429819D02*
X117038475Y-47429819D01*
X117038475Y-47429819D02*
X117133713Y-47382200D01*
X117133713Y-47382200D02*
X117181332Y-47334580D01*
X117514666Y-52414580D02*
X117562285Y-52462200D01*
X117562285Y-52462200D02*
X117705142Y-52509819D01*
X117705142Y-52509819D02*
X117800380Y-52509819D01*
X117800380Y-52509819D02*
X117943237Y-52462200D01*
X117943237Y-52462200D02*
X118038475Y-52366961D01*
X118038475Y-52366961D02*
X118086094Y-52271723D01*
X118086094Y-52271723D02*
X118133713Y-52081247D01*
X118133713Y-52081247D02*
X118133713Y-51938390D01*
X118133713Y-51938390D02*
X118086094Y-51747914D01*
X118086094Y-51747914D02*
X118038475Y-51652676D01*
X118038475Y-51652676D02*
X117943237Y-51557438D01*
X117943237Y-51557438D02*
X117800380Y-51509819D01*
X117800380Y-51509819D02*
X117705142Y-51509819D01*
X117705142Y-51509819D02*
X117562285Y-51557438D01*
X117562285Y-51557438D02*
X117514666Y-51605057D01*
X117181332Y-51509819D02*
X116514666Y-51509819D01*
X116514666Y-51509819D02*
X116943237Y-52509819D01*
X124626666Y-68940819D02*
X124959999Y-68464628D01*
X125198094Y-68940819D02*
X125198094Y-67940819D01*
X125198094Y-67940819D02*
X124817142Y-67940819D01*
X124817142Y-67940819D02*
X124721904Y-67988438D01*
X124721904Y-67988438D02*
X124674285Y-68036057D01*
X124674285Y-68036057D02*
X124626666Y-68131295D01*
X124626666Y-68131295D02*
X124626666Y-68274152D01*
X124626666Y-68274152D02*
X124674285Y-68369390D01*
X124674285Y-68369390D02*
X124721904Y-68417009D01*
X124721904Y-68417009D02*
X124817142Y-68464628D01*
X124817142Y-68464628D02*
X125198094Y-68464628D01*
X123769523Y-68274152D02*
X123769523Y-68940819D01*
X124007618Y-67893200D02*
X124245713Y-68607485D01*
X124245713Y-68607485D02*
X123626666Y-68607485D01*
X113418857Y-65289580D02*
X113466476Y-65337200D01*
X113466476Y-65337200D02*
X113609333Y-65384819D01*
X113609333Y-65384819D02*
X113704571Y-65384819D01*
X113704571Y-65384819D02*
X113847428Y-65337200D01*
X113847428Y-65337200D02*
X113942666Y-65241961D01*
X113942666Y-65241961D02*
X113990285Y-65146723D01*
X113990285Y-65146723D02*
X114037904Y-64956247D01*
X114037904Y-64956247D02*
X114037904Y-64813390D01*
X114037904Y-64813390D02*
X113990285Y-64622914D01*
X113990285Y-64622914D02*
X113942666Y-64527676D01*
X113942666Y-64527676D02*
X113847428Y-64432438D01*
X113847428Y-64432438D02*
X113704571Y-64384819D01*
X113704571Y-64384819D02*
X113609333Y-64384819D01*
X113609333Y-64384819D02*
X113466476Y-64432438D01*
X113466476Y-64432438D02*
X113418857Y-64480057D01*
X112466476Y-65384819D02*
X113037904Y-65384819D01*
X112752190Y-65384819D02*
X112752190Y-64384819D01*
X112752190Y-64384819D02*
X112847428Y-64527676D01*
X112847428Y-64527676D02*
X112942666Y-64622914D01*
X112942666Y-64622914D02*
X113037904Y-64670533D01*
X111514095Y-65384819D02*
X112085523Y-65384819D01*
X111799809Y-65384819D02*
X111799809Y-64384819D01*
X111799809Y-64384819D02*
X111895047Y-64527676D01*
X111895047Y-64527676D02*
X111990285Y-64622914D01*
X111990285Y-64622914D02*
X112085523Y-64670533D01*
X127867580Y-53681333D02*
X127915200Y-53633714D01*
X127915200Y-53633714D02*
X127962819Y-53490857D01*
X127962819Y-53490857D02*
X127962819Y-53395619D01*
X127962819Y-53395619D02*
X127915200Y-53252762D01*
X127915200Y-53252762D02*
X127819961Y-53157524D01*
X127819961Y-53157524D02*
X127724723Y-53109905D01*
X127724723Y-53109905D02*
X127534247Y-53062286D01*
X127534247Y-53062286D02*
X127391390Y-53062286D01*
X127391390Y-53062286D02*
X127200914Y-53109905D01*
X127200914Y-53109905D02*
X127105676Y-53157524D01*
X127105676Y-53157524D02*
X127010438Y-53252762D01*
X127010438Y-53252762D02*
X126962819Y-53395619D01*
X126962819Y-53395619D02*
X126962819Y-53490857D01*
X126962819Y-53490857D02*
X127010438Y-53633714D01*
X127010438Y-53633714D02*
X127058057Y-53681333D01*
X127296152Y-54538476D02*
X127962819Y-54538476D01*
X126915200Y-54300381D02*
X127629485Y-54062286D01*
X127629485Y-54062286D02*
X127629485Y-54681333D01*
X127642857Y-65274580D02*
X127690476Y-65322200D01*
X127690476Y-65322200D02*
X127833333Y-65369819D01*
X127833333Y-65369819D02*
X127928571Y-65369819D01*
X127928571Y-65369819D02*
X128071428Y-65322200D01*
X128071428Y-65322200D02*
X128166666Y-65226961D01*
X128166666Y-65226961D02*
X128214285Y-65131723D01*
X128214285Y-65131723D02*
X128261904Y-64941247D01*
X128261904Y-64941247D02*
X128261904Y-64798390D01*
X128261904Y-64798390D02*
X128214285Y-64607914D01*
X128214285Y-64607914D02*
X128166666Y-64512676D01*
X128166666Y-64512676D02*
X128071428Y-64417438D01*
X128071428Y-64417438D02*
X127928571Y-64369819D01*
X127928571Y-64369819D02*
X127833333Y-64369819D01*
X127833333Y-64369819D02*
X127690476Y-64417438D01*
X127690476Y-64417438D02*
X127642857Y-64465057D01*
X126690476Y-65369819D02*
X127261904Y-65369819D01*
X126976190Y-65369819D02*
X126976190Y-64369819D01*
X126976190Y-64369819D02*
X127071428Y-64512676D01*
X127071428Y-64512676D02*
X127166666Y-64607914D01*
X127166666Y-64607914D02*
X127261904Y-64655533D01*
X126071428Y-64369819D02*
X125976190Y-64369819D01*
X125976190Y-64369819D02*
X125880952Y-64417438D01*
X125880952Y-64417438D02*
X125833333Y-64465057D01*
X125833333Y-64465057D02*
X125785714Y-64560295D01*
X125785714Y-64560295D02*
X125738095Y-64750771D01*
X125738095Y-64750771D02*
X125738095Y-64988866D01*
X125738095Y-64988866D02*
X125785714Y-65179342D01*
X125785714Y-65179342D02*
X125833333Y-65274580D01*
X125833333Y-65274580D02*
X125880952Y-65322200D01*
X125880952Y-65322200D02*
X125976190Y-65369819D01*
X125976190Y-65369819D02*
X126071428Y-65369819D01*
X126071428Y-65369819D02*
X126166666Y-65322200D01*
X126166666Y-65322200D02*
X126214285Y-65274580D01*
X126214285Y-65274580D02*
X126261904Y-65179342D01*
X126261904Y-65179342D02*
X126309523Y-64988866D01*
X126309523Y-64988866D02*
X126309523Y-64750771D01*
X126309523Y-64750771D02*
X126261904Y-64560295D01*
X126261904Y-64560295D02*
X126214285Y-64465057D01*
X126214285Y-64465057D02*
X126166666Y-64417438D01*
X126166666Y-64417438D02*
X126071428Y-64369819D01*
X117006666Y-65383580D02*
X117054285Y-65431200D01*
X117054285Y-65431200D02*
X117197142Y-65478819D01*
X117197142Y-65478819D02*
X117292380Y-65478819D01*
X117292380Y-65478819D02*
X117435237Y-65431200D01*
X117435237Y-65431200D02*
X117530475Y-65335961D01*
X117530475Y-65335961D02*
X117578094Y-65240723D01*
X117578094Y-65240723D02*
X117625713Y-65050247D01*
X117625713Y-65050247D02*
X117625713Y-64907390D01*
X117625713Y-64907390D02*
X117578094Y-64716914D01*
X117578094Y-64716914D02*
X117530475Y-64621676D01*
X117530475Y-64621676D02*
X117435237Y-64526438D01*
X117435237Y-64526438D02*
X117292380Y-64478819D01*
X117292380Y-64478819D02*
X117197142Y-64478819D01*
X117197142Y-64478819D02*
X117054285Y-64526438D01*
X117054285Y-64526438D02*
X117006666Y-64574057D01*
X116530475Y-65478819D02*
X116339999Y-65478819D01*
X116339999Y-65478819D02*
X116244761Y-65431200D01*
X116244761Y-65431200D02*
X116197142Y-65383580D01*
X116197142Y-65383580D02*
X116101904Y-65240723D01*
X116101904Y-65240723D02*
X116054285Y-65050247D01*
X116054285Y-65050247D02*
X116054285Y-64669295D01*
X116054285Y-64669295D02*
X116101904Y-64574057D01*
X116101904Y-64574057D02*
X116149523Y-64526438D01*
X116149523Y-64526438D02*
X116244761Y-64478819D01*
X116244761Y-64478819D02*
X116435237Y-64478819D01*
X116435237Y-64478819D02*
X116530475Y-64526438D01*
X116530475Y-64526438D02*
X116578094Y-64574057D01*
X116578094Y-64574057D02*
X116625713Y-64669295D01*
X116625713Y-64669295D02*
X116625713Y-64907390D01*
X116625713Y-64907390D02*
X116578094Y-65002628D01*
X116578094Y-65002628D02*
X116530475Y-65050247D01*
X116530475Y-65050247D02*
X116435237Y-65097866D01*
X116435237Y-65097866D02*
X116244761Y-65097866D01*
X116244761Y-65097866D02*
X116149523Y-65050247D01*
X116149523Y-65050247D02*
X116101904Y-65002628D01*
X116101904Y-65002628D02*
X116054285Y-64907390D01*
X110814819Y-57150095D02*
X111624342Y-57150095D01*
X111624342Y-57150095D02*
X111719580Y-57197714D01*
X111719580Y-57197714D02*
X111767200Y-57245333D01*
X111767200Y-57245333D02*
X111814819Y-57340571D01*
X111814819Y-57340571D02*
X111814819Y-57531047D01*
X111814819Y-57531047D02*
X111767200Y-57626285D01*
X111767200Y-57626285D02*
X111719580Y-57673904D01*
X111719580Y-57673904D02*
X111624342Y-57721523D01*
X111624342Y-57721523D02*
X110814819Y-57721523D01*
X110814819Y-58102476D02*
X110814819Y-58721523D01*
X110814819Y-58721523D02*
X111195771Y-58388190D01*
X111195771Y-58388190D02*
X111195771Y-58531047D01*
X111195771Y-58531047D02*
X111243390Y-58626285D01*
X111243390Y-58626285D02*
X111291009Y-58673904D01*
X111291009Y-58673904D02*
X111386247Y-58721523D01*
X111386247Y-58721523D02*
X111624342Y-58721523D01*
X111624342Y-58721523D02*
X111719580Y-58673904D01*
X111719580Y-58673904D02*
X111767200Y-58626285D01*
X111767200Y-58626285D02*
X111814819Y-58531047D01*
X111814819Y-58531047D02*
X111814819Y-58245333D01*
X111814819Y-58245333D02*
X111767200Y-58150095D01*
X111767200Y-58150095D02*
X111719580Y-58102476D01*
X126372857Y-81037580D02*
X126420476Y-81085200D01*
X126420476Y-81085200D02*
X126563333Y-81132819D01*
X126563333Y-81132819D02*
X126658571Y-81132819D01*
X126658571Y-81132819D02*
X126801428Y-81085200D01*
X126801428Y-81085200D02*
X126896666Y-80989961D01*
X126896666Y-80989961D02*
X126944285Y-80894723D01*
X126944285Y-80894723D02*
X126991904Y-80704247D01*
X126991904Y-80704247D02*
X126991904Y-80561390D01*
X126991904Y-80561390D02*
X126944285Y-80370914D01*
X126944285Y-80370914D02*
X126896666Y-80275676D01*
X126896666Y-80275676D02*
X126801428Y-80180438D01*
X126801428Y-80180438D02*
X126658571Y-80132819D01*
X126658571Y-80132819D02*
X126563333Y-80132819D01*
X126563333Y-80132819D02*
X126420476Y-80180438D01*
X126420476Y-80180438D02*
X126372857Y-80228057D01*
X125991904Y-80228057D02*
X125944285Y-80180438D01*
X125944285Y-80180438D02*
X125849047Y-80132819D01*
X125849047Y-80132819D02*
X125610952Y-80132819D01*
X125610952Y-80132819D02*
X125515714Y-80180438D01*
X125515714Y-80180438D02*
X125468095Y-80228057D01*
X125468095Y-80228057D02*
X125420476Y-80323295D01*
X125420476Y-80323295D02*
X125420476Y-80418533D01*
X125420476Y-80418533D02*
X125468095Y-80561390D01*
X125468095Y-80561390D02*
X126039523Y-81132819D01*
X126039523Y-81132819D02*
X125420476Y-81132819D01*
X124801428Y-80132819D02*
X124706190Y-80132819D01*
X124706190Y-80132819D02*
X124610952Y-80180438D01*
X124610952Y-80180438D02*
X124563333Y-80228057D01*
X124563333Y-80228057D02*
X124515714Y-80323295D01*
X124515714Y-80323295D02*
X124468095Y-80513771D01*
X124468095Y-80513771D02*
X124468095Y-80751866D01*
X124468095Y-80751866D02*
X124515714Y-80942342D01*
X124515714Y-80942342D02*
X124563333Y-81037580D01*
X124563333Y-81037580D02*
X124610952Y-81085200D01*
X124610952Y-81085200D02*
X124706190Y-81132819D01*
X124706190Y-81132819D02*
X124801428Y-81132819D01*
X124801428Y-81132819D02*
X124896666Y-81085200D01*
X124896666Y-81085200D02*
X124944285Y-81037580D01*
X124944285Y-81037580D02*
X124991904Y-80942342D01*
X124991904Y-80942342D02*
X125039523Y-80751866D01*
X125039523Y-80751866D02*
X125039523Y-80513771D01*
X125039523Y-80513771D02*
X124991904Y-80323295D01*
X124991904Y-80323295D02*
X124944285Y-80228057D01*
X124944285Y-80228057D02*
X124896666Y-80180438D01*
X124896666Y-80180438D02*
X124801428Y-80132819D01*
X123914819Y-60452095D02*
X124724342Y-60452095D01*
X124724342Y-60452095D02*
X124819580Y-60499714D01*
X124819580Y-60499714D02*
X124867200Y-60547333D01*
X124867200Y-60547333D02*
X124914819Y-60642571D01*
X124914819Y-60642571D02*
X124914819Y-60833047D01*
X124914819Y-60833047D02*
X124867200Y-60928285D01*
X124867200Y-60928285D02*
X124819580Y-60975904D01*
X124819580Y-60975904D02*
X124724342Y-61023523D01*
X124724342Y-61023523D02*
X123914819Y-61023523D01*
X124010057Y-61452095D02*
X123962438Y-61499714D01*
X123962438Y-61499714D02*
X123914819Y-61594952D01*
X123914819Y-61594952D02*
X123914819Y-61833047D01*
X123914819Y-61833047D02*
X123962438Y-61928285D01*
X123962438Y-61928285D02*
X124010057Y-61975904D01*
X124010057Y-61975904D02*
X124105295Y-62023523D01*
X124105295Y-62023523D02*
X124200533Y-62023523D01*
X124200533Y-62023523D02*
X124343390Y-61975904D01*
X124343390Y-61975904D02*
X124914819Y-61404476D01*
X124914819Y-61404476D02*
X124914819Y-62023523D01*
X119546666Y-82402819D02*
X119879999Y-81926628D01*
X120118094Y-82402819D02*
X120118094Y-81402819D01*
X120118094Y-81402819D02*
X119737142Y-81402819D01*
X119737142Y-81402819D02*
X119641904Y-81450438D01*
X119641904Y-81450438D02*
X119594285Y-81498057D01*
X119594285Y-81498057D02*
X119546666Y-81593295D01*
X119546666Y-81593295D02*
X119546666Y-81736152D01*
X119546666Y-81736152D02*
X119594285Y-81831390D01*
X119594285Y-81831390D02*
X119641904Y-81879009D01*
X119641904Y-81879009D02*
X119737142Y-81926628D01*
X119737142Y-81926628D02*
X120118094Y-81926628D01*
X118975237Y-81831390D02*
X119070475Y-81783771D01*
X119070475Y-81783771D02*
X119118094Y-81736152D01*
X119118094Y-81736152D02*
X119165713Y-81640914D01*
X119165713Y-81640914D02*
X119165713Y-81593295D01*
X119165713Y-81593295D02*
X119118094Y-81498057D01*
X119118094Y-81498057D02*
X119070475Y-81450438D01*
X119070475Y-81450438D02*
X118975237Y-81402819D01*
X118975237Y-81402819D02*
X118784761Y-81402819D01*
X118784761Y-81402819D02*
X118689523Y-81450438D01*
X118689523Y-81450438D02*
X118641904Y-81498057D01*
X118641904Y-81498057D02*
X118594285Y-81593295D01*
X118594285Y-81593295D02*
X118594285Y-81640914D01*
X118594285Y-81640914D02*
X118641904Y-81736152D01*
X118641904Y-81736152D02*
X118689523Y-81783771D01*
X118689523Y-81783771D02*
X118784761Y-81831390D01*
X118784761Y-81831390D02*
X118975237Y-81831390D01*
X118975237Y-81831390D02*
X119070475Y-81879009D01*
X119070475Y-81879009D02*
X119118094Y-81926628D01*
X119118094Y-81926628D02*
X119165713Y-82021866D01*
X119165713Y-82021866D02*
X119165713Y-82212342D01*
X119165713Y-82212342D02*
X119118094Y-82307580D01*
X119118094Y-82307580D02*
X119070475Y-82355200D01*
X119070475Y-82355200D02*
X118975237Y-82402819D01*
X118975237Y-82402819D02*
X118784761Y-82402819D01*
X118784761Y-82402819D02*
X118689523Y-82355200D01*
X118689523Y-82355200D02*
X118641904Y-82307580D01*
X118641904Y-82307580D02*
X118594285Y-82212342D01*
X118594285Y-82212342D02*
X118594285Y-82021866D01*
X118594285Y-82021866D02*
X118641904Y-81926628D01*
X118641904Y-81926628D02*
X118689523Y-81879009D01*
X118689523Y-81879009D02*
X118784761Y-81831390D01*
X129420857Y-75543580D02*
X129468476Y-75591200D01*
X129468476Y-75591200D02*
X129611333Y-75638819D01*
X129611333Y-75638819D02*
X129706571Y-75638819D01*
X129706571Y-75638819D02*
X129849428Y-75591200D01*
X129849428Y-75591200D02*
X129944666Y-75495961D01*
X129944666Y-75495961D02*
X129992285Y-75400723D01*
X129992285Y-75400723D02*
X130039904Y-75210247D01*
X130039904Y-75210247D02*
X130039904Y-75067390D01*
X130039904Y-75067390D02*
X129992285Y-74876914D01*
X129992285Y-74876914D02*
X129944666Y-74781676D01*
X129944666Y-74781676D02*
X129849428Y-74686438D01*
X129849428Y-74686438D02*
X129706571Y-74638819D01*
X129706571Y-74638819D02*
X129611333Y-74638819D01*
X129611333Y-74638819D02*
X129468476Y-74686438D01*
X129468476Y-74686438D02*
X129420857Y-74734057D01*
X129039904Y-74734057D02*
X128992285Y-74686438D01*
X128992285Y-74686438D02*
X128897047Y-74638819D01*
X128897047Y-74638819D02*
X128658952Y-74638819D01*
X128658952Y-74638819D02*
X128563714Y-74686438D01*
X128563714Y-74686438D02*
X128516095Y-74734057D01*
X128516095Y-74734057D02*
X128468476Y-74829295D01*
X128468476Y-74829295D02*
X128468476Y-74924533D01*
X128468476Y-74924533D02*
X128516095Y-75067390D01*
X128516095Y-75067390D02*
X129087523Y-75638819D01*
X129087523Y-75638819D02*
X128468476Y-75638819D01*
X127516095Y-75638819D02*
X128087523Y-75638819D01*
X127801809Y-75638819D02*
X127801809Y-74638819D01*
X127801809Y-74638819D02*
X127897047Y-74781676D01*
X127897047Y-74781676D02*
X127992285Y-74876914D01*
X127992285Y-74876914D02*
X128087523Y-74924533D01*
X120308666Y-74019580D02*
X120356285Y-74067200D01*
X120356285Y-74067200D02*
X120499142Y-74114819D01*
X120499142Y-74114819D02*
X120594380Y-74114819D01*
X120594380Y-74114819D02*
X120737237Y-74067200D01*
X120737237Y-74067200D02*
X120832475Y-73971961D01*
X120832475Y-73971961D02*
X120880094Y-73876723D01*
X120880094Y-73876723D02*
X120927713Y-73686247D01*
X120927713Y-73686247D02*
X120927713Y-73543390D01*
X120927713Y-73543390D02*
X120880094Y-73352914D01*
X120880094Y-73352914D02*
X120832475Y-73257676D01*
X120832475Y-73257676D02*
X120737237Y-73162438D01*
X120737237Y-73162438D02*
X120594380Y-73114819D01*
X120594380Y-73114819D02*
X120499142Y-73114819D01*
X120499142Y-73114819D02*
X120356285Y-73162438D01*
X120356285Y-73162438D02*
X120308666Y-73210057D01*
X119356285Y-74114819D02*
X119927713Y-74114819D01*
X119641999Y-74114819D02*
X119641999Y-73114819D01*
X119641999Y-73114819D02*
X119737237Y-73257676D01*
X119737237Y-73257676D02*
X119832475Y-73352914D01*
X119832475Y-73352914D02*
X119927713Y-73400533D01*
X119088819Y-64008095D02*
X119898342Y-64008095D01*
X119898342Y-64008095D02*
X119993580Y-64055714D01*
X119993580Y-64055714D02*
X120041200Y-64103333D01*
X120041200Y-64103333D02*
X120088819Y-64198571D01*
X120088819Y-64198571D02*
X120088819Y-64389047D01*
X120088819Y-64389047D02*
X120041200Y-64484285D01*
X120041200Y-64484285D02*
X119993580Y-64531904D01*
X119993580Y-64531904D02*
X119898342Y-64579523D01*
X119898342Y-64579523D02*
X119088819Y-64579523D01*
X120088819Y-65579523D02*
X120088819Y-65008095D01*
X120088819Y-65293809D02*
X119088819Y-65293809D01*
X119088819Y-65293809D02*
X119231676Y-65198571D01*
X119231676Y-65198571D02*
X119326914Y-65103333D01*
X119326914Y-65103333D02*
X119374533Y-65008095D01*
X129645580Y-59708642D02*
X129693200Y-59661023D01*
X129693200Y-59661023D02*
X129740819Y-59518166D01*
X129740819Y-59518166D02*
X129740819Y-59422928D01*
X129740819Y-59422928D02*
X129693200Y-59280071D01*
X129693200Y-59280071D02*
X129597961Y-59184833D01*
X129597961Y-59184833D02*
X129502723Y-59137214D01*
X129502723Y-59137214D02*
X129312247Y-59089595D01*
X129312247Y-59089595D02*
X129169390Y-59089595D01*
X129169390Y-59089595D02*
X128978914Y-59137214D01*
X128978914Y-59137214D02*
X128883676Y-59184833D01*
X128883676Y-59184833D02*
X128788438Y-59280071D01*
X128788438Y-59280071D02*
X128740819Y-59422928D01*
X128740819Y-59422928D02*
X128740819Y-59518166D01*
X128740819Y-59518166D02*
X128788438Y-59661023D01*
X128788438Y-59661023D02*
X128836057Y-59708642D01*
X129740819Y-60661023D02*
X129740819Y-60089595D01*
X129740819Y-60375309D02*
X128740819Y-60375309D01*
X128740819Y-60375309D02*
X128883676Y-60280071D01*
X128883676Y-60280071D02*
X128978914Y-60184833D01*
X128978914Y-60184833D02*
X129026533Y-60089595D01*
X128836057Y-61041976D02*
X128788438Y-61089595D01*
X128788438Y-61089595D02*
X128740819Y-61184833D01*
X128740819Y-61184833D02*
X128740819Y-61422928D01*
X128740819Y-61422928D02*
X128788438Y-61518166D01*
X128788438Y-61518166D02*
X128836057Y-61565785D01*
X128836057Y-61565785D02*
X128931295Y-61613404D01*
X128931295Y-61613404D02*
X129026533Y-61613404D01*
X129026533Y-61613404D02*
X129169390Y-61565785D01*
X129169390Y-61565785D02*
X129740819Y-60994357D01*
X129740819Y-60994357D02*
X129740819Y-61613404D01*
X123898819Y-73747333D02*
X123422628Y-73414000D01*
X123898819Y-73175905D02*
X122898819Y-73175905D01*
X122898819Y-73175905D02*
X122898819Y-73556857D01*
X122898819Y-73556857D02*
X122946438Y-73652095D01*
X122946438Y-73652095D02*
X122994057Y-73699714D01*
X122994057Y-73699714D02*
X123089295Y-73747333D01*
X123089295Y-73747333D02*
X123232152Y-73747333D01*
X123232152Y-73747333D02*
X123327390Y-73699714D01*
X123327390Y-73699714D02*
X123375009Y-73652095D01*
X123375009Y-73652095D02*
X123422628Y-73556857D01*
X123422628Y-73556857D02*
X123422628Y-73175905D01*
X122898819Y-74652095D02*
X122898819Y-74175905D01*
X122898819Y-74175905D02*
X123375009Y-74128286D01*
X123375009Y-74128286D02*
X123327390Y-74175905D01*
X123327390Y-74175905D02*
X123279771Y-74271143D01*
X123279771Y-74271143D02*
X123279771Y-74509238D01*
X123279771Y-74509238D02*
X123327390Y-74604476D01*
X123327390Y-74604476D02*
X123375009Y-74652095D01*
X123375009Y-74652095D02*
X123470247Y-74699714D01*
X123470247Y-74699714D02*
X123708342Y-74699714D01*
X123708342Y-74699714D02*
X123803580Y-74652095D01*
X123803580Y-74652095D02*
X123851200Y-74604476D01*
X123851200Y-74604476D02*
X123898819Y-74509238D01*
X123898819Y-74509238D02*
X123898819Y-74271143D01*
X123898819Y-74271143D02*
X123851200Y-74175905D01*
X123851200Y-74175905D02*
X123803580Y-74128286D01*
X124372666Y-47349580D02*
X124420285Y-47397200D01*
X124420285Y-47397200D02*
X124563142Y-47444819D01*
X124563142Y-47444819D02*
X124658380Y-47444819D01*
X124658380Y-47444819D02*
X124801237Y-47397200D01*
X124801237Y-47397200D02*
X124896475Y-47301961D01*
X124896475Y-47301961D02*
X124944094Y-47206723D01*
X124944094Y-47206723D02*
X124991713Y-47016247D01*
X124991713Y-47016247D02*
X124991713Y-46873390D01*
X124991713Y-46873390D02*
X124944094Y-46682914D01*
X124944094Y-46682914D02*
X124896475Y-46587676D01*
X124896475Y-46587676D02*
X124801237Y-46492438D01*
X124801237Y-46492438D02*
X124658380Y-46444819D01*
X124658380Y-46444819D02*
X124563142Y-46444819D01*
X124563142Y-46444819D02*
X124420285Y-46492438D01*
X124420285Y-46492438D02*
X124372666Y-46540057D01*
X123991713Y-46540057D02*
X123944094Y-46492438D01*
X123944094Y-46492438D02*
X123848856Y-46444819D01*
X123848856Y-46444819D02*
X123610761Y-46444819D01*
X123610761Y-46444819D02*
X123515523Y-46492438D01*
X123515523Y-46492438D02*
X123467904Y-46540057D01*
X123467904Y-46540057D02*
X123420285Y-46635295D01*
X123420285Y-46635295D02*
X123420285Y-46730533D01*
X123420285Y-46730533D02*
X123467904Y-46873390D01*
X123467904Y-46873390D02*
X124039332Y-47444819D01*
X124039332Y-47444819D02*
X123420285Y-47444819D01*
X125516819Y-70938333D02*
X125040628Y-70605000D01*
X125516819Y-70366905D02*
X124516819Y-70366905D01*
X124516819Y-70366905D02*
X124516819Y-70747857D01*
X124516819Y-70747857D02*
X124564438Y-70843095D01*
X124564438Y-70843095D02*
X124612057Y-70890714D01*
X124612057Y-70890714D02*
X124707295Y-70938333D01*
X124707295Y-70938333D02*
X124850152Y-70938333D01*
X124850152Y-70938333D02*
X124945390Y-70890714D01*
X124945390Y-70890714D02*
X124993009Y-70843095D01*
X124993009Y-70843095D02*
X125040628Y-70747857D01*
X125040628Y-70747857D02*
X125040628Y-70366905D01*
X124516819Y-71795476D02*
X124516819Y-71605000D01*
X124516819Y-71605000D02*
X124564438Y-71509762D01*
X124564438Y-71509762D02*
X124612057Y-71462143D01*
X124612057Y-71462143D02*
X124754914Y-71366905D01*
X124754914Y-71366905D02*
X124945390Y-71319286D01*
X124945390Y-71319286D02*
X125326342Y-71319286D01*
X125326342Y-71319286D02*
X125421580Y-71366905D01*
X125421580Y-71366905D02*
X125469200Y-71414524D01*
X125469200Y-71414524D02*
X125516819Y-71509762D01*
X125516819Y-71509762D02*
X125516819Y-71700238D01*
X125516819Y-71700238D02*
X125469200Y-71795476D01*
X125469200Y-71795476D02*
X125421580Y-71843095D01*
X125421580Y-71843095D02*
X125326342Y-71890714D01*
X125326342Y-71890714D02*
X125088247Y-71890714D01*
X125088247Y-71890714D02*
X124993009Y-71843095D01*
X124993009Y-71843095D02*
X124945390Y-71795476D01*
X124945390Y-71795476D02*
X124897771Y-71700238D01*
X124897771Y-71700238D02*
X124897771Y-71509762D01*
X124897771Y-71509762D02*
X124945390Y-71414524D01*
X124945390Y-71414524D02*
X124993009Y-71366905D01*
X124993009Y-71366905D02*
X125088247Y-71319286D01*
X129166857Y-68845580D02*
X129214476Y-68893200D01*
X129214476Y-68893200D02*
X129357333Y-68940819D01*
X129357333Y-68940819D02*
X129452571Y-68940819D01*
X129452571Y-68940819D02*
X129595428Y-68893200D01*
X129595428Y-68893200D02*
X129690666Y-68797961D01*
X129690666Y-68797961D02*
X129738285Y-68702723D01*
X129738285Y-68702723D02*
X129785904Y-68512247D01*
X129785904Y-68512247D02*
X129785904Y-68369390D01*
X129785904Y-68369390D02*
X129738285Y-68178914D01*
X129738285Y-68178914D02*
X129690666Y-68083676D01*
X129690666Y-68083676D02*
X129595428Y-67988438D01*
X129595428Y-67988438D02*
X129452571Y-67940819D01*
X129452571Y-67940819D02*
X129357333Y-67940819D01*
X129357333Y-67940819D02*
X129214476Y-67988438D01*
X129214476Y-67988438D02*
X129166857Y-68036057D01*
X128214476Y-68940819D02*
X128785904Y-68940819D01*
X128500190Y-68940819D02*
X128500190Y-67940819D01*
X128500190Y-67940819D02*
X128595428Y-68083676D01*
X128595428Y-68083676D02*
X128690666Y-68178914D01*
X128690666Y-68178914D02*
X128785904Y-68226533D01*
X127309714Y-67940819D02*
X127785904Y-67940819D01*
X127785904Y-67940819D02*
X127833523Y-68417009D01*
X127833523Y-68417009D02*
X127785904Y-68369390D01*
X127785904Y-68369390D02*
X127690666Y-68321771D01*
X127690666Y-68321771D02*
X127452571Y-68321771D01*
X127452571Y-68321771D02*
X127357333Y-68369390D01*
X127357333Y-68369390D02*
X127309714Y-68417009D01*
X127309714Y-68417009D02*
X127262095Y-68512247D01*
X127262095Y-68512247D02*
X127262095Y-68750342D01*
X127262095Y-68750342D02*
X127309714Y-68845580D01*
X127309714Y-68845580D02*
X127357333Y-68893200D01*
X127357333Y-68893200D02*
X127452571Y-68940819D01*
X127452571Y-68940819D02*
X127690666Y-68940819D01*
X127690666Y-68940819D02*
X127785904Y-68893200D01*
X127785904Y-68893200D02*
X127833523Y-68845580D01*
X113418857Y-68700580D02*
X113466476Y-68748200D01*
X113466476Y-68748200D02*
X113609333Y-68795819D01*
X113609333Y-68795819D02*
X113704571Y-68795819D01*
X113704571Y-68795819D02*
X113847428Y-68748200D01*
X113847428Y-68748200D02*
X113942666Y-68652961D01*
X113942666Y-68652961D02*
X113990285Y-68557723D01*
X113990285Y-68557723D02*
X114037904Y-68367247D01*
X114037904Y-68367247D02*
X114037904Y-68224390D01*
X114037904Y-68224390D02*
X113990285Y-68033914D01*
X113990285Y-68033914D02*
X113942666Y-67938676D01*
X113942666Y-67938676D02*
X113847428Y-67843438D01*
X113847428Y-67843438D02*
X113704571Y-67795819D01*
X113704571Y-67795819D02*
X113609333Y-67795819D01*
X113609333Y-67795819D02*
X113466476Y-67843438D01*
X113466476Y-67843438D02*
X113418857Y-67891057D01*
X112466476Y-68795819D02*
X113037904Y-68795819D01*
X112752190Y-68795819D02*
X112752190Y-67795819D01*
X112752190Y-67795819D02*
X112847428Y-67938676D01*
X112847428Y-67938676D02*
X112942666Y-68033914D01*
X112942666Y-68033914D02*
X113037904Y-68081533D01*
X111609333Y-67795819D02*
X111799809Y-67795819D01*
X111799809Y-67795819D02*
X111895047Y-67843438D01*
X111895047Y-67843438D02*
X111942666Y-67891057D01*
X111942666Y-67891057D02*
X112037904Y-68033914D01*
X112037904Y-68033914D02*
X112085523Y-68224390D01*
X112085523Y-68224390D02*
X112085523Y-68605342D01*
X112085523Y-68605342D02*
X112037904Y-68700580D01*
X112037904Y-68700580D02*
X111990285Y-68748200D01*
X111990285Y-68748200D02*
X111895047Y-68795819D01*
X111895047Y-68795819D02*
X111704571Y-68795819D01*
X111704571Y-68795819D02*
X111609333Y-68748200D01*
X111609333Y-68748200D02*
X111561714Y-68700580D01*
X111561714Y-68700580D02*
X111514095Y-68605342D01*
X111514095Y-68605342D02*
X111514095Y-68367247D01*
X111514095Y-68367247D02*
X111561714Y-68272009D01*
X111561714Y-68272009D02*
X111609333Y-68224390D01*
X111609333Y-68224390D02*
X111704571Y-68176771D01*
X111704571Y-68176771D02*
X111895047Y-68176771D01*
X111895047Y-68176771D02*
X111990285Y-68224390D01*
X111990285Y-68224390D02*
X112037904Y-68272009D01*
X112037904Y-68272009D02*
X112085523Y-68367247D01*
X111959580Y-70462142D02*
X112007200Y-70414523D01*
X112007200Y-70414523D02*
X112054819Y-70271666D01*
X112054819Y-70271666D02*
X112054819Y-70176428D01*
X112054819Y-70176428D02*
X112007200Y-70033571D01*
X112007200Y-70033571D02*
X111911961Y-69938333D01*
X111911961Y-69938333D02*
X111816723Y-69890714D01*
X111816723Y-69890714D02*
X111626247Y-69843095D01*
X111626247Y-69843095D02*
X111483390Y-69843095D01*
X111483390Y-69843095D02*
X111292914Y-69890714D01*
X111292914Y-69890714D02*
X111197676Y-69938333D01*
X111197676Y-69938333D02*
X111102438Y-70033571D01*
X111102438Y-70033571D02*
X111054819Y-70176428D01*
X111054819Y-70176428D02*
X111054819Y-70271666D01*
X111054819Y-70271666D02*
X111102438Y-70414523D01*
X111102438Y-70414523D02*
X111150057Y-70462142D01*
X112054819Y-71414523D02*
X112054819Y-70843095D01*
X112054819Y-71128809D02*
X111054819Y-71128809D01*
X111054819Y-71128809D02*
X111197676Y-71033571D01*
X111197676Y-71033571D02*
X111292914Y-70938333D01*
X111292914Y-70938333D02*
X111340533Y-70843095D01*
X111483390Y-71985952D02*
X111435771Y-71890714D01*
X111435771Y-71890714D02*
X111388152Y-71843095D01*
X111388152Y-71843095D02*
X111292914Y-71795476D01*
X111292914Y-71795476D02*
X111245295Y-71795476D01*
X111245295Y-71795476D02*
X111150057Y-71843095D01*
X111150057Y-71843095D02*
X111102438Y-71890714D01*
X111102438Y-71890714D02*
X111054819Y-71985952D01*
X111054819Y-71985952D02*
X111054819Y-72176428D01*
X111054819Y-72176428D02*
X111102438Y-72271666D01*
X111102438Y-72271666D02*
X111150057Y-72319285D01*
X111150057Y-72319285D02*
X111245295Y-72366904D01*
X111245295Y-72366904D02*
X111292914Y-72366904D01*
X111292914Y-72366904D02*
X111388152Y-72319285D01*
X111388152Y-72319285D02*
X111435771Y-72271666D01*
X111435771Y-72271666D02*
X111483390Y-72176428D01*
X111483390Y-72176428D02*
X111483390Y-71985952D01*
X111483390Y-71985952D02*
X111531009Y-71890714D01*
X111531009Y-71890714D02*
X111578628Y-71843095D01*
X111578628Y-71843095D02*
X111673866Y-71795476D01*
X111673866Y-71795476D02*
X111864342Y-71795476D01*
X111864342Y-71795476D02*
X111959580Y-71843095D01*
X111959580Y-71843095D02*
X112007200Y-71890714D01*
X112007200Y-71890714D02*
X112054819Y-71985952D01*
X112054819Y-71985952D02*
X112054819Y-72176428D01*
X112054819Y-72176428D02*
X112007200Y-72271666D01*
X112007200Y-72271666D02*
X111959580Y-72319285D01*
X111959580Y-72319285D02*
X111864342Y-72366904D01*
X111864342Y-72366904D02*
X111673866Y-72366904D01*
X111673866Y-72366904D02*
X111578628Y-72319285D01*
X111578628Y-72319285D02*
X111531009Y-72271666D01*
X111531009Y-72271666D02*
X111483390Y-72176428D01*
X124531333Y-49461009D02*
X124864666Y-49461009D01*
X124864666Y-49984819D02*
X124864666Y-48984819D01*
X124864666Y-48984819D02*
X124388476Y-48984819D01*
X123674190Y-49461009D02*
X123531333Y-49508628D01*
X123531333Y-49508628D02*
X123483714Y-49556247D01*
X123483714Y-49556247D02*
X123436095Y-49651485D01*
X123436095Y-49651485D02*
X123436095Y-49794342D01*
X123436095Y-49794342D02*
X123483714Y-49889580D01*
X123483714Y-49889580D02*
X123531333Y-49937200D01*
X123531333Y-49937200D02*
X123626571Y-49984819D01*
X123626571Y-49984819D02*
X124007523Y-49984819D01*
X124007523Y-49984819D02*
X124007523Y-48984819D01*
X124007523Y-48984819D02*
X123674190Y-48984819D01*
X123674190Y-48984819D02*
X123578952Y-49032438D01*
X123578952Y-49032438D02*
X123531333Y-49080057D01*
X123531333Y-49080057D02*
X123483714Y-49175295D01*
X123483714Y-49175295D02*
X123483714Y-49270533D01*
X123483714Y-49270533D02*
X123531333Y-49365771D01*
X123531333Y-49365771D02*
X123578952Y-49413390D01*
X123578952Y-49413390D02*
X123674190Y-49461009D01*
X123674190Y-49461009D02*
X124007523Y-49461009D01*
X122483714Y-49984819D02*
X123055142Y-49984819D01*
X122769428Y-49984819D02*
X122769428Y-48984819D01*
X122769428Y-48984819D02*
X122864666Y-49127676D01*
X122864666Y-49127676D02*
X122959904Y-49222914D01*
X122959904Y-49222914D02*
X123055142Y-49270533D01*
X119546666Y-79100819D02*
X119879999Y-78624628D01*
X120118094Y-79100819D02*
X120118094Y-78100819D01*
X120118094Y-78100819D02*
X119737142Y-78100819D01*
X119737142Y-78100819D02*
X119641904Y-78148438D01*
X119641904Y-78148438D02*
X119594285Y-78196057D01*
X119594285Y-78196057D02*
X119546666Y-78291295D01*
X119546666Y-78291295D02*
X119546666Y-78434152D01*
X119546666Y-78434152D02*
X119594285Y-78529390D01*
X119594285Y-78529390D02*
X119641904Y-78577009D01*
X119641904Y-78577009D02*
X119737142Y-78624628D01*
X119737142Y-78624628D02*
X120118094Y-78624628D01*
X119213332Y-78100819D02*
X118546666Y-78100819D01*
X118546666Y-78100819D02*
X118975237Y-79100819D01*
X115736666Y-82496819D02*
X116069999Y-82020628D01*
X116308094Y-82496819D02*
X116308094Y-81496819D01*
X116308094Y-81496819D02*
X115927142Y-81496819D01*
X115927142Y-81496819D02*
X115831904Y-81544438D01*
X115831904Y-81544438D02*
X115784285Y-81592057D01*
X115784285Y-81592057D02*
X115736666Y-81687295D01*
X115736666Y-81687295D02*
X115736666Y-81830152D01*
X115736666Y-81830152D02*
X115784285Y-81925390D01*
X115784285Y-81925390D02*
X115831904Y-81973009D01*
X115831904Y-81973009D02*
X115927142Y-82020628D01*
X115927142Y-82020628D02*
X116308094Y-82020628D01*
X115260475Y-82496819D02*
X115069999Y-82496819D01*
X115069999Y-82496819D02*
X114974761Y-82449200D01*
X114974761Y-82449200D02*
X114927142Y-82401580D01*
X114927142Y-82401580D02*
X114831904Y-82258723D01*
X114831904Y-82258723D02*
X114784285Y-82068247D01*
X114784285Y-82068247D02*
X114784285Y-81687295D01*
X114784285Y-81687295D02*
X114831904Y-81592057D01*
X114831904Y-81592057D02*
X114879523Y-81544438D01*
X114879523Y-81544438D02*
X114974761Y-81496819D01*
X114974761Y-81496819D02*
X115165237Y-81496819D01*
X115165237Y-81496819D02*
X115260475Y-81544438D01*
X115260475Y-81544438D02*
X115308094Y-81592057D01*
X115308094Y-81592057D02*
X115355713Y-81687295D01*
X115355713Y-81687295D02*
X115355713Y-81925390D01*
X115355713Y-81925390D02*
X115308094Y-82020628D01*
X115308094Y-82020628D02*
X115260475Y-82068247D01*
X115260475Y-82068247D02*
X115165237Y-82115866D01*
X115165237Y-82115866D02*
X114974761Y-82115866D01*
X114974761Y-82115866D02*
X114879523Y-82068247D01*
X114879523Y-82068247D02*
X114831904Y-82020628D01*
X114831904Y-82020628D02*
X114784285Y-81925390D01*
X118689333Y-49446009D02*
X119022666Y-49446009D01*
X119022666Y-49969819D02*
X119022666Y-48969819D01*
X119022666Y-48969819D02*
X118546476Y-48969819D01*
X117832190Y-49446009D02*
X117689333Y-49493628D01*
X117689333Y-49493628D02*
X117641714Y-49541247D01*
X117641714Y-49541247D02*
X117594095Y-49636485D01*
X117594095Y-49636485D02*
X117594095Y-49779342D01*
X117594095Y-49779342D02*
X117641714Y-49874580D01*
X117641714Y-49874580D02*
X117689333Y-49922200D01*
X117689333Y-49922200D02*
X117784571Y-49969819D01*
X117784571Y-49969819D02*
X118165523Y-49969819D01*
X118165523Y-49969819D02*
X118165523Y-48969819D01*
X118165523Y-48969819D02*
X117832190Y-48969819D01*
X117832190Y-48969819D02*
X117736952Y-49017438D01*
X117736952Y-49017438D02*
X117689333Y-49065057D01*
X117689333Y-49065057D02*
X117641714Y-49160295D01*
X117641714Y-49160295D02*
X117641714Y-49255533D01*
X117641714Y-49255533D02*
X117689333Y-49350771D01*
X117689333Y-49350771D02*
X117736952Y-49398390D01*
X117736952Y-49398390D02*
X117832190Y-49446009D01*
X117832190Y-49446009D02*
X118165523Y-49446009D01*
X117213142Y-49065057D02*
X117165523Y-49017438D01*
X117165523Y-49017438D02*
X117070285Y-48969819D01*
X117070285Y-48969819D02*
X116832190Y-48969819D01*
X116832190Y-48969819D02*
X116736952Y-49017438D01*
X116736952Y-49017438D02*
X116689333Y-49065057D01*
X116689333Y-49065057D02*
X116641714Y-49160295D01*
X116641714Y-49160295D02*
X116641714Y-49255533D01*
X116641714Y-49255533D02*
X116689333Y-49398390D01*
X116689333Y-49398390D02*
X117260761Y-49969819D01*
X117260761Y-49969819D02*
X116641714Y-49969819D01*
X124372666Y-52429580D02*
X124420285Y-52477200D01*
X124420285Y-52477200D02*
X124563142Y-52524819D01*
X124563142Y-52524819D02*
X124658380Y-52524819D01*
X124658380Y-52524819D02*
X124801237Y-52477200D01*
X124801237Y-52477200D02*
X124896475Y-52381961D01*
X124896475Y-52381961D02*
X124944094Y-52286723D01*
X124944094Y-52286723D02*
X124991713Y-52096247D01*
X124991713Y-52096247D02*
X124991713Y-51953390D01*
X124991713Y-51953390D02*
X124944094Y-51762914D01*
X124944094Y-51762914D02*
X124896475Y-51667676D01*
X124896475Y-51667676D02*
X124801237Y-51572438D01*
X124801237Y-51572438D02*
X124658380Y-51524819D01*
X124658380Y-51524819D02*
X124563142Y-51524819D01*
X124563142Y-51524819D02*
X124420285Y-51572438D01*
X124420285Y-51572438D02*
X124372666Y-51620057D01*
X123515523Y-51524819D02*
X123705999Y-51524819D01*
X123705999Y-51524819D02*
X123801237Y-51572438D01*
X123801237Y-51572438D02*
X123848856Y-51620057D01*
X123848856Y-51620057D02*
X123944094Y-51762914D01*
X123944094Y-51762914D02*
X123991713Y-51953390D01*
X123991713Y-51953390D02*
X123991713Y-52334342D01*
X123991713Y-52334342D02*
X123944094Y-52429580D01*
X123944094Y-52429580D02*
X123896475Y-52477200D01*
X123896475Y-52477200D02*
X123801237Y-52524819D01*
X123801237Y-52524819D02*
X123610761Y-52524819D01*
X123610761Y-52524819D02*
X123515523Y-52477200D01*
X123515523Y-52477200D02*
X123467904Y-52429580D01*
X123467904Y-52429580D02*
X123420285Y-52334342D01*
X123420285Y-52334342D02*
X123420285Y-52096247D01*
X123420285Y-52096247D02*
X123467904Y-52001009D01*
X123467904Y-52001009D02*
X123515523Y-51953390D01*
X123515523Y-51953390D02*
X123610761Y-51905771D01*
X123610761Y-51905771D02*
X123801237Y-51905771D01*
X123801237Y-51905771D02*
X123896475Y-51953390D01*
X123896475Y-51953390D02*
X123944094Y-52001009D01*
X123944094Y-52001009D02*
X123991713Y-52096247D01*
X120816666Y-51000819D02*
X121149999Y-50524628D01*
X121388094Y-51000819D02*
X121388094Y-50000819D01*
X121388094Y-50000819D02*
X121007142Y-50000819D01*
X121007142Y-50000819D02*
X120911904Y-50048438D01*
X120911904Y-50048438D02*
X120864285Y-50096057D01*
X120864285Y-50096057D02*
X120816666Y-50191295D01*
X120816666Y-50191295D02*
X120816666Y-50334152D01*
X120816666Y-50334152D02*
X120864285Y-50429390D01*
X120864285Y-50429390D02*
X120911904Y-50477009D01*
X120911904Y-50477009D02*
X121007142Y-50524628D01*
X121007142Y-50524628D02*
X121388094Y-50524628D01*
X120435713Y-50096057D02*
X120388094Y-50048438D01*
X120388094Y-50048438D02*
X120292856Y-50000819D01*
X120292856Y-50000819D02*
X120054761Y-50000819D01*
X120054761Y-50000819D02*
X119959523Y-50048438D01*
X119959523Y-50048438D02*
X119911904Y-50096057D01*
X119911904Y-50096057D02*
X119864285Y-50191295D01*
X119864285Y-50191295D02*
X119864285Y-50286533D01*
X119864285Y-50286533D02*
X119911904Y-50429390D01*
X119911904Y-50429390D02*
X120483332Y-51000819D01*
X120483332Y-51000819D02*
X119864285Y-51000819D01*
X119231580Y-55745142D02*
X119279200Y-55697523D01*
X119279200Y-55697523D02*
X119326819Y-55554666D01*
X119326819Y-55554666D02*
X119326819Y-55459428D01*
X119326819Y-55459428D02*
X119279200Y-55316571D01*
X119279200Y-55316571D02*
X119183961Y-55221333D01*
X119183961Y-55221333D02*
X119088723Y-55173714D01*
X119088723Y-55173714D02*
X118898247Y-55126095D01*
X118898247Y-55126095D02*
X118755390Y-55126095D01*
X118755390Y-55126095D02*
X118564914Y-55173714D01*
X118564914Y-55173714D02*
X118469676Y-55221333D01*
X118469676Y-55221333D02*
X118374438Y-55316571D01*
X118374438Y-55316571D02*
X118326819Y-55459428D01*
X118326819Y-55459428D02*
X118326819Y-55554666D01*
X118326819Y-55554666D02*
X118374438Y-55697523D01*
X118374438Y-55697523D02*
X118422057Y-55745142D01*
X119326819Y-56697523D02*
X119326819Y-56126095D01*
X119326819Y-56411809D02*
X118326819Y-56411809D01*
X118326819Y-56411809D02*
X118469676Y-56316571D01*
X118469676Y-56316571D02*
X118564914Y-56221333D01*
X118564914Y-56221333D02*
X118612533Y-56126095D01*
X118326819Y-57030857D02*
X118326819Y-57649904D01*
X118326819Y-57649904D02*
X118707771Y-57316571D01*
X118707771Y-57316571D02*
X118707771Y-57459428D01*
X118707771Y-57459428D02*
X118755390Y-57554666D01*
X118755390Y-57554666D02*
X118803009Y-57602285D01*
X118803009Y-57602285D02*
X118898247Y-57649904D01*
X118898247Y-57649904D02*
X119136342Y-57649904D01*
X119136342Y-57649904D02*
X119231580Y-57602285D01*
X119231580Y-57602285D02*
X119279200Y-57554666D01*
X119279200Y-57554666D02*
X119326819Y-57459428D01*
X119326819Y-57459428D02*
X119326819Y-57173714D01*
X119326819Y-57173714D02*
X119279200Y-57078476D01*
X119279200Y-57078476D02*
X119231580Y-57030857D01*
D11*
X117858000Y-59797733D02*
X117858000Y-60090267D01*
X116838000Y-59797733D02*
X116838000Y-60090267D01*
X123043733Y-62975000D02*
X123336267Y-62975000D01*
X123043733Y-63995000D02*
X123336267Y-63995000D01*
X130062500Y-70865276D02*
X130062500Y-71374724D01*
X129017500Y-70865276D02*
X129017500Y-71374724D01*
X115060000Y-67441267D02*
X115060000Y-67148733D01*
X116080000Y-67441267D02*
X116080000Y-67148733D01*
X130050000Y-56241733D02*
X130050000Y-56534267D01*
X129030000Y-56241733D02*
X129030000Y-56534267D01*
X116080000Y-70958733D02*
X116080000Y-71251267D01*
X115060000Y-70958733D02*
X115060000Y-71251267D01*
X120904724Y-47512500D02*
X120395276Y-47512500D01*
X120904724Y-46467500D02*
X120395276Y-46467500D01*
X115824724Y-75706500D02*
X115315276Y-75706500D01*
X115824724Y-74661500D02*
X115315276Y-74661500D01*
X114153733Y-46465000D02*
X114446267Y-46465000D01*
X114153733Y-47485000D02*
X114446267Y-47485000D01*
X114153733Y-51545000D02*
X114446267Y-51545000D01*
X114153733Y-52565000D02*
X114446267Y-52565000D01*
X124205276Y-66533500D02*
X124714724Y-66533500D01*
X124205276Y-67578500D02*
X124714724Y-67578500D01*
X112629733Y-62990000D02*
X112922267Y-62990000D01*
X112629733Y-64010000D02*
X112922267Y-64010000D01*
X128018000Y-56241733D02*
X128018000Y-56534267D01*
X126998000Y-56241733D02*
X126998000Y-56534267D01*
X126853733Y-62975000D02*
X127146267Y-62975000D01*
X126853733Y-63995000D02*
X127146267Y-63995000D01*
X116986267Y-64010000D02*
X116693733Y-64010000D01*
X116986267Y-62990000D02*
X116693733Y-62990000D01*
D10*
X115535000Y-56287000D02*
X115260000Y-56287000D01*
X115535000Y-56287000D02*
X115535000Y-59537000D01*
X112460000Y-56287000D02*
X112460000Y-55212000D01*
X112285000Y-56287000D02*
X112460000Y-56287000D01*
X112285000Y-56287000D02*
X112285000Y-59537000D01*
X115535000Y-59537000D02*
X115260000Y-59537000D01*
X112285000Y-59537000D02*
X112560000Y-59537000D01*
D11*
X125583733Y-78738000D02*
X125876267Y-78738000D01*
X125583733Y-79758000D02*
X125876267Y-79758000D01*
D10*
X126085000Y-55510000D02*
X125810000Y-55510000D01*
X126085000Y-55510000D02*
X126085000Y-58760000D01*
X123010000Y-55510000D02*
X123010000Y-54435000D01*
X122835000Y-55510000D02*
X123010000Y-55510000D01*
X122835000Y-55510000D02*
X122835000Y-58760000D01*
X126085000Y-58760000D02*
X125810000Y-58760000D01*
X122835000Y-58760000D02*
X123110000Y-58760000D01*
D11*
X119125276Y-79995500D02*
X119634724Y-79995500D01*
X119125276Y-81040500D02*
X119634724Y-81040500D01*
X125583733Y-74674000D02*
X125876267Y-74674000D01*
X125583733Y-75694000D02*
X125876267Y-75694000D01*
X120249733Y-71626000D02*
X120542267Y-71626000D01*
X120249733Y-72646000D02*
X120542267Y-72646000D01*
X122006000Y-67172000D02*
X122006000Y-68972000D01*
X118786000Y-68972000D02*
X118786000Y-66522000D01*
X128018000Y-60205233D02*
X128018000Y-60497767D01*
X126998000Y-60205233D02*
X126998000Y-60497767D01*
X123966500Y-70850276D02*
X123966500Y-71359724D01*
X122921500Y-70850276D02*
X122921500Y-71359724D01*
X127146267Y-47485000D02*
X126853733Y-47485000D01*
X127146267Y-46465000D02*
X126853733Y-46465000D01*
X127014500Y-70850276D02*
X127014500Y-71359724D01*
X125969500Y-70850276D02*
X125969500Y-71359724D01*
X128377733Y-66546000D02*
X128670267Y-66546000D01*
X128377733Y-67566000D02*
X128670267Y-67566000D01*
X112922267Y-67058000D02*
X112629733Y-67058000D01*
X112922267Y-66038000D02*
X112629733Y-66038000D01*
X113540000Y-70958733D02*
X113540000Y-71251267D01*
X112520000Y-70958733D02*
X112520000Y-71251267D01*
X127171267Y-50025000D02*
X126828733Y-50025000D01*
X127171267Y-49005000D02*
X126828733Y-49005000D01*
X119125276Y-76693500D02*
X119634724Y-76693500D01*
X119125276Y-77738500D02*
X119634724Y-77738500D01*
X115824724Y-81040500D02*
X115315276Y-81040500D01*
X115824724Y-79995500D02*
X115315276Y-79995500D01*
X114471267Y-50025000D02*
X114128733Y-50025000D01*
X114471267Y-49005000D02*
X114128733Y-49005000D01*
X126853733Y-51545000D02*
X127146267Y-51545000D01*
X126853733Y-52565000D02*
X127146267Y-52565000D01*
X120395276Y-51532500D02*
X120904724Y-51532500D01*
X120395276Y-52577500D02*
X120904724Y-52577500D01*
X117858000Y-56241733D02*
X117858000Y-56534267D01*
X116838000Y-56241733D02*
X116838000Y-56534267D01*
%LPC*%
D12*
X125730000Y-84135000D03*
X125730000Y-77135000D03*
D13*
X120650000Y-55880000D03*
D14*
X120650000Y-58420000D03*
X120650000Y-60960000D03*
D13*
X127000000Y-43180000D03*
D14*
X127000000Y-40640000D03*
X124460000Y-43180000D03*
X124460000Y-40640000D03*
X121920000Y-43180000D03*
X121920000Y-40640000D03*
X119380000Y-43180000D03*
X119380000Y-40640000D03*
X116840000Y-43180000D03*
X116840000Y-40640000D03*
X114300000Y-43180000D03*
X114300000Y-40640000D03*
D12*
X115570000Y-84135000D03*
X115570000Y-77135000D03*
D15*
X117348000Y-59081500D03*
X117348000Y-60806500D03*
D16*
X122327500Y-63485000D03*
X124052500Y-63485000D03*
D17*
X129540000Y-70207500D03*
X129540000Y-72032500D03*
D18*
X115570000Y-68157500D03*
X115570000Y-66432500D03*
D15*
X129540000Y-55525500D03*
X129540000Y-57250500D03*
X115570000Y-70242500D03*
X115570000Y-71967500D03*
D19*
X121562500Y-46990000D03*
X119737500Y-46990000D03*
X116482500Y-75184000D03*
X114657500Y-75184000D03*
D16*
X113437500Y-46975000D03*
X115162500Y-46975000D03*
X113437500Y-52055000D03*
X115162500Y-52055000D03*
D20*
X123547500Y-67056000D03*
X125372500Y-67056000D03*
D16*
X111913500Y-63500000D03*
X113638500Y-63500000D03*
D15*
X127508000Y-55525500D03*
X127508000Y-57250500D03*
D16*
X126137500Y-63485000D03*
X127862500Y-63485000D03*
D21*
X117702500Y-63500000D03*
X115977500Y-63500000D03*
D22*
X112910000Y-55762000D03*
X113410000Y-55762000D03*
X113910000Y-55762000D03*
X114410000Y-55762000D03*
X114910000Y-55762000D03*
X114910000Y-60062000D03*
X114410000Y-60062000D03*
X113910000Y-60062000D03*
X113410000Y-60062000D03*
X112910000Y-60062000D03*
D16*
X124867500Y-79248000D03*
X126592500Y-79248000D03*
D22*
X123460000Y-54985000D03*
X123960000Y-54985000D03*
X124460000Y-54985000D03*
X124960000Y-54985000D03*
X125460000Y-54985000D03*
X125460000Y-59285000D03*
X124960000Y-59285000D03*
X124460000Y-59285000D03*
X123960000Y-59285000D03*
X123460000Y-59285000D03*
D20*
X118467500Y-80518000D03*
X120292500Y-80518000D03*
D16*
X124867500Y-75184000D03*
X126592500Y-75184000D03*
X119533500Y-72136000D03*
X121258500Y-72136000D03*
D23*
X119446000Y-66722000D03*
X120396000Y-66722000D03*
X121346000Y-66722000D03*
X121346000Y-69422000D03*
X119446000Y-69422000D03*
D15*
X127508000Y-59489000D03*
X127508000Y-61214000D03*
D17*
X123444000Y-70192500D03*
X123444000Y-72017500D03*
D21*
X127862500Y-46975000D03*
X126137500Y-46975000D03*
D17*
X126492000Y-70192500D03*
X126492000Y-72017500D03*
D16*
X127661500Y-67056000D03*
X129386500Y-67056000D03*
D21*
X113638500Y-66548000D03*
X111913500Y-66548000D03*
D15*
X113030000Y-70242500D03*
X113030000Y-71967500D03*
D24*
X127875000Y-49515000D03*
X126125000Y-49515000D03*
D20*
X118467500Y-77216000D03*
X120292500Y-77216000D03*
D19*
X116482500Y-80518000D03*
X114657500Y-80518000D03*
D24*
X115175000Y-49515000D03*
X113425000Y-49515000D03*
D16*
X126137500Y-52055000D03*
X127862500Y-52055000D03*
D20*
X119737500Y-52055000D03*
X121562500Y-52055000D03*
D15*
X117348000Y-55525500D03*
X117348000Y-57250500D03*
%LPD*%
M02*
