G04 #@! TF.GenerationSoftware,KiCad,Pcbnew,7.0.9-7.0.9~ubuntu20.04.1*
G04 #@! TF.CreationDate,2023-11-16T21:07:46+01:00*
G04 #@! TF.ProjectId,kicad-pmod_i2s2,6b696361-642d-4706-9d6f-645f69327332,1.0*
G04 #@! TF.SameCoordinates,Original*
G04 #@! TF.FileFunction,Copper,L2,Bot*
G04 #@! TF.FilePolarity,Positive*
%FSLAX46Y46*%
G04 Gerber Fmt 4.6, Leading zero omitted, Abs format (unit mm)*
G04 Created by KiCad (PCBNEW 7.0.9-7.0.9~ubuntu20.04.1) date 2023-11-16 21:07:46*
%MOMM*%
%LPD*%
G01*
G04 APERTURE LIST*
G04 Aperture macros list*
%AMRoundRect*
0 Rectangle with rounded corners*
0 $1 Rounding radius*
0 $2 $3 $4 $5 $6 $7 $8 $9 X,Y pos of 4 corners*
0 Add a 4 corners polygon primitive as box body*
4,1,4,$2,$3,$4,$5,$6,$7,$8,$9,$2,$3,0*
0 Add four circle primitives for the rounded corners*
1,1,$1+$1,$2,$3*
1,1,$1+$1,$4,$5*
1,1,$1+$1,$6,$7*
1,1,$1+$1,$8,$9*
0 Add four rect primitives between the rounded corners*
20,1,$1+$1,$2,$3,$4,$5,0*
20,1,$1+$1,$4,$5,$6,$7,0*
20,1,$1+$1,$6,$7,$8,$9,0*
20,1,$1+$1,$8,$9,$2,$3,0*%
G04 Aperture macros list end*
G04 #@! TA.AperFunction,ComponentPad*
%ADD10R,1.700000X1.700000*%
G04 #@! TD*
G04 #@! TA.AperFunction,ComponentPad*
%ADD11O,1.700000X1.700000*%
G04 #@! TD*
G04 #@! TA.AperFunction,SMDPad,CuDef*
%ADD12RoundRect,0.237500X-0.237500X0.300000X-0.237500X-0.300000X0.237500X-0.300000X0.237500X0.300000X0*%
G04 #@! TD*
G04 #@! TA.AperFunction,SMDPad,CuDef*
%ADD13RoundRect,0.237500X-0.300000X-0.237500X0.300000X-0.237500X0.300000X0.237500X-0.300000X0.237500X0*%
G04 #@! TD*
G04 #@! TA.AperFunction,SMDPad,CuDef*
%ADD14RoundRect,0.237500X-0.237500X0.250000X-0.237500X-0.250000X0.237500X-0.250000X0.237500X0.250000X0*%
G04 #@! TD*
G04 #@! TA.AperFunction,SMDPad,CuDef*
%ADD15RoundRect,0.237500X0.237500X-0.300000X0.237500X0.300000X-0.237500X0.300000X-0.237500X-0.300000X0*%
G04 #@! TD*
G04 #@! TA.AperFunction,SMDPad,CuDef*
%ADD16RoundRect,0.237500X0.250000X0.237500X-0.250000X0.237500X-0.250000X-0.237500X0.250000X-0.237500X0*%
G04 #@! TD*
G04 #@! TA.AperFunction,SMDPad,CuDef*
%ADD17RoundRect,0.237500X-0.250000X-0.237500X0.250000X-0.237500X0.250000X0.237500X-0.250000X0.237500X0*%
G04 #@! TD*
G04 #@! TA.AperFunction,SMDPad,CuDef*
%ADD18RoundRect,0.237500X0.300000X0.237500X-0.300000X0.237500X-0.300000X-0.237500X0.300000X-0.237500X0*%
G04 #@! TD*
G04 #@! TA.AperFunction,SMDPad,CuDef*
%ADD19R,0.250000X1.100000*%
G04 #@! TD*
G04 #@! TA.AperFunction,SMDPad,CuDef*
%ADD20R,0.650000X1.560000*%
G04 #@! TD*
G04 #@! TA.AperFunction,SMDPad,CuDef*
%ADD21RoundRect,0.237500X0.287500X0.237500X-0.287500X0.237500X-0.287500X-0.237500X0.287500X-0.237500X0*%
G04 #@! TD*
G04 #@! TA.AperFunction,ViaPad*
%ADD22C,0.800000*%
G04 #@! TD*
G04 #@! TA.AperFunction,Conductor*
%ADD23C,0.500000*%
G04 #@! TD*
G04 #@! TA.AperFunction,Conductor*
%ADD24C,0.250000*%
G04 #@! TD*
G04 #@! TA.AperFunction,Conductor*
%ADD25C,0.249800*%
G04 #@! TD*
G04 APERTURE END LIST*
D10*
X120650000Y-55880000D03*
D11*
X120650000Y-58420000D03*
X120650000Y-60960000D03*
D10*
X127000000Y-43180000D03*
D11*
X127000000Y-40640000D03*
X124460000Y-43180000D03*
X124460000Y-40640000D03*
X121920000Y-43180000D03*
X121920000Y-40640000D03*
X119380000Y-43180000D03*
X119380000Y-40640000D03*
X116840000Y-43180000D03*
X116840000Y-40640000D03*
X114300000Y-43180000D03*
X114300000Y-40640000D03*
D12*
X117348000Y-59081500D03*
X117348000Y-60806500D03*
D13*
X122327500Y-63485000D03*
X124052500Y-63485000D03*
D14*
X129540000Y-70207500D03*
X129540000Y-72032500D03*
D15*
X115570000Y-68157500D03*
X115570000Y-66432500D03*
D12*
X129540000Y-55525500D03*
X129540000Y-57250500D03*
X115570000Y-70242500D03*
X115570000Y-71967500D03*
D16*
X121562500Y-46990000D03*
X119737500Y-46990000D03*
X116482500Y-75184000D03*
X114657500Y-75184000D03*
D13*
X113437500Y-46975000D03*
X115162500Y-46975000D03*
X113437500Y-52055000D03*
X115162500Y-52055000D03*
D17*
X123547500Y-67056000D03*
X125372500Y-67056000D03*
D13*
X111913500Y-63500000D03*
X113638500Y-63500000D03*
D12*
X127508000Y-55525500D03*
X127508000Y-57250500D03*
D13*
X126137500Y-63485000D03*
X127862500Y-63485000D03*
D18*
X117702500Y-63500000D03*
X115977500Y-63500000D03*
D19*
X112910000Y-55762000D03*
X113410000Y-55762000D03*
X113910000Y-55762000D03*
X114410000Y-55762000D03*
X114910000Y-55762000D03*
X114910000Y-60062000D03*
X114410000Y-60062000D03*
X113910000Y-60062000D03*
X113410000Y-60062000D03*
X112910000Y-60062000D03*
D13*
X124867500Y-79248000D03*
X126592500Y-79248000D03*
D19*
X123460000Y-54985000D03*
X123960000Y-54985000D03*
X124460000Y-54985000D03*
X124960000Y-54985000D03*
X125460000Y-54985000D03*
X125460000Y-59285000D03*
X124960000Y-59285000D03*
X124460000Y-59285000D03*
X123960000Y-59285000D03*
X123460000Y-59285000D03*
D17*
X118467500Y-80518000D03*
X120292500Y-80518000D03*
D13*
X124867500Y-75184000D03*
X126592500Y-75184000D03*
X119533500Y-72136000D03*
X121258500Y-72136000D03*
D20*
X119446000Y-66722000D03*
X120396000Y-66722000D03*
X121346000Y-66722000D03*
X121346000Y-69422000D03*
X119446000Y-69422000D03*
D12*
X127508000Y-59489000D03*
X127508000Y-61214000D03*
D14*
X123444000Y-70192500D03*
X123444000Y-72017500D03*
D18*
X127862500Y-46975000D03*
X126137500Y-46975000D03*
D14*
X126492000Y-70192500D03*
X126492000Y-72017500D03*
D13*
X127661500Y-67056000D03*
X129386500Y-67056000D03*
D18*
X113638500Y-66548000D03*
X111913500Y-66548000D03*
D12*
X113030000Y-70242500D03*
X113030000Y-71967500D03*
D21*
X127875000Y-49515000D03*
X126125000Y-49515000D03*
D17*
X118467500Y-77216000D03*
X120292500Y-77216000D03*
D16*
X116482500Y-80518000D03*
X114657500Y-80518000D03*
D21*
X115175000Y-49515000D03*
X113425000Y-49515000D03*
D13*
X126137500Y-52055000D03*
X127862500Y-52055000D03*
D17*
X119737500Y-52055000D03*
X121562500Y-52055000D03*
D12*
X117348000Y-55525500D03*
X117348000Y-57250500D03*
D22*
X120142000Y-83058000D03*
X118364000Y-78994000D03*
X121666000Y-77216000D03*
X126492000Y-68326000D03*
X120650000Y-65024000D03*
X116078000Y-61722000D03*
X117856000Y-72898000D03*
X118110000Y-65532000D03*
X113284000Y-61976000D03*
X110998000Y-67818000D03*
X128016000Y-79248000D03*
X126746000Y-73914000D03*
X128016000Y-72390000D03*
X126492000Y-65786000D03*
X129540000Y-58420000D03*
X125730000Y-57150000D03*
X127762000Y-62230000D03*
X129540000Y-52070000D03*
X127254000Y-45720000D03*
X116332000Y-53086000D03*
X116586000Y-45974000D03*
X118110000Y-37846000D03*
X115570000Y-37846000D03*
X119380000Y-50800000D03*
X112966600Y-58096800D03*
X113895300Y-76663900D03*
X114171700Y-79438000D03*
X113321600Y-56920200D03*
X113962300Y-54461400D03*
X124859000Y-74088900D03*
X124055300Y-78334000D03*
X121412000Y-73660000D03*
X125730000Y-61468000D03*
X118460200Y-57358700D03*
X126876300Y-50785000D03*
D23*
X129540000Y-52070000D02*
X129540000Y-46228000D01*
X129540000Y-46228000D02*
X128664800Y-45352800D01*
X128664800Y-45352800D02*
X127759700Y-45352800D01*
X127862500Y-52055000D02*
X129525000Y-52055000D01*
X129525000Y-52055000D02*
X129540000Y-52070000D01*
D24*
X119380000Y-50800000D02*
X119737500Y-51157500D01*
X119737500Y-51157500D02*
X119737500Y-52055000D01*
X120962400Y-64281200D02*
X121996400Y-65315200D01*
X121962300Y-61778800D02*
X120962400Y-62778700D01*
X120962400Y-62778700D02*
X120962400Y-64281200D01*
X121996400Y-67666300D02*
X121835400Y-67827300D01*
X119737500Y-52055000D02*
X120588700Y-51203800D01*
X121962300Y-61164800D02*
X121962300Y-61778800D01*
X121962400Y-58261400D02*
X121962400Y-61164700D01*
X120588700Y-51203800D02*
X122016700Y-51203800D01*
X122404400Y-57819400D02*
X121962400Y-58261400D01*
X121962400Y-61164700D02*
X121962300Y-61164800D01*
X122404400Y-51591500D02*
X122404400Y-57819400D01*
X122016700Y-51203800D02*
X122404400Y-51591500D01*
X121996400Y-65315200D02*
X121996400Y-67666300D01*
X121835400Y-67827300D02*
X120396000Y-67827300D01*
X120396000Y-67827300D02*
X120396000Y-66722000D01*
D23*
X121412000Y-73660000D02*
X118618000Y-73660000D01*
X118618000Y-73660000D02*
X117856000Y-72898000D01*
X120292500Y-80518000D02*
X126492000Y-80518000D01*
X126492000Y-80518000D02*
X126592500Y-80417500D01*
X126592500Y-80417500D02*
X126592500Y-79248000D01*
X111913500Y-66548000D02*
X111913500Y-80163500D01*
X111913500Y-80163500D02*
X113792000Y-82042000D01*
X113792000Y-82042000D02*
X120292500Y-82042000D01*
X120292500Y-82042000D02*
X120292500Y-80518000D01*
X121258500Y-72136000D02*
X121258500Y-73506500D01*
X121258500Y-73506500D02*
X121412000Y-73660000D01*
X120292500Y-73660000D02*
X120292500Y-77216000D01*
X121275100Y-73660000D02*
X121412000Y-73660000D01*
X125730000Y-61468000D02*
X125984000Y-61214000D01*
X125984000Y-61214000D02*
X127508000Y-61214000D01*
X125730000Y-61468000D02*
X125642500Y-61468000D01*
X125642500Y-61468000D02*
X124460000Y-60285500D01*
X115924500Y-60806500D02*
X117348000Y-60806500D01*
X116078000Y-61722000D02*
X115924500Y-61568500D01*
X115924500Y-61568500D02*
X115924500Y-60806500D01*
X116078000Y-61722000D02*
X116078000Y-62076500D01*
X116078000Y-62076500D02*
X115977500Y-62177000D01*
X115977500Y-62177000D02*
X115977500Y-63500000D01*
D24*
X114910000Y-60062000D02*
X114910000Y-60937300D01*
X114910000Y-60937300D02*
X114994600Y-61021900D01*
X114994600Y-61021900D02*
X114994600Y-64541696D01*
X114994600Y-64541696D02*
X114708800Y-64827496D01*
X114708800Y-64827496D02*
X114708800Y-67296300D01*
X114708800Y-67296300D02*
X115570000Y-68157500D01*
D23*
X115570000Y-66432500D02*
X115570000Y-65077000D01*
X115570000Y-65077000D02*
X115977500Y-64669500D01*
X118110000Y-65532000D02*
X116840000Y-65532000D01*
X116840000Y-65532000D02*
X115977500Y-64669500D01*
X115977500Y-64669500D02*
X115977500Y-63500000D01*
X116840000Y-40640000D02*
X116840000Y-38354000D01*
X116840000Y-38354000D02*
X117348000Y-37846000D01*
X117348000Y-37846000D02*
X127000000Y-37846000D01*
X129032000Y-39878000D02*
X129032000Y-44080500D01*
X127000000Y-37846000D02*
X129032000Y-39878000D01*
X129032000Y-44080500D02*
X127759700Y-45352800D01*
D24*
X117348000Y-55525500D02*
X117348000Y-52898700D01*
X114300000Y-49019700D02*
X113995300Y-48715000D01*
X114910000Y-54360900D02*
X114910000Y-55762000D01*
X117348000Y-52898700D02*
X115234300Y-50785000D01*
X114793000Y-50785000D02*
X114300000Y-50292000D01*
X115234300Y-50785000D02*
X114793000Y-50785000D01*
X114300000Y-50292000D02*
X114300000Y-49019700D01*
X114037500Y-53488400D02*
X114910000Y-54360900D01*
X113995300Y-48715000D02*
X112897924Y-48715000D01*
X112897924Y-48715000D02*
X112563400Y-49049524D01*
X112563400Y-49049524D02*
X112563400Y-52557800D01*
X112563400Y-52557800D02*
X113494000Y-53488400D01*
X113494000Y-53488400D02*
X114037500Y-53488400D01*
D23*
X115175000Y-49515000D02*
X116317000Y-49515000D01*
X116317000Y-49515000D02*
X118364000Y-51562000D01*
X118364000Y-51562000D02*
X118364000Y-52324000D01*
X118364000Y-52324000D02*
X120650000Y-54610000D01*
X120650000Y-55880000D02*
X120650000Y-54610000D01*
X127862500Y-63485000D02*
X127862500Y-64669500D01*
X127862500Y-64669500D02*
X127254000Y-65278000D01*
X127254000Y-65278000D02*
X125730000Y-65278000D01*
X125730000Y-65278000D02*
X125372500Y-65635500D01*
X125372500Y-65635500D02*
X125372500Y-67056000D01*
X120878300Y-65024000D02*
X121346000Y-65491700D01*
X120650000Y-65024000D02*
X120878300Y-65024000D01*
X120650000Y-64795700D02*
X120650000Y-65024000D01*
X115570000Y-66432500D02*
X116724500Y-66432500D01*
X117856000Y-72037900D02*
X117856000Y-72898000D01*
X116724500Y-66432500D02*
X117421300Y-67129300D01*
X117421300Y-71603200D02*
X117856000Y-72037900D01*
X117421300Y-67129300D02*
X117421300Y-71603200D01*
X113410000Y-62102000D02*
X113410000Y-63271500D01*
X113284000Y-61976000D02*
X113410000Y-62102000D01*
X113410000Y-61850000D02*
X113284000Y-61976000D01*
X120292500Y-78843500D02*
X120292500Y-80174300D01*
X120396000Y-78740000D02*
X120292500Y-78843500D01*
X120292500Y-78636500D02*
X120396000Y-78740000D01*
X126592500Y-79248000D02*
X128016000Y-79248000D01*
X128016000Y-79248000D02*
X128016000Y-75184000D01*
X128016000Y-75184000D02*
X126592500Y-75184000D01*
X128016000Y-72390000D02*
X126592500Y-73813500D01*
X126592500Y-73813500D02*
X126592500Y-75184000D01*
X129540000Y-72032500D02*
X128373500Y-72032500D01*
X128373500Y-72032500D02*
X128016000Y-72390000D01*
X125830500Y-57250500D02*
X127508000Y-57250500D01*
X125730000Y-57150000D02*
X125830500Y-57250500D01*
X125629500Y-57250500D02*
X125730000Y-57150000D01*
X127862500Y-62330500D02*
X127862500Y-63485000D01*
X127762000Y-62230000D02*
X127862500Y-62330500D01*
X127862500Y-62129500D02*
X127762000Y-62230000D01*
X127254000Y-45858500D02*
X126137500Y-46975000D01*
X127254000Y-45720000D02*
X127254000Y-45858500D01*
X127392500Y-45720000D02*
X127254000Y-45720000D01*
X116193500Y-53086000D02*
X115162500Y-52055000D01*
X116332000Y-53086000D02*
X116193500Y-53086000D01*
X116332000Y-53224500D02*
X116332000Y-53086000D01*
X116840000Y-40640000D02*
X116840000Y-40616227D01*
X116840000Y-40616227D02*
X118110000Y-39346227D01*
X118110000Y-39346227D02*
X118110000Y-37846000D01*
X116840000Y-40640000D02*
X115570000Y-39370000D01*
X115570000Y-39370000D02*
X115570000Y-37846000D01*
D24*
X112596300Y-57726500D02*
X112966600Y-58096800D01*
X112596300Y-56075700D02*
X112596300Y-57726500D01*
X112910000Y-55762000D02*
X112596300Y-56075700D01*
X121346000Y-69422000D02*
X121346000Y-68316700D01*
X121996300Y-68316700D02*
X121346000Y-68316700D01*
X122446800Y-67866200D02*
X121996300Y-68316700D01*
X122446800Y-65128700D02*
X122446800Y-67866200D01*
X121438300Y-64120200D02*
X122446800Y-65128700D01*
X121438300Y-62962600D02*
X121438300Y-64120200D01*
X122478600Y-61922300D02*
X121438300Y-62962600D01*
X122478600Y-58382100D02*
X122478600Y-61922300D01*
X122862900Y-57997800D02*
X122478600Y-58382100D01*
X122862900Y-48290400D02*
X122862900Y-57997800D01*
X121562500Y-46990000D02*
X122862900Y-48290400D01*
X113895300Y-75946200D02*
X113895300Y-76663900D01*
X114657500Y-75184000D02*
X113895300Y-75946200D01*
X114171700Y-80032200D02*
X114171700Y-79438000D01*
X114657500Y-80518000D02*
X114171700Y-80032200D01*
X119012600Y-41815300D02*
X119380000Y-41815300D01*
X118204700Y-42623200D02*
X119012600Y-41815300D01*
X118204700Y-45457200D02*
X118204700Y-42623200D01*
X119737500Y-46990000D02*
X118204700Y-45457200D01*
X119380000Y-40640000D02*
X119380000Y-41815300D01*
X120261500Y-44355300D02*
X119380000Y-44355300D01*
X123460000Y-47553800D02*
X120261500Y-44355300D01*
X123460000Y-54985000D02*
X123460000Y-47553800D01*
X119380000Y-43180000D02*
X119380000Y-44355300D01*
X121920000Y-40640000D02*
X120744700Y-40640000D01*
X113410000Y-54934800D02*
X113410000Y-55762000D01*
X112113100Y-53637900D02*
X113410000Y-54934800D01*
X112113100Y-43702800D02*
X112113100Y-53637900D01*
X113811300Y-42004600D02*
X112113100Y-43702800D01*
X117158300Y-42004600D02*
X113811300Y-42004600D01*
X118110000Y-41052900D02*
X117158300Y-42004600D01*
X118110000Y-40159400D02*
X118110000Y-41052900D01*
X118804700Y-39464700D02*
X118110000Y-40159400D01*
X119936800Y-39464700D02*
X118804700Y-39464700D01*
X120744700Y-40272600D02*
X119936800Y-39464700D01*
X120744700Y-40640000D02*
X120744700Y-40272600D01*
X123960000Y-46395300D02*
X121920000Y-44355300D01*
X123960000Y-54985000D02*
X123960000Y-46395300D01*
X121920000Y-43180000D02*
X121920000Y-44355300D01*
X113604500Y-56637300D02*
X113321600Y-56920200D01*
X113910000Y-56637300D02*
X113604500Y-56637300D01*
X113910000Y-55762000D02*
X113910000Y-56637300D01*
X124460000Y-54985000D02*
X124460000Y-44355300D01*
X124460000Y-43180000D02*
X124460000Y-44355300D01*
X114387600Y-54886700D02*
X114410000Y-54886700D01*
X113962300Y-54461400D02*
X114387600Y-54886700D01*
X114410000Y-55762000D02*
X114410000Y-54886700D01*
X127000000Y-43180000D02*
X127000000Y-44355300D01*
X124960000Y-54985000D02*
X124960000Y-54109700D01*
X124960000Y-46395300D02*
X124960000Y-54109700D01*
X127000000Y-44355300D02*
X124960000Y-46395300D01*
X121458100Y-57244700D02*
X120650000Y-57244700D01*
X121825300Y-56877500D02*
X121458100Y-57244700D01*
X121825300Y-52317800D02*
X121825300Y-56877500D01*
X121562500Y-52055000D02*
X121825300Y-52317800D01*
X120650000Y-58420000D02*
X120650000Y-57244700D01*
X124867500Y-74097400D02*
X124859000Y-74088900D01*
X124867500Y-75184000D02*
X124867500Y-74097400D01*
X126492000Y-72455900D02*
X124859000Y-74088900D01*
X126492000Y-72017500D02*
X126492000Y-72455900D01*
X124867500Y-79146200D02*
X124055300Y-78334000D01*
X124867500Y-79248000D02*
X124867500Y-79146200D01*
X123444000Y-77722700D02*
X124055300Y-78334000D01*
X123444000Y-72017500D02*
X123444000Y-77722700D01*
X116482500Y-75231000D02*
X116482500Y-75184000D01*
X118467500Y-77216000D02*
X116482500Y-75231000D01*
X116482500Y-72880000D02*
X115570000Y-71967500D01*
X116482500Y-75184000D02*
X116482500Y-72880000D01*
X113030000Y-77065500D02*
X113030000Y-71967500D01*
X116482500Y-80518000D02*
X113030000Y-77065500D01*
X118467500Y-80518000D02*
X116482500Y-80518000D01*
X115570000Y-68157500D02*
X115570000Y-70242500D01*
X113910000Y-60062000D02*
X113910000Y-60937300D01*
X113638500Y-65261400D02*
X113638500Y-66548000D01*
X114544200Y-64355700D02*
X113638500Y-65261400D01*
X114544200Y-61571500D02*
X114544200Y-64355700D01*
X113910000Y-60937300D02*
X114544200Y-61571500D01*
X113030000Y-67156500D02*
X113030000Y-70242500D01*
X113638500Y-66548000D02*
X113030000Y-67156500D01*
X129386500Y-70192500D02*
X129386500Y-67056000D01*
X126492000Y-70192500D02*
X129386500Y-70192500D01*
X129525000Y-70192500D02*
X129540000Y-70207500D01*
X129386500Y-70192500D02*
X129525000Y-70192500D01*
X128756300Y-65961200D02*
X127661500Y-67056000D01*
X128756300Y-59361200D02*
X128756300Y-65961200D01*
X127804700Y-58409600D02*
X128756300Y-59361200D01*
X125200300Y-58409600D02*
X127804700Y-58409600D01*
X124960000Y-58649900D02*
X125200300Y-58409600D01*
X124960000Y-59285000D02*
X124960000Y-58649900D01*
X123547500Y-70089000D02*
X123547500Y-67056000D01*
X123444000Y-70192500D02*
X123547500Y-70089000D01*
X123547500Y-63990000D02*
X124052500Y-63485000D01*
X123547500Y-67056000D02*
X123547500Y-63990000D01*
X123097100Y-62715400D02*
X122327500Y-63485000D01*
X123097100Y-59647900D02*
X123097100Y-62715400D01*
X123460000Y-59285000D02*
X123097100Y-59647900D01*
X126836700Y-60160300D02*
X127508000Y-59489000D01*
X125460000Y-60160300D02*
X126836700Y-60160300D01*
X125460000Y-59285000D02*
X125460000Y-60160300D01*
X111913500Y-61933800D02*
X111913500Y-63500000D01*
X112910000Y-60937300D02*
X111913500Y-61933800D01*
X112910000Y-60499600D02*
X112910000Y-60937300D01*
X113425000Y-52042500D02*
X113437500Y-52055000D01*
X113425000Y-49515000D02*
X113425000Y-52042500D01*
X112910000Y-60499600D02*
X112910000Y-60062000D01*
X115416200Y-54033700D02*
X113437500Y-52055000D01*
X115416200Y-56680500D02*
X115416200Y-54033700D01*
X112910000Y-59186700D02*
X115416200Y-56680500D01*
X112910000Y-60062000D02*
X112910000Y-59186700D01*
X126137500Y-49527500D02*
X126137500Y-52055000D01*
X126125000Y-49515000D02*
X126137500Y-49527500D01*
X126137500Y-63485000D02*
X125999900Y-63485000D01*
X123960000Y-59920100D02*
X123960000Y-59285000D01*
X123854100Y-60026000D02*
X123960000Y-59920100D01*
X123854100Y-61339200D02*
X123854100Y-60026000D01*
X125999900Y-63485000D02*
X123854100Y-61339200D01*
X124523500Y-64961400D02*
X125999900Y-63485000D01*
X124523500Y-69550600D02*
X124523500Y-64961400D01*
X126034800Y-71061900D02*
X124523500Y-69550600D01*
X130001100Y-71061900D02*
X126034800Y-71061900D01*
X130370000Y-70693000D02*
X130001100Y-71061900D01*
X130370000Y-55020000D02*
X130370000Y-70693000D01*
X129968600Y-54618600D02*
X130370000Y-55020000D01*
X128701100Y-54618600D02*
X129968600Y-54618600D01*
X126137500Y-52055000D02*
X128701100Y-54618600D01*
X118161000Y-59894500D02*
X117348000Y-59081500D01*
X118161000Y-63041500D02*
X118161000Y-59894500D01*
X117702500Y-63500000D02*
X118161000Y-63041500D01*
X117242800Y-59186700D02*
X117348000Y-59081500D01*
X114410000Y-59186700D02*
X117242800Y-59186700D01*
X114410000Y-60062000D02*
X114410000Y-59186700D01*
X129540000Y-55525500D02*
X127508000Y-55525500D01*
X127173200Y-55860300D02*
X127508000Y-55525500D01*
X125460000Y-55860300D02*
X127173200Y-55860300D01*
X125460000Y-54985000D02*
X125460000Y-55860300D01*
D23*
X121346000Y-66722000D02*
X121346000Y-65491700D01*
D25*
X113410000Y-61512800D02*
X113410000Y-60062000D01*
D23*
X111913500Y-65225000D02*
X113638500Y-63500000D01*
X111913500Y-66548000D02*
X111913500Y-65225000D01*
X113410000Y-63271500D02*
X113638500Y-63500000D01*
X113410000Y-61512800D02*
X113410000Y-61850000D01*
X116840000Y-43180000D02*
X116840000Y-44480300D01*
X115162500Y-46157800D02*
X115162500Y-46975000D01*
X116840000Y-44480300D02*
X115162500Y-46157800D01*
X126592500Y-74980000D02*
X126592500Y-75184000D01*
X120387100Y-64532800D02*
X120650000Y-64795700D01*
X120387100Y-62523200D02*
X120387100Y-64532800D01*
X120650000Y-62260300D02*
X120387100Y-62523200D01*
X120650000Y-60960000D02*
X120650000Y-62260300D01*
D25*
X124460000Y-58284600D02*
X124460000Y-59285000D01*
X124460000Y-60285500D02*
X124460000Y-59285000D01*
D23*
X125494100Y-57250500D02*
X125629500Y-57250500D01*
X124460000Y-58284600D02*
X125494100Y-57250500D01*
X127508000Y-57250500D02*
X129540000Y-57250500D01*
X127759700Y-45352800D02*
X127392500Y-45720000D01*
X116354700Y-53247200D02*
X116332000Y-53224500D01*
X116354700Y-56257200D02*
X116354700Y-53247200D01*
X117348000Y-57250500D02*
X116354700Y-56257200D01*
X118352000Y-57250500D02*
X118460200Y-57358700D01*
X117348000Y-57250500D02*
X118352000Y-57250500D01*
X120292500Y-77216000D02*
X120292500Y-78636500D01*
X127862500Y-61568500D02*
X127862500Y-62129500D01*
X127508000Y-61214000D02*
X127862500Y-61568500D01*
X127862500Y-49502500D02*
X127862500Y-46975000D01*
X127875000Y-49515000D02*
X127862500Y-49502500D01*
X113437500Y-45342800D02*
X114300000Y-44480300D01*
X113437500Y-46975000D02*
X113437500Y-45342800D01*
X114300000Y-43180000D02*
X114300000Y-44480300D01*
X119446000Y-72048500D02*
X119533500Y-72136000D01*
X119446000Y-69422000D02*
X119446000Y-72048500D01*
X119446000Y-69422000D02*
X119446000Y-68191700D01*
X119446000Y-66722000D02*
X119446000Y-68191700D01*
X119346400Y-57183600D02*
X120650000Y-55880000D01*
X119346400Y-65392100D02*
X119346400Y-57183600D01*
X119446000Y-65491700D02*
X119346400Y-65392100D01*
X119446000Y-66722000D02*
X119446000Y-65491700D01*
X115175000Y-48712500D02*
X113437500Y-46975000D01*
X115175000Y-49515000D02*
X115175000Y-48712500D01*
X127875000Y-49786300D02*
X127875000Y-49515000D01*
X126876300Y-50785000D02*
X127875000Y-49786300D01*
G04 #@! TA.AperFunction,Conductor*
G36*
X130433030Y-36577031D02*
G01*
X130439746Y-36577914D01*
X130447709Y-36578963D01*
X130521327Y-36590622D01*
X130549367Y-36598530D01*
X130573809Y-36608654D01*
X130578190Y-36610674D01*
X130625076Y-36634564D01*
X130644258Y-36646667D01*
X130663594Y-36661503D01*
X130669353Y-36665923D01*
X130675448Y-36671267D01*
X130714730Y-36710549D01*
X130720075Y-36716645D01*
X130739327Y-36741733D01*
X130751435Y-36760924D01*
X130764084Y-36785748D01*
X130775318Y-36807796D01*
X130777352Y-36812208D01*
X130787466Y-36836625D01*
X130795377Y-36864676D01*
X130795379Y-36864683D01*
X130807037Y-36938296D01*
X130808969Y-36952967D01*
X130809500Y-36961069D01*
X130809500Y-54275547D01*
X130789815Y-54342586D01*
X130737011Y-54388341D01*
X130667853Y-54398285D01*
X130604297Y-54369260D01*
X130597819Y-54363228D01*
X130469403Y-54234812D01*
X130459580Y-54222550D01*
X130459359Y-54222734D01*
X130454386Y-54216723D01*
X130403964Y-54169373D01*
X130393519Y-54158928D01*
X130383075Y-54148483D01*
X130377586Y-54144225D01*
X130373161Y-54140447D01*
X130339182Y-54108538D01*
X130339180Y-54108536D01*
X130339177Y-54108535D01*
X130321629Y-54098888D01*
X130305363Y-54088204D01*
X130289536Y-54075927D01*
X130289535Y-54075926D01*
X130289533Y-54075925D01*
X130246768Y-54057418D01*
X130241522Y-54054848D01*
X130200693Y-54032403D01*
X130200692Y-54032402D01*
X130181293Y-54027422D01*
X130162881Y-54021118D01*
X130144498Y-54013162D01*
X130144492Y-54013160D01*
X130098474Y-54005872D01*
X130092752Y-54004687D01*
X130047621Y-53993100D01*
X130047619Y-53993100D01*
X130027584Y-53993100D01*
X130008186Y-53991573D01*
X130000762Y-53990397D01*
X129988405Y-53988440D01*
X129988404Y-53988440D01*
X129942016Y-53992825D01*
X129936178Y-53993100D01*
X129011552Y-53993100D01*
X128944513Y-53973415D01*
X128923871Y-53956781D01*
X128201495Y-53234405D01*
X128168010Y-53173082D01*
X128172994Y-53103390D01*
X128214866Y-53047457D01*
X128276576Y-53023366D01*
X128312651Y-53019681D01*
X128476300Y-52965453D01*
X128476311Y-52965448D01*
X128623034Y-52874947D01*
X128623038Y-52874944D01*
X128744944Y-52753038D01*
X128744947Y-52753034D01*
X128835448Y-52606311D01*
X128835453Y-52606300D01*
X128889680Y-52442652D01*
X128899999Y-52341654D01*
X128900000Y-52341641D01*
X128900000Y-52305000D01*
X127736500Y-52305000D01*
X127669461Y-52285315D01*
X127623706Y-52232511D01*
X127612500Y-52181000D01*
X127612500Y-51344089D01*
X127629112Y-51282090D01*
X127703479Y-51153284D01*
X127727290Y-51080000D01*
X128112500Y-51080000D01*
X128112500Y-51805000D01*
X128899999Y-51805000D01*
X128899999Y-51768360D01*
X128899998Y-51768345D01*
X128889680Y-51667347D01*
X128835453Y-51503699D01*
X128835448Y-51503688D01*
X128744947Y-51356965D01*
X128744944Y-51356961D01*
X128623038Y-51235055D01*
X128623034Y-51235052D01*
X128476311Y-51144551D01*
X128476300Y-51144546D01*
X128312652Y-51090319D01*
X128211654Y-51080000D01*
X128112500Y-51080000D01*
X127727290Y-51080000D01*
X127758822Y-50982955D01*
X127789069Y-50933597D01*
X128203307Y-50519359D01*
X128264628Y-50485876D01*
X128278382Y-50483684D01*
X128312753Y-50480174D01*
X128476516Y-50425908D01*
X128623350Y-50335340D01*
X128745340Y-50213350D01*
X128835908Y-50066516D01*
X128890174Y-49902753D01*
X128900500Y-49801677D01*
X128900499Y-49228324D01*
X128890174Y-49127247D01*
X128835908Y-48963484D01*
X128745340Y-48816650D01*
X128649319Y-48720629D01*
X128615834Y-48659306D01*
X128613000Y-48632948D01*
X128613000Y-47857052D01*
X128632685Y-47790013D01*
X128649319Y-47769371D01*
X128659509Y-47759181D01*
X128745340Y-47673350D01*
X128835908Y-47526516D01*
X128890174Y-47362753D01*
X128900500Y-47261677D01*
X128900499Y-46688324D01*
X128890174Y-46587247D01*
X128835908Y-46423484D01*
X128745340Y-46276650D01*
X128623350Y-46154660D01*
X128532129Y-46098395D01*
X128476518Y-46064093D01*
X128476513Y-46064091D01*
X128445004Y-46053650D01*
X128312753Y-46009826D01*
X128312751Y-46009825D01*
X128211678Y-45999500D01*
X127513330Y-45999500D01*
X127513312Y-45999501D01*
X127412247Y-46009825D01*
X127248484Y-46064092D01*
X127248481Y-46064093D01*
X127101648Y-46154661D01*
X127087325Y-46168984D01*
X127026001Y-46202468D01*
X126956309Y-46197482D01*
X126911965Y-46168982D01*
X126898038Y-46155055D01*
X126898034Y-46155052D01*
X126751311Y-46064551D01*
X126751300Y-46064546D01*
X126587651Y-46010318D01*
X126522357Y-46003648D01*
X126457665Y-45977251D01*
X126417514Y-45920071D01*
X126414651Y-45850260D01*
X126447277Y-45792612D01*
X127383786Y-44856102D01*
X127396048Y-44846280D01*
X127395865Y-44846059D01*
X127401867Y-44841092D01*
X127401877Y-44841086D01*
X127449241Y-44790648D01*
X127470120Y-44769770D01*
X127474373Y-44764286D01*
X127478150Y-44759863D01*
X127510062Y-44725882D01*
X127519714Y-44708323D01*
X127530389Y-44692072D01*
X127542674Y-44676236D01*
X127561186Y-44633452D01*
X127563746Y-44628226D01*
X127573244Y-44610951D01*
X127582149Y-44594756D01*
X127631698Y-44545494D01*
X127690808Y-44530499D01*
X127897871Y-44530499D01*
X127897872Y-44530499D01*
X127957483Y-44524091D01*
X128092331Y-44473796D01*
X128207546Y-44387546D01*
X128293796Y-44272331D01*
X128344091Y-44137483D01*
X128350500Y-44077873D01*
X128350499Y-42282128D01*
X128344091Y-42222517D01*
X128342810Y-42219083D01*
X128293797Y-42087671D01*
X128293793Y-42087664D01*
X128207547Y-41972455D01*
X128207544Y-41972452D01*
X128092335Y-41886206D01*
X128092328Y-41886202D01*
X127960917Y-41837189D01*
X127904983Y-41795318D01*
X127880566Y-41729853D01*
X127895418Y-41661580D01*
X127916563Y-41633332D01*
X128038495Y-41511401D01*
X128174035Y-41317830D01*
X128273903Y-41103663D01*
X128335063Y-40875408D01*
X128355659Y-40640000D01*
X128335063Y-40404592D01*
X128273903Y-40176337D01*
X128174035Y-39962171D01*
X128169826Y-39956159D01*
X128038494Y-39768597D01*
X127871402Y-39601506D01*
X127871395Y-39601501D01*
X127849834Y-39586404D01*
X127809131Y-39557903D01*
X127677834Y-39465967D01*
X127677830Y-39465965D01*
X127677828Y-39465964D01*
X127463663Y-39366097D01*
X127463659Y-39366096D01*
X127463655Y-39366094D01*
X127235413Y-39304938D01*
X127235403Y-39304936D01*
X127000001Y-39284341D01*
X126999999Y-39284341D01*
X126764596Y-39304936D01*
X126764586Y-39304938D01*
X126536344Y-39366094D01*
X126536335Y-39366098D01*
X126322171Y-39465964D01*
X126322169Y-39465965D01*
X126128597Y-39601505D01*
X125961505Y-39768597D01*
X125831575Y-39954158D01*
X125776998Y-39997783D01*
X125707500Y-40004977D01*
X125645145Y-39973454D01*
X125628425Y-39954158D01*
X125498494Y-39768597D01*
X125331402Y-39601506D01*
X125331395Y-39601501D01*
X125309834Y-39586404D01*
X125269131Y-39557903D01*
X125137834Y-39465967D01*
X125137830Y-39465965D01*
X125137828Y-39465964D01*
X124923663Y-39366097D01*
X124923659Y-39366096D01*
X124923655Y-39366094D01*
X124695413Y-39304938D01*
X124695403Y-39304936D01*
X124460001Y-39284341D01*
X124459999Y-39284341D01*
X124224596Y-39304936D01*
X124224586Y-39304938D01*
X123996344Y-39366094D01*
X123996335Y-39366098D01*
X123782171Y-39465964D01*
X123782169Y-39465965D01*
X123588597Y-39601505D01*
X123421505Y-39768597D01*
X123291575Y-39954158D01*
X123236998Y-39997783D01*
X123167500Y-40004977D01*
X123105145Y-39973454D01*
X123088425Y-39954158D01*
X122958494Y-39768597D01*
X122791402Y-39601506D01*
X122791395Y-39601501D01*
X122769834Y-39586404D01*
X122729131Y-39557903D01*
X122597834Y-39465967D01*
X122597830Y-39465965D01*
X122597828Y-39465964D01*
X122383663Y-39366097D01*
X122383659Y-39366096D01*
X122383655Y-39366094D01*
X122155413Y-39304938D01*
X122155403Y-39304936D01*
X121920001Y-39284341D01*
X121919999Y-39284341D01*
X121684596Y-39304936D01*
X121684586Y-39304938D01*
X121456344Y-39366094D01*
X121456335Y-39366098D01*
X121242171Y-39465964D01*
X121242169Y-39465965D01*
X121080657Y-39579056D01*
X121014450Y-39601384D01*
X120946683Y-39584372D01*
X120921853Y-39565162D01*
X120437603Y-39080912D01*
X120427780Y-39068650D01*
X120427559Y-39068834D01*
X120422586Y-39062823D01*
X120403959Y-39045331D01*
X120372164Y-39015473D01*
X120361719Y-39005028D01*
X120351275Y-38994583D01*
X120345786Y-38990325D01*
X120341361Y-38986547D01*
X120307382Y-38954638D01*
X120307380Y-38954636D01*
X120307377Y-38954635D01*
X120289829Y-38944988D01*
X120273563Y-38934304D01*
X120257733Y-38922025D01*
X120214968Y-38903518D01*
X120209722Y-38900948D01*
X120168893Y-38878503D01*
X120168892Y-38878502D01*
X120149493Y-38873522D01*
X120131081Y-38867218D01*
X120112698Y-38859262D01*
X120112692Y-38859260D01*
X120066674Y-38851972D01*
X120060952Y-38850787D01*
X120015821Y-38839200D01*
X120015819Y-38839200D01*
X119995784Y-38839200D01*
X119976386Y-38837673D01*
X119968962Y-38836497D01*
X119956605Y-38834540D01*
X119956604Y-38834540D01*
X119910216Y-38838925D01*
X119904378Y-38839200D01*
X118887438Y-38839200D01*
X118871821Y-38837476D01*
X118871794Y-38837762D01*
X118864032Y-38837027D01*
X118794904Y-38839200D01*
X118765350Y-38839200D01*
X118764629Y-38839290D01*
X118758457Y-38840069D01*
X118752645Y-38840526D01*
X118706073Y-38841990D01*
X118706072Y-38841990D01*
X118686829Y-38847581D01*
X118667779Y-38851525D01*
X118647911Y-38854034D01*
X118647909Y-38854035D01*
X118604584Y-38871188D01*
X118599057Y-38873080D01*
X118554310Y-38886081D01*
X118554309Y-38886082D01*
X118537067Y-38896279D01*
X118519599Y-38904837D01*
X118500969Y-38912213D01*
X118500967Y-38912214D01*
X118463276Y-38939598D01*
X118458394Y-38942805D01*
X118418279Y-38966530D01*
X118404108Y-38980700D01*
X118389323Y-38993328D01*
X118373112Y-39005107D01*
X118343409Y-39041010D01*
X118339477Y-39045331D01*
X117826904Y-39557903D01*
X117765581Y-39591388D01*
X117695889Y-39586404D01*
X117668099Y-39571796D01*
X117517585Y-39466404D01*
X117517579Y-39466400D01*
X117303492Y-39366570D01*
X117303486Y-39366567D01*
X117090000Y-39309364D01*
X117090000Y-40204498D01*
X116982315Y-40155320D01*
X116875763Y-40140000D01*
X116804237Y-40140000D01*
X116697685Y-40155320D01*
X116590000Y-40204498D01*
X116590000Y-39309364D01*
X116589999Y-39309364D01*
X116376513Y-39366567D01*
X116376507Y-39366570D01*
X116162422Y-39466399D01*
X116162420Y-39466400D01*
X115968926Y-39601886D01*
X115968920Y-39601891D01*
X115801891Y-39768920D01*
X115801890Y-39768922D01*
X115671880Y-39954595D01*
X115617303Y-39998219D01*
X115547804Y-40005412D01*
X115485450Y-39973890D01*
X115468730Y-39954594D01*
X115338494Y-39768597D01*
X115171402Y-39601506D01*
X115171395Y-39601501D01*
X115149834Y-39586404D01*
X115109131Y-39557903D01*
X114977834Y-39465967D01*
X114977830Y-39465965D01*
X114977828Y-39465964D01*
X114763663Y-39366097D01*
X114763659Y-39366096D01*
X114763655Y-39366094D01*
X114535413Y-39304938D01*
X114535403Y-39304936D01*
X114300001Y-39284341D01*
X114299999Y-39284341D01*
X114064596Y-39304936D01*
X114064586Y-39304938D01*
X113836344Y-39366094D01*
X113836335Y-39366098D01*
X113622171Y-39465964D01*
X113622169Y-39465965D01*
X113428597Y-39601505D01*
X113261505Y-39768597D01*
X113125965Y-39962169D01*
X113125964Y-39962171D01*
X113026098Y-40176335D01*
X113026094Y-40176344D01*
X112964938Y-40404586D01*
X112964936Y-40404596D01*
X112944341Y-40639999D01*
X112944341Y-40640000D01*
X112964936Y-40875403D01*
X112964938Y-40875413D01*
X113026094Y-41103655D01*
X113026096Y-41103659D01*
X113026097Y-41103663D01*
X113125965Y-41317830D01*
X113125967Y-41317834D01*
X113264610Y-41515836D01*
X113263439Y-41516655D01*
X113288753Y-41574505D01*
X113277710Y-41643496D01*
X113253431Y-41677876D01*
X111729308Y-43201999D01*
X111717051Y-43211820D01*
X111717234Y-43212041D01*
X111711223Y-43217013D01*
X111663872Y-43267436D01*
X111642989Y-43288319D01*
X111642977Y-43288332D01*
X111638721Y-43293817D01*
X111634937Y-43298247D01*
X111603037Y-43332218D01*
X111603036Y-43332220D01*
X111593384Y-43349776D01*
X111582710Y-43366026D01*
X111570429Y-43381861D01*
X111570424Y-43381868D01*
X111551915Y-43424638D01*
X111549345Y-43429884D01*
X111526903Y-43470706D01*
X111521922Y-43490107D01*
X111515621Y-43508510D01*
X111507662Y-43526902D01*
X111507661Y-43526905D01*
X111500371Y-43572927D01*
X111499187Y-43578646D01*
X111487601Y-43623772D01*
X111487600Y-43623782D01*
X111487600Y-43643816D01*
X111486073Y-43663215D01*
X111482940Y-43682994D01*
X111482940Y-43682995D01*
X111487325Y-43729383D01*
X111487600Y-43735221D01*
X111487600Y-53555155D01*
X111485875Y-53570772D01*
X111486161Y-53570799D01*
X111485426Y-53578565D01*
X111487600Y-53647714D01*
X111487600Y-53677243D01*
X111487601Y-53677260D01*
X111488468Y-53684131D01*
X111488926Y-53689950D01*
X111490390Y-53736524D01*
X111490391Y-53736527D01*
X111495980Y-53755767D01*
X111499924Y-53774811D01*
X111502436Y-53794692D01*
X111516754Y-53830857D01*
X111519590Y-53838019D01*
X111521482Y-53843547D01*
X111534481Y-53888288D01*
X111544680Y-53905534D01*
X111553238Y-53923003D01*
X111560614Y-53941632D01*
X111587998Y-53979323D01*
X111591206Y-53984207D01*
X111614927Y-54024316D01*
X111614933Y-54024324D01*
X111629090Y-54038480D01*
X111641727Y-54053275D01*
X111653506Y-54069487D01*
X111681967Y-54093032D01*
X111689409Y-54099188D01*
X111693720Y-54103110D01*
X112053377Y-54462767D01*
X112359016Y-54768406D01*
X112392501Y-54829729D01*
X112387517Y-54899421D01*
X112370602Y-54930398D01*
X112341204Y-54969668D01*
X112341202Y-54969671D01*
X112290908Y-55104517D01*
X112284501Y-55164116D01*
X112284500Y-55164135D01*
X112284500Y-55451547D01*
X112264815Y-55518586D01*
X112248180Y-55539229D01*
X112212510Y-55574898D01*
X112200248Y-55584723D01*
X112200431Y-55584944D01*
X112194420Y-55589915D01*
X112147071Y-55640337D01*
X112126189Y-55661219D01*
X112126177Y-55661232D01*
X112121921Y-55666717D01*
X112118137Y-55671147D01*
X112086237Y-55705118D01*
X112086236Y-55705120D01*
X112076584Y-55722676D01*
X112065910Y-55738926D01*
X112053629Y-55754761D01*
X112053624Y-55754768D01*
X112035115Y-55797538D01*
X112032545Y-55802784D01*
X112010103Y-55843606D01*
X112005122Y-55863007D01*
X111998821Y-55881410D01*
X111990862Y-55899802D01*
X111990861Y-55899805D01*
X111983571Y-55945827D01*
X111982387Y-55951546D01*
X111970801Y-55996672D01*
X111970800Y-55996682D01*
X111970800Y-56016716D01*
X111969273Y-56036115D01*
X111966140Y-56055894D01*
X111966140Y-56055895D01*
X111970525Y-56102283D01*
X111970800Y-56108121D01*
X111970800Y-57643755D01*
X111969075Y-57659372D01*
X111969361Y-57659399D01*
X111968626Y-57667165D01*
X111970800Y-57736314D01*
X111970800Y-57765843D01*
X111970801Y-57765860D01*
X111971668Y-57772731D01*
X111972126Y-57778550D01*
X111973590Y-57825124D01*
X111973591Y-57825127D01*
X111979180Y-57844367D01*
X111983124Y-57863411D01*
X111985636Y-57883292D01*
X112002790Y-57926619D01*
X112004682Y-57932147D01*
X112017681Y-57976888D01*
X112027880Y-57994134D01*
X112036438Y-58011603D01*
X112043815Y-58030234D01*
X112045804Y-58033852D01*
X112060309Y-58090352D01*
X112060461Y-58090337D01*
X112060568Y-58091360D01*
X112061140Y-58093586D01*
X112061140Y-58096797D01*
X112061140Y-58096800D01*
X112080926Y-58285056D01*
X112080927Y-58285059D01*
X112139418Y-58465077D01*
X112139421Y-58465084D01*
X112234067Y-58629016D01*
X112324465Y-58729413D01*
X112339997Y-58746663D01*
X112370227Y-58809654D01*
X112361649Y-58878880D01*
X112348817Y-58908535D01*
X112346246Y-58913783D01*
X112323803Y-58954607D01*
X112318822Y-58974007D01*
X112312521Y-58992410D01*
X112304562Y-59010802D01*
X112304561Y-59010805D01*
X112297271Y-59056827D01*
X112296087Y-59062546D01*
X112284501Y-59107672D01*
X112284500Y-59107682D01*
X112284500Y-59127716D01*
X112282973Y-59147115D01*
X112279840Y-59166894D01*
X112279840Y-59166895D01*
X112284225Y-59213283D01*
X112284500Y-59219121D01*
X112284500Y-60626846D01*
X112264815Y-60693885D01*
X112248181Y-60714527D01*
X111529708Y-61432999D01*
X111517451Y-61442820D01*
X111517634Y-61443041D01*
X111511623Y-61448013D01*
X111464272Y-61498436D01*
X111443389Y-61519319D01*
X111443377Y-61519332D01*
X111439121Y-61524817D01*
X111435337Y-61529247D01*
X111403437Y-61563218D01*
X111403436Y-61563220D01*
X111393784Y-61580776D01*
X111383110Y-61597026D01*
X111370829Y-61612861D01*
X111370824Y-61612868D01*
X111352315Y-61655638D01*
X111349745Y-61660884D01*
X111327303Y-61701706D01*
X111322322Y-61721107D01*
X111316021Y-61739510D01*
X111308062Y-61757902D01*
X111308061Y-61757905D01*
X111300771Y-61803927D01*
X111299587Y-61809646D01*
X111288001Y-61854772D01*
X111288000Y-61854782D01*
X111288000Y-61874816D01*
X111286473Y-61894215D01*
X111283340Y-61913994D01*
X111283340Y-61913995D01*
X111287725Y-61960383D01*
X111288000Y-61966221D01*
X111288000Y-62526968D01*
X111268315Y-62594007D01*
X111229097Y-62632506D01*
X111152653Y-62679657D01*
X111152649Y-62679660D01*
X111030661Y-62801648D01*
X110940093Y-62948481D01*
X110940092Y-62948484D01*
X110885826Y-63112247D01*
X110885826Y-63112248D01*
X110885825Y-63112248D01*
X110875500Y-63213315D01*
X110875500Y-63786669D01*
X110875501Y-63786687D01*
X110885825Y-63887752D01*
X110922109Y-63997249D01*
X110940092Y-64051516D01*
X111030660Y-64198350D01*
X111152650Y-64320340D01*
X111299484Y-64410908D01*
X111463247Y-64465174D01*
X111564323Y-64475500D01*
X112262676Y-64475499D01*
X112262684Y-64475498D01*
X112262687Y-64475498D01*
X112318030Y-64469844D01*
X112363753Y-64465174D01*
X112527516Y-64410908D01*
X112674350Y-64320340D01*
X112688671Y-64306018D01*
X112749989Y-64272533D01*
X112819681Y-64277514D01*
X112864034Y-64306017D01*
X112877961Y-64319944D01*
X112877965Y-64319947D01*
X113024688Y-64410448D01*
X113024699Y-64410453D01*
X113188348Y-64464681D01*
X113257448Y-64471740D01*
X113322140Y-64498136D01*
X113362291Y-64555316D01*
X113365155Y-64625127D01*
X113332528Y-64682779D01*
X113254708Y-64760600D01*
X113242451Y-64770420D01*
X113242634Y-64770641D01*
X113236623Y-64775613D01*
X113189272Y-64826036D01*
X113168389Y-64846919D01*
X113168377Y-64846932D01*
X113164121Y-64852417D01*
X113160337Y-64856847D01*
X113128437Y-64890818D01*
X113128436Y-64890820D01*
X113118784Y-64908376D01*
X113108110Y-64924626D01*
X113095829Y-64940461D01*
X113095824Y-64940468D01*
X113077315Y-64983238D01*
X113074745Y-64988484D01*
X113052303Y-65029306D01*
X113047322Y-65048707D01*
X113041021Y-65067110D01*
X113033062Y-65085502D01*
X113033061Y-65085505D01*
X113025771Y-65131527D01*
X113024587Y-65137246D01*
X113013001Y-65182372D01*
X113013000Y-65182382D01*
X113013000Y-65202416D01*
X113011473Y-65221815D01*
X113008340Y-65241594D01*
X113008340Y-65241595D01*
X113012725Y-65287983D01*
X113013000Y-65293821D01*
X113013000Y-65574968D01*
X112993315Y-65642007D01*
X112954097Y-65680506D01*
X112877653Y-65727657D01*
X112877648Y-65727661D01*
X112863325Y-65741984D01*
X112802001Y-65775468D01*
X112732309Y-65770482D01*
X112687965Y-65741982D01*
X112674038Y-65728055D01*
X112674034Y-65728052D01*
X112527311Y-65637551D01*
X112527300Y-65637546D01*
X112363652Y-65583319D01*
X112262654Y-65573000D01*
X112163500Y-65573000D01*
X112163500Y-67522999D01*
X112262640Y-67522999D01*
X112262651Y-67522998D01*
X112267889Y-67522463D01*
X112336583Y-67535228D01*
X112387471Y-67583105D01*
X112404500Y-67645820D01*
X112404500Y-69245518D01*
X112384815Y-69312557D01*
X112345600Y-69351055D01*
X112331650Y-69359660D01*
X112331649Y-69359660D01*
X112209661Y-69481648D01*
X112119093Y-69628481D01*
X112119092Y-69628484D01*
X112064826Y-69792247D01*
X112064826Y-69792248D01*
X112064825Y-69792248D01*
X112054500Y-69893315D01*
X112054500Y-70591669D01*
X112054501Y-70591687D01*
X112064825Y-70692752D01*
X112119092Y-70856515D01*
X112119093Y-70856518D01*
X112209661Y-71003351D01*
X112223629Y-71017319D01*
X112257114Y-71078642D01*
X112252130Y-71148334D01*
X112223629Y-71192681D01*
X112209661Y-71206648D01*
X112119093Y-71353481D01*
X112119091Y-71353486D01*
X112094026Y-71429129D01*
X112064826Y-71517247D01*
X112064826Y-71517248D01*
X112064825Y-71517248D01*
X112054500Y-71618315D01*
X112054500Y-72316669D01*
X112054501Y-72316687D01*
X112064825Y-72417752D01*
X112119092Y-72581515D01*
X112119093Y-72581518D01*
X112148754Y-72629606D01*
X112209660Y-72728350D01*
X112331650Y-72850340D01*
X112343920Y-72857908D01*
X112345596Y-72858942D01*
X112392321Y-72910890D01*
X112404500Y-72964481D01*
X112404500Y-76982755D01*
X112402775Y-76998372D01*
X112403061Y-76998399D01*
X112402326Y-77006165D01*
X112404500Y-77075314D01*
X112404500Y-77104843D01*
X112404501Y-77104860D01*
X112405368Y-77111731D01*
X112405826Y-77117550D01*
X112407290Y-77164124D01*
X112407291Y-77164127D01*
X112412880Y-77183367D01*
X112416824Y-77202411D01*
X112419336Y-77222291D01*
X112436490Y-77265619D01*
X112438382Y-77271147D01*
X112451382Y-77315890D01*
X112451439Y-77315987D01*
X112461580Y-77333134D01*
X112470138Y-77350603D01*
X112477514Y-77369232D01*
X112504898Y-77406923D01*
X112508106Y-77411807D01*
X112531827Y-77451916D01*
X112531833Y-77451924D01*
X112545990Y-77466080D01*
X112558628Y-77480876D01*
X112570405Y-77497086D01*
X112570406Y-77497087D01*
X112606309Y-77526788D01*
X112610620Y-77530710D01*
X113382679Y-78302770D01*
X113624873Y-78544964D01*
X113658358Y-78606287D01*
X113653374Y-78675979D01*
X113611502Y-78731912D01*
X113610078Y-78732962D01*
X113565831Y-78765109D01*
X113565829Y-78765111D01*
X113439166Y-78905785D01*
X113344521Y-79069715D01*
X113344518Y-79069722D01*
X113286027Y-79249740D01*
X113286026Y-79249744D01*
X113266240Y-79438000D01*
X113286026Y-79626256D01*
X113286027Y-79626259D01*
X113344518Y-79806277D01*
X113344521Y-79806284D01*
X113439166Y-79970215D01*
X113517368Y-80057068D01*
X113547598Y-80120060D01*
X113548093Y-80125163D01*
X113548989Y-80130822D01*
X113551345Y-80138930D01*
X113554580Y-80150067D01*
X113558524Y-80169111D01*
X113561036Y-80188992D01*
X113570610Y-80213173D01*
X113578190Y-80232319D01*
X113580082Y-80237847D01*
X113593081Y-80282588D01*
X113603280Y-80299834D01*
X113611838Y-80317303D01*
X113619214Y-80335932D01*
X113646596Y-80373621D01*
X113649796Y-80378490D01*
X113650972Y-80380477D01*
X113652215Y-80382580D01*
X113669500Y-80445728D01*
X113669500Y-80804669D01*
X113669501Y-80804687D01*
X113679825Y-80905752D01*
X113716109Y-81015249D01*
X113734020Y-81069300D01*
X113734092Y-81069515D01*
X113734093Y-81069518D01*
X113768395Y-81125129D01*
X113824660Y-81216350D01*
X113946650Y-81338340D01*
X114093484Y-81428908D01*
X114257247Y-81483174D01*
X114358323Y-81493500D01*
X114956676Y-81493499D01*
X114956684Y-81493498D01*
X114956687Y-81493498D01*
X115012030Y-81487844D01*
X115057753Y-81483174D01*
X115221516Y-81428908D01*
X115368350Y-81338340D01*
X115482319Y-81224371D01*
X115543642Y-81190886D01*
X115613334Y-81195870D01*
X115657681Y-81224371D01*
X115771650Y-81338340D01*
X115918484Y-81428908D01*
X116082247Y-81483174D01*
X116183323Y-81493500D01*
X116781676Y-81493499D01*
X116781684Y-81493498D01*
X116781687Y-81493498D01*
X116837030Y-81487844D01*
X116882753Y-81483174D01*
X117046516Y-81428908D01*
X117193350Y-81338340D01*
X117315340Y-81216350D01*
X117323942Y-81202404D01*
X117375890Y-81155679D01*
X117429481Y-81143500D01*
X117520519Y-81143500D01*
X117587558Y-81163185D01*
X117626058Y-81202404D01*
X117634660Y-81216350D01*
X117756650Y-81338340D01*
X117903484Y-81428908D01*
X118067247Y-81483174D01*
X118168323Y-81493500D01*
X118766676Y-81493499D01*
X118766684Y-81493498D01*
X118766687Y-81493498D01*
X118822030Y-81487844D01*
X118867753Y-81483174D01*
X119031516Y-81428908D01*
X119178350Y-81338340D01*
X119292675Y-81224014D01*
X119353994Y-81190532D01*
X119423686Y-81195516D01*
X119468034Y-81224017D01*
X119581961Y-81337944D01*
X119581965Y-81337947D01*
X119728688Y-81428448D01*
X119728699Y-81428453D01*
X119892347Y-81482680D01*
X119993351Y-81492999D01*
X120042499Y-81492998D01*
X120042500Y-81492998D01*
X120042500Y-80768000D01*
X120542500Y-80768000D01*
X120542500Y-81492999D01*
X120591640Y-81492999D01*
X120591654Y-81492998D01*
X120692652Y-81482680D01*
X120856300Y-81428453D01*
X120856311Y-81428448D01*
X121003034Y-81337947D01*
X121003038Y-81337944D01*
X121124944Y-81216038D01*
X121124947Y-81216034D01*
X121215448Y-81069311D01*
X121215453Y-81069300D01*
X121269680Y-80905652D01*
X121279999Y-80804654D01*
X121280000Y-80804641D01*
X121280000Y-80768000D01*
X120542500Y-80768000D01*
X120042500Y-80768000D01*
X120042500Y-79543000D01*
X120542500Y-79543000D01*
X120542500Y-80268000D01*
X121279999Y-80268000D01*
X121279999Y-80231360D01*
X121279998Y-80231345D01*
X121269680Y-80130347D01*
X121215453Y-79966699D01*
X121215448Y-79966688D01*
X121124947Y-79819965D01*
X121124944Y-79819961D01*
X121003038Y-79698055D01*
X121003034Y-79698052D01*
X120856311Y-79607551D01*
X120856300Y-79607546D01*
X120692652Y-79553319D01*
X120591654Y-79543000D01*
X120542500Y-79543000D01*
X120042500Y-79543000D01*
X120042499Y-79542999D01*
X119993361Y-79543000D01*
X119993343Y-79543001D01*
X119892347Y-79553319D01*
X119728699Y-79607546D01*
X119728688Y-79607551D01*
X119581965Y-79698052D01*
X119468034Y-79811983D01*
X119406711Y-79845467D01*
X119337019Y-79840483D01*
X119292672Y-79811982D01*
X119178351Y-79697661D01*
X119178350Y-79697660D01*
X119062586Y-79626256D01*
X119031518Y-79607093D01*
X119031513Y-79607091D01*
X119030069Y-79606612D01*
X118867753Y-79552826D01*
X118867751Y-79552825D01*
X118766678Y-79542500D01*
X118168330Y-79542500D01*
X118168312Y-79542501D01*
X118067247Y-79552825D01*
X117903484Y-79607092D01*
X117903481Y-79607093D01*
X117756648Y-79697661D01*
X117634660Y-79819649D01*
X117634659Y-79819651D01*
X117626058Y-79833596D01*
X117574110Y-79880321D01*
X117520519Y-79892500D01*
X117429481Y-79892500D01*
X117362442Y-79872815D01*
X117323942Y-79833596D01*
X117315534Y-79819965D01*
X117315340Y-79819650D01*
X117193350Y-79697660D01*
X117077586Y-79626256D01*
X117046518Y-79607093D01*
X117046513Y-79607091D01*
X117045069Y-79606612D01*
X116882753Y-79552826D01*
X116882751Y-79552825D01*
X116781684Y-79542500D01*
X116781677Y-79542500D01*
X116442953Y-79542500D01*
X116375914Y-79522815D01*
X116355272Y-79506181D01*
X115151861Y-78302770D01*
X115118376Y-78241447D01*
X115123360Y-78171755D01*
X115165232Y-78115822D01*
X115230696Y-78091405D01*
X115264503Y-78093627D01*
X115268938Y-78094538D01*
X115268942Y-78094540D01*
X115468259Y-78135500D01*
X115620743Y-78135500D01*
X115772439Y-78120074D01*
X115966579Y-78059162D01*
X115966580Y-78059161D01*
X115966588Y-78059159D01*
X116144502Y-77960409D01*
X116298895Y-77827866D01*
X116423448Y-77666958D01*
X116513060Y-77484271D01*
X116564063Y-77287285D01*
X116574369Y-77084064D01*
X116543556Y-76882929D01*
X116472886Y-76692113D01*
X116365252Y-76519429D01*
X116225059Y-76371947D01*
X116225058Y-76371946D01*
X116222192Y-76368931D01*
X116190271Y-76306780D01*
X116197019Y-76237237D01*
X116240294Y-76182382D01*
X116306355Y-76159631D01*
X116312038Y-76159499D01*
X116475047Y-76159499D01*
X116542086Y-76179184D01*
X116562728Y-76195818D01*
X117443181Y-77076272D01*
X117476666Y-77137595D01*
X117479500Y-77163953D01*
X117479500Y-77502668D01*
X117479501Y-77502687D01*
X117489825Y-77603752D01*
X117526109Y-77713249D01*
X117544092Y-77767516D01*
X117634660Y-77914350D01*
X117756650Y-78036340D01*
X117903484Y-78126908D01*
X118067247Y-78181174D01*
X118168323Y-78191500D01*
X118766676Y-78191499D01*
X118766684Y-78191498D01*
X118766687Y-78191498D01*
X118840205Y-78183988D01*
X118867753Y-78181174D01*
X119031516Y-78126908D01*
X119178350Y-78036340D01*
X119292675Y-77922014D01*
X119353994Y-77888532D01*
X119423686Y-77893516D01*
X119468034Y-77922017D01*
X119581961Y-78035944D01*
X119581965Y-78035947D01*
X119728688Y-78126448D01*
X119728699Y-78126453D01*
X119892347Y-78180680D01*
X119993351Y-78190999D01*
X120042499Y-78190998D01*
X120042500Y-78190998D01*
X120042500Y-77466000D01*
X120542500Y-77466000D01*
X120542500Y-78190999D01*
X120591640Y-78190999D01*
X120591654Y-78190998D01*
X120692652Y-78180680D01*
X120856300Y-78126453D01*
X120856311Y-78126448D01*
X121003034Y-78035947D01*
X121003038Y-78035944D01*
X121124944Y-77914038D01*
X121124947Y-77914034D01*
X121215448Y-77767311D01*
X121215453Y-77767300D01*
X121269680Y-77603652D01*
X121279999Y-77502654D01*
X121280000Y-77502641D01*
X121280000Y-77466000D01*
X120542500Y-77466000D01*
X120042500Y-77466000D01*
X120042500Y-76241000D01*
X120542500Y-76241000D01*
X120542500Y-76966000D01*
X121279999Y-76966000D01*
X121279999Y-76929360D01*
X121279998Y-76929345D01*
X121269680Y-76828347D01*
X121215453Y-76664699D01*
X121215448Y-76664688D01*
X121124947Y-76517965D01*
X121124944Y-76517961D01*
X121003038Y-76396055D01*
X121003034Y-76396052D01*
X120856311Y-76305551D01*
X120856300Y-76305546D01*
X120692652Y-76251319D01*
X120591654Y-76241000D01*
X120542500Y-76241000D01*
X120042500Y-76241000D01*
X120042499Y-76240999D01*
X119993361Y-76241000D01*
X119993343Y-76241001D01*
X119892347Y-76251319D01*
X119728699Y-76305546D01*
X119728688Y-76305551D01*
X119581965Y-76396052D01*
X119468034Y-76509983D01*
X119406711Y-76543467D01*
X119337019Y-76538483D01*
X119292672Y-76509982D01*
X119178351Y-76395661D01*
X119178350Y-76395660D01*
X119034253Y-76306780D01*
X119031518Y-76305093D01*
X119031513Y-76305091D01*
X119002919Y-76295616D01*
X118867753Y-76250826D01*
X118867751Y-76250825D01*
X118766684Y-76240500D01*
X118766677Y-76240500D01*
X118427952Y-76240500D01*
X118360913Y-76220815D01*
X118340271Y-76204181D01*
X117506818Y-75370728D01*
X117473333Y-75309405D01*
X117470499Y-75283047D01*
X117470499Y-74897330D01*
X117470498Y-74897313D01*
X117460174Y-74796247D01*
X117405908Y-74632484D01*
X117315340Y-74485650D01*
X117193350Y-74363660D01*
X117193347Y-74363657D01*
X117166901Y-74347345D01*
X117120178Y-74295397D01*
X117108000Y-74241808D01*
X117108000Y-72962742D01*
X117109724Y-72947122D01*
X117109439Y-72947096D01*
X117110171Y-72939340D01*
X117110173Y-72939333D01*
X117108000Y-72870185D01*
X117108000Y-72840650D01*
X117107204Y-72834350D01*
X117107131Y-72833772D01*
X117106672Y-72827943D01*
X117105209Y-72781372D01*
X117099622Y-72762144D01*
X117095674Y-72743084D01*
X117095668Y-72743034D01*
X117093164Y-72723208D01*
X117093163Y-72723206D01*
X117093163Y-72723204D01*
X117076012Y-72679887D01*
X117074119Y-72674358D01*
X117061118Y-72629609D01*
X117061116Y-72629606D01*
X117050923Y-72612371D01*
X117042361Y-72594894D01*
X117034987Y-72576270D01*
X117034986Y-72576268D01*
X117007579Y-72538545D01*
X117004388Y-72533686D01*
X116998513Y-72523752D01*
X116980670Y-72493580D01*
X116980668Y-72493578D01*
X116980665Y-72493574D01*
X116966506Y-72479415D01*
X116953868Y-72464619D01*
X116952347Y-72462525D01*
X116942094Y-72448413D01*
X116925075Y-72434334D01*
X116906188Y-72418709D01*
X116901876Y-72414786D01*
X116581818Y-72094728D01*
X116548333Y-72033405D01*
X116545499Y-72007047D01*
X116545499Y-71618330D01*
X116545498Y-71618313D01*
X116535174Y-71517247D01*
X116480908Y-71353484D01*
X116390340Y-71206650D01*
X116376371Y-71192681D01*
X116342886Y-71131358D01*
X116347870Y-71061666D01*
X116376371Y-71017319D01*
X116379754Y-71013936D01*
X116390340Y-71003350D01*
X116480908Y-70856516D01*
X116535174Y-70692753D01*
X116545500Y-70591677D01*
X116545499Y-69893324D01*
X116535174Y-69792247D01*
X116480908Y-69628484D01*
X116390340Y-69481650D01*
X116268350Y-69359660D01*
X116268345Y-69359657D01*
X116254400Y-69351055D01*
X116207677Y-69299105D01*
X116195500Y-69245518D01*
X116195500Y-69154481D01*
X116215185Y-69087442D01*
X116254404Y-69048942D01*
X116255295Y-69048392D01*
X116268350Y-69040340D01*
X116390340Y-68918350D01*
X116480908Y-68771516D01*
X116535174Y-68607753D01*
X116545500Y-68506677D01*
X116545499Y-67808324D01*
X116535174Y-67707247D01*
X116480908Y-67543484D01*
X116390340Y-67396650D01*
X116376017Y-67382327D01*
X116342532Y-67321004D01*
X116347516Y-67251312D01*
X116376021Y-67206960D01*
X116389947Y-67193035D01*
X116480448Y-67046311D01*
X116480453Y-67046300D01*
X116534680Y-66882652D01*
X116544999Y-66781654D01*
X116545000Y-66781641D01*
X116545000Y-66682500D01*
X115458300Y-66682500D01*
X115391261Y-66662815D01*
X115345506Y-66610011D01*
X115334300Y-66558500D01*
X115334300Y-65395000D01*
X115820000Y-65395000D01*
X115820000Y-66182500D01*
X116544999Y-66182500D01*
X116544999Y-66083360D01*
X116544998Y-66083345D01*
X116534680Y-65982347D01*
X116480453Y-65818699D01*
X116480448Y-65818688D01*
X116389947Y-65671965D01*
X116389944Y-65671961D01*
X116268038Y-65550055D01*
X116268034Y-65550052D01*
X116121311Y-65459551D01*
X116121300Y-65459546D01*
X115957652Y-65405319D01*
X115856654Y-65395000D01*
X115820000Y-65395000D01*
X115334300Y-65395000D01*
X115334300Y-65137948D01*
X115353985Y-65070909D01*
X115370608Y-65050277D01*
X115378388Y-65042497D01*
X115390650Y-65032675D01*
X115390467Y-65032454D01*
X115396476Y-65027483D01*
X115443827Y-64977059D01*
X115464715Y-64956172D01*
X115464715Y-64956171D01*
X115464720Y-64956167D01*
X115468979Y-64950674D01*
X115472752Y-64946257D01*
X115504662Y-64912278D01*
X115514313Y-64894720D01*
X115524996Y-64878457D01*
X115537273Y-64862632D01*
X115555785Y-64819849D01*
X115558338Y-64814637D01*
X115580797Y-64773788D01*
X115585780Y-64754376D01*
X115592081Y-64735976D01*
X115600037Y-64717592D01*
X115607329Y-64671548D01*
X115608506Y-64665867D01*
X115620100Y-64620715D01*
X115620100Y-64600679D01*
X115621624Y-64581298D01*
X115621890Y-64579617D01*
X115651810Y-64516478D01*
X115711117Y-64479539D01*
X115724833Y-64477665D01*
X115727500Y-64474999D01*
X115727500Y-62524999D01*
X115720599Y-62518098D01*
X115677061Y-62505314D01*
X115631306Y-62452510D01*
X115620100Y-62400999D01*
X115620100Y-61104637D01*
X115621824Y-61089023D01*
X115621538Y-61088996D01*
X115622272Y-61081233D01*
X115621495Y-61056500D01*
X116373001Y-61056500D01*
X116373001Y-61155654D01*
X116383319Y-61256652D01*
X116437546Y-61420300D01*
X116437551Y-61420311D01*
X116528052Y-61567034D01*
X116528055Y-61567038D01*
X116649961Y-61688944D01*
X116649965Y-61688947D01*
X116796688Y-61779448D01*
X116796699Y-61779453D01*
X116960347Y-61833680D01*
X117061352Y-61843999D01*
X117098000Y-61843999D01*
X117098000Y-61056500D01*
X116373001Y-61056500D01*
X115621495Y-61056500D01*
X115620100Y-61012102D01*
X115620100Y-60982551D01*
X115620100Y-60982550D01*
X115619229Y-60975659D01*
X115618772Y-60969845D01*
X115618588Y-60964000D01*
X115617309Y-60923272D01*
X115611720Y-60904037D01*
X115607774Y-60884984D01*
X115605264Y-60865108D01*
X115588101Y-60821759D01*
X115586214Y-60816246D01*
X115578451Y-60789527D01*
X115573217Y-60771510D01*
X115566359Y-60759914D01*
X115563021Y-60754269D01*
X115554460Y-60736793D01*
X115544214Y-60710913D01*
X115546757Y-60709905D01*
X115535500Y-60665255D01*
X115535500Y-60019348D01*
X115535499Y-60019326D01*
X115535499Y-59936200D01*
X115555184Y-59869161D01*
X115607988Y-59823406D01*
X115659499Y-59812200D01*
X116446148Y-59812200D01*
X116513187Y-59831885D01*
X116533829Y-59848519D01*
X116541982Y-59856672D01*
X116575467Y-59917995D01*
X116570483Y-59987687D01*
X116541985Y-60032032D01*
X116528052Y-60045965D01*
X116437551Y-60192688D01*
X116437546Y-60192699D01*
X116383319Y-60356347D01*
X116373000Y-60457345D01*
X116373000Y-60556500D01*
X117411500Y-60556500D01*
X117478539Y-60576185D01*
X117524294Y-60628989D01*
X117535500Y-60680500D01*
X117535500Y-62400500D01*
X117515815Y-62467539D01*
X117463011Y-62513294D01*
X117411502Y-62524500D01*
X117353331Y-62524500D01*
X117353312Y-62524501D01*
X117252247Y-62534825D01*
X117088484Y-62589092D01*
X117088481Y-62589093D01*
X116941648Y-62679661D01*
X116927325Y-62693984D01*
X116866001Y-62727468D01*
X116796309Y-62722482D01*
X116751965Y-62693982D01*
X116738038Y-62680055D01*
X116738034Y-62680052D01*
X116591311Y-62589551D01*
X116591300Y-62589546D01*
X116427652Y-62535319D01*
X116326654Y-62525000D01*
X116227500Y-62525000D01*
X116227500Y-64474999D01*
X116326640Y-64474999D01*
X116326654Y-64474998D01*
X116427652Y-64464680D01*
X116591300Y-64410453D01*
X116591311Y-64410448D01*
X116738035Y-64319947D01*
X116751960Y-64306021D01*
X116813282Y-64272533D01*
X116882973Y-64277514D01*
X116927327Y-64306017D01*
X116941650Y-64320340D01*
X117088484Y-64410908D01*
X117252247Y-64465174D01*
X117353323Y-64475500D01*
X118051676Y-64475499D01*
X118051684Y-64475498D01*
X118051687Y-64475498D01*
X118107030Y-64469844D01*
X118152753Y-64465174D01*
X118316516Y-64410908D01*
X118406805Y-64355217D01*
X118474195Y-64336777D01*
X118540858Y-64357699D01*
X118585628Y-64411341D01*
X118595900Y-64460756D01*
X118595900Y-65328394D01*
X118594591Y-65346363D01*
X118591110Y-65370125D01*
X118595664Y-65422164D01*
X118595900Y-65427570D01*
X118595900Y-65435809D01*
X118599706Y-65468374D01*
X118606400Y-65544891D01*
X118607861Y-65551967D01*
X118607803Y-65551978D01*
X118609434Y-65559337D01*
X118609492Y-65559324D01*
X118611157Y-65566350D01*
X118637425Y-65638524D01*
X118653138Y-65685940D01*
X118655540Y-65755768D01*
X118651614Y-65768278D01*
X118626908Y-65834517D01*
X118620501Y-65894116D01*
X118620500Y-65894135D01*
X118620500Y-67549870D01*
X118620501Y-67549876D01*
X118626908Y-67609483D01*
X118677203Y-67744330D01*
X118680329Y-67750054D01*
X118695500Y-67809486D01*
X118695500Y-68334513D01*
X118680333Y-68393939D01*
X118677203Y-68399670D01*
X118626908Y-68534517D01*
X118620501Y-68594116D01*
X118620500Y-68594135D01*
X118620500Y-70249870D01*
X118620501Y-70249876D01*
X118626908Y-70309483D01*
X118677203Y-70444330D01*
X118680329Y-70450054D01*
X118695500Y-70509486D01*
X118695500Y-71341448D01*
X118675815Y-71408487D01*
X118659181Y-71429129D01*
X118650661Y-71437648D01*
X118560093Y-71584481D01*
X118560091Y-71584486D01*
X118546549Y-71625353D01*
X118505826Y-71748247D01*
X118505826Y-71748248D01*
X118505825Y-71748248D01*
X118495500Y-71849315D01*
X118495500Y-72422669D01*
X118495501Y-72422687D01*
X118505825Y-72523752D01*
X118560092Y-72687515D01*
X118560093Y-72687518D01*
X118582107Y-72723208D01*
X118650660Y-72834350D01*
X118772650Y-72956340D01*
X118919484Y-73046908D01*
X119083247Y-73101174D01*
X119184323Y-73111500D01*
X119882676Y-73111499D01*
X119882684Y-73111498D01*
X119882687Y-73111498D01*
X119938030Y-73105844D01*
X119983753Y-73101174D01*
X120147516Y-73046908D01*
X120294350Y-72956340D01*
X120308671Y-72942018D01*
X120369989Y-72908533D01*
X120439681Y-72913514D01*
X120484034Y-72942017D01*
X120497961Y-72955944D01*
X120497965Y-72955947D01*
X120644688Y-73046448D01*
X120644699Y-73046453D01*
X120808347Y-73100680D01*
X120909351Y-73110999D01*
X121008500Y-73110998D01*
X121008500Y-71160999D01*
X120909360Y-71161000D01*
X120909344Y-71161001D01*
X120808347Y-71171319D01*
X120644699Y-71225546D01*
X120644688Y-71225551D01*
X120497965Y-71316052D01*
X120484032Y-71329985D01*
X120422708Y-71363468D01*
X120353016Y-71358482D01*
X120308672Y-71329982D01*
X120294349Y-71315659D01*
X120255402Y-71291636D01*
X120208678Y-71239687D01*
X120196500Y-71186098D01*
X120196500Y-70509486D01*
X120211671Y-70450054D01*
X120214793Y-70444333D01*
X120214796Y-70444331D01*
X120265091Y-70309483D01*
X120271500Y-70249873D01*
X120271499Y-68594128D01*
X120271231Y-68591634D01*
X120271334Y-68591059D01*
X120271321Y-68590805D01*
X120271381Y-68590801D01*
X120283634Y-68522874D01*
X120331243Y-68471735D01*
X120386706Y-68454621D01*
X120389694Y-68454433D01*
X120457835Y-68469855D01*
X120506825Y-68519673D01*
X120521105Y-68588068D01*
X120520790Y-68591427D01*
X120520500Y-68594118D01*
X120520500Y-70249870D01*
X120520501Y-70249876D01*
X120526908Y-70309483D01*
X120577202Y-70444328D01*
X120577206Y-70444335D01*
X120663452Y-70559544D01*
X120663455Y-70559547D01*
X120778664Y-70645793D01*
X120778671Y-70645797D01*
X120823618Y-70662561D01*
X120913517Y-70696091D01*
X120973127Y-70702500D01*
X121718872Y-70702499D01*
X121778483Y-70696091D01*
X121913331Y-70645796D01*
X122028546Y-70559546D01*
X122114796Y-70444331D01*
X122165091Y-70309483D01*
X122171500Y-70249873D01*
X122171499Y-69009307D01*
X122191184Y-68942269D01*
X122240245Y-68899756D01*
X122239971Y-68899292D01*
X122242522Y-68897782D01*
X122243987Y-68896514D01*
X122246265Y-68895501D01*
X122246677Y-68895321D01*
X122246690Y-68895318D01*
X122263929Y-68885122D01*
X122281403Y-68876562D01*
X122300027Y-68869188D01*
X122300027Y-68869187D01*
X122300032Y-68869186D01*
X122337749Y-68841782D01*
X122342605Y-68838592D01*
X122382720Y-68814870D01*
X122396889Y-68800699D01*
X122411679Y-68788068D01*
X122427887Y-68776294D01*
X122457599Y-68740376D01*
X122461512Y-68736076D01*
X122710319Y-68487270D01*
X122771642Y-68453785D01*
X122841334Y-68458769D01*
X122897267Y-68500641D01*
X122921684Y-68566105D01*
X122922000Y-68574951D01*
X122922000Y-69181679D01*
X122902315Y-69248718D01*
X122863097Y-69287217D01*
X122745653Y-69359657D01*
X122745649Y-69359660D01*
X122623661Y-69481648D01*
X122533093Y-69628481D01*
X122533092Y-69628484D01*
X122478826Y-69792247D01*
X122478826Y-69792248D01*
X122478825Y-69792248D01*
X122468500Y-69893315D01*
X122468500Y-70491669D01*
X122468501Y-70491687D01*
X122478825Y-70592752D01*
X122511962Y-70692751D01*
X122533092Y-70756516D01*
X122619271Y-70896235D01*
X122623661Y-70903351D01*
X122737629Y-71017319D01*
X122771114Y-71078642D01*
X122766130Y-71148334D01*
X122737629Y-71192681D01*
X122623661Y-71306648D01*
X122533093Y-71453481D01*
X122533091Y-71453486D01*
X122478238Y-71619021D01*
X122438465Y-71676466D01*
X122373949Y-71703289D01*
X122305173Y-71690974D01*
X122253973Y-71643431D01*
X122242826Y-71619020D01*
X122231454Y-71584701D01*
X122231448Y-71584688D01*
X122140947Y-71437965D01*
X122140944Y-71437961D01*
X122019038Y-71316055D01*
X122019034Y-71316052D01*
X121872311Y-71225551D01*
X121872300Y-71225546D01*
X121708652Y-71171319D01*
X121607654Y-71161000D01*
X121508500Y-71161000D01*
X121508500Y-73110999D01*
X121607640Y-73110999D01*
X121607654Y-73110998D01*
X121708652Y-73100680D01*
X121872300Y-73046453D01*
X121872311Y-73046448D01*
X122019034Y-72955947D01*
X122019038Y-72955944D01*
X122140944Y-72834038D01*
X122140947Y-72834034D01*
X122231448Y-72687311D01*
X122231454Y-72687298D01*
X122282093Y-72534479D01*
X122321865Y-72477033D01*
X122386381Y-72450210D01*
X122455157Y-72462525D01*
X122506357Y-72510067D01*
X122517504Y-72534474D01*
X122517505Y-72534479D01*
X122533092Y-72581515D01*
X122533093Y-72581518D01*
X122562754Y-72629606D01*
X122623660Y-72728350D01*
X122745650Y-72850340D01*
X122757920Y-72857908D01*
X122759596Y-72858942D01*
X122806321Y-72910890D01*
X122818500Y-72964481D01*
X122818500Y-77639955D01*
X122816775Y-77655572D01*
X122817061Y-77655599D01*
X122816326Y-77663365D01*
X122818500Y-77732514D01*
X122818500Y-77762043D01*
X122818501Y-77762060D01*
X122819368Y-77768931D01*
X122819826Y-77774750D01*
X122821290Y-77821324D01*
X122821291Y-77821327D01*
X122826880Y-77840567D01*
X122830824Y-77859611D01*
X122833336Y-77879492D01*
X122850172Y-77922017D01*
X122850490Y-77922819D01*
X122852382Y-77928347D01*
X122865381Y-77973088D01*
X122875580Y-77990334D01*
X122884136Y-78007800D01*
X122891514Y-78026432D01*
X122915288Y-78059155D01*
X122918898Y-78064123D01*
X122922106Y-78069007D01*
X122945827Y-78109116D01*
X122945833Y-78109124D01*
X122959990Y-78123280D01*
X122972627Y-78138075D01*
X122984406Y-78154287D01*
X123005521Y-78171755D01*
X123020309Y-78183988D01*
X123024620Y-78187910D01*
X123073527Y-78236817D01*
X123116338Y-78279628D01*
X123149823Y-78340951D01*
X123151978Y-78354347D01*
X123159439Y-78425338D01*
X123169626Y-78522256D01*
X123169627Y-78522259D01*
X123228118Y-78702277D01*
X123228121Y-78702284D01*
X123322767Y-78866216D01*
X123441426Y-78998000D01*
X123449429Y-79006888D01*
X123602565Y-79118148D01*
X123602570Y-79118151D01*
X123755936Y-79186435D01*
X123809173Y-79231685D01*
X123829494Y-79298534D01*
X123829500Y-79299713D01*
X123829500Y-79534668D01*
X123829501Y-79534687D01*
X123839825Y-79635752D01*
X123860340Y-79697660D01*
X123894020Y-79799300D01*
X123894092Y-79799515D01*
X123894093Y-79799518D01*
X123906705Y-79819965D01*
X123984660Y-79946350D01*
X124106650Y-80068340D01*
X124253484Y-80158908D01*
X124417247Y-80213174D01*
X124518323Y-80223500D01*
X125216676Y-80223499D01*
X125216684Y-80223498D01*
X125216687Y-80223498D01*
X125272030Y-80217844D01*
X125317753Y-80213174D01*
X125481516Y-80158908D01*
X125628350Y-80068340D01*
X125642671Y-80054018D01*
X125703989Y-80020533D01*
X125773681Y-80025514D01*
X125818034Y-80054017D01*
X125831961Y-80067944D01*
X125831965Y-80067947D01*
X125978688Y-80158448D01*
X125978699Y-80158453D01*
X126142347Y-80212680D01*
X126243351Y-80222999D01*
X126342500Y-80222998D01*
X126342500Y-79498000D01*
X126842500Y-79498000D01*
X126842500Y-80222999D01*
X126941640Y-80222999D01*
X126941654Y-80222998D01*
X127042652Y-80212680D01*
X127206300Y-80158453D01*
X127206311Y-80158448D01*
X127353034Y-80067947D01*
X127353038Y-80067944D01*
X127474944Y-79946038D01*
X127474947Y-79946034D01*
X127565448Y-79799311D01*
X127565453Y-79799300D01*
X127619680Y-79635652D01*
X127629999Y-79534654D01*
X127630000Y-79534641D01*
X127630000Y-79498000D01*
X126842500Y-79498000D01*
X126342500Y-79498000D01*
X126342500Y-78273000D01*
X126842500Y-78273000D01*
X126842500Y-78998000D01*
X127629999Y-78998000D01*
X127629999Y-78961360D01*
X127629998Y-78961345D01*
X127619680Y-78860347D01*
X127565453Y-78696699D01*
X127565448Y-78696688D01*
X127474947Y-78549965D01*
X127474944Y-78549961D01*
X127353038Y-78428055D01*
X127353034Y-78428052D01*
X127206311Y-78337551D01*
X127206300Y-78337546D01*
X127042652Y-78283319D01*
X126941654Y-78273000D01*
X126842500Y-78273000D01*
X126342500Y-78273000D01*
X126342500Y-78272999D01*
X126243360Y-78273000D01*
X126243339Y-78273002D01*
X126229045Y-78274462D01*
X126160352Y-78261691D01*
X126109468Y-78213810D01*
X126092549Y-78146020D01*
X126114966Y-78079844D01*
X126156267Y-78042685D01*
X126304502Y-77960409D01*
X126458895Y-77827866D01*
X126583448Y-77666958D01*
X126673060Y-77484271D01*
X126724063Y-77287285D01*
X126734369Y-77084064D01*
X126703556Y-76882929D01*
X126632886Y-76692113D01*
X126525252Y-76519429D01*
X126385059Y-76371947D01*
X126356044Y-76351752D01*
X126312266Y-76297298D01*
X126304878Y-76227820D01*
X126336225Y-76165377D01*
X126339202Y-76162296D01*
X126342500Y-76158998D01*
X126342500Y-75434000D01*
X126842500Y-75434000D01*
X126842500Y-76158999D01*
X126941640Y-76158999D01*
X126941654Y-76158998D01*
X127042652Y-76148680D01*
X127206300Y-76094453D01*
X127206311Y-76094448D01*
X127353034Y-76003947D01*
X127353038Y-76003944D01*
X127474944Y-75882038D01*
X127474947Y-75882034D01*
X127565448Y-75735311D01*
X127565453Y-75735300D01*
X127619680Y-75571652D01*
X127629999Y-75470654D01*
X127630000Y-75470641D01*
X127630000Y-75434000D01*
X126842500Y-75434000D01*
X126342500Y-75434000D01*
X126342500Y-74209000D01*
X126842500Y-74209000D01*
X126842500Y-74934000D01*
X127629999Y-74934000D01*
X127629999Y-74897360D01*
X127629998Y-74897345D01*
X127619680Y-74796347D01*
X127565453Y-74632699D01*
X127565448Y-74632688D01*
X127474947Y-74485965D01*
X127474944Y-74485961D01*
X127353038Y-74364055D01*
X127353034Y-74364052D01*
X127206311Y-74273551D01*
X127206300Y-74273546D01*
X127042652Y-74219319D01*
X126941654Y-74209000D01*
X126842500Y-74209000D01*
X126342500Y-74209000D01*
X126342500Y-74208999D01*
X126243360Y-74209000D01*
X126243344Y-74209001D01*
X126142347Y-74219319D01*
X125978699Y-74273546D01*
X125978692Y-74273549D01*
X125943651Y-74295163D01*
X125876259Y-74313602D01*
X125809595Y-74292678D01*
X125764827Y-74239036D01*
X125755235Y-74176665D01*
X125762321Y-74109244D01*
X125788906Y-74044631D01*
X125797952Y-74034536D01*
X126801294Y-73031194D01*
X126862615Y-72997711D01*
X126876359Y-72995520D01*
X126879753Y-72995174D01*
X127043516Y-72940908D01*
X127190350Y-72850340D01*
X127312340Y-72728350D01*
X127402908Y-72581516D01*
X127457174Y-72417753D01*
X127467500Y-72316677D01*
X127467500Y-72282500D01*
X128565001Y-72282500D01*
X128565001Y-72331654D01*
X128575319Y-72432652D01*
X128629546Y-72596300D01*
X128629551Y-72596311D01*
X128720052Y-72743034D01*
X128720055Y-72743038D01*
X128841961Y-72864944D01*
X128841965Y-72864947D01*
X128988688Y-72955448D01*
X128988699Y-72955453D01*
X129152347Y-73009680D01*
X129253352Y-73019999D01*
X129290000Y-73019999D01*
X129290000Y-72282500D01*
X129790000Y-72282500D01*
X129790000Y-73019999D01*
X129826640Y-73019999D01*
X129826654Y-73019998D01*
X129927652Y-73009680D01*
X130091300Y-72955453D01*
X130091311Y-72955448D01*
X130238034Y-72864947D01*
X130238038Y-72864944D01*
X130359944Y-72743038D01*
X130359947Y-72743034D01*
X130450448Y-72596311D01*
X130450453Y-72596300D01*
X130504680Y-72432652D01*
X130514999Y-72331654D01*
X130515000Y-72331641D01*
X130515000Y-72282500D01*
X129790000Y-72282500D01*
X129290000Y-72282500D01*
X128565001Y-72282500D01*
X127467500Y-72282500D01*
X127467499Y-71811399D01*
X127487183Y-71744361D01*
X127539987Y-71698606D01*
X127591499Y-71687400D01*
X128441000Y-71687400D01*
X128508039Y-71707085D01*
X128553794Y-71759889D01*
X128556964Y-71774464D01*
X128565000Y-71782500D01*
X130514999Y-71782500D01*
X130514999Y-71733360D01*
X130514998Y-71733345D01*
X130504681Y-71632349D01*
X130481588Y-71562661D01*
X130479186Y-71492832D01*
X130511609Y-71435980D01*
X130597822Y-71349767D01*
X130659143Y-71316285D01*
X130728834Y-71321269D01*
X130784768Y-71363141D01*
X130809184Y-71428606D01*
X130809500Y-71437451D01*
X130809500Y-85086949D01*
X130809201Y-85093031D01*
X130806027Y-85125256D01*
X130793580Y-85235720D01*
X130789021Y-85257830D01*
X130772881Y-85311039D01*
X130745210Y-85390117D01*
X130737528Y-85407614D01*
X130709046Y-85460902D01*
X130706862Y-85464664D01*
X130663133Y-85534257D01*
X130658559Y-85540609D01*
X130616167Y-85592264D01*
X130612078Y-85596776D01*
X130554776Y-85654078D01*
X130550264Y-85658167D01*
X130498609Y-85700559D01*
X130492257Y-85705133D01*
X130422664Y-85748862D01*
X130418902Y-85751046D01*
X130365614Y-85779528D01*
X130348117Y-85787210D01*
X130269039Y-85814881D01*
X130215830Y-85831021D01*
X130193720Y-85835580D01*
X130083256Y-85848027D01*
X130051031Y-85851201D01*
X130044949Y-85851500D01*
X111255051Y-85851500D01*
X111248970Y-85851201D01*
X111216743Y-85848027D01*
X111106278Y-85835580D01*
X111084167Y-85831021D01*
X111030960Y-85814881D01*
X110951881Y-85787210D01*
X110934384Y-85779528D01*
X110914120Y-85768697D01*
X110881085Y-85751039D01*
X110877340Y-85748865D01*
X110858846Y-85737245D01*
X110807741Y-85705133D01*
X110801389Y-85700559D01*
X110749734Y-85658167D01*
X110745232Y-85654087D01*
X110687910Y-85596765D01*
X110683831Y-85592264D01*
X110641439Y-85540609D01*
X110636865Y-85534257D01*
X110631712Y-85526057D01*
X110593123Y-85464641D01*
X110590970Y-85460933D01*
X110562467Y-85407607D01*
X110554794Y-85390132D01*
X110527118Y-85311039D01*
X110510975Y-85257823D01*
X110506419Y-85235728D01*
X110493972Y-85125256D01*
X110490799Y-85093031D01*
X110490500Y-85086952D01*
X110490500Y-84185936D01*
X114565631Y-84185936D01*
X114596442Y-84387063D01*
X114596445Y-84387075D01*
X114667111Y-84577881D01*
X114667115Y-84577888D01*
X114774745Y-84750567D01*
X114774747Y-84750569D01*
X114774748Y-84750571D01*
X114914941Y-84898053D01*
X115043344Y-84987424D01*
X115081949Y-85014294D01*
X115081950Y-85014294D01*
X115081951Y-85014295D01*
X115268942Y-85094540D01*
X115468259Y-85135500D01*
X115620743Y-85135500D01*
X115772439Y-85120074D01*
X115966579Y-85059162D01*
X115966580Y-85059161D01*
X115966588Y-85059159D01*
X116144502Y-84960409D01*
X116298895Y-84827866D01*
X116423448Y-84666958D01*
X116513060Y-84484271D01*
X116564063Y-84287285D01*
X116569203Y-84185936D01*
X124725631Y-84185936D01*
X124756442Y-84387063D01*
X124756445Y-84387075D01*
X124827111Y-84577881D01*
X124827115Y-84577888D01*
X124934745Y-84750567D01*
X124934747Y-84750569D01*
X124934748Y-84750571D01*
X125074941Y-84898053D01*
X125203344Y-84987424D01*
X125241949Y-85014294D01*
X125241950Y-85014294D01*
X125241951Y-85014295D01*
X125428942Y-85094540D01*
X125628259Y-85135500D01*
X125780743Y-85135500D01*
X125932439Y-85120074D01*
X126126579Y-85059162D01*
X126126580Y-85059161D01*
X126126588Y-85059159D01*
X126304502Y-84960409D01*
X126458895Y-84827866D01*
X126583448Y-84666958D01*
X126673060Y-84484271D01*
X126724063Y-84287285D01*
X126734369Y-84084064D01*
X126703556Y-83882929D01*
X126632886Y-83692113D01*
X126525252Y-83519429D01*
X126385059Y-83371947D01*
X126286587Y-83303409D01*
X126218050Y-83255705D01*
X126031056Y-83175459D01*
X125831741Y-83134500D01*
X125679258Y-83134500D01*
X125679257Y-83134500D01*
X125527560Y-83149925D01*
X125333420Y-83210837D01*
X125333405Y-83210844D01*
X125155500Y-83309589D01*
X125155495Y-83309592D01*
X125001106Y-83442132D01*
X125001104Y-83442134D01*
X124876554Y-83603037D01*
X124876553Y-83603040D01*
X124786940Y-83785728D01*
X124735937Y-83982714D01*
X124725631Y-84185936D01*
X116569203Y-84185936D01*
X116574369Y-84084064D01*
X116543556Y-83882929D01*
X116472886Y-83692113D01*
X116365252Y-83519429D01*
X116225059Y-83371947D01*
X116126587Y-83303409D01*
X116058050Y-83255705D01*
X115871056Y-83175459D01*
X115671741Y-83134500D01*
X115519258Y-83134500D01*
X115519257Y-83134500D01*
X115367560Y-83149925D01*
X115173420Y-83210837D01*
X115173405Y-83210844D01*
X114995500Y-83309589D01*
X114995495Y-83309592D01*
X114841106Y-83442132D01*
X114841104Y-83442134D01*
X114716554Y-83603037D01*
X114716553Y-83603040D01*
X114626940Y-83785728D01*
X114575937Y-83982714D01*
X114565631Y-84185936D01*
X110490500Y-84185936D01*
X110490500Y-66798000D01*
X110876001Y-66798000D01*
X110876001Y-66834654D01*
X110886319Y-66935652D01*
X110940546Y-67099300D01*
X110940551Y-67099311D01*
X111031052Y-67246034D01*
X111031055Y-67246038D01*
X111152961Y-67367944D01*
X111152965Y-67367947D01*
X111299688Y-67458448D01*
X111299699Y-67458453D01*
X111463347Y-67512680D01*
X111564351Y-67522999D01*
X111663500Y-67522998D01*
X111663500Y-66798000D01*
X110876001Y-66798000D01*
X110490500Y-66798000D01*
X110490500Y-66298000D01*
X110876000Y-66298000D01*
X111663500Y-66298000D01*
X111663500Y-65572999D01*
X111564360Y-65573000D01*
X111564344Y-65573001D01*
X111463347Y-65583319D01*
X111299699Y-65637546D01*
X111299688Y-65637551D01*
X111152965Y-65728052D01*
X111152961Y-65728055D01*
X111031055Y-65849961D01*
X111031052Y-65849965D01*
X110940551Y-65996688D01*
X110940546Y-65996699D01*
X110886319Y-66160347D01*
X110876000Y-66261345D01*
X110876000Y-66298000D01*
X110490500Y-66298000D01*
X110490500Y-36961070D01*
X110491031Y-36952970D01*
X110492962Y-36938296D01*
X110504624Y-36864664D01*
X110512528Y-36836637D01*
X110522661Y-36812174D01*
X110524670Y-36807817D01*
X110548569Y-36760913D01*
X110560659Y-36741750D01*
X110579933Y-36716633D01*
X110585253Y-36710565D01*
X110624565Y-36671253D01*
X110630633Y-36665933D01*
X110655750Y-36646659D01*
X110674913Y-36634569D01*
X110721817Y-36610670D01*
X110726174Y-36608661D01*
X110750637Y-36598528D01*
X110778664Y-36590624D01*
X110852284Y-36578963D01*
X110861045Y-36577810D01*
X110866970Y-36577031D01*
X110875070Y-36576500D01*
X130424930Y-36576500D01*
X130433030Y-36577031D01*
G37*
G04 #@! TD.AperFunction*
G04 #@! TA.AperFunction,Conductor*
G36*
X124727514Y-60329090D02*
G01*
X124727517Y-60329091D01*
X124774353Y-60334126D01*
X124781992Y-60334948D01*
X124846543Y-60361687D01*
X124886390Y-60419080D01*
X124886665Y-60419915D01*
X124889533Y-60428741D01*
X124893907Y-60435633D01*
X124904503Y-60456429D01*
X124907511Y-60464026D01*
X124907513Y-60464031D01*
X124941265Y-60510487D01*
X124943455Y-60513709D01*
X124974213Y-60562176D01*
X124980164Y-60567764D01*
X124995604Y-60585278D01*
X125000403Y-60591885D01*
X125044647Y-60628487D01*
X125047567Y-60631061D01*
X125089418Y-60670362D01*
X125096578Y-60674298D01*
X125115879Y-60687414D01*
X125122177Y-60692624D01*
X125122178Y-60692624D01*
X125122179Y-60692625D01*
X125174125Y-60717069D01*
X125177597Y-60718838D01*
X125227903Y-60746495D01*
X125227905Y-60746495D01*
X125227908Y-60746497D01*
X125233205Y-60747856D01*
X125235814Y-60748527D01*
X125257777Y-60756433D01*
X125265174Y-60759914D01*
X125321576Y-60770673D01*
X125325362Y-60771519D01*
X125380981Y-60785800D01*
X125389153Y-60785800D01*
X125412385Y-60787996D01*
X125413989Y-60788301D01*
X125420412Y-60789527D01*
X125477724Y-60785921D01*
X125481597Y-60785800D01*
X126409000Y-60785800D01*
X126476039Y-60805485D01*
X126521794Y-60858289D01*
X126533000Y-60909800D01*
X126533000Y-60964000D01*
X127634000Y-60964000D01*
X127701039Y-60983685D01*
X127746794Y-61036489D01*
X127758000Y-61088000D01*
X127758000Y-62251499D01*
X127794640Y-62251499D01*
X127794654Y-62251498D01*
X127895650Y-62241181D01*
X127967795Y-62217274D01*
X128037623Y-62214872D01*
X128097666Y-62250603D01*
X128128859Y-62313123D01*
X128130800Y-62334980D01*
X128130800Y-62440338D01*
X128112500Y-62502660D01*
X128112500Y-64474979D01*
X128127966Y-64503303D01*
X128130800Y-64529661D01*
X128130800Y-65650747D01*
X128111115Y-65717786D01*
X128094481Y-65738428D01*
X127788727Y-66044181D01*
X127727404Y-66077666D01*
X127701046Y-66080500D01*
X127312330Y-66080500D01*
X127312312Y-66080501D01*
X127211247Y-66090825D01*
X127047484Y-66145092D01*
X127047481Y-66145093D01*
X126900648Y-66235661D01*
X126778661Y-66357648D01*
X126688093Y-66504481D01*
X126688091Y-66504486D01*
X126670193Y-66558500D01*
X126633826Y-66668247D01*
X126633826Y-66668248D01*
X126633825Y-66668248D01*
X126623500Y-66769315D01*
X126623500Y-67342669D01*
X126623501Y-67342687D01*
X126633825Y-67443752D01*
X126660251Y-67523498D01*
X126688020Y-67607300D01*
X126688092Y-67607515D01*
X126688093Y-67607518D01*
X126709736Y-67642607D01*
X126778660Y-67754350D01*
X126900650Y-67876340D01*
X127047484Y-67966908D01*
X127211247Y-68021174D01*
X127312323Y-68031500D01*
X128010676Y-68031499D01*
X128010684Y-68031498D01*
X128010687Y-68031498D01*
X128066030Y-68025844D01*
X128111753Y-68021174D01*
X128275516Y-67966908D01*
X128422350Y-67876340D01*
X128436319Y-67862371D01*
X128497642Y-67828886D01*
X128567334Y-67833870D01*
X128611681Y-67862371D01*
X128625649Y-67876339D01*
X128625654Y-67876343D01*
X128672116Y-67905000D01*
X128702095Y-67923491D01*
X128748821Y-67975438D01*
X128761000Y-68029030D01*
X128761000Y-69403948D01*
X128741315Y-69470987D01*
X128724681Y-69491629D01*
X128719660Y-69496649D01*
X128719659Y-69496651D01*
X128712600Y-69508096D01*
X128660652Y-69554821D01*
X128607061Y-69567000D01*
X127434191Y-69567000D01*
X127367152Y-69547315D01*
X127328652Y-69508096D01*
X127312340Y-69481650D01*
X127190351Y-69359661D01*
X127190350Y-69359660D01*
X127043516Y-69269092D01*
X126879753Y-69214826D01*
X126879751Y-69214825D01*
X126778678Y-69204500D01*
X126205330Y-69204500D01*
X126205312Y-69204501D01*
X126104247Y-69214825D01*
X125940484Y-69269092D01*
X125940481Y-69269093D01*
X125793648Y-69359661D01*
X125671659Y-69481650D01*
X125627132Y-69553840D01*
X125575184Y-69600564D01*
X125506221Y-69611785D01*
X125442139Y-69583941D01*
X125433913Y-69576423D01*
X125349119Y-69491629D01*
X125185319Y-69327828D01*
X125151834Y-69266505D01*
X125149000Y-69240147D01*
X125149000Y-67306000D01*
X125622500Y-67306000D01*
X125622500Y-68030999D01*
X125671640Y-68030999D01*
X125671654Y-68030998D01*
X125772652Y-68020680D01*
X125936300Y-67966453D01*
X125936311Y-67966448D01*
X126083034Y-67875947D01*
X126083038Y-67875944D01*
X126204944Y-67754038D01*
X126204947Y-67754034D01*
X126295448Y-67607311D01*
X126295453Y-67607300D01*
X126349680Y-67443652D01*
X126359999Y-67342654D01*
X126360000Y-67342641D01*
X126360000Y-67306000D01*
X125622500Y-67306000D01*
X125149000Y-67306000D01*
X125149000Y-66081000D01*
X125622500Y-66081000D01*
X125622500Y-66806000D01*
X126359999Y-66806000D01*
X126359999Y-66769360D01*
X126359998Y-66769345D01*
X126349680Y-66668347D01*
X126295453Y-66504699D01*
X126295448Y-66504688D01*
X126204947Y-66357965D01*
X126204944Y-66357961D01*
X126083038Y-66236055D01*
X126083034Y-66236052D01*
X125936311Y-66145551D01*
X125936300Y-66145546D01*
X125772652Y-66091319D01*
X125671654Y-66081000D01*
X125622500Y-66081000D01*
X125149000Y-66081000D01*
X125149000Y-65271851D01*
X125168685Y-65204812D01*
X125185315Y-65184174D01*
X125872671Y-64496817D01*
X125933994Y-64463333D01*
X125960352Y-64460499D01*
X126486670Y-64460499D01*
X126486676Y-64460499D01*
X126587753Y-64450174D01*
X126751516Y-64395908D01*
X126898350Y-64305340D01*
X126912671Y-64291018D01*
X126973989Y-64257533D01*
X127043681Y-64262514D01*
X127088034Y-64291017D01*
X127101961Y-64304944D01*
X127101965Y-64304947D01*
X127248688Y-64395448D01*
X127248699Y-64395453D01*
X127412347Y-64449680D01*
X127513351Y-64459999D01*
X127612500Y-64459998D01*
X127612500Y-62509999D01*
X127513360Y-62510000D01*
X127513344Y-62510001D01*
X127412347Y-62520319D01*
X127248699Y-62574546D01*
X127248688Y-62574551D01*
X127101965Y-62665052D01*
X127088032Y-62678985D01*
X127026708Y-62712468D01*
X126957016Y-62707482D01*
X126912672Y-62678982D01*
X126898351Y-62664661D01*
X126898350Y-62664660D01*
X126776571Y-62589546D01*
X126751518Y-62574093D01*
X126751513Y-62574091D01*
X126727117Y-62566007D01*
X126587753Y-62519826D01*
X126587751Y-62519825D01*
X126486684Y-62509500D01*
X126486677Y-62509500D01*
X125960353Y-62509500D01*
X125893314Y-62489815D01*
X125872672Y-62473181D01*
X124863491Y-61464000D01*
X126533001Y-61464000D01*
X126533001Y-61563154D01*
X126543319Y-61664152D01*
X126597546Y-61827800D01*
X126597551Y-61827811D01*
X126688052Y-61974534D01*
X126688055Y-61974538D01*
X126809961Y-62096444D01*
X126809965Y-62096447D01*
X126956688Y-62186948D01*
X126956699Y-62186953D01*
X127120347Y-62241180D01*
X127221352Y-62251499D01*
X127258000Y-62251499D01*
X127258000Y-61464000D01*
X126533001Y-61464000D01*
X124863491Y-61464000D01*
X124515919Y-61116428D01*
X124482434Y-61055105D01*
X124479600Y-61028747D01*
X124479600Y-60459000D01*
X124499285Y-60391961D01*
X124552089Y-60346206D01*
X124603600Y-60335000D01*
X124632828Y-60335000D01*
X124632839Y-60334999D01*
X124694395Y-60328380D01*
X124720910Y-60328380D01*
X124727514Y-60329090D01*
G37*
G04 #@! TD.AperFunction*
G04 #@! TA.AperFunction,Conductor*
G36*
X129687539Y-57020185D02*
G01*
X129733294Y-57072989D01*
X129744500Y-57124500D01*
X129744500Y-65956500D01*
X129724815Y-66023539D01*
X129672011Y-66069294D01*
X129620500Y-66080500D01*
X129508697Y-66080500D01*
X129441658Y-66060815D01*
X129395903Y-66008011D01*
X129385247Y-65968170D01*
X129382075Y-65934616D01*
X129381800Y-65928777D01*
X129381800Y-59443942D01*
X129383524Y-59428322D01*
X129383239Y-59428295D01*
X129383973Y-59420533D01*
X129381800Y-59351372D01*
X129381800Y-59321856D01*
X129381800Y-59321850D01*
X129380931Y-59314979D01*
X129380473Y-59309152D01*
X129379010Y-59262573D01*
X129373419Y-59243330D01*
X129369473Y-59224278D01*
X129366964Y-59204408D01*
X129349804Y-59161067D01*
X129347924Y-59155579D01*
X129334918Y-59110810D01*
X129333062Y-59107672D01*
X129324723Y-59093571D01*
X129316161Y-59076094D01*
X129308787Y-59057470D01*
X129308320Y-59056827D01*
X129281379Y-59019745D01*
X129278188Y-59014886D01*
X129254472Y-58974783D01*
X129254465Y-58974774D01*
X129240306Y-58960615D01*
X129227668Y-58945819D01*
X129215894Y-58929613D01*
X129193653Y-58911214D01*
X129179988Y-58899909D01*
X129175676Y-58895986D01*
X128383074Y-58103384D01*
X128349591Y-58042063D01*
X128354575Y-57972371D01*
X128365218Y-57950608D01*
X128418460Y-57864289D01*
X128470408Y-57817565D01*
X128539371Y-57806342D01*
X128603453Y-57834186D01*
X128629537Y-57864288D01*
X128720054Y-58011037D01*
X128841961Y-58132944D01*
X128841965Y-58132947D01*
X128988688Y-58223448D01*
X128988699Y-58223453D01*
X129152347Y-58277680D01*
X129253352Y-58287999D01*
X129290000Y-58287999D01*
X129290000Y-57124500D01*
X129309685Y-57057461D01*
X129362489Y-57011706D01*
X129414000Y-57000500D01*
X129620500Y-57000500D01*
X129687539Y-57020185D01*
G37*
G04 #@! TD.AperFunction*
G04 #@! TA.AperFunction,Conductor*
G36*
X120302103Y-64321691D02*
G01*
X120339877Y-64380469D01*
X120339941Y-64380689D01*
X120344362Y-64395906D01*
X120345279Y-64399059D01*
X120349224Y-64418111D01*
X120351736Y-64437992D01*
X120366380Y-64474979D01*
X120368890Y-64481319D01*
X120370782Y-64486847D01*
X120383781Y-64531588D01*
X120393980Y-64548834D01*
X120402536Y-64566300D01*
X120408475Y-64581298D01*
X120409914Y-64584932D01*
X120437298Y-64622623D01*
X120440506Y-64627507D01*
X120464227Y-64667616D01*
X120464233Y-64667624D01*
X120478390Y-64681780D01*
X120491027Y-64696575D01*
X120502806Y-64712787D01*
X120530827Y-64735968D01*
X120538709Y-64742488D01*
X120543020Y-64746410D01*
X120824092Y-65027482D01*
X121029576Y-65232966D01*
X121063061Y-65294289D01*
X121058077Y-65363981D01*
X121016205Y-65419914D01*
X120955153Y-65443936D01*
X120913623Y-65448402D01*
X120906073Y-65450186D01*
X120905684Y-65448542D01*
X120845348Y-65452853D01*
X120828614Y-65447939D01*
X120828483Y-65447908D01*
X120768883Y-65441501D01*
X120768881Y-65441500D01*
X120768873Y-65441500D01*
X120768865Y-65441500D01*
X120308196Y-65441500D01*
X120241157Y-65421815D01*
X120195402Y-65369011D01*
X120186759Y-65342579D01*
X120184540Y-65331834D01*
X120184598Y-65331821D01*
X120182965Y-65324457D01*
X120182906Y-65324472D01*
X120181242Y-65317453D01*
X120181241Y-65317445D01*
X120154974Y-65245276D01*
X120130814Y-65172366D01*
X120130809Y-65172359D01*
X120127760Y-65165818D01*
X120127815Y-65165792D01*
X120124530Y-65159006D01*
X120124476Y-65159034D01*
X120121239Y-65152590D01*
X120121237Y-65152583D01*
X120121232Y-65152575D01*
X120117297Y-65146591D01*
X120096907Y-65079763D01*
X120096900Y-65078456D01*
X120096900Y-64415404D01*
X120116585Y-64348365D01*
X120169389Y-64302610D01*
X120238547Y-64292666D01*
X120302103Y-64321691D01*
G37*
G04 #@! TD.AperFunction*
G04 #@! TA.AperFunction,Conductor*
G36*
X113450863Y-61380969D02*
G01*
X113498884Y-61410774D01*
X113882381Y-61794271D01*
X113915866Y-61855594D01*
X113918700Y-61881952D01*
X113918700Y-62443438D01*
X113899015Y-62510477D01*
X113888500Y-62523525D01*
X113888500Y-63626000D01*
X113868815Y-63693039D01*
X113816011Y-63738794D01*
X113764500Y-63750000D01*
X113512500Y-63750000D01*
X113445461Y-63730315D01*
X113399706Y-63677511D01*
X113388500Y-63626000D01*
X113388500Y-62524999D01*
X113289360Y-62525000D01*
X113289344Y-62525001D01*
X113188347Y-62535319D01*
X113024699Y-62589546D01*
X113024688Y-62589551D01*
X112877965Y-62680052D01*
X112864032Y-62693985D01*
X112802708Y-62727468D01*
X112733016Y-62722482D01*
X112688672Y-62693982D01*
X112674350Y-62679660D01*
X112674346Y-62679657D01*
X112597903Y-62632506D01*
X112551178Y-62580558D01*
X112539000Y-62526968D01*
X112539000Y-62244252D01*
X112558685Y-62177213D01*
X112575319Y-62156571D01*
X112927963Y-61803927D01*
X113293788Y-61438101D01*
X113306042Y-61428286D01*
X113305859Y-61428064D01*
X113311868Y-61423091D01*
X113311877Y-61423086D01*
X113320811Y-61413571D01*
X113381050Y-61378177D01*
X113450863Y-61380969D01*
G37*
G04 #@! TD.AperFunction*
G04 #@! TA.AperFunction,Conductor*
G36*
X120252993Y-62251245D02*
G01*
X120344549Y-62275777D01*
X120404210Y-62312142D01*
X120434739Y-62374989D01*
X120426444Y-62444364D01*
X120420169Y-62456741D01*
X120401215Y-62500538D01*
X120398645Y-62505784D01*
X120376203Y-62546606D01*
X120371222Y-62566007D01*
X120364921Y-62584410D01*
X120356962Y-62602802D01*
X120356961Y-62602805D01*
X120349671Y-62648826D01*
X120348487Y-62654545D01*
X120341006Y-62683687D01*
X120305270Y-62743727D01*
X120242748Y-62774915D01*
X120173289Y-62767350D01*
X120118946Y-62723434D01*
X120096973Y-62657110D01*
X120096900Y-62652855D01*
X120096900Y-62371020D01*
X120116585Y-62303981D01*
X120169389Y-62258226D01*
X120238547Y-62248282D01*
X120252993Y-62251245D01*
G37*
G04 #@! TD.AperFunction*
G04 #@! TA.AperFunction,Conductor*
G36*
X116251680Y-52687678D02*
G01*
X116259909Y-52695199D01*
X116686181Y-53121471D01*
X116719666Y-53182794D01*
X116722500Y-53209152D01*
X116722500Y-54528518D01*
X116702815Y-54595557D01*
X116663600Y-54634055D01*
X116649650Y-54642660D01*
X116649649Y-54642660D01*
X116527661Y-54764648D01*
X116437093Y-54911481D01*
X116437091Y-54911486D01*
X116413687Y-54982116D01*
X116382826Y-55075247D01*
X116382826Y-55075248D01*
X116382825Y-55075248D01*
X116372500Y-55176315D01*
X116372500Y-55874669D01*
X116372501Y-55874687D01*
X116382825Y-55975752D01*
X116414816Y-56072292D01*
X116435805Y-56135633D01*
X116437092Y-56139515D01*
X116437093Y-56139518D01*
X116455359Y-56169131D01*
X116527659Y-56286349D01*
X116527661Y-56286351D01*
X116541982Y-56300672D01*
X116575467Y-56361995D01*
X116570483Y-56431687D01*
X116541985Y-56476032D01*
X116528052Y-56489965D01*
X116437551Y-56636688D01*
X116437546Y-56636699D01*
X116383319Y-56800347D01*
X116373000Y-56901345D01*
X116373000Y-57000500D01*
X118322999Y-57000500D01*
X118322999Y-56901360D01*
X118322998Y-56901345D01*
X118312680Y-56800347D01*
X118258453Y-56636699D01*
X118258448Y-56636688D01*
X118167947Y-56489965D01*
X118167944Y-56489961D01*
X118154017Y-56476034D01*
X118120532Y-56414711D01*
X118125516Y-56345019D01*
X118154017Y-56300672D01*
X118168340Y-56286350D01*
X118258908Y-56139516D01*
X118313174Y-55975753D01*
X118323500Y-55874677D01*
X118323499Y-55176324D01*
X118313174Y-55075247D01*
X118258908Y-54911484D01*
X118168340Y-54764650D01*
X118046350Y-54642660D01*
X118032400Y-54634055D01*
X117985677Y-54582105D01*
X117973500Y-54528518D01*
X117973500Y-53294229D01*
X117993185Y-53227190D01*
X118045989Y-53181435D01*
X118115147Y-53171491D01*
X118178703Y-53200516D01*
X118185181Y-53206548D01*
X119460579Y-54481946D01*
X119494064Y-54543269D01*
X119489080Y-54612961D01*
X119447215Y-54668889D01*
X119442455Y-54672452D01*
X119442452Y-54672455D01*
X119356206Y-54787664D01*
X119356202Y-54787671D01*
X119305908Y-54922517D01*
X119299501Y-54982116D01*
X119299500Y-54982135D01*
X119299500Y-56117769D01*
X119279815Y-56184808D01*
X119263181Y-56205450D01*
X118860758Y-56607872D01*
X118847129Y-56619651D01*
X118827868Y-56633990D01*
X118794298Y-56673997D01*
X118790653Y-56677976D01*
X118784809Y-56683822D01*
X118764459Y-56709559D01*
X118715095Y-56768389D01*
X118711129Y-56774419D01*
X118711082Y-56774388D01*
X118707030Y-56780747D01*
X118707079Y-56780777D01*
X118703289Y-56786921D01*
X118670824Y-56856541D01*
X118636360Y-56925166D01*
X118633888Y-56931957D01*
X118633832Y-56931936D01*
X118631360Y-56939050D01*
X118631415Y-56939069D01*
X118629142Y-56945927D01*
X118621375Y-56983546D01*
X118613607Y-57021165D01*
X118606517Y-57051082D01*
X118595898Y-57095886D01*
X118595061Y-57103054D01*
X118595001Y-57103047D01*
X118594235Y-57110545D01*
X118594295Y-57110551D01*
X118593665Y-57117740D01*
X118595900Y-57194516D01*
X118595900Y-59145448D01*
X118576215Y-59212487D01*
X118523411Y-59258242D01*
X118454253Y-59268186D01*
X118390697Y-59239161D01*
X118384219Y-59233129D01*
X118359818Y-59208728D01*
X118326333Y-59147405D01*
X118323499Y-59121047D01*
X118323499Y-58732330D01*
X118323498Y-58732313D01*
X118313174Y-58631247D01*
X118312434Y-58629014D01*
X118258908Y-58467484D01*
X118168340Y-58320650D01*
X118101017Y-58253327D01*
X118067532Y-58192004D01*
X118072516Y-58122312D01*
X118101017Y-58077964D01*
X118167948Y-58011033D01*
X118258448Y-57864311D01*
X118258453Y-57864300D01*
X118312680Y-57700652D01*
X118322999Y-57599654D01*
X118323000Y-57599641D01*
X118323000Y-57500500D01*
X116373001Y-57500500D01*
X116373001Y-57599654D01*
X116383319Y-57700652D01*
X116437546Y-57864300D01*
X116437551Y-57864311D01*
X116528052Y-58011034D01*
X116528055Y-58011038D01*
X116594982Y-58077965D01*
X116628467Y-58139288D01*
X116623483Y-58208980D01*
X116594983Y-58253327D01*
X116527659Y-58320651D01*
X116437091Y-58467485D01*
X116434201Y-58476208D01*
X116394426Y-58533652D01*
X116329909Y-58560472D01*
X116316496Y-58561200D01*
X114719452Y-58561200D01*
X114652413Y-58541515D01*
X114606658Y-58488711D01*
X114596714Y-58419553D01*
X114625739Y-58355997D01*
X114631771Y-58349519D01*
X115215447Y-57765843D01*
X115799988Y-57181301D01*
X115812242Y-57171486D01*
X115812059Y-57171264D01*
X115818066Y-57166292D01*
X115818077Y-57166286D01*
X115848975Y-57133382D01*
X115865427Y-57115864D01*
X115875871Y-57105418D01*
X115886320Y-57094971D01*
X115890579Y-57089478D01*
X115894352Y-57085061D01*
X115926262Y-57051082D01*
X115935915Y-57033520D01*
X115946589Y-57017270D01*
X115958873Y-57001436D01*
X115977380Y-56958667D01*
X115979949Y-56953424D01*
X115991762Y-56931936D01*
X116002397Y-56912592D01*
X116007377Y-56893191D01*
X116013678Y-56874788D01*
X116021638Y-56856396D01*
X116028930Y-56810349D01*
X116030111Y-56804652D01*
X116041700Y-56759519D01*
X116041700Y-56739483D01*
X116043227Y-56720082D01*
X116046360Y-56700304D01*
X116041975Y-56653915D01*
X116041700Y-56648077D01*
X116041700Y-54116437D01*
X116043424Y-54100823D01*
X116043138Y-54100796D01*
X116043872Y-54093033D01*
X116043334Y-54075925D01*
X116041700Y-54023902D01*
X116041700Y-53994350D01*
X116040829Y-53987459D01*
X116040372Y-53981645D01*
X116040113Y-53973415D01*
X116038909Y-53935072D01*
X116033320Y-53915837D01*
X116029374Y-53896784D01*
X116028869Y-53892783D01*
X116026864Y-53876908D01*
X116009701Y-53833559D01*
X116007814Y-53828046D01*
X116004902Y-53818024D01*
X115994817Y-53783310D01*
X115984621Y-53766069D01*
X115976060Y-53748593D01*
X115971283Y-53736527D01*
X115968686Y-53729968D01*
X115968686Y-53729967D01*
X115958674Y-53716188D01*
X115941283Y-53692250D01*
X115938100Y-53687405D01*
X115914370Y-53647279D01*
X115914365Y-53647273D01*
X115900205Y-53633113D01*
X115887570Y-53618320D01*
X115875793Y-53602112D01*
X115839893Y-53572413D01*
X115835581Y-53568490D01*
X115501496Y-53234405D01*
X115468011Y-53173082D01*
X115472995Y-53103390D01*
X115514867Y-53047457D01*
X115576576Y-53023366D01*
X115612652Y-53019680D01*
X115776300Y-52965453D01*
X115776311Y-52965448D01*
X115923034Y-52874947D01*
X115923038Y-52874944D01*
X116044943Y-52753039D01*
X116066688Y-52717785D01*
X116118635Y-52671059D01*
X116187598Y-52659836D01*
X116251680Y-52687678D01*
G37*
G04 #@! TD.AperFunction*
G04 #@! TA.AperFunction,Conductor*
G36*
X123727514Y-56029089D02*
G01*
X123727517Y-56029091D01*
X123787127Y-56035500D01*
X124132872Y-56035499D01*
X124192483Y-56029091D01*
X124192486Y-56029089D01*
X124196744Y-56028632D01*
X124223254Y-56028632D01*
X124227514Y-56029089D01*
X124227517Y-56029091D01*
X124287127Y-56035500D01*
X124632872Y-56035499D01*
X124692483Y-56029091D01*
X124692487Y-56029089D01*
X124696743Y-56028632D01*
X124723253Y-56028633D01*
X124781990Y-56034948D01*
X124846541Y-56061686D01*
X124886389Y-56119078D01*
X124886665Y-56119915D01*
X124889533Y-56128741D01*
X124893907Y-56135633D01*
X124904503Y-56156429D01*
X124907511Y-56164026D01*
X124907513Y-56164031D01*
X124941265Y-56210487D01*
X124943455Y-56213709D01*
X124974213Y-56262176D01*
X124980164Y-56267764D01*
X124995604Y-56285278D01*
X125000403Y-56291885D01*
X125044647Y-56328487D01*
X125047567Y-56331061D01*
X125089418Y-56370362D01*
X125096578Y-56374298D01*
X125115879Y-56387414D01*
X125122177Y-56392624D01*
X125122178Y-56392624D01*
X125122179Y-56392625D01*
X125174125Y-56417069D01*
X125177597Y-56418838D01*
X125227903Y-56446495D01*
X125227905Y-56446495D01*
X125227908Y-56446497D01*
X125233205Y-56447856D01*
X125235814Y-56448527D01*
X125257777Y-56456433D01*
X125265174Y-56459914D01*
X125321576Y-56470673D01*
X125325362Y-56471519D01*
X125380981Y-56485800D01*
X125389153Y-56485800D01*
X125412385Y-56487996D01*
X125413989Y-56488301D01*
X125420412Y-56489527D01*
X125477724Y-56485921D01*
X125481597Y-56485800D01*
X126475830Y-56485800D01*
X126542869Y-56505485D01*
X126588624Y-56558289D01*
X126598568Y-56627447D01*
X126593536Y-56648804D01*
X126543319Y-56800348D01*
X126533000Y-56901345D01*
X126533000Y-57000500D01*
X127634000Y-57000500D01*
X127701039Y-57020185D01*
X127746794Y-57072989D01*
X127758000Y-57124500D01*
X127758000Y-57376500D01*
X127738315Y-57443539D01*
X127685511Y-57489294D01*
X127634000Y-57500500D01*
X126533001Y-57500500D01*
X126533001Y-57599657D01*
X126537889Y-57647499D01*
X126525119Y-57716192D01*
X126477238Y-57767076D01*
X126414531Y-57784100D01*
X125283043Y-57784100D01*
X125267422Y-57782375D01*
X125267395Y-57782661D01*
X125259633Y-57781926D01*
X125190472Y-57784100D01*
X125160949Y-57784100D01*
X125154078Y-57784967D01*
X125148259Y-57785425D01*
X125101674Y-57786889D01*
X125101668Y-57786890D01*
X125082426Y-57792480D01*
X125063387Y-57796423D01*
X125043517Y-57798934D01*
X125043500Y-57798938D01*
X125000182Y-57816088D01*
X124994658Y-57817979D01*
X124949907Y-57830983D01*
X124949904Y-57830984D01*
X124932658Y-57841183D01*
X124915193Y-57849739D01*
X124909310Y-57852068D01*
X124896566Y-57857114D01*
X124858872Y-57884499D01*
X124853991Y-57887705D01*
X124813880Y-57911428D01*
X124799708Y-57925600D01*
X124784923Y-57938228D01*
X124768712Y-57950007D01*
X124739009Y-57985910D01*
X124735077Y-57990231D01*
X124576208Y-58149099D01*
X124563951Y-58158920D01*
X124564134Y-58159141D01*
X124558123Y-58164113D01*
X124510772Y-58214536D01*
X124500335Y-58224973D01*
X124439012Y-58258458D01*
X124369320Y-58253474D01*
X124340575Y-58235000D01*
X124287166Y-58235000D01*
X124225595Y-58241619D01*
X124199088Y-58241619D01*
X124189818Y-58240622D01*
X124132873Y-58234500D01*
X124132865Y-58234500D01*
X123787130Y-58234500D01*
X123787120Y-58234501D01*
X123723248Y-58241367D01*
X123696742Y-58241367D01*
X123692483Y-58240909D01*
X123632873Y-58234500D01*
X123632867Y-58234500D01*
X123607774Y-58234500D01*
X123540735Y-58214815D01*
X123494980Y-58162011D01*
X123485036Y-58092853D01*
X123487670Y-58079663D01*
X123488399Y-58076823D01*
X123488400Y-58076816D01*
X123488400Y-58056783D01*
X123489927Y-58037382D01*
X123490486Y-58033852D01*
X123493060Y-58017604D01*
X123488675Y-57971215D01*
X123488400Y-57965377D01*
X123488400Y-56159499D01*
X123508085Y-56092460D01*
X123560889Y-56046705D01*
X123612400Y-56035499D01*
X123632871Y-56035499D01*
X123632872Y-56035499D01*
X123692483Y-56029091D01*
X123692486Y-56029089D01*
X123696744Y-56028632D01*
X123723254Y-56028632D01*
X123727514Y-56029089D01*
G37*
G04 #@! TD.AperFunction*
G04 #@! TA.AperFunction,Conductor*
G36*
X117090000Y-44510633D02*
G01*
X117303483Y-44453433D01*
X117303492Y-44453430D01*
X117402795Y-44407124D01*
X117471872Y-44396632D01*
X117535656Y-44425151D01*
X117573896Y-44483628D01*
X117579200Y-44519506D01*
X117579200Y-45374455D01*
X117577475Y-45390072D01*
X117577761Y-45390099D01*
X117577026Y-45397865D01*
X117579200Y-45467014D01*
X117579200Y-45496543D01*
X117579201Y-45496560D01*
X117580068Y-45503431D01*
X117580526Y-45509250D01*
X117581990Y-45555824D01*
X117581991Y-45555827D01*
X117587580Y-45575067D01*
X117591524Y-45594111D01*
X117594036Y-45613991D01*
X117611190Y-45657319D01*
X117613082Y-45662847D01*
X117626081Y-45707588D01*
X117636280Y-45724834D01*
X117644838Y-45742303D01*
X117652214Y-45760932D01*
X117679598Y-45798623D01*
X117682806Y-45803507D01*
X117706527Y-45843616D01*
X117706533Y-45843624D01*
X117720690Y-45857780D01*
X117733328Y-45872576D01*
X117745105Y-45888786D01*
X117745106Y-45888787D01*
X117781009Y-45918488D01*
X117785320Y-45922410D01*
X118283709Y-46420799D01*
X118713181Y-46850271D01*
X118746666Y-46911594D01*
X118749500Y-46937952D01*
X118749500Y-47276668D01*
X118749501Y-47276687D01*
X118759825Y-47377752D01*
X118796109Y-47487249D01*
X118809121Y-47526516D01*
X118814092Y-47541515D01*
X118814093Y-47541518D01*
X118848395Y-47597129D01*
X118904660Y-47688350D01*
X119026650Y-47810340D01*
X119173484Y-47900908D01*
X119337247Y-47955174D01*
X119438323Y-47965500D01*
X120036676Y-47965499D01*
X120036684Y-47965498D01*
X120036687Y-47965498D01*
X120092030Y-47959844D01*
X120137753Y-47955174D01*
X120301516Y-47900908D01*
X120448350Y-47810340D01*
X120562319Y-47696371D01*
X120623642Y-47662886D01*
X120693334Y-47667870D01*
X120737681Y-47696371D01*
X120851650Y-47810340D01*
X120998484Y-47900908D01*
X121162247Y-47955174D01*
X121263323Y-47965500D01*
X121602046Y-47965499D01*
X121669085Y-47985183D01*
X121689727Y-48001818D01*
X122201081Y-48513171D01*
X122234566Y-48574494D01*
X122237400Y-48600852D01*
X122237400Y-50455547D01*
X122217715Y-50522586D01*
X122164911Y-50568341D01*
X122103520Y-50577709D01*
X122103520Y-50578300D01*
X122099649Y-50578300D01*
X122097873Y-50578571D01*
X122095726Y-50578300D01*
X122095719Y-50578300D01*
X122075684Y-50578300D01*
X122056286Y-50576773D01*
X122048862Y-50575597D01*
X122036505Y-50573640D01*
X122036504Y-50573640D01*
X121990116Y-50578025D01*
X121984278Y-50578300D01*
X120671443Y-50578300D01*
X120655822Y-50576575D01*
X120655795Y-50576861D01*
X120648033Y-50576126D01*
X120578872Y-50578300D01*
X120549349Y-50578300D01*
X120542478Y-50579167D01*
X120536659Y-50579625D01*
X120490074Y-50581089D01*
X120490068Y-50581090D01*
X120470826Y-50586680D01*
X120451787Y-50590623D01*
X120431917Y-50593134D01*
X120431903Y-50593137D01*
X120402033Y-50604963D01*
X120332454Y-50611337D01*
X120270475Y-50579082D01*
X120238459Y-50527986D01*
X120236704Y-50522586D01*
X120208200Y-50434857D01*
X120207182Y-50431724D01*
X120207180Y-50431720D01*
X120207179Y-50431716D01*
X120112533Y-50267784D01*
X119985871Y-50127112D01*
X119985870Y-50127111D01*
X119832734Y-50015851D01*
X119832729Y-50015848D01*
X119659807Y-49938857D01*
X119659802Y-49938855D01*
X119489950Y-49902753D01*
X119474646Y-49899500D01*
X119285354Y-49899500D01*
X119270050Y-49902753D01*
X119100197Y-49938855D01*
X119100192Y-49938857D01*
X118927270Y-50015848D01*
X118927265Y-50015851D01*
X118774129Y-50127111D01*
X118647466Y-50267785D01*
X118552821Y-50431715D01*
X118552818Y-50431723D01*
X118552141Y-50433807D01*
X118551422Y-50434857D01*
X118550175Y-50437659D01*
X118549662Y-50437430D01*
X118512700Y-50491480D01*
X118448340Y-50518675D01*
X118379494Y-50506756D01*
X118346531Y-50483163D01*
X116892729Y-49029361D01*
X116880949Y-49015730D01*
X116873482Y-49005701D01*
X116866612Y-48996472D01*
X116866610Y-48996470D01*
X116826587Y-48962886D01*
X116822612Y-48959244D01*
X116819690Y-48956322D01*
X116816780Y-48953411D01*
X116791040Y-48933059D01*
X116732209Y-48883694D01*
X116726180Y-48879729D01*
X116726212Y-48879680D01*
X116719853Y-48875628D01*
X116719822Y-48875679D01*
X116713680Y-48871891D01*
X116713678Y-48871890D01*
X116713677Y-48871889D01*
X116674474Y-48853608D01*
X116644058Y-48839424D01*
X116598706Y-48816648D01*
X116575433Y-48804960D01*
X116575431Y-48804959D01*
X116575430Y-48804959D01*
X116568645Y-48802489D01*
X116568665Y-48802433D01*
X116561549Y-48799959D01*
X116561531Y-48800015D01*
X116554671Y-48797742D01*
X116526841Y-48791996D01*
X116479434Y-48782207D01*
X116430472Y-48770603D01*
X116404719Y-48764499D01*
X116397547Y-48763661D01*
X116397553Y-48763601D01*
X116390055Y-48762835D01*
X116390050Y-48762895D01*
X116382860Y-48762265D01*
X116306083Y-48764500D01*
X116047037Y-48764500D01*
X115979998Y-48744815D01*
X115934243Y-48692011D01*
X115923876Y-48654900D01*
X115921693Y-48636224D01*
X115921494Y-48633948D01*
X115914999Y-48559701D01*
X115913539Y-48552629D01*
X115913597Y-48552616D01*
X115911965Y-48545257D01*
X115911906Y-48545272D01*
X115910241Y-48538251D01*
X115910241Y-48538245D01*
X115883974Y-48466076D01*
X115859814Y-48393166D01*
X115859813Y-48393165D01*
X115859813Y-48393163D01*
X115856764Y-48386624D01*
X115856817Y-48386599D01*
X115853531Y-48379811D01*
X115853479Y-48379838D01*
X115850236Y-48373382D01*
X115808034Y-48309216D01*
X115767714Y-48243847D01*
X115763234Y-48238181D01*
X115763280Y-48238143D01*
X115758519Y-48232299D01*
X115758474Y-48232338D01*
X115753834Y-48226808D01*
X115697982Y-48174113D01*
X115642812Y-48118943D01*
X115609327Y-48057620D01*
X115614311Y-47987928D01*
X115656183Y-47931995D01*
X115691490Y-47913556D01*
X115776298Y-47885454D01*
X115776311Y-47885448D01*
X115923034Y-47794947D01*
X115923038Y-47794944D01*
X116044944Y-47673038D01*
X116044947Y-47673034D01*
X116135448Y-47526311D01*
X116135453Y-47526300D01*
X116189680Y-47362652D01*
X116199999Y-47261654D01*
X116200000Y-47261641D01*
X116200000Y-47225000D01*
X115036500Y-47225000D01*
X114969461Y-47205315D01*
X114923706Y-47152511D01*
X114912500Y-47101000D01*
X114912500Y-46000000D01*
X115412500Y-46000000D01*
X115412500Y-46725000D01*
X116199999Y-46725000D01*
X116199999Y-46688360D01*
X116199998Y-46688345D01*
X116189680Y-46587347D01*
X116135453Y-46423699D01*
X116135448Y-46423688D01*
X116044947Y-46276965D01*
X116044944Y-46276961D01*
X115923038Y-46155055D01*
X115923034Y-46155052D01*
X115776311Y-46064551D01*
X115776300Y-46064546D01*
X115612652Y-46010319D01*
X115511654Y-46000000D01*
X115412500Y-46000000D01*
X114912500Y-46000000D01*
X114912500Y-45999999D01*
X114813360Y-46000000D01*
X114813344Y-46000001D01*
X114712347Y-46010319D01*
X114548699Y-46064546D01*
X114548688Y-46064551D01*
X114401965Y-46155052D01*
X114401958Y-46155058D01*
X114399675Y-46157341D01*
X114397724Y-46158406D01*
X114396299Y-46159533D01*
X114396106Y-46159289D01*
X114338350Y-46190822D01*
X114268659Y-46185833D01*
X114212728Y-46143958D01*
X114188315Y-46078492D01*
X114188000Y-46069654D01*
X114188000Y-45705029D01*
X114207685Y-45637990D01*
X114224319Y-45617348D01*
X114467212Y-45374455D01*
X114785642Y-45056024D01*
X114799257Y-45044258D01*
X114818530Y-45029910D01*
X114852123Y-44989874D01*
X114855757Y-44985908D01*
X114861590Y-44980077D01*
X114881927Y-44954355D01*
X114931302Y-44895514D01*
X114931304Y-44895509D01*
X114935272Y-44889479D01*
X114935323Y-44889512D01*
X114939369Y-44883160D01*
X114939317Y-44883128D01*
X114943109Y-44876979D01*
X114943111Y-44876977D01*
X114975569Y-44807369D01*
X115010040Y-44738733D01*
X115010043Y-44738717D01*
X115012510Y-44731944D01*
X115012568Y-44731965D01*
X115015043Y-44724846D01*
X115014985Y-44724827D01*
X115017256Y-44717972D01*
X115019247Y-44708332D01*
X115032784Y-44642767D01*
X115050500Y-44568021D01*
X115050500Y-44568020D01*
X115051339Y-44560848D01*
X115051397Y-44560854D01*
X115052164Y-44553356D01*
X115052104Y-44553351D01*
X115052733Y-44546160D01*
X115051699Y-44510634D01*
X115050500Y-44469402D01*
X115050500Y-44367700D01*
X115070185Y-44300661D01*
X115103375Y-44266126D01*
X115171401Y-44218495D01*
X115338495Y-44051401D01*
X115468730Y-43865405D01*
X115523307Y-43821781D01*
X115592805Y-43814587D01*
X115655160Y-43846110D01*
X115671879Y-43865405D01*
X115801890Y-44051078D01*
X115968917Y-44218105D01*
X116162421Y-44353600D01*
X116376507Y-44453429D01*
X116376516Y-44453433D01*
X116590000Y-44510634D01*
X116590000Y-43615501D01*
X116697685Y-43664680D01*
X116804237Y-43680000D01*
X116875763Y-43680000D01*
X116982315Y-43664680D01*
X117090000Y-43615501D01*
X117090000Y-44510633D01*
G37*
G04 #@! TD.AperFunction*
G04 #@! TA.AperFunction,Conductor*
G36*
X126330539Y-46744685D02*
G01*
X126376294Y-46797489D01*
X126387500Y-46849000D01*
X126387500Y-47949999D01*
X126486640Y-47949999D01*
X126486654Y-47949998D01*
X126587652Y-47939680D01*
X126751300Y-47885453D01*
X126751311Y-47885448D01*
X126898037Y-47794945D01*
X126900313Y-47792670D01*
X126902262Y-47791605D01*
X126903706Y-47790464D01*
X126903900Y-47790710D01*
X126961634Y-47759181D01*
X127031326Y-47764160D01*
X127087262Y-47806028D01*
X127111683Y-47871491D01*
X127112000Y-47880345D01*
X127112000Y-48633948D01*
X127092315Y-48700987D01*
X127039511Y-48746742D01*
X126970353Y-48756686D01*
X126906797Y-48727661D01*
X126900319Y-48721629D01*
X126873351Y-48694661D01*
X126873350Y-48694660D01*
X126726516Y-48604092D01*
X126562753Y-48549826D01*
X126562751Y-48549825D01*
X126461678Y-48539500D01*
X125788330Y-48539500D01*
X125788309Y-48539502D01*
X125722100Y-48546265D01*
X125653408Y-48533495D01*
X125602524Y-48485613D01*
X125585500Y-48422907D01*
X125585500Y-48066589D01*
X125605185Y-47999550D01*
X125657989Y-47953795D01*
X125722104Y-47943231D01*
X125788352Y-47949999D01*
X125887500Y-47949998D01*
X125887500Y-46849000D01*
X125907185Y-46781961D01*
X125959989Y-46736206D01*
X126011500Y-46725000D01*
X126263500Y-46725000D01*
X126330539Y-46744685D01*
G37*
G04 #@! TD.AperFunction*
G04 #@! TA.AperFunction,Conductor*
G36*
X117033039Y-42649785D02*
G01*
X117078794Y-42702589D01*
X117087680Y-42743439D01*
X116982315Y-42695320D01*
X116875763Y-42680000D01*
X116804237Y-42680000D01*
X116697685Y-42695320D01*
X116593255Y-42743011D01*
X116609685Y-42687061D01*
X116662489Y-42641306D01*
X116714000Y-42630100D01*
X116966000Y-42630100D01*
X117033039Y-42649785D01*
G37*
G04 #@! TD.AperFunction*
G04 #@! TA.AperFunction,Conductor*
G36*
X117090000Y-41136947D02*
G01*
X117070315Y-41203986D01*
X117053681Y-41224628D01*
X116935528Y-41342781D01*
X116874205Y-41376266D01*
X116847847Y-41379100D01*
X116714000Y-41379100D01*
X116646961Y-41359415D01*
X116601206Y-41306611D01*
X116590000Y-41255100D01*
X116590000Y-41075501D01*
X116697685Y-41124680D01*
X116804237Y-41140000D01*
X116875763Y-41140000D01*
X116982315Y-41124680D01*
X117090000Y-41075501D01*
X117090000Y-41136947D01*
G37*
G04 #@! TD.AperFunction*
M02*
