%TF.GenerationSoftware,KiCad,Pcbnew,7.0.9-7.0.9~ubuntu20.04.1*%
%TF.CreationDate,2023-11-16T21:13:08+01:00*%
%TF.ProjectId,kicad-pmod_i2s2,6b696361-642d-4706-9d6f-645f69327332,1.0*%
%TF.SameCoordinates,Original*%
%TF.FileFunction,Drillmap*%
%TF.FilePolarity,Positive*%
%FSLAX45Y45*%
G04 Gerber Fmt 4.5, Leading zero omitted, Abs format (unit mm)*
G04 Created by KiCad (PCBNEW 7.0.9-7.0.9~ubuntu20.04.1) date 2023-11-16 21:13:08*
%MOMM*%
%LPD*%
G01*
G04 APERTURE LIST*
%ADD10C,0.100000*%
%ADD11C,0.200000*%
%ADD12C,0.150000*%
G04 APERTURE END LIST*
D10*
X13004800Y-8585200D02*
G75*
G03*
X13081000Y-8509000I0J76200D01*
G01*
X11049000Y-8509000D02*
G75*
G03*
X11125200Y-8585200I76200J0D01*
G01*
X11125200Y-8585200D02*
X13004800Y-8585200D01*
X11049000Y-3695700D02*
X11049000Y-8509000D01*
X13042900Y-3657600D02*
X11087100Y-3657600D01*
X13081000Y-8509000D02*
X13081000Y-3695700D01*
X11087100Y-3657600D02*
G75*
G03*
X11049000Y-3695700I0J-38100D01*
G01*
X13081000Y-3695700D02*
G75*
G03*
X13042900Y-3657600I-38100J0D01*
G01*
D11*
D12*
X11482000Y-7638500D02*
X11632000Y-7788500D01*
X11632000Y-7638500D02*
X11482000Y-7788500D01*
X11482000Y-8338500D02*
X11632000Y-8488500D01*
X11632000Y-8338500D02*
X11482000Y-8488500D01*
X12498000Y-7638500D02*
X12648000Y-7788500D01*
X12648000Y-7638500D02*
X12498000Y-7788500D01*
X12498000Y-8338500D02*
X12648000Y-8488500D01*
X12648000Y-8338500D02*
X12498000Y-8488500D01*
D11*
X11304777Y-8901684D02*
X11304777Y-8701684D01*
X11304777Y-8701684D02*
X11352396Y-8701684D01*
X11352396Y-8701684D02*
X11380967Y-8711208D01*
X11380967Y-8711208D02*
X11400015Y-8730255D01*
X11400015Y-8730255D02*
X11409539Y-8749303D01*
X11409539Y-8749303D02*
X11419062Y-8787398D01*
X11419062Y-8787398D02*
X11419062Y-8815970D01*
X11419062Y-8815970D02*
X11409539Y-8854065D01*
X11409539Y-8854065D02*
X11400015Y-8873112D01*
X11400015Y-8873112D02*
X11380967Y-8892160D01*
X11380967Y-8892160D02*
X11352396Y-8901684D01*
X11352396Y-8901684D02*
X11304777Y-8901684D01*
X11504777Y-8901684D02*
X11504777Y-8768350D01*
X11504777Y-8806446D02*
X11514301Y-8787398D01*
X11514301Y-8787398D02*
X11523824Y-8777874D01*
X11523824Y-8777874D02*
X11542872Y-8768350D01*
X11542872Y-8768350D02*
X11561920Y-8768350D01*
X11628586Y-8901684D02*
X11628586Y-8768350D01*
X11628586Y-8701684D02*
X11619062Y-8711208D01*
X11619062Y-8711208D02*
X11628586Y-8720731D01*
X11628586Y-8720731D02*
X11638110Y-8711208D01*
X11638110Y-8711208D02*
X11628586Y-8701684D01*
X11628586Y-8701684D02*
X11628586Y-8720731D01*
X11752396Y-8901684D02*
X11733348Y-8892160D01*
X11733348Y-8892160D02*
X11723824Y-8873112D01*
X11723824Y-8873112D02*
X11723824Y-8701684D01*
X11857158Y-8901684D02*
X11838110Y-8892160D01*
X11838110Y-8892160D02*
X11828586Y-8873112D01*
X11828586Y-8873112D02*
X11828586Y-8701684D01*
X12085729Y-8901684D02*
X12085729Y-8701684D01*
X12085729Y-8701684D02*
X12152396Y-8844541D01*
X12152396Y-8844541D02*
X12219062Y-8701684D01*
X12219062Y-8701684D02*
X12219062Y-8901684D01*
X12400015Y-8901684D02*
X12400015Y-8796922D01*
X12400015Y-8796922D02*
X12390491Y-8777874D01*
X12390491Y-8777874D02*
X12371443Y-8768350D01*
X12371443Y-8768350D02*
X12333348Y-8768350D01*
X12333348Y-8768350D02*
X12314301Y-8777874D01*
X12400015Y-8892160D02*
X12380967Y-8901684D01*
X12380967Y-8901684D02*
X12333348Y-8901684D01*
X12333348Y-8901684D02*
X12314301Y-8892160D01*
X12314301Y-8892160D02*
X12304777Y-8873112D01*
X12304777Y-8873112D02*
X12304777Y-8854065D01*
X12304777Y-8854065D02*
X12314301Y-8835017D01*
X12314301Y-8835017D02*
X12333348Y-8825493D01*
X12333348Y-8825493D02*
X12380967Y-8825493D01*
X12380967Y-8825493D02*
X12400015Y-8815970D01*
X12495253Y-8768350D02*
X12495253Y-8968350D01*
X12495253Y-8777874D02*
X12514301Y-8768350D01*
X12514301Y-8768350D02*
X12552396Y-8768350D01*
X12552396Y-8768350D02*
X12571443Y-8777874D01*
X12571443Y-8777874D02*
X12580967Y-8787398D01*
X12580967Y-8787398D02*
X12590491Y-8806446D01*
X12590491Y-8806446D02*
X12590491Y-8863589D01*
X12590491Y-8863589D02*
X12580967Y-8882636D01*
X12580967Y-8882636D02*
X12571443Y-8892160D01*
X12571443Y-8892160D02*
X12552396Y-8901684D01*
X12552396Y-8901684D02*
X12514301Y-8901684D01*
X12514301Y-8901684D02*
X12495253Y-8892160D01*
X12676205Y-8882636D02*
X12685729Y-8892160D01*
X12685729Y-8892160D02*
X12676205Y-8901684D01*
X12676205Y-8901684D02*
X12666682Y-8892160D01*
X12666682Y-8892160D02*
X12676205Y-8882636D01*
X12676205Y-8882636D02*
X12676205Y-8901684D01*
X12676205Y-8777874D02*
X12685729Y-8787398D01*
X12685729Y-8787398D02*
X12676205Y-8796922D01*
X12676205Y-8796922D02*
X12666682Y-8787398D01*
X12666682Y-8787398D02*
X12676205Y-8777874D01*
X12676205Y-8777874D02*
X12676205Y-8796922D01*
D12*
X10894000Y-9155200D02*
X11044000Y-9305200D01*
X11044000Y-9155200D02*
X10894000Y-9305200D01*
D11*
X11409539Y-9321684D02*
X11295253Y-9321684D01*
X11352396Y-9321684D02*
X11352396Y-9121684D01*
X11352396Y-9121684D02*
X11333348Y-9150255D01*
X11333348Y-9150255D02*
X11314301Y-9169303D01*
X11314301Y-9169303D02*
X11295253Y-9178827D01*
X11495253Y-9302636D02*
X11504777Y-9312160D01*
X11504777Y-9312160D02*
X11495253Y-9321684D01*
X11495253Y-9321684D02*
X11485729Y-9312160D01*
X11485729Y-9312160D02*
X11495253Y-9302636D01*
X11495253Y-9302636D02*
X11495253Y-9321684D01*
X11685729Y-9121684D02*
X11590491Y-9121684D01*
X11590491Y-9121684D02*
X11580967Y-9216922D01*
X11580967Y-9216922D02*
X11590491Y-9207398D01*
X11590491Y-9207398D02*
X11609539Y-9197874D01*
X11609539Y-9197874D02*
X11657158Y-9197874D01*
X11657158Y-9197874D02*
X11676205Y-9207398D01*
X11676205Y-9207398D02*
X11685729Y-9216922D01*
X11685729Y-9216922D02*
X11695253Y-9235970D01*
X11695253Y-9235970D02*
X11695253Y-9283589D01*
X11695253Y-9283589D02*
X11685729Y-9302636D01*
X11685729Y-9302636D02*
X11676205Y-9312160D01*
X11676205Y-9312160D02*
X11657158Y-9321684D01*
X11657158Y-9321684D02*
X11609539Y-9321684D01*
X11609539Y-9321684D02*
X11590491Y-9312160D01*
X11590491Y-9312160D02*
X11580967Y-9302636D01*
X11819062Y-9121684D02*
X11838110Y-9121684D01*
X11838110Y-9121684D02*
X11857158Y-9131208D01*
X11857158Y-9131208D02*
X11866682Y-9140731D01*
X11866682Y-9140731D02*
X11876205Y-9159779D01*
X11876205Y-9159779D02*
X11885729Y-9197874D01*
X11885729Y-9197874D02*
X11885729Y-9245493D01*
X11885729Y-9245493D02*
X11876205Y-9283589D01*
X11876205Y-9283589D02*
X11866682Y-9302636D01*
X11866682Y-9302636D02*
X11857158Y-9312160D01*
X11857158Y-9312160D02*
X11838110Y-9321684D01*
X11838110Y-9321684D02*
X11819062Y-9321684D01*
X11819062Y-9321684D02*
X11800015Y-9312160D01*
X11800015Y-9312160D02*
X11790491Y-9302636D01*
X11790491Y-9302636D02*
X11780967Y-9283589D01*
X11780967Y-9283589D02*
X11771443Y-9245493D01*
X11771443Y-9245493D02*
X11771443Y-9197874D01*
X11771443Y-9197874D02*
X11780967Y-9159779D01*
X11780967Y-9159779D02*
X11790491Y-9140731D01*
X11790491Y-9140731D02*
X11800015Y-9131208D01*
X11800015Y-9131208D02*
X11819062Y-9121684D01*
X12009539Y-9121684D02*
X12028586Y-9121684D01*
X12028586Y-9121684D02*
X12047634Y-9131208D01*
X12047634Y-9131208D02*
X12057158Y-9140731D01*
X12057158Y-9140731D02*
X12066682Y-9159779D01*
X12066682Y-9159779D02*
X12076205Y-9197874D01*
X12076205Y-9197874D02*
X12076205Y-9245493D01*
X12076205Y-9245493D02*
X12066682Y-9283589D01*
X12066682Y-9283589D02*
X12057158Y-9302636D01*
X12057158Y-9302636D02*
X12047634Y-9312160D01*
X12047634Y-9312160D02*
X12028586Y-9321684D01*
X12028586Y-9321684D02*
X12009539Y-9321684D01*
X12009539Y-9321684D02*
X11990491Y-9312160D01*
X11990491Y-9312160D02*
X11980967Y-9302636D01*
X11980967Y-9302636D02*
X11971443Y-9283589D01*
X11971443Y-9283589D02*
X11961920Y-9245493D01*
X11961920Y-9245493D02*
X11961920Y-9197874D01*
X11961920Y-9197874D02*
X11971443Y-9159779D01*
X11971443Y-9159779D02*
X11980967Y-9140731D01*
X11980967Y-9140731D02*
X11990491Y-9131208D01*
X11990491Y-9131208D02*
X12009539Y-9121684D01*
X12161920Y-9321684D02*
X12161920Y-9188350D01*
X12161920Y-9207398D02*
X12171443Y-9197874D01*
X12171443Y-9197874D02*
X12190491Y-9188350D01*
X12190491Y-9188350D02*
X12219063Y-9188350D01*
X12219063Y-9188350D02*
X12238110Y-9197874D01*
X12238110Y-9197874D02*
X12247634Y-9216922D01*
X12247634Y-9216922D02*
X12247634Y-9321684D01*
X12247634Y-9216922D02*
X12257158Y-9197874D01*
X12257158Y-9197874D02*
X12276205Y-9188350D01*
X12276205Y-9188350D02*
X12304777Y-9188350D01*
X12304777Y-9188350D02*
X12323824Y-9197874D01*
X12323824Y-9197874D02*
X12333348Y-9216922D01*
X12333348Y-9216922D02*
X12333348Y-9321684D01*
X12428586Y-9321684D02*
X12428586Y-9188350D01*
X12428586Y-9207398D02*
X12438110Y-9197874D01*
X12438110Y-9197874D02*
X12457158Y-9188350D01*
X12457158Y-9188350D02*
X12485729Y-9188350D01*
X12485729Y-9188350D02*
X12504777Y-9197874D01*
X12504777Y-9197874D02*
X12514301Y-9216922D01*
X12514301Y-9216922D02*
X12514301Y-9321684D01*
X12514301Y-9216922D02*
X12523824Y-9197874D01*
X12523824Y-9197874D02*
X12542872Y-9188350D01*
X12542872Y-9188350D02*
X12571443Y-9188350D01*
X12571443Y-9188350D02*
X12590491Y-9197874D01*
X12590491Y-9197874D02*
X12600015Y-9216922D01*
X12600015Y-9216922D02*
X12600015Y-9321684D01*
X12990491Y-9112160D02*
X12819063Y-9369303D01*
X13247634Y-9121684D02*
X13266682Y-9121684D01*
X13266682Y-9121684D02*
X13285729Y-9131208D01*
X13285729Y-9131208D02*
X13295253Y-9140731D01*
X13295253Y-9140731D02*
X13304777Y-9159779D01*
X13304777Y-9159779D02*
X13314301Y-9197874D01*
X13314301Y-9197874D02*
X13314301Y-9245493D01*
X13314301Y-9245493D02*
X13304777Y-9283589D01*
X13304777Y-9283589D02*
X13295253Y-9302636D01*
X13295253Y-9302636D02*
X13285729Y-9312160D01*
X13285729Y-9312160D02*
X13266682Y-9321684D01*
X13266682Y-9321684D02*
X13247634Y-9321684D01*
X13247634Y-9321684D02*
X13228586Y-9312160D01*
X13228586Y-9312160D02*
X13219063Y-9302636D01*
X13219063Y-9302636D02*
X13209539Y-9283589D01*
X13209539Y-9283589D02*
X13200015Y-9245493D01*
X13200015Y-9245493D02*
X13200015Y-9197874D01*
X13200015Y-9197874D02*
X13209539Y-9159779D01*
X13209539Y-9159779D02*
X13219063Y-9140731D01*
X13219063Y-9140731D02*
X13228586Y-9131208D01*
X13228586Y-9131208D02*
X13247634Y-9121684D01*
X13400015Y-9302636D02*
X13409539Y-9312160D01*
X13409539Y-9312160D02*
X13400015Y-9321684D01*
X13400015Y-9321684D02*
X13390491Y-9312160D01*
X13390491Y-9312160D02*
X13400015Y-9302636D01*
X13400015Y-9302636D02*
X13400015Y-9321684D01*
X13533348Y-9121684D02*
X13552396Y-9121684D01*
X13552396Y-9121684D02*
X13571444Y-9131208D01*
X13571444Y-9131208D02*
X13580967Y-9140731D01*
X13580967Y-9140731D02*
X13590491Y-9159779D01*
X13590491Y-9159779D02*
X13600015Y-9197874D01*
X13600015Y-9197874D02*
X13600015Y-9245493D01*
X13600015Y-9245493D02*
X13590491Y-9283589D01*
X13590491Y-9283589D02*
X13580967Y-9302636D01*
X13580967Y-9302636D02*
X13571444Y-9312160D01*
X13571444Y-9312160D02*
X13552396Y-9321684D01*
X13552396Y-9321684D02*
X13533348Y-9321684D01*
X13533348Y-9321684D02*
X13514301Y-9312160D01*
X13514301Y-9312160D02*
X13504777Y-9302636D01*
X13504777Y-9302636D02*
X13495253Y-9283589D01*
X13495253Y-9283589D02*
X13485729Y-9245493D01*
X13485729Y-9245493D02*
X13485729Y-9197874D01*
X13485729Y-9197874D02*
X13495253Y-9159779D01*
X13495253Y-9159779D02*
X13504777Y-9140731D01*
X13504777Y-9140731D02*
X13514301Y-9131208D01*
X13514301Y-9131208D02*
X13533348Y-9121684D01*
X13780967Y-9121684D02*
X13685729Y-9121684D01*
X13685729Y-9121684D02*
X13676206Y-9216922D01*
X13676206Y-9216922D02*
X13685729Y-9207398D01*
X13685729Y-9207398D02*
X13704777Y-9197874D01*
X13704777Y-9197874D02*
X13752396Y-9197874D01*
X13752396Y-9197874D02*
X13771444Y-9207398D01*
X13771444Y-9207398D02*
X13780967Y-9216922D01*
X13780967Y-9216922D02*
X13790491Y-9235970D01*
X13790491Y-9235970D02*
X13790491Y-9283589D01*
X13790491Y-9283589D02*
X13780967Y-9302636D01*
X13780967Y-9302636D02*
X13771444Y-9312160D01*
X13771444Y-9312160D02*
X13752396Y-9321684D01*
X13752396Y-9321684D02*
X13704777Y-9321684D01*
X13704777Y-9321684D02*
X13685729Y-9312160D01*
X13685729Y-9312160D02*
X13676206Y-9302636D01*
X13885729Y-9321684D02*
X13923825Y-9321684D01*
X13923825Y-9321684D02*
X13942872Y-9312160D01*
X13942872Y-9312160D02*
X13952396Y-9302636D01*
X13952396Y-9302636D02*
X13971444Y-9274065D01*
X13971444Y-9274065D02*
X13980967Y-9235970D01*
X13980967Y-9235970D02*
X13980967Y-9159779D01*
X13980967Y-9159779D02*
X13971444Y-9140731D01*
X13971444Y-9140731D02*
X13961920Y-9131208D01*
X13961920Y-9131208D02*
X13942872Y-9121684D01*
X13942872Y-9121684D02*
X13904777Y-9121684D01*
X13904777Y-9121684D02*
X13885729Y-9131208D01*
X13885729Y-9131208D02*
X13876206Y-9140731D01*
X13876206Y-9140731D02*
X13866682Y-9159779D01*
X13866682Y-9159779D02*
X13866682Y-9207398D01*
X13866682Y-9207398D02*
X13876206Y-9226446D01*
X13876206Y-9226446D02*
X13885729Y-9235970D01*
X13885729Y-9235970D02*
X13904777Y-9245493D01*
X13904777Y-9245493D02*
X13942872Y-9245493D01*
X13942872Y-9245493D02*
X13961920Y-9235970D01*
X13961920Y-9235970D02*
X13971444Y-9226446D01*
X13971444Y-9226446D02*
X13980967Y-9207398D01*
X14171444Y-9321684D02*
X14057158Y-9321684D01*
X14114301Y-9321684D02*
X14114301Y-9121684D01*
X14114301Y-9121684D02*
X14095253Y-9150255D01*
X14095253Y-9150255D02*
X14076206Y-9169303D01*
X14076206Y-9169303D02*
X14057158Y-9178827D01*
X14247634Y-9121684D02*
X14247634Y-9159779D01*
X14323825Y-9121684D02*
X14323825Y-9159779D01*
X14619063Y-9397874D02*
X14609539Y-9388350D01*
X14609539Y-9388350D02*
X14590491Y-9359779D01*
X14590491Y-9359779D02*
X14580968Y-9340731D01*
X14580968Y-9340731D02*
X14571444Y-9312160D01*
X14571444Y-9312160D02*
X14561920Y-9264541D01*
X14561920Y-9264541D02*
X14561920Y-9226446D01*
X14561920Y-9226446D02*
X14571444Y-9178827D01*
X14571444Y-9178827D02*
X14580968Y-9150255D01*
X14580968Y-9150255D02*
X14590491Y-9131208D01*
X14590491Y-9131208D02*
X14609539Y-9102636D01*
X14609539Y-9102636D02*
X14619063Y-9093112D01*
X14780968Y-9188350D02*
X14780968Y-9321684D01*
X14733348Y-9112160D02*
X14685729Y-9255017D01*
X14685729Y-9255017D02*
X14809539Y-9255017D01*
X15038110Y-9321684D02*
X15038110Y-9121684D01*
X15123825Y-9321684D02*
X15123825Y-9216922D01*
X15123825Y-9216922D02*
X15114301Y-9197874D01*
X15114301Y-9197874D02*
X15095253Y-9188350D01*
X15095253Y-9188350D02*
X15066682Y-9188350D01*
X15066682Y-9188350D02*
X15047634Y-9197874D01*
X15047634Y-9197874D02*
X15038110Y-9207398D01*
X15247634Y-9321684D02*
X15228587Y-9312160D01*
X15228587Y-9312160D02*
X15219063Y-9302636D01*
X15219063Y-9302636D02*
X15209539Y-9283589D01*
X15209539Y-9283589D02*
X15209539Y-9226446D01*
X15209539Y-9226446D02*
X15219063Y-9207398D01*
X15219063Y-9207398D02*
X15228587Y-9197874D01*
X15228587Y-9197874D02*
X15247634Y-9188350D01*
X15247634Y-9188350D02*
X15276206Y-9188350D01*
X15276206Y-9188350D02*
X15295253Y-9197874D01*
X15295253Y-9197874D02*
X15304777Y-9207398D01*
X15304777Y-9207398D02*
X15314301Y-9226446D01*
X15314301Y-9226446D02*
X15314301Y-9283589D01*
X15314301Y-9283589D02*
X15304777Y-9302636D01*
X15304777Y-9302636D02*
X15295253Y-9312160D01*
X15295253Y-9312160D02*
X15276206Y-9321684D01*
X15276206Y-9321684D02*
X15247634Y-9321684D01*
X15428587Y-9321684D02*
X15409539Y-9312160D01*
X15409539Y-9312160D02*
X15400015Y-9293112D01*
X15400015Y-9293112D02*
X15400015Y-9121684D01*
X15580968Y-9312160D02*
X15561920Y-9321684D01*
X15561920Y-9321684D02*
X15523825Y-9321684D01*
X15523825Y-9321684D02*
X15504777Y-9312160D01*
X15504777Y-9312160D02*
X15495253Y-9293112D01*
X15495253Y-9293112D02*
X15495253Y-9216922D01*
X15495253Y-9216922D02*
X15504777Y-9197874D01*
X15504777Y-9197874D02*
X15523825Y-9188350D01*
X15523825Y-9188350D02*
X15561920Y-9188350D01*
X15561920Y-9188350D02*
X15580968Y-9197874D01*
X15580968Y-9197874D02*
X15590491Y-9216922D01*
X15590491Y-9216922D02*
X15590491Y-9235970D01*
X15590491Y-9235970D02*
X15495253Y-9255017D01*
X15666682Y-9312160D02*
X15685730Y-9321684D01*
X15685730Y-9321684D02*
X15723825Y-9321684D01*
X15723825Y-9321684D02*
X15742872Y-9312160D01*
X15742872Y-9312160D02*
X15752396Y-9293112D01*
X15752396Y-9293112D02*
X15752396Y-9283589D01*
X15752396Y-9283589D02*
X15742872Y-9264541D01*
X15742872Y-9264541D02*
X15723825Y-9255017D01*
X15723825Y-9255017D02*
X15695253Y-9255017D01*
X15695253Y-9255017D02*
X15676206Y-9245493D01*
X15676206Y-9245493D02*
X15666682Y-9226446D01*
X15666682Y-9226446D02*
X15666682Y-9216922D01*
X15666682Y-9216922D02*
X15676206Y-9197874D01*
X15676206Y-9197874D02*
X15695253Y-9188350D01*
X15695253Y-9188350D02*
X15723825Y-9188350D01*
X15723825Y-9188350D02*
X15742872Y-9197874D01*
X15819063Y-9397874D02*
X15828587Y-9388350D01*
X15828587Y-9388350D02*
X15847634Y-9359779D01*
X15847634Y-9359779D02*
X15857158Y-9340731D01*
X15857158Y-9340731D02*
X15866682Y-9312160D01*
X15866682Y-9312160D02*
X15876206Y-9264541D01*
X15876206Y-9264541D02*
X15876206Y-9226446D01*
X15876206Y-9226446D02*
X15866682Y-9178827D01*
X15866682Y-9178827D02*
X15857158Y-9150255D01*
X15857158Y-9150255D02*
X15847634Y-9131208D01*
X15847634Y-9131208D02*
X15828587Y-9102636D01*
X15828587Y-9102636D02*
X15819063Y-9093112D01*
X16180968Y-9397874D02*
X16171444Y-9388350D01*
X16171444Y-9388350D02*
X16152396Y-9359779D01*
X16152396Y-9359779D02*
X16142872Y-9340731D01*
X16142872Y-9340731D02*
X16133349Y-9312160D01*
X16133349Y-9312160D02*
X16123825Y-9264541D01*
X16123825Y-9264541D02*
X16123825Y-9226446D01*
X16123825Y-9226446D02*
X16133349Y-9178827D01*
X16133349Y-9178827D02*
X16142872Y-9150255D01*
X16142872Y-9150255D02*
X16152396Y-9131208D01*
X16152396Y-9131208D02*
X16171444Y-9102636D01*
X16171444Y-9102636D02*
X16180968Y-9093112D01*
X16257158Y-9188350D02*
X16257158Y-9321684D01*
X16257158Y-9207398D02*
X16266682Y-9197874D01*
X16266682Y-9197874D02*
X16285730Y-9188350D01*
X16285730Y-9188350D02*
X16314301Y-9188350D01*
X16314301Y-9188350D02*
X16333349Y-9197874D01*
X16333349Y-9197874D02*
X16342872Y-9216922D01*
X16342872Y-9216922D02*
X16342872Y-9321684D01*
X16466682Y-9321684D02*
X16447634Y-9312160D01*
X16447634Y-9312160D02*
X16438111Y-9302636D01*
X16438111Y-9302636D02*
X16428587Y-9283589D01*
X16428587Y-9283589D02*
X16428587Y-9226446D01*
X16428587Y-9226446D02*
X16438111Y-9207398D01*
X16438111Y-9207398D02*
X16447634Y-9197874D01*
X16447634Y-9197874D02*
X16466682Y-9188350D01*
X16466682Y-9188350D02*
X16495253Y-9188350D01*
X16495253Y-9188350D02*
X16514301Y-9197874D01*
X16514301Y-9197874D02*
X16523825Y-9207398D01*
X16523825Y-9207398D02*
X16533349Y-9226446D01*
X16533349Y-9226446D02*
X16533349Y-9283589D01*
X16533349Y-9283589D02*
X16523825Y-9302636D01*
X16523825Y-9302636D02*
X16514301Y-9312160D01*
X16514301Y-9312160D02*
X16495253Y-9321684D01*
X16495253Y-9321684D02*
X16466682Y-9321684D01*
X16590492Y-9188350D02*
X16666682Y-9188350D01*
X16619063Y-9121684D02*
X16619063Y-9293112D01*
X16619063Y-9293112D02*
X16628587Y-9312160D01*
X16628587Y-9312160D02*
X16647634Y-9321684D01*
X16647634Y-9321684D02*
X16666682Y-9321684D01*
X16885730Y-9188350D02*
X16885730Y-9388350D01*
X16885730Y-9197874D02*
X16904777Y-9188350D01*
X16904777Y-9188350D02*
X16942873Y-9188350D01*
X16942873Y-9188350D02*
X16961920Y-9197874D01*
X16961920Y-9197874D02*
X16971444Y-9207398D01*
X16971444Y-9207398D02*
X16980968Y-9226446D01*
X16980968Y-9226446D02*
X16980968Y-9283589D01*
X16980968Y-9283589D02*
X16971444Y-9302636D01*
X16971444Y-9302636D02*
X16961920Y-9312160D01*
X16961920Y-9312160D02*
X16942873Y-9321684D01*
X16942873Y-9321684D02*
X16904777Y-9321684D01*
X16904777Y-9321684D02*
X16885730Y-9312160D01*
X17095254Y-9321684D02*
X17076206Y-9312160D01*
X17076206Y-9312160D02*
X17066682Y-9293112D01*
X17066682Y-9293112D02*
X17066682Y-9121684D01*
X17257158Y-9321684D02*
X17257158Y-9216922D01*
X17257158Y-9216922D02*
X17247635Y-9197874D01*
X17247635Y-9197874D02*
X17228587Y-9188350D01*
X17228587Y-9188350D02*
X17190492Y-9188350D01*
X17190492Y-9188350D02*
X17171444Y-9197874D01*
X17257158Y-9312160D02*
X17238111Y-9321684D01*
X17238111Y-9321684D02*
X17190492Y-9321684D01*
X17190492Y-9321684D02*
X17171444Y-9312160D01*
X17171444Y-9312160D02*
X17161920Y-9293112D01*
X17161920Y-9293112D02*
X17161920Y-9274065D01*
X17161920Y-9274065D02*
X17171444Y-9255017D01*
X17171444Y-9255017D02*
X17190492Y-9245493D01*
X17190492Y-9245493D02*
X17238111Y-9245493D01*
X17238111Y-9245493D02*
X17257158Y-9235970D01*
X17323825Y-9188350D02*
X17400015Y-9188350D01*
X17352396Y-9121684D02*
X17352396Y-9293112D01*
X17352396Y-9293112D02*
X17361920Y-9312160D01*
X17361920Y-9312160D02*
X17380968Y-9321684D01*
X17380968Y-9321684D02*
X17400015Y-9321684D01*
X17542873Y-9312160D02*
X17523825Y-9321684D01*
X17523825Y-9321684D02*
X17485730Y-9321684D01*
X17485730Y-9321684D02*
X17466682Y-9312160D01*
X17466682Y-9312160D02*
X17457158Y-9293112D01*
X17457158Y-9293112D02*
X17457158Y-9216922D01*
X17457158Y-9216922D02*
X17466682Y-9197874D01*
X17466682Y-9197874D02*
X17485730Y-9188350D01*
X17485730Y-9188350D02*
X17523825Y-9188350D01*
X17523825Y-9188350D02*
X17542873Y-9197874D01*
X17542873Y-9197874D02*
X17552396Y-9216922D01*
X17552396Y-9216922D02*
X17552396Y-9235970D01*
X17552396Y-9235970D02*
X17457158Y-9255017D01*
X17723825Y-9321684D02*
X17723825Y-9121684D01*
X17723825Y-9312160D02*
X17704777Y-9321684D01*
X17704777Y-9321684D02*
X17666682Y-9321684D01*
X17666682Y-9321684D02*
X17647635Y-9312160D01*
X17647635Y-9312160D02*
X17638111Y-9302636D01*
X17638111Y-9302636D02*
X17628587Y-9283589D01*
X17628587Y-9283589D02*
X17628587Y-9226446D01*
X17628587Y-9226446D02*
X17638111Y-9207398D01*
X17638111Y-9207398D02*
X17647635Y-9197874D01*
X17647635Y-9197874D02*
X17666682Y-9188350D01*
X17666682Y-9188350D02*
X17704777Y-9188350D01*
X17704777Y-9188350D02*
X17723825Y-9197874D01*
X17800016Y-9397874D02*
X17809539Y-9388350D01*
X17809539Y-9388350D02*
X17828587Y-9359779D01*
X17828587Y-9359779D02*
X17838111Y-9340731D01*
X17838111Y-9340731D02*
X17847635Y-9312160D01*
X17847635Y-9312160D02*
X17857158Y-9264541D01*
X17857158Y-9264541D02*
X17857158Y-9226446D01*
X17857158Y-9226446D02*
X17847635Y-9178827D01*
X17847635Y-9178827D02*
X17838111Y-9150255D01*
X17838111Y-9150255D02*
X17828587Y-9131208D01*
X17828587Y-9131208D02*
X17809539Y-9102636D01*
X17809539Y-9102636D02*
X17800016Y-9093112D01*
M02*
