G04 #@! TF.GenerationSoftware,KiCad,Pcbnew,7.0.9-7.0.9~ubuntu20.04.1*
G04 #@! TF.CreationDate,2023-11-16T21:07:46+01:00*
G04 #@! TF.ProjectId,kicad-pmod_i2s2,6b696361-642d-4706-9d6f-645f69327332,1.0*
G04 #@! TF.SameCoordinates,Original*
G04 #@! TF.FileFunction,Legend,Top*
G04 #@! TF.FilePolarity,Positive*
%FSLAX46Y46*%
G04 Gerber Fmt 4.6, Leading zero omitted, Abs format (unit mm)*
G04 Created by KiCad (PCBNEW 7.0.9-7.0.9~ubuntu20.04.1) date 2023-11-16 21:07:46*
%MOMM*%
%LPD*%
G01*
G04 APERTURE LIST*
%ADD10C,0.100000*%
%ADD11C,0.170000*%
%ADD12C,0.150000*%
%ADD13C,0.120000*%
%ADD14C,1.500000*%
%ADD15R,2.500000X1.200000*%
%ADD16R,1.700000X1.700000*%
%ADD17O,1.700000X1.700000*%
G04 APERTURE END LIST*
D10*
X111725295Y-50035455D02*
X111687200Y-50002122D01*
X111687200Y-50002122D02*
X111649104Y-49902122D01*
X111649104Y-49902122D02*
X111649104Y-49835455D01*
X111649104Y-49835455D02*
X111687200Y-49735455D01*
X111687200Y-49735455D02*
X111763390Y-49668789D01*
X111763390Y-49668789D02*
X111839580Y-49635455D01*
X111839580Y-49635455D02*
X111991961Y-49602122D01*
X111991961Y-49602122D02*
X112106247Y-49602122D01*
X112106247Y-49602122D02*
X112258628Y-49635455D01*
X112258628Y-49635455D02*
X112334819Y-49668789D01*
X112334819Y-49668789D02*
X112411009Y-49735455D01*
X112411009Y-49735455D02*
X112449104Y-49835455D01*
X112449104Y-49835455D02*
X112449104Y-49902122D01*
X112449104Y-49902122D02*
X112411009Y-50002122D01*
X112411009Y-50002122D02*
X112372914Y-50035455D01*
X111687200Y-50302122D02*
X111649104Y-50402122D01*
X111649104Y-50402122D02*
X111649104Y-50568789D01*
X111649104Y-50568789D02*
X111687200Y-50635455D01*
X111687200Y-50635455D02*
X111725295Y-50668789D01*
X111725295Y-50668789D02*
X111801485Y-50702122D01*
X111801485Y-50702122D02*
X111877676Y-50702122D01*
X111877676Y-50702122D02*
X111953866Y-50668789D01*
X111953866Y-50668789D02*
X111991961Y-50635455D01*
X111991961Y-50635455D02*
X112030057Y-50568789D01*
X112030057Y-50568789D02*
X112068152Y-50435455D01*
X112068152Y-50435455D02*
X112106247Y-50368789D01*
X112106247Y-50368789D02*
X112144342Y-50335455D01*
X112144342Y-50335455D02*
X112220533Y-50302122D01*
X112220533Y-50302122D02*
X112296723Y-50302122D01*
X112296723Y-50302122D02*
X112372914Y-50335455D01*
X112372914Y-50335455D02*
X112411009Y-50368789D01*
X112411009Y-50368789D02*
X112449104Y-50435455D01*
X112449104Y-50435455D02*
X112449104Y-50602122D01*
X112449104Y-50602122D02*
X112411009Y-50702122D01*
X112182438Y-51302122D02*
X111649104Y-51302122D01*
X112487200Y-51135456D02*
X111915771Y-50968789D01*
X111915771Y-50968789D02*
X111915771Y-51402122D01*
X112449104Y-51602123D02*
X112449104Y-52035456D01*
X112449104Y-52035456D02*
X112144342Y-51802123D01*
X112144342Y-51802123D02*
X112144342Y-51902123D01*
X112144342Y-51902123D02*
X112106247Y-51968789D01*
X112106247Y-51968789D02*
X112068152Y-52002123D01*
X112068152Y-52002123D02*
X111991961Y-52035456D01*
X111991961Y-52035456D02*
X111801485Y-52035456D01*
X111801485Y-52035456D02*
X111725295Y-52002123D01*
X111725295Y-52002123D02*
X111687200Y-51968789D01*
X111687200Y-51968789D02*
X111649104Y-51902123D01*
X111649104Y-51902123D02*
X111649104Y-51702123D01*
X111649104Y-51702123D02*
X111687200Y-51635456D01*
X111687200Y-51635456D02*
X111725295Y-51602123D01*
X112182438Y-52635456D02*
X111649104Y-52635456D01*
X112487200Y-52468790D02*
X111915771Y-52302123D01*
X111915771Y-52302123D02*
X111915771Y-52735456D01*
X112182438Y-53302123D02*
X111649104Y-53302123D01*
X112487200Y-53135457D02*
X111915771Y-52968790D01*
X111915771Y-52968790D02*
X111915771Y-53402123D01*
X111725295Y-45336455D02*
X111687200Y-45303122D01*
X111687200Y-45303122D02*
X111649104Y-45203122D01*
X111649104Y-45203122D02*
X111649104Y-45136455D01*
X111649104Y-45136455D02*
X111687200Y-45036455D01*
X111687200Y-45036455D02*
X111763390Y-44969789D01*
X111763390Y-44969789D02*
X111839580Y-44936455D01*
X111839580Y-44936455D02*
X111991961Y-44903122D01*
X111991961Y-44903122D02*
X112106247Y-44903122D01*
X112106247Y-44903122D02*
X112258628Y-44936455D01*
X112258628Y-44936455D02*
X112334819Y-44969789D01*
X112334819Y-44969789D02*
X112411009Y-45036455D01*
X112411009Y-45036455D02*
X112449104Y-45136455D01*
X112449104Y-45136455D02*
X112449104Y-45203122D01*
X112449104Y-45203122D02*
X112411009Y-45303122D01*
X112411009Y-45303122D02*
X112372914Y-45336455D01*
X111687200Y-45603122D02*
X111649104Y-45703122D01*
X111649104Y-45703122D02*
X111649104Y-45869789D01*
X111649104Y-45869789D02*
X111687200Y-45936455D01*
X111687200Y-45936455D02*
X111725295Y-45969789D01*
X111725295Y-45969789D02*
X111801485Y-46003122D01*
X111801485Y-46003122D02*
X111877676Y-46003122D01*
X111877676Y-46003122D02*
X111953866Y-45969789D01*
X111953866Y-45969789D02*
X111991961Y-45936455D01*
X111991961Y-45936455D02*
X112030057Y-45869789D01*
X112030057Y-45869789D02*
X112068152Y-45736455D01*
X112068152Y-45736455D02*
X112106247Y-45669789D01*
X112106247Y-45669789D02*
X112144342Y-45636455D01*
X112144342Y-45636455D02*
X112220533Y-45603122D01*
X112220533Y-45603122D02*
X112296723Y-45603122D01*
X112296723Y-45603122D02*
X112372914Y-45636455D01*
X112372914Y-45636455D02*
X112411009Y-45669789D01*
X112411009Y-45669789D02*
X112449104Y-45736455D01*
X112449104Y-45736455D02*
X112449104Y-45903122D01*
X112449104Y-45903122D02*
X112411009Y-46003122D01*
X112449104Y-46636456D02*
X112449104Y-46303122D01*
X112449104Y-46303122D02*
X112068152Y-46269789D01*
X112068152Y-46269789D02*
X112106247Y-46303122D01*
X112106247Y-46303122D02*
X112144342Y-46369789D01*
X112144342Y-46369789D02*
X112144342Y-46536456D01*
X112144342Y-46536456D02*
X112106247Y-46603122D01*
X112106247Y-46603122D02*
X112068152Y-46636456D01*
X112068152Y-46636456D02*
X111991961Y-46669789D01*
X111991961Y-46669789D02*
X111801485Y-46669789D01*
X111801485Y-46669789D02*
X111725295Y-46636456D01*
X111725295Y-46636456D02*
X111687200Y-46603122D01*
X111687200Y-46603122D02*
X111649104Y-46536456D01*
X111649104Y-46536456D02*
X111649104Y-46369789D01*
X111649104Y-46369789D02*
X111687200Y-46303122D01*
X111687200Y-46303122D02*
X111725295Y-46269789D01*
X112449104Y-46903123D02*
X112449104Y-47336456D01*
X112449104Y-47336456D02*
X112144342Y-47103123D01*
X112144342Y-47103123D02*
X112144342Y-47203123D01*
X112144342Y-47203123D02*
X112106247Y-47269789D01*
X112106247Y-47269789D02*
X112068152Y-47303123D01*
X112068152Y-47303123D02*
X111991961Y-47336456D01*
X111991961Y-47336456D02*
X111801485Y-47336456D01*
X111801485Y-47336456D02*
X111725295Y-47303123D01*
X111725295Y-47303123D02*
X111687200Y-47269789D01*
X111687200Y-47269789D02*
X111649104Y-47203123D01*
X111649104Y-47203123D02*
X111649104Y-47003123D01*
X111649104Y-47003123D02*
X111687200Y-46936456D01*
X111687200Y-46936456D02*
X111725295Y-46903123D01*
X112182438Y-47936456D02*
X111649104Y-47936456D01*
X112487200Y-47769790D02*
X111915771Y-47603123D01*
X111915771Y-47603123D02*
X111915771Y-48036456D01*
X112449104Y-48236457D02*
X112449104Y-48669790D01*
X112449104Y-48669790D02*
X112144342Y-48436457D01*
X112144342Y-48436457D02*
X112144342Y-48536457D01*
X112144342Y-48536457D02*
X112106247Y-48603123D01*
X112106247Y-48603123D02*
X112068152Y-48636457D01*
X112068152Y-48636457D02*
X111991961Y-48669790D01*
X111991961Y-48669790D02*
X111801485Y-48669790D01*
X111801485Y-48669790D02*
X111725295Y-48636457D01*
X111725295Y-48636457D02*
X111687200Y-48603123D01*
X111687200Y-48603123D02*
X111649104Y-48536457D01*
X111649104Y-48536457D02*
X111649104Y-48336457D01*
X111649104Y-48336457D02*
X111687200Y-48269790D01*
X111687200Y-48269790D02*
X111725295Y-48236457D01*
X123264666Y-58784895D02*
X123264666Y-58251561D01*
X123264666Y-57984895D02*
X123231333Y-58022990D01*
X123231333Y-58022990D02*
X123264666Y-58061085D01*
X123264666Y-58061085D02*
X123298000Y-58022990D01*
X123298000Y-58022990D02*
X123264666Y-57984895D01*
X123264666Y-57984895D02*
X123264666Y-58061085D01*
X123597999Y-58480133D02*
X124131333Y-58480133D01*
D11*
X115191459Y-57418856D02*
X116291459Y-57418856D01*
X116291459Y-57418856D02*
X116291459Y-57837904D01*
X116291459Y-57837904D02*
X116239078Y-57942666D01*
X116239078Y-57942666D02*
X116186697Y-57995047D01*
X116186697Y-57995047D02*
X116081935Y-58047428D01*
X116081935Y-58047428D02*
X115924792Y-58047428D01*
X115924792Y-58047428D02*
X115820030Y-57995047D01*
X115820030Y-57995047D02*
X115767649Y-57942666D01*
X115767649Y-57942666D02*
X115715268Y-57837904D01*
X115715268Y-57837904D02*
X115715268Y-57418856D01*
X115191459Y-58518856D02*
X116291459Y-58518856D01*
X116291459Y-58518856D02*
X115505744Y-58885523D01*
X115505744Y-58885523D02*
X116291459Y-59252190D01*
X116291459Y-59252190D02*
X115191459Y-59252190D01*
X116291459Y-59985523D02*
X116291459Y-60195047D01*
X116291459Y-60195047D02*
X116239078Y-60299809D01*
X116239078Y-60299809D02*
X116134316Y-60404571D01*
X116134316Y-60404571D02*
X115924792Y-60456952D01*
X115924792Y-60456952D02*
X115558125Y-60456952D01*
X115558125Y-60456952D02*
X115348601Y-60404571D01*
X115348601Y-60404571D02*
X115243840Y-60299809D01*
X115243840Y-60299809D02*
X115191459Y-60195047D01*
X115191459Y-60195047D02*
X115191459Y-59985523D01*
X115191459Y-59985523D02*
X115243840Y-59880761D01*
X115243840Y-59880761D02*
X115348601Y-59775999D01*
X115348601Y-59775999D02*
X115558125Y-59723618D01*
X115558125Y-59723618D02*
X115924792Y-59723618D01*
X115924792Y-59723618D02*
X116134316Y-59775999D01*
X116134316Y-59775999D02*
X116239078Y-59880761D01*
X116239078Y-59880761D02*
X116291459Y-59985523D01*
X115191459Y-60928380D02*
X116291459Y-60928380D01*
X116291459Y-60928380D02*
X116291459Y-61190285D01*
X116291459Y-61190285D02*
X116239078Y-61347428D01*
X116239078Y-61347428D02*
X116134316Y-61452190D01*
X116134316Y-61452190D02*
X116029554Y-61504571D01*
X116029554Y-61504571D02*
X115820030Y-61556952D01*
X115820030Y-61556952D02*
X115662887Y-61556952D01*
X115662887Y-61556952D02*
X115453363Y-61504571D01*
X115453363Y-61504571D02*
X115348601Y-61452190D01*
X115348601Y-61452190D02*
X115243840Y-61347428D01*
X115243840Y-61347428D02*
X115191459Y-61190285D01*
X115191459Y-61190285D02*
X115191459Y-60928380D01*
X115610506Y-62028380D02*
X115610506Y-62866476D01*
X115191459Y-63390285D02*
X116291459Y-63390285D01*
X116186697Y-63861714D02*
X116239078Y-63914095D01*
X116239078Y-63914095D02*
X116291459Y-64018857D01*
X116291459Y-64018857D02*
X116291459Y-64280762D01*
X116291459Y-64280762D02*
X116239078Y-64385524D01*
X116239078Y-64385524D02*
X116186697Y-64437905D01*
X116186697Y-64437905D02*
X116081935Y-64490286D01*
X116081935Y-64490286D02*
X115977173Y-64490286D01*
X115977173Y-64490286D02*
X115820030Y-64437905D01*
X115820030Y-64437905D02*
X115191459Y-63809333D01*
X115191459Y-63809333D02*
X115191459Y-64490286D01*
X115243840Y-64909333D02*
X115191459Y-65066476D01*
X115191459Y-65066476D02*
X115191459Y-65328381D01*
X115191459Y-65328381D02*
X115243840Y-65433143D01*
X115243840Y-65433143D02*
X115296220Y-65485524D01*
X115296220Y-65485524D02*
X115400982Y-65537905D01*
X115400982Y-65537905D02*
X115505744Y-65537905D01*
X115505744Y-65537905D02*
X115610506Y-65485524D01*
X115610506Y-65485524D02*
X115662887Y-65433143D01*
X115662887Y-65433143D02*
X115715268Y-65328381D01*
X115715268Y-65328381D02*
X115767649Y-65118857D01*
X115767649Y-65118857D02*
X115820030Y-65014095D01*
X115820030Y-65014095D02*
X115872411Y-64961714D01*
X115872411Y-64961714D02*
X115977173Y-64909333D01*
X115977173Y-64909333D02*
X116081935Y-64909333D01*
X116081935Y-64909333D02*
X116186697Y-64961714D01*
X116186697Y-64961714D02*
X116239078Y-65014095D01*
X116239078Y-65014095D02*
X116291459Y-65118857D01*
X116291459Y-65118857D02*
X116291459Y-65380762D01*
X116291459Y-65380762D02*
X116239078Y-65537905D01*
X116186697Y-65956952D02*
X116239078Y-66009333D01*
X116239078Y-66009333D02*
X116291459Y-66114095D01*
X116291459Y-66114095D02*
X116291459Y-66376000D01*
X116291459Y-66376000D02*
X116239078Y-66480762D01*
X116239078Y-66480762D02*
X116186697Y-66533143D01*
X116186697Y-66533143D02*
X116081935Y-66585524D01*
X116081935Y-66585524D02*
X115977173Y-66585524D01*
X115977173Y-66585524D02*
X115820030Y-66533143D01*
X115820030Y-66533143D02*
X115191459Y-65904571D01*
X115191459Y-65904571D02*
X115191459Y-66585524D01*
X113420459Y-61504571D02*
X113420459Y-60875999D01*
X113420459Y-61190285D02*
X114520459Y-61190285D01*
X114520459Y-61190285D02*
X114363316Y-61085523D01*
X114363316Y-61085523D02*
X114258554Y-60980761D01*
X114258554Y-60980761D02*
X114206173Y-60875999D01*
X113525220Y-61975999D02*
X113472840Y-62028380D01*
X113472840Y-62028380D02*
X113420459Y-61975999D01*
X113420459Y-61975999D02*
X113472840Y-61923618D01*
X113472840Y-61923618D02*
X113525220Y-61975999D01*
X113525220Y-61975999D02*
X113420459Y-61975999D01*
X114520459Y-62709333D02*
X114520459Y-62814095D01*
X114520459Y-62814095D02*
X114468078Y-62918857D01*
X114468078Y-62918857D02*
X114415697Y-62971238D01*
X114415697Y-62971238D02*
X114310935Y-63023619D01*
X114310935Y-63023619D02*
X114101411Y-63076000D01*
X114101411Y-63076000D02*
X113839506Y-63076000D01*
X113839506Y-63076000D02*
X113629982Y-63023619D01*
X113629982Y-63023619D02*
X113525220Y-62971238D01*
X113525220Y-62971238D02*
X113472840Y-62918857D01*
X113472840Y-62918857D02*
X113420459Y-62814095D01*
X113420459Y-62814095D02*
X113420459Y-62709333D01*
X113420459Y-62709333D02*
X113472840Y-62604571D01*
X113472840Y-62604571D02*
X113525220Y-62552190D01*
X113525220Y-62552190D02*
X113629982Y-62499809D01*
X113629982Y-62499809D02*
X113839506Y-62447428D01*
X113839506Y-62447428D02*
X114101411Y-62447428D01*
X114101411Y-62447428D02*
X114310935Y-62499809D01*
X114310935Y-62499809D02*
X114415697Y-62552190D01*
X114415697Y-62552190D02*
X114468078Y-62604571D01*
X114468078Y-62604571D02*
X114520459Y-62709333D01*
X111701840Y-59461714D02*
X111649459Y-59618857D01*
X111649459Y-59618857D02*
X111649459Y-59880762D01*
X111649459Y-59880762D02*
X111701840Y-59985524D01*
X111701840Y-59985524D02*
X111754220Y-60037905D01*
X111754220Y-60037905D02*
X111858982Y-60090286D01*
X111858982Y-60090286D02*
X111963744Y-60090286D01*
X111963744Y-60090286D02*
X112068506Y-60037905D01*
X112068506Y-60037905D02*
X112120887Y-59985524D01*
X112120887Y-59985524D02*
X112173268Y-59880762D01*
X112173268Y-59880762D02*
X112225649Y-59671238D01*
X112225649Y-59671238D02*
X112278030Y-59566476D01*
X112278030Y-59566476D02*
X112330411Y-59514095D01*
X112330411Y-59514095D02*
X112435173Y-59461714D01*
X112435173Y-59461714D02*
X112539935Y-59461714D01*
X112539935Y-59461714D02*
X112644697Y-59514095D01*
X112644697Y-59514095D02*
X112697078Y-59566476D01*
X112697078Y-59566476D02*
X112749459Y-59671238D01*
X112749459Y-59671238D02*
X112749459Y-59933143D01*
X112749459Y-59933143D02*
X112697078Y-60090286D01*
X112749459Y-61085524D02*
X112749459Y-60561714D01*
X112749459Y-60561714D02*
X112225649Y-60509333D01*
X112225649Y-60509333D02*
X112278030Y-60561714D01*
X112278030Y-60561714D02*
X112330411Y-60666476D01*
X112330411Y-60666476D02*
X112330411Y-60928381D01*
X112330411Y-60928381D02*
X112278030Y-61033143D01*
X112278030Y-61033143D02*
X112225649Y-61085524D01*
X112225649Y-61085524D02*
X112120887Y-61137905D01*
X112120887Y-61137905D02*
X111858982Y-61137905D01*
X111858982Y-61137905D02*
X111754220Y-61085524D01*
X111754220Y-61085524D02*
X111701840Y-61033143D01*
X111701840Y-61033143D02*
X111649459Y-60928381D01*
X111649459Y-60928381D02*
X111649459Y-60666476D01*
X111649459Y-60666476D02*
X111701840Y-60561714D01*
X111701840Y-60561714D02*
X111754220Y-60509333D01*
X111649459Y-61661714D02*
X111649459Y-61871238D01*
X111649459Y-61871238D02*
X111701840Y-61976000D01*
X111701840Y-61976000D02*
X111754220Y-62028381D01*
X111754220Y-62028381D02*
X111911363Y-62133143D01*
X111911363Y-62133143D02*
X112120887Y-62185524D01*
X112120887Y-62185524D02*
X112539935Y-62185524D01*
X112539935Y-62185524D02*
X112644697Y-62133143D01*
X112644697Y-62133143D02*
X112697078Y-62080762D01*
X112697078Y-62080762D02*
X112749459Y-61976000D01*
X112749459Y-61976000D02*
X112749459Y-61766476D01*
X112749459Y-61766476D02*
X112697078Y-61661714D01*
X112697078Y-61661714D02*
X112644697Y-61609333D01*
X112644697Y-61609333D02*
X112539935Y-61556952D01*
X112539935Y-61556952D02*
X112278030Y-61556952D01*
X112278030Y-61556952D02*
X112173268Y-61609333D01*
X112173268Y-61609333D02*
X112120887Y-61661714D01*
X112120887Y-61661714D02*
X112068506Y-61766476D01*
X112068506Y-61766476D02*
X112068506Y-61976000D01*
X112068506Y-61976000D02*
X112120887Y-62080762D01*
X112120887Y-62080762D02*
X112173268Y-62133143D01*
X112173268Y-62133143D02*
X112278030Y-62185524D01*
X111649459Y-62656952D02*
X112749459Y-62656952D01*
X112749459Y-62656952D02*
X111963744Y-63023619D01*
X111963744Y-63023619D02*
X112749459Y-63390286D01*
X112749459Y-63390286D02*
X111649459Y-63390286D01*
X112749459Y-63809333D02*
X112749459Y-64542667D01*
X112749459Y-64542667D02*
X111649459Y-63809333D01*
X111649459Y-63809333D02*
X111649459Y-64542667D01*
D10*
X122960666Y-70849895D02*
X122894000Y-70811800D01*
X122894000Y-70811800D02*
X122860666Y-70773704D01*
X122860666Y-70773704D02*
X122827333Y-70697514D01*
X122827333Y-70697514D02*
X122827333Y-70468942D01*
X122827333Y-70468942D02*
X122860666Y-70392752D01*
X122860666Y-70392752D02*
X122894000Y-70354657D01*
X122894000Y-70354657D02*
X122960666Y-70316561D01*
X122960666Y-70316561D02*
X123060666Y-70316561D01*
X123060666Y-70316561D02*
X123127333Y-70354657D01*
X123127333Y-70354657D02*
X123160666Y-70392752D01*
X123160666Y-70392752D02*
X123194000Y-70468942D01*
X123194000Y-70468942D02*
X123194000Y-70697514D01*
X123194000Y-70697514D02*
X123160666Y-70773704D01*
X123160666Y-70773704D02*
X123127333Y-70811800D01*
X123127333Y-70811800D02*
X123060666Y-70849895D01*
X123060666Y-70849895D02*
X122960666Y-70849895D01*
X123493999Y-70545133D02*
X124027333Y-70545133D01*
X113739666Y-70849895D02*
X113739666Y-70316561D01*
X113739666Y-70049895D02*
X113706333Y-70087990D01*
X113706333Y-70087990D02*
X113739666Y-70126085D01*
X113739666Y-70126085D02*
X113773000Y-70087990D01*
X113773000Y-70087990D02*
X113739666Y-70049895D01*
X113739666Y-70049895D02*
X113739666Y-70126085D01*
X114072999Y-70545133D02*
X114606333Y-70545133D01*
D12*
X128524000Y-47422128D02*
X128524000Y-46279271D01*
X128295428Y-46564985D02*
X128524000Y-46279271D01*
X128524000Y-46279271D02*
X128752571Y-46564985D01*
X128523999Y-50367871D02*
X128523999Y-51510728D01*
X128752571Y-51225014D02*
X128523999Y-51510728D01*
X128523999Y-51510728D02*
X128295428Y-51225014D01*
X125650458Y-71703871D02*
X125650458Y-72846728D01*
X125879030Y-72561014D02*
X125650458Y-72846728D01*
X125650458Y-72846728D02*
X125421887Y-72561014D01*
X115649541Y-72822128D02*
X115649541Y-71679271D01*
X115420969Y-71964985D02*
X115649541Y-71679271D01*
X115649541Y-71679271D02*
X115878112Y-71964985D01*
D10*
X123135122Y-61286800D02*
X123235122Y-61324895D01*
X123235122Y-61324895D02*
X123401789Y-61324895D01*
X123401789Y-61324895D02*
X123468455Y-61286800D01*
X123468455Y-61286800D02*
X123501789Y-61248704D01*
X123501789Y-61248704D02*
X123535122Y-61172514D01*
X123535122Y-61172514D02*
X123535122Y-61096323D01*
X123535122Y-61096323D02*
X123501789Y-61020133D01*
X123501789Y-61020133D02*
X123468455Y-60982038D01*
X123468455Y-60982038D02*
X123401789Y-60943942D01*
X123401789Y-60943942D02*
X123268455Y-60905847D01*
X123268455Y-60905847D02*
X123201789Y-60867752D01*
X123201789Y-60867752D02*
X123168455Y-60829657D01*
X123168455Y-60829657D02*
X123135122Y-60753466D01*
X123135122Y-60753466D02*
X123135122Y-60677276D01*
X123135122Y-60677276D02*
X123168455Y-60601085D01*
X123168455Y-60601085D02*
X123201789Y-60562990D01*
X123201789Y-60562990D02*
X123268455Y-60524895D01*
X123268455Y-60524895D02*
X123435122Y-60524895D01*
X123435122Y-60524895D02*
X123535122Y-60562990D01*
X123935122Y-61324895D02*
X123868456Y-61286800D01*
X123868456Y-61286800D02*
X123835122Y-61210609D01*
X123835122Y-61210609D02*
X123835122Y-60524895D01*
X124501789Y-61324895D02*
X124501789Y-60905847D01*
X124501789Y-60905847D02*
X124468456Y-60829657D01*
X124468456Y-60829657D02*
X124401789Y-60791561D01*
X124401789Y-60791561D02*
X124268456Y-60791561D01*
X124268456Y-60791561D02*
X124201789Y-60829657D01*
X124501789Y-61286800D02*
X124435123Y-61324895D01*
X124435123Y-61324895D02*
X124268456Y-61324895D01*
X124268456Y-61324895D02*
X124201789Y-61286800D01*
X124201789Y-61286800D02*
X124168456Y-61210609D01*
X124168456Y-61210609D02*
X124168456Y-61134419D01*
X124168456Y-61134419D02*
X124201789Y-61058228D01*
X124201789Y-61058228D02*
X124268456Y-61020133D01*
X124268456Y-61020133D02*
X124435123Y-61020133D01*
X124435123Y-61020133D02*
X124501789Y-60982038D01*
X124768456Y-60791561D02*
X124935122Y-61324895D01*
X124935122Y-61324895D02*
X125101789Y-60791561D01*
X125635122Y-61286800D02*
X125568455Y-61324895D01*
X125568455Y-61324895D02*
X125435122Y-61324895D01*
X125435122Y-61324895D02*
X125368455Y-61286800D01*
X125368455Y-61286800D02*
X125335122Y-61210609D01*
X125335122Y-61210609D02*
X125335122Y-60905847D01*
X125335122Y-60905847D02*
X125368455Y-60829657D01*
X125368455Y-60829657D02*
X125435122Y-60791561D01*
X125435122Y-60791561D02*
X125568455Y-60791561D01*
X125568455Y-60791561D02*
X125635122Y-60829657D01*
X125635122Y-60829657D02*
X125668455Y-60905847D01*
X125668455Y-60905847D02*
X125668455Y-60982038D01*
X125668455Y-60982038D02*
X125335122Y-61058228D01*
X123168455Y-56244895D02*
X123168455Y-55444895D01*
X123168455Y-55444895D02*
X123401789Y-56016323D01*
X123401789Y-56016323D02*
X123635122Y-55444895D01*
X123635122Y-55444895D02*
X123635122Y-56244895D01*
X124268455Y-56244895D02*
X124268455Y-55825847D01*
X124268455Y-55825847D02*
X124235122Y-55749657D01*
X124235122Y-55749657D02*
X124168455Y-55711561D01*
X124168455Y-55711561D02*
X124035122Y-55711561D01*
X124035122Y-55711561D02*
X123968455Y-55749657D01*
X124268455Y-56206800D02*
X124201789Y-56244895D01*
X124201789Y-56244895D02*
X124035122Y-56244895D01*
X124035122Y-56244895D02*
X123968455Y-56206800D01*
X123968455Y-56206800D02*
X123935122Y-56130609D01*
X123935122Y-56130609D02*
X123935122Y-56054419D01*
X123935122Y-56054419D02*
X123968455Y-55978228D01*
X123968455Y-55978228D02*
X124035122Y-55940133D01*
X124035122Y-55940133D02*
X124201789Y-55940133D01*
X124201789Y-55940133D02*
X124268455Y-55902038D01*
X124568455Y-56206800D02*
X124635122Y-56244895D01*
X124635122Y-56244895D02*
X124768455Y-56244895D01*
X124768455Y-56244895D02*
X124835122Y-56206800D01*
X124835122Y-56206800D02*
X124868455Y-56130609D01*
X124868455Y-56130609D02*
X124868455Y-56092514D01*
X124868455Y-56092514D02*
X124835122Y-56016323D01*
X124835122Y-56016323D02*
X124768455Y-55978228D01*
X124768455Y-55978228D02*
X124668455Y-55978228D01*
X124668455Y-55978228D02*
X124601788Y-55940133D01*
X124601788Y-55940133D02*
X124568455Y-55863942D01*
X124568455Y-55863942D02*
X124568455Y-55825847D01*
X124568455Y-55825847D02*
X124601788Y-55749657D01*
X124601788Y-55749657D02*
X124668455Y-55711561D01*
X124668455Y-55711561D02*
X124768455Y-55711561D01*
X124768455Y-55711561D02*
X124835122Y-55749657D01*
X125068455Y-55711561D02*
X125335122Y-55711561D01*
X125168455Y-55444895D02*
X125168455Y-56130609D01*
X125168455Y-56130609D02*
X125201789Y-56206800D01*
X125201789Y-56206800D02*
X125268455Y-56244895D01*
X125268455Y-56244895D02*
X125335122Y-56244895D01*
X125835122Y-56206800D02*
X125768455Y-56244895D01*
X125768455Y-56244895D02*
X125635122Y-56244895D01*
X125635122Y-56244895D02*
X125568455Y-56206800D01*
X125568455Y-56206800D02*
X125535122Y-56130609D01*
X125535122Y-56130609D02*
X125535122Y-55825847D01*
X125535122Y-55825847D02*
X125568455Y-55749657D01*
X125568455Y-55749657D02*
X125635122Y-55711561D01*
X125635122Y-55711561D02*
X125768455Y-55711561D01*
X125768455Y-55711561D02*
X125835122Y-55749657D01*
X125835122Y-55749657D02*
X125868455Y-55825847D01*
X125868455Y-55825847D02*
X125868455Y-55902038D01*
X125868455Y-55902038D02*
X125535122Y-55978228D01*
X126168455Y-56244895D02*
X126168455Y-55711561D01*
X126168455Y-55863942D02*
X126201789Y-55787752D01*
X126201789Y-55787752D02*
X126235122Y-55749657D01*
X126235122Y-55749657D02*
X126301789Y-55711561D01*
X126301789Y-55711561D02*
X126368455Y-55711561D01*
X114239866Y-49508455D02*
X114239866Y-50041789D01*
X113935104Y-49775122D02*
X114544628Y-49775122D01*
X114735104Y-50308456D02*
X114735104Y-50741789D01*
X114735104Y-50741789D02*
X114430342Y-50508456D01*
X114430342Y-50508456D02*
X114430342Y-50608456D01*
X114430342Y-50608456D02*
X114392247Y-50675122D01*
X114392247Y-50675122D02*
X114354152Y-50708456D01*
X114354152Y-50708456D02*
X114277961Y-50741789D01*
X114277961Y-50741789D02*
X114087485Y-50741789D01*
X114087485Y-50741789D02*
X114011295Y-50708456D01*
X114011295Y-50708456D02*
X113973200Y-50675122D01*
X113973200Y-50675122D02*
X113935104Y-50608456D01*
X113935104Y-50608456D02*
X113935104Y-50408456D01*
X113935104Y-50408456D02*
X113973200Y-50341789D01*
X113973200Y-50341789D02*
X114011295Y-50308456D01*
X114735104Y-50941789D02*
X113935104Y-51175123D01*
X113935104Y-51175123D02*
X114735104Y-51408456D01*
X114735104Y-51575123D02*
X114735104Y-52008456D01*
X114735104Y-52008456D02*
X114430342Y-51775123D01*
X114430342Y-51775123D02*
X114430342Y-51875123D01*
X114430342Y-51875123D02*
X114392247Y-51941789D01*
X114392247Y-51941789D02*
X114354152Y-51975123D01*
X114354152Y-51975123D02*
X114277961Y-52008456D01*
X114277961Y-52008456D02*
X114087485Y-52008456D01*
X114087485Y-52008456D02*
X114011295Y-51975123D01*
X114011295Y-51975123D02*
X113973200Y-51941789D01*
X113973200Y-51941789D02*
X113935104Y-51875123D01*
X113935104Y-51875123D02*
X113935104Y-51675123D01*
X113935104Y-51675123D02*
X113973200Y-51608456D01*
X113973200Y-51608456D02*
X114011295Y-51575123D01*
X117237009Y-49875122D02*
X117275104Y-49808455D01*
X117275104Y-49808455D02*
X117275104Y-49708455D01*
X117275104Y-49708455D02*
X117237009Y-49608455D01*
X117237009Y-49608455D02*
X117160819Y-49541789D01*
X117160819Y-49541789D02*
X117084628Y-49508455D01*
X117084628Y-49508455D02*
X116932247Y-49475122D01*
X116932247Y-49475122D02*
X116817961Y-49475122D01*
X116817961Y-49475122D02*
X116665580Y-49508455D01*
X116665580Y-49508455D02*
X116589390Y-49541789D01*
X116589390Y-49541789D02*
X116513200Y-49608455D01*
X116513200Y-49608455D02*
X116475104Y-49708455D01*
X116475104Y-49708455D02*
X116475104Y-49775122D01*
X116475104Y-49775122D02*
X116513200Y-49875122D01*
X116513200Y-49875122D02*
X116551295Y-49908455D01*
X116551295Y-49908455D02*
X116817961Y-49908455D01*
X116817961Y-49908455D02*
X116817961Y-49775122D01*
X116475104Y-50208455D02*
X117275104Y-50208455D01*
X117275104Y-50208455D02*
X116475104Y-50608455D01*
X116475104Y-50608455D02*
X117275104Y-50608455D01*
X116475104Y-50941788D02*
X117275104Y-50941788D01*
X117275104Y-50941788D02*
X117275104Y-51108455D01*
X117275104Y-51108455D02*
X117237009Y-51208455D01*
X117237009Y-51208455D02*
X117160819Y-51275122D01*
X117160819Y-51275122D02*
X117084628Y-51308455D01*
X117084628Y-51308455D02*
X116932247Y-51341788D01*
X116932247Y-51341788D02*
X116817961Y-51341788D01*
X116817961Y-51341788D02*
X116665580Y-51308455D01*
X116665580Y-51308455D02*
X116589390Y-51275122D01*
X116589390Y-51275122D02*
X116513200Y-51208455D01*
X116513200Y-51208455D02*
X116475104Y-51108455D01*
X116475104Y-51108455D02*
X116475104Y-50941788D01*
X119015104Y-49608455D02*
X119053200Y-49541789D01*
X119053200Y-49541789D02*
X119091295Y-49508455D01*
X119091295Y-49508455D02*
X119167485Y-49475122D01*
X119167485Y-49475122D02*
X119396057Y-49475122D01*
X119396057Y-49475122D02*
X119472247Y-49508455D01*
X119472247Y-49508455D02*
X119510342Y-49541789D01*
X119510342Y-49541789D02*
X119548438Y-49608455D01*
X119548438Y-49608455D02*
X119548438Y-49708455D01*
X119548438Y-49708455D02*
X119510342Y-49775122D01*
X119510342Y-49775122D02*
X119472247Y-49808455D01*
X119472247Y-49808455D02*
X119396057Y-49841789D01*
X119396057Y-49841789D02*
X119167485Y-49841789D01*
X119167485Y-49841789D02*
X119091295Y-49808455D01*
X119091295Y-49808455D02*
X119053200Y-49775122D01*
X119053200Y-49775122D02*
X119015104Y-49708455D01*
X119015104Y-49708455D02*
X119015104Y-49608455D01*
X119319866Y-50141788D02*
X119319866Y-50675122D01*
X119053200Y-50975122D02*
X119015104Y-51041789D01*
X119015104Y-51041789D02*
X119015104Y-51175122D01*
X119015104Y-51175122D02*
X119053200Y-51241789D01*
X119053200Y-51241789D02*
X119129390Y-51275122D01*
X119129390Y-51275122D02*
X119167485Y-51275122D01*
X119167485Y-51275122D02*
X119243676Y-51241789D01*
X119243676Y-51241789D02*
X119281771Y-51175122D01*
X119281771Y-51175122D02*
X119281771Y-51075122D01*
X119281771Y-51075122D02*
X119319866Y-51008455D01*
X119319866Y-51008455D02*
X119396057Y-50975122D01*
X119396057Y-50975122D02*
X119434152Y-50975122D01*
X119434152Y-50975122D02*
X119510342Y-51008455D01*
X119510342Y-51008455D02*
X119548438Y-51075122D01*
X119548438Y-51075122D02*
X119548438Y-51175122D01*
X119548438Y-51175122D02*
X119510342Y-51241789D01*
X119015104Y-51875122D02*
X119815104Y-51875122D01*
X119053200Y-51875122D02*
X119015104Y-51808456D01*
X119015104Y-51808456D02*
X119015104Y-51675122D01*
X119015104Y-51675122D02*
X119053200Y-51608456D01*
X119053200Y-51608456D02*
X119091295Y-51575122D01*
X119091295Y-51575122D02*
X119167485Y-51541789D01*
X119167485Y-51541789D02*
X119396057Y-51541789D01*
X119396057Y-51541789D02*
X119472247Y-51575122D01*
X119472247Y-51575122D02*
X119510342Y-51608456D01*
X119510342Y-51608456D02*
X119548438Y-51675122D01*
X119548438Y-51675122D02*
X119548438Y-51808456D01*
X119548438Y-51808456D02*
X119510342Y-51875122D01*
X119015104Y-52208455D02*
X119548438Y-52208455D01*
X119815104Y-52208455D02*
X119777009Y-52175122D01*
X119777009Y-52175122D02*
X119738914Y-52208455D01*
X119738914Y-52208455D02*
X119777009Y-52241789D01*
X119777009Y-52241789D02*
X119815104Y-52208455D01*
X119815104Y-52208455D02*
X119738914Y-52208455D01*
X119548438Y-52541788D02*
X119015104Y-52541788D01*
X119472247Y-52541788D02*
X119510342Y-52575122D01*
X119510342Y-52575122D02*
X119548438Y-52641788D01*
X119548438Y-52641788D02*
X119548438Y-52741788D01*
X119548438Y-52741788D02*
X119510342Y-52808455D01*
X119510342Y-52808455D02*
X119434152Y-52841788D01*
X119434152Y-52841788D02*
X119015104Y-52841788D01*
X121555104Y-49608455D02*
X121593200Y-49541789D01*
X121593200Y-49541789D02*
X121631295Y-49508455D01*
X121631295Y-49508455D02*
X121707485Y-49475122D01*
X121707485Y-49475122D02*
X121936057Y-49475122D01*
X121936057Y-49475122D02*
X122012247Y-49508455D01*
X122012247Y-49508455D02*
X122050342Y-49541789D01*
X122050342Y-49541789D02*
X122088438Y-49608455D01*
X122088438Y-49608455D02*
X122088438Y-49708455D01*
X122088438Y-49708455D02*
X122050342Y-49775122D01*
X122050342Y-49775122D02*
X122012247Y-49808455D01*
X122012247Y-49808455D02*
X121936057Y-49841789D01*
X121936057Y-49841789D02*
X121707485Y-49841789D01*
X121707485Y-49841789D02*
X121631295Y-49808455D01*
X121631295Y-49808455D02*
X121593200Y-49775122D01*
X121593200Y-49775122D02*
X121555104Y-49708455D01*
X121555104Y-49708455D02*
X121555104Y-49608455D01*
X121859866Y-50141788D02*
X121859866Y-50675122D01*
X121593200Y-50975122D02*
X121555104Y-51041789D01*
X121555104Y-51041789D02*
X121555104Y-51175122D01*
X121555104Y-51175122D02*
X121593200Y-51241789D01*
X121593200Y-51241789D02*
X121669390Y-51275122D01*
X121669390Y-51275122D02*
X121707485Y-51275122D01*
X121707485Y-51275122D02*
X121783676Y-51241789D01*
X121783676Y-51241789D02*
X121821771Y-51175122D01*
X121821771Y-51175122D02*
X121821771Y-51075122D01*
X121821771Y-51075122D02*
X121859866Y-51008455D01*
X121859866Y-51008455D02*
X121936057Y-50975122D01*
X121936057Y-50975122D02*
X121974152Y-50975122D01*
X121974152Y-50975122D02*
X122050342Y-51008455D01*
X122050342Y-51008455D02*
X122088438Y-51075122D01*
X122088438Y-51075122D02*
X122088438Y-51175122D01*
X122088438Y-51175122D02*
X122050342Y-51241789D01*
X121593200Y-51875122D02*
X121555104Y-51808456D01*
X121555104Y-51808456D02*
X121555104Y-51675122D01*
X121555104Y-51675122D02*
X121593200Y-51608456D01*
X121593200Y-51608456D02*
X121631295Y-51575122D01*
X121631295Y-51575122D02*
X121707485Y-51541789D01*
X121707485Y-51541789D02*
X121936057Y-51541789D01*
X121936057Y-51541789D02*
X122012247Y-51575122D01*
X122012247Y-51575122D02*
X122050342Y-51608456D01*
X122050342Y-51608456D02*
X122088438Y-51675122D01*
X122088438Y-51675122D02*
X122088438Y-51808456D01*
X122088438Y-51808456D02*
X122050342Y-51875122D01*
X121555104Y-52275122D02*
X121593200Y-52208456D01*
X121593200Y-52208456D02*
X121669390Y-52175122D01*
X121669390Y-52175122D02*
X122355104Y-52175122D01*
X121555104Y-52541789D02*
X122355104Y-52541789D01*
X121859866Y-52608456D02*
X121555104Y-52808456D01*
X122088438Y-52808456D02*
X121783676Y-52541789D01*
X124095104Y-49608455D02*
X124133200Y-49541789D01*
X124133200Y-49541789D02*
X124171295Y-49508455D01*
X124171295Y-49508455D02*
X124247485Y-49475122D01*
X124247485Y-49475122D02*
X124476057Y-49475122D01*
X124476057Y-49475122D02*
X124552247Y-49508455D01*
X124552247Y-49508455D02*
X124590342Y-49541789D01*
X124590342Y-49541789D02*
X124628438Y-49608455D01*
X124628438Y-49608455D02*
X124628438Y-49708455D01*
X124628438Y-49708455D02*
X124590342Y-49775122D01*
X124590342Y-49775122D02*
X124552247Y-49808455D01*
X124552247Y-49808455D02*
X124476057Y-49841789D01*
X124476057Y-49841789D02*
X124247485Y-49841789D01*
X124247485Y-49841789D02*
X124171295Y-49808455D01*
X124171295Y-49808455D02*
X124133200Y-49775122D01*
X124133200Y-49775122D02*
X124095104Y-49708455D01*
X124095104Y-49708455D02*
X124095104Y-49608455D01*
X124399866Y-50141788D02*
X124399866Y-50675122D01*
X124095104Y-51108455D02*
X124133200Y-51041789D01*
X124133200Y-51041789D02*
X124209390Y-51008455D01*
X124209390Y-51008455D02*
X124895104Y-51008455D01*
X124095104Y-51375122D02*
X124628438Y-51375122D01*
X124476057Y-51375122D02*
X124552247Y-51408456D01*
X124552247Y-51408456D02*
X124590342Y-51441789D01*
X124590342Y-51441789D02*
X124628438Y-51508456D01*
X124628438Y-51508456D02*
X124628438Y-51575122D01*
X124133200Y-52108455D02*
X124095104Y-52041789D01*
X124095104Y-52041789D02*
X124095104Y-51908455D01*
X124095104Y-51908455D02*
X124133200Y-51841789D01*
X124133200Y-51841789D02*
X124171295Y-51808455D01*
X124171295Y-51808455D02*
X124247485Y-51775122D01*
X124247485Y-51775122D02*
X124476057Y-51775122D01*
X124476057Y-51775122D02*
X124552247Y-51808455D01*
X124552247Y-51808455D02*
X124590342Y-51841789D01*
X124590342Y-51841789D02*
X124628438Y-51908455D01*
X124628438Y-51908455D02*
X124628438Y-52041789D01*
X124628438Y-52041789D02*
X124590342Y-52108455D01*
X124095104Y-52508455D02*
X124133200Y-52441789D01*
X124133200Y-52441789D02*
X124209390Y-52408455D01*
X124209390Y-52408455D02*
X124895104Y-52408455D01*
X124095104Y-52775122D02*
X124895104Y-52775122D01*
X124399866Y-52841789D02*
X124095104Y-53041789D01*
X124628438Y-53041789D02*
X124323676Y-52775122D01*
X114239866Y-44936455D02*
X114239866Y-45469789D01*
X113935104Y-45203122D02*
X114544628Y-45203122D01*
X114735104Y-45736456D02*
X114735104Y-46169789D01*
X114735104Y-46169789D02*
X114430342Y-45936456D01*
X114430342Y-45936456D02*
X114430342Y-46036456D01*
X114430342Y-46036456D02*
X114392247Y-46103122D01*
X114392247Y-46103122D02*
X114354152Y-46136456D01*
X114354152Y-46136456D02*
X114277961Y-46169789D01*
X114277961Y-46169789D02*
X114087485Y-46169789D01*
X114087485Y-46169789D02*
X114011295Y-46136456D01*
X114011295Y-46136456D02*
X113973200Y-46103122D01*
X113973200Y-46103122D02*
X113935104Y-46036456D01*
X113935104Y-46036456D02*
X113935104Y-45836456D01*
X113935104Y-45836456D02*
X113973200Y-45769789D01*
X113973200Y-45769789D02*
X114011295Y-45736456D01*
X114735104Y-46369789D02*
X113935104Y-46603123D01*
X113935104Y-46603123D02*
X114735104Y-46836456D01*
X114735104Y-47003123D02*
X114735104Y-47436456D01*
X114735104Y-47436456D02*
X114430342Y-47203123D01*
X114430342Y-47203123D02*
X114430342Y-47303123D01*
X114430342Y-47303123D02*
X114392247Y-47369789D01*
X114392247Y-47369789D02*
X114354152Y-47403123D01*
X114354152Y-47403123D02*
X114277961Y-47436456D01*
X114277961Y-47436456D02*
X114087485Y-47436456D01*
X114087485Y-47436456D02*
X114011295Y-47403123D01*
X114011295Y-47403123D02*
X113973200Y-47369789D01*
X113973200Y-47369789D02*
X113935104Y-47303123D01*
X113935104Y-47303123D02*
X113935104Y-47103123D01*
X113935104Y-47103123D02*
X113973200Y-47036456D01*
X113973200Y-47036456D02*
X114011295Y-47003123D01*
X117237009Y-45303122D02*
X117275104Y-45236455D01*
X117275104Y-45236455D02*
X117275104Y-45136455D01*
X117275104Y-45136455D02*
X117237009Y-45036455D01*
X117237009Y-45036455D02*
X117160819Y-44969789D01*
X117160819Y-44969789D02*
X117084628Y-44936455D01*
X117084628Y-44936455D02*
X116932247Y-44903122D01*
X116932247Y-44903122D02*
X116817961Y-44903122D01*
X116817961Y-44903122D02*
X116665580Y-44936455D01*
X116665580Y-44936455D02*
X116589390Y-44969789D01*
X116589390Y-44969789D02*
X116513200Y-45036455D01*
X116513200Y-45036455D02*
X116475104Y-45136455D01*
X116475104Y-45136455D02*
X116475104Y-45203122D01*
X116475104Y-45203122D02*
X116513200Y-45303122D01*
X116513200Y-45303122D02*
X116551295Y-45336455D01*
X116551295Y-45336455D02*
X116817961Y-45336455D01*
X116817961Y-45336455D02*
X116817961Y-45203122D01*
X116475104Y-45636455D02*
X117275104Y-45636455D01*
X117275104Y-45636455D02*
X116475104Y-46036455D01*
X116475104Y-46036455D02*
X117275104Y-46036455D01*
X116475104Y-46369788D02*
X117275104Y-46369788D01*
X117275104Y-46369788D02*
X117275104Y-46536455D01*
X117275104Y-46536455D02*
X117237009Y-46636455D01*
X117237009Y-46636455D02*
X117160819Y-46703122D01*
X117160819Y-46703122D02*
X117084628Y-46736455D01*
X117084628Y-46736455D02*
X116932247Y-46769788D01*
X116932247Y-46769788D02*
X116817961Y-46769788D01*
X116817961Y-46769788D02*
X116665580Y-46736455D01*
X116665580Y-46736455D02*
X116589390Y-46703122D01*
X116589390Y-46703122D02*
X116513200Y-46636455D01*
X116513200Y-46636455D02*
X116475104Y-46536455D01*
X116475104Y-46536455D02*
X116475104Y-46369788D01*
X119015104Y-44936455D02*
X119548438Y-44936455D01*
X119815104Y-44936455D02*
X119777009Y-44903122D01*
X119777009Y-44903122D02*
X119738914Y-44936455D01*
X119738914Y-44936455D02*
X119777009Y-44969789D01*
X119777009Y-44969789D02*
X119815104Y-44936455D01*
X119815104Y-44936455D02*
X119738914Y-44936455D01*
X119319866Y-45269788D02*
X119319866Y-45803122D01*
X119053200Y-46103122D02*
X119015104Y-46169789D01*
X119015104Y-46169789D02*
X119015104Y-46303122D01*
X119015104Y-46303122D02*
X119053200Y-46369789D01*
X119053200Y-46369789D02*
X119129390Y-46403122D01*
X119129390Y-46403122D02*
X119167485Y-46403122D01*
X119167485Y-46403122D02*
X119243676Y-46369789D01*
X119243676Y-46369789D02*
X119281771Y-46303122D01*
X119281771Y-46303122D02*
X119281771Y-46203122D01*
X119281771Y-46203122D02*
X119319866Y-46136455D01*
X119319866Y-46136455D02*
X119396057Y-46103122D01*
X119396057Y-46103122D02*
X119434152Y-46103122D01*
X119434152Y-46103122D02*
X119510342Y-46136455D01*
X119510342Y-46136455D02*
X119548438Y-46203122D01*
X119548438Y-46203122D02*
X119548438Y-46303122D01*
X119548438Y-46303122D02*
X119510342Y-46369789D01*
X119015104Y-47003122D02*
X119815104Y-47003122D01*
X119053200Y-47003122D02*
X119015104Y-46936456D01*
X119015104Y-46936456D02*
X119015104Y-46803122D01*
X119015104Y-46803122D02*
X119053200Y-46736456D01*
X119053200Y-46736456D02*
X119091295Y-46703122D01*
X119091295Y-46703122D02*
X119167485Y-46669789D01*
X119167485Y-46669789D02*
X119396057Y-46669789D01*
X119396057Y-46669789D02*
X119472247Y-46703122D01*
X119472247Y-46703122D02*
X119510342Y-46736456D01*
X119510342Y-46736456D02*
X119548438Y-46803122D01*
X119548438Y-46803122D02*
X119548438Y-46936456D01*
X119548438Y-46936456D02*
X119510342Y-47003122D01*
X119015104Y-47436455D02*
X119053200Y-47369789D01*
X119053200Y-47369789D02*
X119091295Y-47336455D01*
X119091295Y-47336455D02*
X119167485Y-47303122D01*
X119167485Y-47303122D02*
X119396057Y-47303122D01*
X119396057Y-47303122D02*
X119472247Y-47336455D01*
X119472247Y-47336455D02*
X119510342Y-47369789D01*
X119510342Y-47369789D02*
X119548438Y-47436455D01*
X119548438Y-47436455D02*
X119548438Y-47536455D01*
X119548438Y-47536455D02*
X119510342Y-47603122D01*
X119510342Y-47603122D02*
X119472247Y-47636455D01*
X119472247Y-47636455D02*
X119396057Y-47669789D01*
X119396057Y-47669789D02*
X119167485Y-47669789D01*
X119167485Y-47669789D02*
X119091295Y-47636455D01*
X119091295Y-47636455D02*
X119053200Y-47603122D01*
X119053200Y-47603122D02*
X119015104Y-47536455D01*
X119015104Y-47536455D02*
X119015104Y-47436455D01*
X119548438Y-48269788D02*
X119015104Y-48269788D01*
X119548438Y-47969788D02*
X119129390Y-47969788D01*
X119129390Y-47969788D02*
X119053200Y-48003122D01*
X119053200Y-48003122D02*
X119015104Y-48069788D01*
X119015104Y-48069788D02*
X119015104Y-48169788D01*
X119015104Y-48169788D02*
X119053200Y-48236455D01*
X119053200Y-48236455D02*
X119091295Y-48269788D01*
X119548438Y-48503121D02*
X119548438Y-48769788D01*
X119815104Y-48603121D02*
X119129390Y-48603121D01*
X119129390Y-48603121D02*
X119053200Y-48636455D01*
X119053200Y-48636455D02*
X119015104Y-48703121D01*
X119015104Y-48703121D02*
X119015104Y-48769788D01*
X121555104Y-44936455D02*
X122088438Y-44936455D01*
X122355104Y-44936455D02*
X122317009Y-44903122D01*
X122317009Y-44903122D02*
X122278914Y-44936455D01*
X122278914Y-44936455D02*
X122317009Y-44969789D01*
X122317009Y-44969789D02*
X122355104Y-44936455D01*
X122355104Y-44936455D02*
X122278914Y-44936455D01*
X121859866Y-45269788D02*
X121859866Y-45803122D01*
X121593200Y-46103122D02*
X121555104Y-46169789D01*
X121555104Y-46169789D02*
X121555104Y-46303122D01*
X121555104Y-46303122D02*
X121593200Y-46369789D01*
X121593200Y-46369789D02*
X121669390Y-46403122D01*
X121669390Y-46403122D02*
X121707485Y-46403122D01*
X121707485Y-46403122D02*
X121783676Y-46369789D01*
X121783676Y-46369789D02*
X121821771Y-46303122D01*
X121821771Y-46303122D02*
X121821771Y-46203122D01*
X121821771Y-46203122D02*
X121859866Y-46136455D01*
X121859866Y-46136455D02*
X121936057Y-46103122D01*
X121936057Y-46103122D02*
X121974152Y-46103122D01*
X121974152Y-46103122D02*
X122050342Y-46136455D01*
X122050342Y-46136455D02*
X122088438Y-46203122D01*
X122088438Y-46203122D02*
X122088438Y-46303122D01*
X122088438Y-46303122D02*
X122050342Y-46369789D01*
X121593200Y-47003122D02*
X121555104Y-46936456D01*
X121555104Y-46936456D02*
X121555104Y-46803122D01*
X121555104Y-46803122D02*
X121593200Y-46736456D01*
X121593200Y-46736456D02*
X121631295Y-46703122D01*
X121631295Y-46703122D02*
X121707485Y-46669789D01*
X121707485Y-46669789D02*
X121936057Y-46669789D01*
X121936057Y-46669789D02*
X122012247Y-46703122D01*
X122012247Y-46703122D02*
X122050342Y-46736456D01*
X122050342Y-46736456D02*
X122088438Y-46803122D01*
X122088438Y-46803122D02*
X122088438Y-46936456D01*
X122088438Y-46936456D02*
X122050342Y-47003122D01*
X121555104Y-47403122D02*
X121593200Y-47336456D01*
X121593200Y-47336456D02*
X121669390Y-47303122D01*
X121669390Y-47303122D02*
X122355104Y-47303122D01*
X121555104Y-47669789D02*
X122355104Y-47669789D01*
X121859866Y-47736456D02*
X121555104Y-47936456D01*
X122088438Y-47936456D02*
X121783676Y-47669789D01*
X124095104Y-44936455D02*
X124628438Y-44936455D01*
X124895104Y-44936455D02*
X124857009Y-44903122D01*
X124857009Y-44903122D02*
X124818914Y-44936455D01*
X124818914Y-44936455D02*
X124857009Y-44969789D01*
X124857009Y-44969789D02*
X124895104Y-44936455D01*
X124895104Y-44936455D02*
X124818914Y-44936455D01*
X124399866Y-45269788D02*
X124399866Y-45803122D01*
X124095104Y-46236455D02*
X124133200Y-46169789D01*
X124133200Y-46169789D02*
X124209390Y-46136455D01*
X124209390Y-46136455D02*
X124895104Y-46136455D01*
X124095104Y-46503122D02*
X124628438Y-46503122D01*
X124476057Y-46503122D02*
X124552247Y-46536456D01*
X124552247Y-46536456D02*
X124590342Y-46569789D01*
X124590342Y-46569789D02*
X124628438Y-46636456D01*
X124628438Y-46636456D02*
X124628438Y-46703122D01*
X124133200Y-47236455D02*
X124095104Y-47169789D01*
X124095104Y-47169789D02*
X124095104Y-47036455D01*
X124095104Y-47036455D02*
X124133200Y-46969789D01*
X124133200Y-46969789D02*
X124171295Y-46936455D01*
X124171295Y-46936455D02*
X124247485Y-46903122D01*
X124247485Y-46903122D02*
X124476057Y-46903122D01*
X124476057Y-46903122D02*
X124552247Y-46936455D01*
X124552247Y-46936455D02*
X124590342Y-46969789D01*
X124590342Y-46969789D02*
X124628438Y-47036455D01*
X124628438Y-47036455D02*
X124628438Y-47169789D01*
X124628438Y-47169789D02*
X124590342Y-47236455D01*
X124095104Y-47636455D02*
X124133200Y-47569789D01*
X124133200Y-47569789D02*
X124209390Y-47536455D01*
X124209390Y-47536455D02*
X124895104Y-47536455D01*
X124095104Y-47903122D02*
X124895104Y-47903122D01*
X124399866Y-47969789D02*
X124095104Y-48169789D01*
X124628438Y-48169789D02*
X124323676Y-47903122D01*
X126635104Y-49608455D02*
X126673200Y-49541789D01*
X126673200Y-49541789D02*
X126711295Y-49508455D01*
X126711295Y-49508455D02*
X126787485Y-49475122D01*
X126787485Y-49475122D02*
X127016057Y-49475122D01*
X127016057Y-49475122D02*
X127092247Y-49508455D01*
X127092247Y-49508455D02*
X127130342Y-49541789D01*
X127130342Y-49541789D02*
X127168438Y-49608455D01*
X127168438Y-49608455D02*
X127168438Y-49708455D01*
X127168438Y-49708455D02*
X127130342Y-49775122D01*
X127130342Y-49775122D02*
X127092247Y-49808455D01*
X127092247Y-49808455D02*
X127016057Y-49841789D01*
X127016057Y-49841789D02*
X126787485Y-49841789D01*
X126787485Y-49841789D02*
X126711295Y-49808455D01*
X126711295Y-49808455D02*
X126673200Y-49775122D01*
X126673200Y-49775122D02*
X126635104Y-49708455D01*
X126635104Y-49708455D02*
X126635104Y-49608455D01*
X126939866Y-50141788D02*
X126939866Y-50675122D01*
X126635104Y-51008455D02*
X127168438Y-51008455D01*
X127092247Y-51008455D02*
X127130342Y-51041789D01*
X127130342Y-51041789D02*
X127168438Y-51108455D01*
X127168438Y-51108455D02*
X127168438Y-51208455D01*
X127168438Y-51208455D02*
X127130342Y-51275122D01*
X127130342Y-51275122D02*
X127054152Y-51308455D01*
X127054152Y-51308455D02*
X126635104Y-51308455D01*
X127054152Y-51308455D02*
X127130342Y-51341789D01*
X127130342Y-51341789D02*
X127168438Y-51408455D01*
X127168438Y-51408455D02*
X127168438Y-51508455D01*
X127168438Y-51508455D02*
X127130342Y-51575122D01*
X127130342Y-51575122D02*
X127054152Y-51608455D01*
X127054152Y-51608455D02*
X126635104Y-51608455D01*
X126673200Y-52241788D02*
X126635104Y-52175122D01*
X126635104Y-52175122D02*
X126635104Y-52041788D01*
X126635104Y-52041788D02*
X126673200Y-51975122D01*
X126673200Y-51975122D02*
X126711295Y-51941788D01*
X126711295Y-51941788D02*
X126787485Y-51908455D01*
X126787485Y-51908455D02*
X127016057Y-51908455D01*
X127016057Y-51908455D02*
X127092247Y-51941788D01*
X127092247Y-51941788D02*
X127130342Y-51975122D01*
X127130342Y-51975122D02*
X127168438Y-52041788D01*
X127168438Y-52041788D02*
X127168438Y-52175122D01*
X127168438Y-52175122D02*
X127130342Y-52241788D01*
X126635104Y-52641788D02*
X126673200Y-52575122D01*
X126673200Y-52575122D02*
X126749390Y-52541788D01*
X126749390Y-52541788D02*
X127435104Y-52541788D01*
X126635104Y-52908455D02*
X127435104Y-52908455D01*
X126939866Y-52975122D02*
X126635104Y-53175122D01*
X127168438Y-53175122D02*
X126863676Y-52908455D01*
X126635104Y-44936455D02*
X127168438Y-44936455D01*
X127435104Y-44936455D02*
X127397009Y-44903122D01*
X127397009Y-44903122D02*
X127358914Y-44936455D01*
X127358914Y-44936455D02*
X127397009Y-44969789D01*
X127397009Y-44969789D02*
X127435104Y-44936455D01*
X127435104Y-44936455D02*
X127358914Y-44936455D01*
X126939866Y-45269788D02*
X126939866Y-45803122D01*
X126635104Y-46136455D02*
X127168438Y-46136455D01*
X127092247Y-46136455D02*
X127130342Y-46169789D01*
X127130342Y-46169789D02*
X127168438Y-46236455D01*
X127168438Y-46236455D02*
X127168438Y-46336455D01*
X127168438Y-46336455D02*
X127130342Y-46403122D01*
X127130342Y-46403122D02*
X127054152Y-46436455D01*
X127054152Y-46436455D02*
X126635104Y-46436455D01*
X127054152Y-46436455D02*
X127130342Y-46469789D01*
X127130342Y-46469789D02*
X127168438Y-46536455D01*
X127168438Y-46536455D02*
X127168438Y-46636455D01*
X127168438Y-46636455D02*
X127130342Y-46703122D01*
X127130342Y-46703122D02*
X127054152Y-46736455D01*
X127054152Y-46736455D02*
X126635104Y-46736455D01*
X126673200Y-47369788D02*
X126635104Y-47303122D01*
X126635104Y-47303122D02*
X126635104Y-47169788D01*
X126635104Y-47169788D02*
X126673200Y-47103122D01*
X126673200Y-47103122D02*
X126711295Y-47069788D01*
X126711295Y-47069788D02*
X126787485Y-47036455D01*
X126787485Y-47036455D02*
X127016057Y-47036455D01*
X127016057Y-47036455D02*
X127092247Y-47069788D01*
X127092247Y-47069788D02*
X127130342Y-47103122D01*
X127130342Y-47103122D02*
X127168438Y-47169788D01*
X127168438Y-47169788D02*
X127168438Y-47303122D01*
X127168438Y-47303122D02*
X127130342Y-47369788D01*
X126635104Y-47769788D02*
X126673200Y-47703122D01*
X126673200Y-47703122D02*
X126749390Y-47669788D01*
X126749390Y-47669788D02*
X127435104Y-47669788D01*
X126635104Y-48036455D02*
X127435104Y-48036455D01*
X126939866Y-48103122D02*
X126635104Y-48303122D01*
X127168438Y-48303122D02*
X126863676Y-48036455D01*
D12*
X113736667Y-69094104D02*
X114212857Y-69094104D01*
X113641429Y-69379819D02*
X113974762Y-68379819D01*
X113974762Y-68379819D02*
X114308095Y-69379819D01*
X115070000Y-68713152D02*
X115070000Y-69379819D01*
X114641429Y-68713152D02*
X114641429Y-69236961D01*
X114641429Y-69236961D02*
X114689048Y-69332200D01*
X114689048Y-69332200D02*
X114784286Y-69379819D01*
X114784286Y-69379819D02*
X114927143Y-69379819D01*
X114927143Y-69379819D02*
X115022381Y-69332200D01*
X115022381Y-69332200D02*
X115070000Y-69284580D01*
X115974762Y-69379819D02*
X115974762Y-68379819D01*
X115974762Y-69332200D02*
X115879524Y-69379819D01*
X115879524Y-69379819D02*
X115689048Y-69379819D01*
X115689048Y-69379819D02*
X115593810Y-69332200D01*
X115593810Y-69332200D02*
X115546191Y-69284580D01*
X115546191Y-69284580D02*
X115498572Y-69189342D01*
X115498572Y-69189342D02*
X115498572Y-68903628D01*
X115498572Y-68903628D02*
X115546191Y-68808390D01*
X115546191Y-68808390D02*
X115593810Y-68760771D01*
X115593810Y-68760771D02*
X115689048Y-68713152D01*
X115689048Y-68713152D02*
X115879524Y-68713152D01*
X115879524Y-68713152D02*
X115974762Y-68760771D01*
X116450953Y-69379819D02*
X116450953Y-68713152D01*
X116450953Y-68379819D02*
X116403334Y-68427438D01*
X116403334Y-68427438D02*
X116450953Y-68475057D01*
X116450953Y-68475057D02*
X116498572Y-68427438D01*
X116498572Y-68427438D02*
X116450953Y-68379819D01*
X116450953Y-68379819D02*
X116450953Y-68475057D01*
X117070000Y-69379819D02*
X116974762Y-69332200D01*
X116974762Y-69332200D02*
X116927143Y-69284580D01*
X116927143Y-69284580D02*
X116879524Y-69189342D01*
X116879524Y-69189342D02*
X116879524Y-68903628D01*
X116879524Y-68903628D02*
X116927143Y-68808390D01*
X116927143Y-68808390D02*
X116974762Y-68760771D01*
X116974762Y-68760771D02*
X117070000Y-68713152D01*
X117070000Y-68713152D02*
X117212857Y-68713152D01*
X117212857Y-68713152D02*
X117308095Y-68760771D01*
X117308095Y-68760771D02*
X117355714Y-68808390D01*
X117355714Y-68808390D02*
X117403333Y-68903628D01*
X117403333Y-68903628D02*
X117403333Y-69189342D01*
X117403333Y-69189342D02*
X117355714Y-69284580D01*
X117355714Y-69284580D02*
X117308095Y-69332200D01*
X117308095Y-69332200D02*
X117212857Y-69379819D01*
X117212857Y-69379819D02*
X117070000Y-69379819D01*
X115046191Y-70989819D02*
X115046191Y-69989819D01*
X115522381Y-70989819D02*
X115522381Y-69989819D01*
X115522381Y-69989819D02*
X116093809Y-70989819D01*
X116093809Y-70989819D02*
X116093809Y-69989819D01*
X123896667Y-69094104D02*
X124372857Y-69094104D01*
X123801429Y-69379819D02*
X124134762Y-68379819D01*
X124134762Y-68379819D02*
X124468095Y-69379819D01*
X125230000Y-68713152D02*
X125230000Y-69379819D01*
X124801429Y-68713152D02*
X124801429Y-69236961D01*
X124801429Y-69236961D02*
X124849048Y-69332200D01*
X124849048Y-69332200D02*
X124944286Y-69379819D01*
X124944286Y-69379819D02*
X125087143Y-69379819D01*
X125087143Y-69379819D02*
X125182381Y-69332200D01*
X125182381Y-69332200D02*
X125230000Y-69284580D01*
X126134762Y-69379819D02*
X126134762Y-68379819D01*
X126134762Y-69332200D02*
X126039524Y-69379819D01*
X126039524Y-69379819D02*
X125849048Y-69379819D01*
X125849048Y-69379819D02*
X125753810Y-69332200D01*
X125753810Y-69332200D02*
X125706191Y-69284580D01*
X125706191Y-69284580D02*
X125658572Y-69189342D01*
X125658572Y-69189342D02*
X125658572Y-68903628D01*
X125658572Y-68903628D02*
X125706191Y-68808390D01*
X125706191Y-68808390D02*
X125753810Y-68760771D01*
X125753810Y-68760771D02*
X125849048Y-68713152D01*
X125849048Y-68713152D02*
X126039524Y-68713152D01*
X126039524Y-68713152D02*
X126134762Y-68760771D01*
X126610953Y-69379819D02*
X126610953Y-68713152D01*
X126610953Y-68379819D02*
X126563334Y-68427438D01*
X126563334Y-68427438D02*
X126610953Y-68475057D01*
X126610953Y-68475057D02*
X126658572Y-68427438D01*
X126658572Y-68427438D02*
X126610953Y-68379819D01*
X126610953Y-68379819D02*
X126610953Y-68475057D01*
X127230000Y-69379819D02*
X127134762Y-69332200D01*
X127134762Y-69332200D02*
X127087143Y-69284580D01*
X127087143Y-69284580D02*
X127039524Y-69189342D01*
X127039524Y-69189342D02*
X127039524Y-68903628D01*
X127039524Y-68903628D02*
X127087143Y-68808390D01*
X127087143Y-68808390D02*
X127134762Y-68760771D01*
X127134762Y-68760771D02*
X127230000Y-68713152D01*
X127230000Y-68713152D02*
X127372857Y-68713152D01*
X127372857Y-68713152D02*
X127468095Y-68760771D01*
X127468095Y-68760771D02*
X127515714Y-68808390D01*
X127515714Y-68808390D02*
X127563333Y-68903628D01*
X127563333Y-68903628D02*
X127563333Y-69189342D01*
X127563333Y-69189342D02*
X127515714Y-69284580D01*
X127515714Y-69284580D02*
X127468095Y-69332200D01*
X127468095Y-69332200D02*
X127372857Y-69379819D01*
X127372857Y-69379819D02*
X127230000Y-69379819D01*
X124730000Y-69989819D02*
X124920476Y-69989819D01*
X124920476Y-69989819D02*
X125015714Y-70037438D01*
X125015714Y-70037438D02*
X125110952Y-70132676D01*
X125110952Y-70132676D02*
X125158571Y-70323152D01*
X125158571Y-70323152D02*
X125158571Y-70656485D01*
X125158571Y-70656485D02*
X125110952Y-70846961D01*
X125110952Y-70846961D02*
X125015714Y-70942200D01*
X125015714Y-70942200D02*
X124920476Y-70989819D01*
X124920476Y-70989819D02*
X124730000Y-70989819D01*
X124730000Y-70989819D02*
X124634762Y-70942200D01*
X124634762Y-70942200D02*
X124539524Y-70846961D01*
X124539524Y-70846961D02*
X124491905Y-70656485D01*
X124491905Y-70656485D02*
X124491905Y-70323152D01*
X124491905Y-70323152D02*
X124539524Y-70132676D01*
X124539524Y-70132676D02*
X124634762Y-70037438D01*
X124634762Y-70037438D02*
X124730000Y-69989819D01*
X125587143Y-69989819D02*
X125587143Y-70799342D01*
X125587143Y-70799342D02*
X125634762Y-70894580D01*
X125634762Y-70894580D02*
X125682381Y-70942200D01*
X125682381Y-70942200D02*
X125777619Y-70989819D01*
X125777619Y-70989819D02*
X125968095Y-70989819D01*
X125968095Y-70989819D02*
X126063333Y-70942200D01*
X126063333Y-70942200D02*
X126110952Y-70894580D01*
X126110952Y-70894580D02*
X126158571Y-70799342D01*
X126158571Y-70799342D02*
X126158571Y-69989819D01*
X126491905Y-69989819D02*
X127063333Y-69989819D01*
X126777619Y-70989819D02*
X126777619Y-69989819D01*
X122094666Y-71590819D02*
X122094666Y-72305104D01*
X122094666Y-72305104D02*
X122047047Y-72447961D01*
X122047047Y-72447961D02*
X121951809Y-72543200D01*
X121951809Y-72543200D02*
X121808952Y-72590819D01*
X121808952Y-72590819D02*
X121713714Y-72590819D01*
X122475619Y-71590819D02*
X123094666Y-71590819D01*
X123094666Y-71590819D02*
X122761333Y-71971771D01*
X122761333Y-71971771D02*
X122904190Y-71971771D01*
X122904190Y-71971771D02*
X122999428Y-72019390D01*
X122999428Y-72019390D02*
X123047047Y-72067009D01*
X123047047Y-72067009D02*
X123094666Y-72162247D01*
X123094666Y-72162247D02*
X123094666Y-72400342D01*
X123094666Y-72400342D02*
X123047047Y-72495580D01*
X123047047Y-72495580D02*
X122999428Y-72543200D01*
X122999428Y-72543200D02*
X122904190Y-72590819D01*
X122904190Y-72590819D02*
X122618476Y-72590819D01*
X122618476Y-72590819D02*
X122523238Y-72543200D01*
X122523238Y-72543200D02*
X122475619Y-72495580D01*
X120316666Y-63462819D02*
X120316666Y-64177104D01*
X120316666Y-64177104D02*
X120269047Y-64319961D01*
X120269047Y-64319961D02*
X120173809Y-64415200D01*
X120173809Y-64415200D02*
X120030952Y-64462819D01*
X120030952Y-64462819D02*
X119935714Y-64462819D01*
X121316666Y-64462819D02*
X120745238Y-64462819D01*
X121030952Y-64462819D02*
X121030952Y-63462819D01*
X121030952Y-63462819D02*
X120935714Y-63605676D01*
X120935714Y-63605676D02*
X120840476Y-63700914D01*
X120840476Y-63700914D02*
X120745238Y-63748533D01*
X111426666Y-41110819D02*
X111426666Y-41825104D01*
X111426666Y-41825104D02*
X111379047Y-41967961D01*
X111379047Y-41967961D02*
X111283809Y-42063200D01*
X111283809Y-42063200D02*
X111140952Y-42110819D01*
X111140952Y-42110819D02*
X111045714Y-42110819D01*
X111855238Y-41206057D02*
X111902857Y-41158438D01*
X111902857Y-41158438D02*
X111998095Y-41110819D01*
X111998095Y-41110819D02*
X112236190Y-41110819D01*
X112236190Y-41110819D02*
X112331428Y-41158438D01*
X112331428Y-41158438D02*
X112379047Y-41206057D01*
X112379047Y-41206057D02*
X112426666Y-41301295D01*
X112426666Y-41301295D02*
X112426666Y-41396533D01*
X112426666Y-41396533D02*
X112379047Y-41539390D01*
X112379047Y-41539390D02*
X111807619Y-42110819D01*
X111807619Y-42110819D02*
X112426666Y-42110819D01*
X111680666Y-71590819D02*
X111680666Y-72305104D01*
X111680666Y-72305104D02*
X111633047Y-72447961D01*
X111633047Y-72447961D02*
X111537809Y-72543200D01*
X111537809Y-72543200D02*
X111394952Y-72590819D01*
X111394952Y-72590819D02*
X111299714Y-72590819D01*
X112585428Y-71924152D02*
X112585428Y-72590819D01*
X112347333Y-71543200D02*
X112109238Y-72257485D01*
X112109238Y-72257485D02*
X112728285Y-72257485D01*
D13*
X122630000Y-85710000D02*
X123230000Y-85710000D01*
X122630000Y-85710000D02*
X122630000Y-83360000D01*
X128230000Y-85710000D02*
X128830000Y-85710000D01*
X122630000Y-81710000D02*
X122630000Y-80360000D01*
X122630000Y-78710000D02*
X122630000Y-76310000D01*
X122630000Y-76310000D02*
X121230000Y-76310000D01*
X128830000Y-75210000D02*
X128830000Y-85710000D01*
X122630000Y-74760000D02*
X121230000Y-74760000D01*
X122630000Y-74760000D02*
X122630000Y-73635000D01*
X128830000Y-73635000D02*
X122630000Y-73635000D01*
X119320000Y-54550000D02*
X120650000Y-54550000D01*
X119320000Y-55880000D02*
X119320000Y-54550000D01*
X119320000Y-57150000D02*
X119320000Y-62290000D01*
X119320000Y-57150000D02*
X121980000Y-57150000D01*
X119320000Y-62290000D02*
X121980000Y-62290000D01*
X121980000Y-57150000D02*
X121980000Y-62290000D01*
X128270000Y-44450000D02*
X127000000Y-44450000D01*
X128270000Y-44450000D02*
X128270000Y-43180000D01*
X116460000Y-42137071D02*
X116460000Y-41682929D01*
X117220000Y-42137071D02*
X117220000Y-41682929D01*
X119000000Y-42137071D02*
X119000000Y-41682929D01*
X119760000Y-42137071D02*
X119760000Y-41682929D01*
X121540000Y-42137071D02*
X121540000Y-41682929D01*
X122300000Y-42137071D02*
X122300000Y-41682929D01*
X124080000Y-42137071D02*
X124080000Y-41682929D01*
X124840000Y-42137071D02*
X124840000Y-41682929D01*
X126620000Y-42137071D02*
X126620000Y-41682929D01*
X127380000Y-42137071D02*
X127380000Y-41682929D01*
X113920000Y-42070000D02*
X113920000Y-41682929D01*
X114680000Y-42070000D02*
X114680000Y-41682929D01*
X113920000Y-39597071D02*
X113920000Y-39200000D01*
X114680000Y-39597071D02*
X114680000Y-39200000D01*
X116460000Y-39597071D02*
X116460000Y-39200000D01*
X117220000Y-39597071D02*
X117220000Y-39200000D01*
X119000000Y-39597071D02*
X119000000Y-39200000D01*
X119760000Y-39597071D02*
X119760000Y-39200000D01*
X121540000Y-39597071D02*
X121540000Y-39200000D01*
X122300000Y-39597071D02*
X122300000Y-39200000D01*
X124080000Y-39597071D02*
X124080000Y-39200000D01*
X124840000Y-39597071D02*
X124840000Y-39200000D01*
X126620000Y-39597071D02*
X126620000Y-39200000D01*
X127380000Y-39597071D02*
X127380000Y-39200000D01*
X112970000Y-39200000D02*
X128330000Y-39200000D01*
X115570000Y-39200000D02*
X115570000Y-37084000D01*
X118110000Y-39200000D02*
X118110000Y-37084000D01*
X120650000Y-39200000D02*
X120650000Y-37084000D01*
X123190000Y-39200000D02*
X123190000Y-37084000D01*
X125730000Y-39200000D02*
X125730000Y-37084000D01*
X128330000Y-39200000D02*
X128330000Y-37084000D01*
X112970000Y-37084000D02*
X112970000Y-39200000D01*
X128330000Y-37084000D02*
X112970000Y-37084000D01*
X112470000Y-85710000D02*
X113070000Y-85710000D01*
X112470000Y-85710000D02*
X112470000Y-83360000D01*
X118070000Y-85710000D02*
X118670000Y-85710000D01*
X112470000Y-81710000D02*
X112470000Y-80360000D01*
X112470000Y-78710000D02*
X112470000Y-76310000D01*
X112470000Y-76310000D02*
X111070000Y-76310000D01*
X118670000Y-75210000D02*
X118670000Y-85710000D01*
X112470000Y-74760000D02*
X111070000Y-74760000D01*
X112470000Y-74760000D02*
X112470000Y-73635000D01*
X118670000Y-73635000D02*
X112470000Y-73635000D01*
%LPC*%
D14*
X125730000Y-84135000D03*
X125730000Y-77135000D03*
D15*
X122480000Y-79535000D03*
X122480000Y-82535000D03*
X128980000Y-74435000D03*
X122480000Y-75535000D03*
D16*
X120650000Y-55880000D03*
D17*
X120650000Y-58420000D03*
X120650000Y-60960000D03*
D16*
X127000000Y-43180000D03*
D17*
X127000000Y-40640000D03*
X124460000Y-43180000D03*
X124460000Y-40640000D03*
X121920000Y-43180000D03*
X121920000Y-40640000D03*
X119380000Y-43180000D03*
X119380000Y-40640000D03*
X116840000Y-43180000D03*
X116840000Y-40640000D03*
X114300000Y-43180000D03*
X114300000Y-40640000D03*
D14*
X115570000Y-84135000D03*
X115570000Y-77135000D03*
D15*
X112320000Y-79535000D03*
X112320000Y-82535000D03*
X118820000Y-74435000D03*
X112320000Y-75535000D03*
%LPD*%
M02*
