G04 #@! TF.GenerationSoftware,KiCad,Pcbnew,7.0.9-7.0.9~ubuntu20.04.1*
G04 #@! TF.CreationDate,2023-11-16T21:07:45+01:00*
G04 #@! TF.ProjectId,kicad-pmod_i2s2,6b696361-642d-4706-9d6f-645f69327332,1.0*
G04 #@! TF.SameCoordinates,Original*
G04 #@! TF.FileFunction,Copper,L1,Top*
G04 #@! TF.FilePolarity,Positive*
%FSLAX46Y46*%
G04 Gerber Fmt 4.6, Leading zero omitted, Abs format (unit mm)*
G04 Created by KiCad (PCBNEW 7.0.9-7.0.9~ubuntu20.04.1) date 2023-11-16 21:07:45*
%MOMM*%
%LPD*%
G01*
G04 APERTURE LIST*
G04 #@! TA.AperFunction,SMDPad,CuDef*
%ADD10R,2.500000X1.200000*%
G04 #@! TD*
G04 #@! TA.AperFunction,ComponentPad*
%ADD11R,1.700000X1.700000*%
G04 #@! TD*
G04 #@! TA.AperFunction,ComponentPad*
%ADD12O,1.700000X1.700000*%
G04 #@! TD*
G04 #@! TA.AperFunction,ViaPad*
%ADD13C,0.800000*%
G04 #@! TD*
G04 #@! TA.AperFunction,Conductor*
%ADD14C,0.250000*%
G04 #@! TD*
G04 #@! TA.AperFunction,Conductor*
%ADD15C,0.500000*%
G04 #@! TD*
G04 APERTURE END LIST*
D10*
X122480000Y-79535000D03*
X122480000Y-82535000D03*
X128980000Y-74435000D03*
X122480000Y-75535000D03*
D11*
X120650000Y-55880000D03*
D12*
X120650000Y-58420000D03*
X120650000Y-60960000D03*
D11*
X127000000Y-43180000D03*
D12*
X127000000Y-40640000D03*
X124460000Y-43180000D03*
X124460000Y-40640000D03*
X121920000Y-43180000D03*
X121920000Y-40640000D03*
X119380000Y-43180000D03*
X119380000Y-40640000D03*
X116840000Y-43180000D03*
X116840000Y-40640000D03*
X114300000Y-43180000D03*
X114300000Y-40640000D03*
D10*
X112320000Y-79535000D03*
X112320000Y-82535000D03*
X118820000Y-74435000D03*
X112320000Y-75535000D03*
D13*
X120142000Y-83058000D03*
X118364000Y-78994000D03*
X121666000Y-77216000D03*
X126492000Y-68326000D03*
X120650000Y-65024000D03*
X116078000Y-61722000D03*
X117856000Y-72898000D03*
X118110000Y-65532000D03*
X113284000Y-61976000D03*
X110998000Y-67818000D03*
X128016000Y-79248000D03*
X126746000Y-73914000D03*
X128016000Y-72390000D03*
X126492000Y-65786000D03*
X129540000Y-58420000D03*
X125730000Y-57150000D03*
X127762000Y-62230000D03*
X129540000Y-52070000D03*
X127254000Y-45720000D03*
X116332000Y-53086000D03*
X116586000Y-45974000D03*
X118110000Y-37846000D03*
X115570000Y-37846000D03*
X119380000Y-50800000D03*
X112966600Y-58096800D03*
X113895300Y-76663900D03*
X114171700Y-79438000D03*
X113321600Y-56920200D03*
X113962300Y-54461400D03*
X124859000Y-74088900D03*
X124055300Y-78334000D03*
X121412000Y-73660000D03*
X125730000Y-61468000D03*
X118460200Y-57358700D03*
X126876300Y-50785000D03*
D14*
X119380000Y-50800000D02*
X119380000Y-51887600D01*
X113170800Y-58096800D02*
X112966600Y-58096800D01*
X119380000Y-51887600D02*
X113170800Y-58096800D01*
D15*
X121412000Y-73660000D02*
X120564000Y-73660000D01*
X125730000Y-61468000D02*
X125285400Y-61023400D01*
X125285400Y-61023400D02*
X123306300Y-61023400D01*
X120650000Y-55880000D02*
X121781300Y-55880000D01*
X121781300Y-55880000D02*
X126876300Y-50785000D01*
X123306300Y-61023400D02*
X123242900Y-60960000D01*
X123242900Y-60960000D02*
X120650000Y-60960000D01*
X118460200Y-57358700D02*
X118460200Y-54219000D01*
X118460200Y-54219000D02*
X121158000Y-51521200D01*
X121158000Y-51521200D02*
X121158000Y-48798300D01*
X121158000Y-48798300D02*
X116840000Y-44480300D01*
X116840000Y-44480300D02*
X116840000Y-43180000D01*
X120650000Y-60960000D02*
X119126000Y-60960000D01*
X119126000Y-60960000D02*
X118460200Y-60294200D01*
X118460200Y-60294200D02*
X118460200Y-57358700D01*
D14*
X127000000Y-40640000D02*
X125824700Y-40640000D01*
X125824700Y-40640000D02*
X125824700Y-40272700D01*
X125824700Y-40272700D02*
X124518500Y-38966500D01*
X124518500Y-38966500D02*
X114311799Y-38966500D01*
X114311799Y-38966500D02*
X113125000Y-40153299D01*
X113125000Y-40153299D02*
X113125000Y-43666701D01*
X115062000Y-53361700D02*
X113962300Y-54461400D01*
X113125000Y-43666701D02*
X115062000Y-45603701D01*
X115062000Y-45603701D02*
X115062000Y-53361700D01*
D15*
X126758700Y-73914000D02*
X127279700Y-74435000D01*
X126746000Y-73914000D02*
X126758700Y-73914000D01*
X126746000Y-73901300D02*
X126746000Y-73914000D01*
D14*
X112320000Y-75535000D02*
X113895300Y-75535000D01*
X113895300Y-76663900D02*
X113895300Y-75535000D01*
X112320000Y-79535000D02*
X113895300Y-79535000D01*
X113992300Y-79438000D02*
X114171700Y-79438000D01*
X113895300Y-79535000D02*
X113992300Y-79438000D01*
X123284700Y-40275300D02*
X123284700Y-40640000D01*
X122426200Y-39416800D02*
X123284700Y-40275300D01*
X116368500Y-39416800D02*
X122426200Y-39416800D01*
X115570000Y-40215300D02*
X116368500Y-39416800D01*
X115570000Y-54671800D02*
X115570000Y-40215300D01*
X113321600Y-56920200D02*
X115570000Y-54671800D01*
X124460000Y-40640000D02*
X123284700Y-40640000D01*
X122480000Y-75535000D02*
X124055300Y-75535000D01*
X124858900Y-74088900D02*
X124859000Y-74088900D01*
X124858900Y-74731400D02*
X124858900Y-74088900D01*
X124055300Y-75535000D02*
X124858900Y-74731400D01*
X122480000Y-79535000D02*
X124055300Y-79535000D01*
X124055300Y-78334000D02*
X124055300Y-79535000D01*
D15*
X116840000Y-40640000D02*
X116840000Y-43180000D01*
X118820000Y-74435000D02*
X120520300Y-74435000D01*
X128980000Y-74435000D02*
X127279700Y-74435000D01*
X120520300Y-73703700D02*
X120520300Y-74435000D01*
X123306300Y-61023400D02*
X123306300Y-73225100D01*
X120998900Y-73225100D02*
X123306300Y-73225100D01*
X120520300Y-73703700D02*
X120998900Y-73225100D01*
X126069800Y-73225100D02*
X126746000Y-73901300D01*
X123306300Y-73225100D02*
X126069800Y-73225100D01*
X114300000Y-40640000D02*
X114300000Y-43180000D01*
G04 #@! TA.AperFunction,Conductor*
G36*
X117090000Y-42744498D02*
G01*
X116982315Y-42695320D01*
X116875763Y-42680000D01*
X116804237Y-42680000D01*
X116697685Y-42695320D01*
X116590000Y-42744498D01*
X116590000Y-41075501D01*
X116697685Y-41124680D01*
X116804237Y-41140000D01*
X116875763Y-41140000D01*
X116982315Y-41124680D01*
X117090000Y-41075501D01*
X117090000Y-42744498D01*
G37*
G04 #@! TD.AperFunction*
G04 #@! TA.AperFunction,Conductor*
G36*
X130433030Y-36577031D02*
G01*
X130439746Y-36577914D01*
X130447709Y-36578963D01*
X130521327Y-36590622D01*
X130549367Y-36598530D01*
X130573809Y-36608654D01*
X130578190Y-36610674D01*
X130625076Y-36634564D01*
X130644258Y-36646667D01*
X130663594Y-36661503D01*
X130669353Y-36665923D01*
X130675448Y-36671267D01*
X130714730Y-36710549D01*
X130720075Y-36716645D01*
X130739327Y-36741733D01*
X130751435Y-36760924D01*
X130764084Y-36785748D01*
X130775318Y-36807796D01*
X130777352Y-36812208D01*
X130787466Y-36836625D01*
X130795377Y-36864676D01*
X130795379Y-36864683D01*
X130807037Y-36938296D01*
X130808969Y-36952967D01*
X130809500Y-36961069D01*
X130809500Y-73402223D01*
X130789815Y-73469262D01*
X130737011Y-73515017D01*
X130667853Y-73524961D01*
X130604297Y-73495936D01*
X130590561Y-73481183D01*
X130587187Y-73477809D01*
X130472093Y-73391649D01*
X130472086Y-73391645D01*
X130337379Y-73341403D01*
X130337372Y-73341401D01*
X130277844Y-73335000D01*
X129230000Y-73335000D01*
X129230000Y-75535000D01*
X130277828Y-75535000D01*
X130277844Y-75534999D01*
X130337372Y-75528598D01*
X130337379Y-75528596D01*
X130472086Y-75478354D01*
X130472093Y-75478350D01*
X130587187Y-75392190D01*
X130593460Y-75385918D01*
X130594682Y-75387140D01*
X130642166Y-75351594D01*
X130711858Y-75346610D01*
X130773181Y-75380094D01*
X130806666Y-75441417D01*
X130809500Y-75467776D01*
X130809500Y-85086949D01*
X130809201Y-85093031D01*
X130806027Y-85125256D01*
X130793580Y-85235720D01*
X130789021Y-85257830D01*
X130772881Y-85311039D01*
X130745210Y-85390117D01*
X130737528Y-85407614D01*
X130709046Y-85460902D01*
X130706862Y-85464664D01*
X130663133Y-85534257D01*
X130658559Y-85540609D01*
X130616167Y-85592264D01*
X130612078Y-85596776D01*
X130554776Y-85654078D01*
X130550264Y-85658167D01*
X130498609Y-85700559D01*
X130492257Y-85705133D01*
X130422664Y-85748862D01*
X130418902Y-85751046D01*
X130365614Y-85779528D01*
X130348117Y-85787210D01*
X130269039Y-85814881D01*
X130215830Y-85831021D01*
X130193720Y-85835580D01*
X130083256Y-85848027D01*
X130051031Y-85851201D01*
X130044949Y-85851500D01*
X111255051Y-85851500D01*
X111248970Y-85851201D01*
X111216743Y-85848027D01*
X111106278Y-85835580D01*
X111084167Y-85831021D01*
X111030960Y-85814881D01*
X110951881Y-85787210D01*
X110934384Y-85779528D01*
X110914120Y-85768697D01*
X110881085Y-85751039D01*
X110877340Y-85748865D01*
X110858846Y-85737245D01*
X110807741Y-85705133D01*
X110801389Y-85700559D01*
X110749734Y-85658167D01*
X110745232Y-85654087D01*
X110687910Y-85596765D01*
X110683831Y-85592264D01*
X110641439Y-85540609D01*
X110636865Y-85534257D01*
X110631712Y-85526057D01*
X110593123Y-85464641D01*
X110590970Y-85460933D01*
X110562467Y-85407607D01*
X110554794Y-85390132D01*
X110527118Y-85311039D01*
X110510975Y-85257823D01*
X110506419Y-85235728D01*
X110493972Y-85125256D01*
X110490799Y-85093031D01*
X110490500Y-85086952D01*
X110490500Y-84185936D01*
X114565631Y-84185936D01*
X114596442Y-84387063D01*
X114596445Y-84387075D01*
X114667111Y-84577881D01*
X114667115Y-84577888D01*
X114774745Y-84750567D01*
X114774747Y-84750569D01*
X114774748Y-84750571D01*
X114914941Y-84898053D01*
X115043344Y-84987424D01*
X115081949Y-85014294D01*
X115081950Y-85014294D01*
X115081951Y-85014295D01*
X115268942Y-85094540D01*
X115468259Y-85135500D01*
X115620743Y-85135500D01*
X115772439Y-85120074D01*
X115966579Y-85059162D01*
X115966580Y-85059161D01*
X115966588Y-85059159D01*
X116144502Y-84960409D01*
X116298895Y-84827866D01*
X116423448Y-84666958D01*
X116513060Y-84484271D01*
X116564063Y-84287285D01*
X116569203Y-84185936D01*
X124725631Y-84185936D01*
X124756442Y-84387063D01*
X124756445Y-84387075D01*
X124827111Y-84577881D01*
X124827115Y-84577888D01*
X124934745Y-84750567D01*
X124934747Y-84750569D01*
X124934748Y-84750571D01*
X125074941Y-84898053D01*
X125203344Y-84987424D01*
X125241949Y-85014294D01*
X125241950Y-85014294D01*
X125241951Y-85014295D01*
X125428942Y-85094540D01*
X125628259Y-85135500D01*
X125780743Y-85135500D01*
X125932439Y-85120074D01*
X126126579Y-85059162D01*
X126126580Y-85059161D01*
X126126588Y-85059159D01*
X126304502Y-84960409D01*
X126458895Y-84827866D01*
X126583448Y-84666958D01*
X126673060Y-84484271D01*
X126724063Y-84287285D01*
X126734369Y-84084064D01*
X126703556Y-83882929D01*
X126632886Y-83692113D01*
X126525252Y-83519429D01*
X126385059Y-83371947D01*
X126286587Y-83303409D01*
X126218050Y-83255705D01*
X126031056Y-83175459D01*
X125831741Y-83134500D01*
X125679258Y-83134500D01*
X125679257Y-83134500D01*
X125527560Y-83149925D01*
X125333420Y-83210837D01*
X125333405Y-83210844D01*
X125155500Y-83309589D01*
X125155495Y-83309592D01*
X125001106Y-83442132D01*
X125001104Y-83442134D01*
X124876554Y-83603037D01*
X124876553Y-83603040D01*
X124786940Y-83785728D01*
X124735937Y-83982714D01*
X124725631Y-84185936D01*
X116569203Y-84185936D01*
X116574369Y-84084064D01*
X116543556Y-83882929D01*
X116472886Y-83692113D01*
X116365252Y-83519429D01*
X116225059Y-83371947D01*
X116126587Y-83303409D01*
X116058050Y-83255705D01*
X115888326Y-83182870D01*
X120729500Y-83182870D01*
X120729501Y-83182876D01*
X120735908Y-83242483D01*
X120786202Y-83377328D01*
X120786206Y-83377335D01*
X120872452Y-83492544D01*
X120872455Y-83492547D01*
X120987664Y-83578793D01*
X120987671Y-83578797D01*
X121122517Y-83629091D01*
X121122516Y-83629091D01*
X121129444Y-83629835D01*
X121182127Y-83635500D01*
X123777872Y-83635499D01*
X123837483Y-83629091D01*
X123972331Y-83578796D01*
X124087546Y-83492546D01*
X124173796Y-83377331D01*
X124224091Y-83242483D01*
X124230500Y-83182873D01*
X124230499Y-81887128D01*
X124224091Y-81827517D01*
X124173796Y-81692669D01*
X124173795Y-81692668D01*
X124173793Y-81692664D01*
X124087547Y-81577455D01*
X124087544Y-81577452D01*
X123972335Y-81491206D01*
X123972328Y-81491202D01*
X123837482Y-81440908D01*
X123837483Y-81440908D01*
X123777883Y-81434501D01*
X123777881Y-81434500D01*
X123777873Y-81434500D01*
X123777864Y-81434500D01*
X121182129Y-81434500D01*
X121182123Y-81434501D01*
X121122516Y-81440908D01*
X120987671Y-81491202D01*
X120987664Y-81491206D01*
X120872455Y-81577452D01*
X120872452Y-81577455D01*
X120786206Y-81692664D01*
X120786202Y-81692671D01*
X120735908Y-81827517D01*
X120729501Y-81887116D01*
X120729501Y-81887123D01*
X120729500Y-81887135D01*
X120729500Y-83182870D01*
X115888326Y-83182870D01*
X115871056Y-83175459D01*
X115671741Y-83134500D01*
X115519258Y-83134500D01*
X115519257Y-83134500D01*
X115367560Y-83149925D01*
X115173420Y-83210837D01*
X115173405Y-83210844D01*
X114995500Y-83309589D01*
X114995495Y-83309592D01*
X114841106Y-83442132D01*
X114841104Y-83442134D01*
X114716554Y-83603037D01*
X114716553Y-83603040D01*
X114626940Y-83785728D01*
X114575937Y-83982714D01*
X114565631Y-84185936D01*
X110490500Y-84185936D01*
X110490500Y-83568610D01*
X110510185Y-83501571D01*
X110562989Y-83455816D01*
X110632147Y-83445872D01*
X110695703Y-83474897D01*
X110707826Y-83487918D01*
X110712455Y-83492547D01*
X110827664Y-83578793D01*
X110827671Y-83578797D01*
X110962517Y-83629091D01*
X110962516Y-83629091D01*
X110969444Y-83629835D01*
X111022127Y-83635500D01*
X113617872Y-83635499D01*
X113677483Y-83629091D01*
X113812331Y-83578796D01*
X113927546Y-83492546D01*
X114013796Y-83377331D01*
X114064091Y-83242483D01*
X114070500Y-83182873D01*
X114070499Y-81887128D01*
X114064091Y-81827517D01*
X114013796Y-81692669D01*
X114013795Y-81692668D01*
X114013793Y-81692664D01*
X113927547Y-81577455D01*
X113927544Y-81577452D01*
X113812335Y-81491206D01*
X113812328Y-81491202D01*
X113677482Y-81440908D01*
X113677483Y-81440908D01*
X113617883Y-81434501D01*
X113617881Y-81434500D01*
X113617873Y-81434500D01*
X113617864Y-81434500D01*
X111022129Y-81434500D01*
X111022123Y-81434501D01*
X110962516Y-81440908D01*
X110827671Y-81491202D01*
X110827664Y-81491206D01*
X110712455Y-81577452D01*
X110706183Y-81583725D01*
X110704841Y-81582383D01*
X110657823Y-81617575D01*
X110588131Y-81622553D01*
X110526811Y-81589062D01*
X110493331Y-81527736D01*
X110490500Y-81501389D01*
X110490500Y-80568610D01*
X110510185Y-80501571D01*
X110562989Y-80455816D01*
X110632147Y-80445872D01*
X110695703Y-80474897D01*
X110707826Y-80487918D01*
X110712455Y-80492547D01*
X110827664Y-80578793D01*
X110827671Y-80578797D01*
X110962517Y-80629091D01*
X110962516Y-80629091D01*
X110969444Y-80629835D01*
X111022127Y-80635500D01*
X113617872Y-80635499D01*
X113677483Y-80629091D01*
X113812331Y-80578796D01*
X113927546Y-80492546D01*
X113981665Y-80420251D01*
X114005669Y-80388188D01*
X114061603Y-80346318D01*
X114104935Y-80338500D01*
X114266344Y-80338500D01*
X114266346Y-80338500D01*
X114451503Y-80299144D01*
X114624430Y-80222151D01*
X114678496Y-80182870D01*
X120729500Y-80182870D01*
X120729501Y-80182876D01*
X120735908Y-80242483D01*
X120786202Y-80377328D01*
X120786206Y-80377335D01*
X120872452Y-80492544D01*
X120872455Y-80492547D01*
X120987664Y-80578793D01*
X120987671Y-80578797D01*
X121122517Y-80629091D01*
X121122516Y-80629091D01*
X121129444Y-80629835D01*
X121182127Y-80635500D01*
X123777872Y-80635499D01*
X123837483Y-80629091D01*
X123972331Y-80578796D01*
X124087546Y-80492546D01*
X124173796Y-80377331D01*
X124224091Y-80242483D01*
X124227163Y-80213912D01*
X124253901Y-80149361D01*
X124311293Y-80109513D01*
X124311802Y-80109346D01*
X124323741Y-80105467D01*
X124330637Y-80101090D01*
X124351433Y-80090494D01*
X124359032Y-80087486D01*
X124405491Y-80053730D01*
X124408690Y-80051555D01*
X124457177Y-80020786D01*
X124462766Y-80014833D01*
X124480279Y-79999394D01*
X124486887Y-79994594D01*
X124523490Y-79950347D01*
X124526036Y-79947457D01*
X124565362Y-79905582D01*
X124569298Y-79898421D01*
X124582419Y-79879114D01*
X124587624Y-79872823D01*
X124612069Y-79820874D01*
X124613828Y-79817419D01*
X124641497Y-79767092D01*
X124643527Y-79759181D01*
X124651435Y-79737218D01*
X124654914Y-79729826D01*
X124665677Y-79673401D01*
X124666510Y-79669670D01*
X124680800Y-79614019D01*
X124680800Y-79605844D01*
X124682997Y-79582606D01*
X124684527Y-79574588D01*
X124680921Y-79517275D01*
X124680800Y-79513403D01*
X124680800Y-79032687D01*
X124700485Y-78965648D01*
X124712650Y-78949715D01*
X124731191Y-78929122D01*
X124787833Y-78866216D01*
X124882479Y-78702284D01*
X124940974Y-78522256D01*
X124960760Y-78334000D01*
X124940974Y-78145744D01*
X124912841Y-78059159D01*
X124911811Y-78055989D01*
X124909816Y-77986148D01*
X124945896Y-77926315D01*
X125008597Y-77895487D01*
X125078012Y-77903452D01*
X125100571Y-77915892D01*
X125241951Y-78014295D01*
X125428942Y-78094540D01*
X125628259Y-78135500D01*
X125780743Y-78135500D01*
X125932439Y-78120074D01*
X126126579Y-78059162D01*
X126126580Y-78059161D01*
X126126588Y-78059159D01*
X126304502Y-77960409D01*
X126458895Y-77827866D01*
X126583448Y-77666958D01*
X126673060Y-77484271D01*
X126724063Y-77287285D01*
X126734369Y-77084064D01*
X126703556Y-76882929D01*
X126632886Y-76692113D01*
X126525252Y-76519429D01*
X126385059Y-76371947D01*
X126286587Y-76303409D01*
X126218050Y-76255705D01*
X126031056Y-76175459D01*
X125831741Y-76134500D01*
X125679258Y-76134500D01*
X125679257Y-76134500D01*
X125527560Y-76149925D01*
X125333420Y-76210837D01*
X125333405Y-76210844D01*
X125155500Y-76309589D01*
X125155495Y-76309592D01*
X125001106Y-76442132D01*
X125001104Y-76442134D01*
X124876554Y-76603037D01*
X124876553Y-76603040D01*
X124786940Y-76785728D01*
X124735937Y-76982714D01*
X124725631Y-77185936D01*
X124756442Y-77387063D01*
X124756446Y-77387079D01*
X124788082Y-77472498D01*
X124792906Y-77542200D01*
X124759280Y-77603446D01*
X124697880Y-77636790D01*
X124628200Y-77631645D01*
X124598916Y-77615881D01*
X124508034Y-77549851D01*
X124508029Y-77549848D01*
X124335107Y-77472857D01*
X124335102Y-77472855D01*
X124189301Y-77441865D01*
X124149946Y-77433500D01*
X123960654Y-77433500D01*
X123928197Y-77440398D01*
X123775497Y-77472855D01*
X123775492Y-77472857D01*
X123602570Y-77549848D01*
X123602565Y-77549851D01*
X123449429Y-77661111D01*
X123322766Y-77801785D01*
X123228121Y-77965715D01*
X123228118Y-77965722D01*
X123172954Y-78135500D01*
X123169626Y-78145744D01*
X123160128Y-78236106D01*
X123150947Y-78323462D01*
X123124362Y-78388077D01*
X123067064Y-78428061D01*
X123027626Y-78434500D01*
X121182129Y-78434500D01*
X121182123Y-78434501D01*
X121122516Y-78440908D01*
X120987671Y-78491202D01*
X120987664Y-78491206D01*
X120872455Y-78577452D01*
X120872452Y-78577455D01*
X120786206Y-78692664D01*
X120786202Y-78692671D01*
X120735908Y-78827517D01*
X120729501Y-78887116D01*
X120729500Y-78887135D01*
X120729500Y-80182870D01*
X114678496Y-80182870D01*
X114777571Y-80110888D01*
X114904233Y-79970216D01*
X114998879Y-79806284D01*
X115057374Y-79626256D01*
X115077160Y-79438000D01*
X115057374Y-79249744D01*
X114998879Y-79069716D01*
X114904233Y-78905784D01*
X114777571Y-78765112D01*
X114777570Y-78765111D01*
X114624434Y-78653851D01*
X114624429Y-78653848D01*
X114451507Y-78576857D01*
X114451502Y-78576855D01*
X114305701Y-78545865D01*
X114266346Y-78537500D01*
X114077054Y-78537500D01*
X114077050Y-78537500D01*
X113974083Y-78559386D01*
X113904416Y-78554070D01*
X113873991Y-78537362D01*
X113812335Y-78491206D01*
X113812328Y-78491202D01*
X113677482Y-78440908D01*
X113677483Y-78440908D01*
X113617883Y-78434501D01*
X113617881Y-78434500D01*
X113617873Y-78434500D01*
X113617864Y-78434500D01*
X111022129Y-78434500D01*
X111022123Y-78434501D01*
X110962516Y-78440908D01*
X110827671Y-78491202D01*
X110827664Y-78491206D01*
X110712455Y-78577452D01*
X110706183Y-78583725D01*
X110704841Y-78582383D01*
X110657823Y-78617575D01*
X110588131Y-78622553D01*
X110526811Y-78589062D01*
X110493331Y-78527736D01*
X110490500Y-78501389D01*
X110490500Y-76568610D01*
X110510185Y-76501571D01*
X110562989Y-76455816D01*
X110632147Y-76445872D01*
X110695703Y-76474897D01*
X110707826Y-76487918D01*
X110712455Y-76492547D01*
X110827664Y-76578793D01*
X110827671Y-76578797D01*
X110962517Y-76629091D01*
X110962516Y-76629091D01*
X110969444Y-76629835D01*
X111022127Y-76635500D01*
X112875204Y-76635499D01*
X112942243Y-76655184D01*
X112987998Y-76707987D01*
X112998525Y-76746537D01*
X113009626Y-76852156D01*
X113009627Y-76852159D01*
X113068118Y-77032177D01*
X113068121Y-77032184D01*
X113162767Y-77196116D01*
X113214592Y-77253673D01*
X113289429Y-77336788D01*
X113442565Y-77448048D01*
X113442570Y-77448051D01*
X113615492Y-77525042D01*
X113615497Y-77525044D01*
X113800654Y-77564400D01*
X113800655Y-77564400D01*
X113989944Y-77564400D01*
X113989946Y-77564400D01*
X114175103Y-77525044D01*
X114348030Y-77448051D01*
X114429219Y-77389063D01*
X114495024Y-77365583D01*
X114563078Y-77381408D01*
X114611773Y-77431513D01*
X114618385Y-77446315D01*
X114667111Y-77577881D01*
X114667115Y-77577888D01*
X114774745Y-77750567D01*
X114774747Y-77750569D01*
X114774748Y-77750571D01*
X114914941Y-77898053D01*
X115012164Y-77965722D01*
X115081949Y-78014294D01*
X115081950Y-78014294D01*
X115081951Y-78014295D01*
X115268942Y-78094540D01*
X115468259Y-78135500D01*
X115620743Y-78135500D01*
X115772439Y-78120074D01*
X115966579Y-78059162D01*
X115966580Y-78059161D01*
X115966588Y-78059159D01*
X116144502Y-77960409D01*
X116298895Y-77827866D01*
X116423448Y-77666958D01*
X116513060Y-77484271D01*
X116564063Y-77287285D01*
X116574369Y-77084064D01*
X116543556Y-76882929D01*
X116472886Y-76692113D01*
X116365252Y-76519429D01*
X116225059Y-76371947D01*
X116126587Y-76303409D01*
X116058050Y-76255705D01*
X115871056Y-76175459D01*
X115671741Y-76134500D01*
X115519258Y-76134500D01*
X115519257Y-76134500D01*
X115367560Y-76149925D01*
X115173420Y-76210837D01*
X115173405Y-76210844D01*
X114995500Y-76309589D01*
X114995495Y-76309592D01*
X114926771Y-76368591D01*
X114863083Y-76397323D01*
X114793971Y-76387061D01*
X114741378Y-76341063D01*
X114728070Y-76312822D01*
X114722482Y-76295624D01*
X114722480Y-76295620D01*
X114722479Y-76295616D01*
X114627833Y-76131684D01*
X114611563Y-76113614D01*
X114552650Y-76048184D01*
X114522420Y-75985192D01*
X114520800Y-75965212D01*
X114520800Y-75605844D01*
X114522997Y-75582606D01*
X114524527Y-75574588D01*
X114520921Y-75517275D01*
X114520800Y-75513403D01*
X114520800Y-75495650D01*
X114518570Y-75478002D01*
X114518210Y-75474191D01*
X114514604Y-75416862D01*
X114512079Y-75409092D01*
X114506987Y-75386314D01*
X114505964Y-75378208D01*
X114484820Y-75324806D01*
X114483511Y-75321170D01*
X114465767Y-75266559D01*
X114461389Y-75259661D01*
X114450795Y-75238868D01*
X114447786Y-75231268D01*
X114414036Y-75184815D01*
X114411845Y-75181592D01*
X114386960Y-75142379D01*
X114381086Y-75133123D01*
X114375133Y-75127533D01*
X114359698Y-75110025D01*
X114354894Y-75103413D01*
X114354891Y-75103411D01*
X114354891Y-75103410D01*
X114310661Y-75066820D01*
X114307738Y-75064243D01*
X114265885Y-75024940D01*
X114265877Y-75024934D01*
X114258715Y-75020997D01*
X114239414Y-75007880D01*
X114233124Y-75002676D01*
X114181178Y-74978232D01*
X114177717Y-74976469D01*
X114153229Y-74963006D01*
X114130616Y-74950575D01*
X114081352Y-74901029D01*
X114067063Y-74855165D01*
X114064091Y-74827516D01*
X114013797Y-74692671D01*
X114013793Y-74692664D01*
X114008056Y-74685000D01*
X117070000Y-74685000D01*
X117070000Y-75082844D01*
X117076401Y-75142372D01*
X117076403Y-75142379D01*
X117126645Y-75277086D01*
X117126649Y-75277093D01*
X117212809Y-75392187D01*
X117212812Y-75392190D01*
X117327906Y-75478350D01*
X117327913Y-75478354D01*
X117462620Y-75528596D01*
X117462627Y-75528598D01*
X117522155Y-75534999D01*
X117522172Y-75535000D01*
X118570000Y-75535000D01*
X119070000Y-75535000D01*
X120117828Y-75535000D01*
X120117844Y-75534999D01*
X120177372Y-75528598D01*
X120177379Y-75528596D01*
X120312086Y-75478354D01*
X120312093Y-75478350D01*
X120427186Y-75392190D01*
X120506233Y-75286599D01*
X120562167Y-75244728D01*
X120631859Y-75239744D01*
X120693182Y-75273229D01*
X120726666Y-75334553D01*
X120729500Y-75360910D01*
X120729500Y-76182870D01*
X120729501Y-76182876D01*
X120735908Y-76242483D01*
X120786202Y-76377328D01*
X120786206Y-76377335D01*
X120872452Y-76492544D01*
X120872455Y-76492547D01*
X120987664Y-76578793D01*
X120987671Y-76578797D01*
X121122517Y-76629091D01*
X121122516Y-76629091D01*
X121129444Y-76629835D01*
X121182127Y-76635500D01*
X123777872Y-76635499D01*
X123837483Y-76629091D01*
X123972331Y-76578796D01*
X124087546Y-76492546D01*
X124173796Y-76377331D01*
X124224091Y-76242483D01*
X124226916Y-76216210D01*
X124253654Y-76151659D01*
X124300968Y-76115660D01*
X124305677Y-76113621D01*
X124305690Y-76113618D01*
X124322929Y-76103422D01*
X124340403Y-76094862D01*
X124359027Y-76087488D01*
X124359027Y-76087487D01*
X124359032Y-76087486D01*
X124396749Y-76060082D01*
X124401605Y-76056892D01*
X124441720Y-76033170D01*
X124455889Y-76018999D01*
X124470679Y-76006368D01*
X124486887Y-75994594D01*
X124516599Y-75958676D01*
X124520512Y-75954376D01*
X125242687Y-75232202D01*
X125254942Y-75222386D01*
X125254759Y-75222164D01*
X125260766Y-75217192D01*
X125260777Y-75217186D01*
X125294202Y-75181592D01*
X125308127Y-75166764D01*
X125318571Y-75156318D01*
X125329020Y-75145871D01*
X125333279Y-75140378D01*
X125337052Y-75135961D01*
X125368962Y-75101982D01*
X125378615Y-75084420D01*
X125389289Y-75068170D01*
X125401573Y-75052336D01*
X125420080Y-75009567D01*
X125422649Y-75004324D01*
X125436993Y-74978232D01*
X125445097Y-74963492D01*
X125450077Y-74944091D01*
X125456378Y-74925688D01*
X125464338Y-74907296D01*
X125471630Y-74861249D01*
X125472811Y-74855552D01*
X125484400Y-74810419D01*
X125484400Y-74790383D01*
X125485927Y-74770986D01*
X125486443Y-74767728D01*
X125516372Y-74704593D01*
X125516766Y-74704153D01*
X125534011Y-74685000D01*
X127230000Y-74685000D01*
X127230000Y-75082844D01*
X127236401Y-75142372D01*
X127236403Y-75142379D01*
X127286645Y-75277086D01*
X127286649Y-75277093D01*
X127372809Y-75392187D01*
X127372812Y-75392190D01*
X127487906Y-75478350D01*
X127487913Y-75478354D01*
X127622620Y-75528596D01*
X127622627Y-75528598D01*
X127682155Y-75534999D01*
X127682172Y-75535000D01*
X128730000Y-75535000D01*
X128730000Y-74685000D01*
X127230000Y-74685000D01*
X125534011Y-74685000D01*
X125591533Y-74621116D01*
X125686179Y-74457184D01*
X125744674Y-74277156D01*
X125754360Y-74185000D01*
X127230000Y-74185000D01*
X128730000Y-74185000D01*
X128730000Y-73335000D01*
X127682155Y-73335000D01*
X127622627Y-73341401D01*
X127622620Y-73341403D01*
X127487913Y-73391645D01*
X127487906Y-73391649D01*
X127372812Y-73477809D01*
X127372809Y-73477812D01*
X127286649Y-73592906D01*
X127286645Y-73592913D01*
X127236403Y-73727620D01*
X127236401Y-73727627D01*
X127230000Y-73787155D01*
X127230000Y-74185000D01*
X125754360Y-74185000D01*
X125764460Y-74088900D01*
X125744674Y-73900644D01*
X125686179Y-73720616D01*
X125591533Y-73556684D01*
X125464871Y-73416012D01*
X125445892Y-73402223D01*
X125311734Y-73304751D01*
X125311729Y-73304748D01*
X125138807Y-73227757D01*
X125138802Y-73227755D01*
X124993001Y-73196765D01*
X124953646Y-73188400D01*
X124764354Y-73188400D01*
X124731897Y-73195298D01*
X124579197Y-73227755D01*
X124579192Y-73227757D01*
X124406270Y-73304748D01*
X124406265Y-73304751D01*
X124253129Y-73416011D01*
X124126466Y-73556685D01*
X124031821Y-73720615D01*
X124031818Y-73720622D01*
X123973327Y-73900640D01*
X123973326Y-73900644D01*
X123953540Y-74088900D01*
X123973326Y-74277157D01*
X123974217Y-74279897D01*
X123974264Y-74281573D01*
X123974678Y-74283517D01*
X123974322Y-74283592D01*
X123976212Y-74349738D01*
X123940132Y-74409571D01*
X123877432Y-74440400D01*
X123843031Y-74441506D01*
X123837485Y-74440909D01*
X123837483Y-74440909D01*
X123777873Y-74434500D01*
X123777864Y-74434500D01*
X121182129Y-74434500D01*
X121182123Y-74434501D01*
X121122516Y-74440908D01*
X120987671Y-74491202D01*
X120987664Y-74491206D01*
X120872455Y-74577452D01*
X120782685Y-74697369D01*
X120726751Y-74739239D01*
X120657060Y-74744223D01*
X120595738Y-74710738D01*
X120570000Y-74685000D01*
X119070000Y-74685000D01*
X119070000Y-75535000D01*
X118570000Y-75535000D01*
X118570000Y-74685000D01*
X117070000Y-74685000D01*
X114008056Y-74685000D01*
X113927547Y-74577455D01*
X113927544Y-74577452D01*
X113812335Y-74491206D01*
X113812328Y-74491202D01*
X113677482Y-74440908D01*
X113677483Y-74440908D01*
X113617883Y-74434501D01*
X113617881Y-74434500D01*
X113617873Y-74434500D01*
X113617864Y-74434500D01*
X111022129Y-74434500D01*
X111022123Y-74434501D01*
X110962516Y-74440908D01*
X110827671Y-74491202D01*
X110827664Y-74491206D01*
X110712455Y-74577452D01*
X110706183Y-74583725D01*
X110704841Y-74582383D01*
X110657823Y-74617575D01*
X110588131Y-74622553D01*
X110526811Y-74589062D01*
X110493331Y-74527736D01*
X110490500Y-74501389D01*
X110490500Y-74185000D01*
X117070000Y-74185000D01*
X118570000Y-74185000D01*
X118570000Y-73335000D01*
X119070000Y-73335000D01*
X119070000Y-74185000D01*
X120570000Y-74185000D01*
X120570000Y-73787172D01*
X120569999Y-73787155D01*
X120563598Y-73727627D01*
X120563596Y-73727620D01*
X120513354Y-73592913D01*
X120513350Y-73592906D01*
X120427190Y-73477812D01*
X120427187Y-73477809D01*
X120312093Y-73391649D01*
X120312086Y-73391645D01*
X120177379Y-73341403D01*
X120177372Y-73341401D01*
X120117844Y-73335000D01*
X119070000Y-73335000D01*
X118570000Y-73335000D01*
X117522155Y-73335000D01*
X117462627Y-73341401D01*
X117462620Y-73341403D01*
X117327913Y-73391645D01*
X117327906Y-73391649D01*
X117212812Y-73477809D01*
X117212809Y-73477812D01*
X117126649Y-73592906D01*
X117126645Y-73592913D01*
X117076403Y-73727620D01*
X117076401Y-73727627D01*
X117070000Y-73787155D01*
X117070000Y-74185000D01*
X110490500Y-74185000D01*
X110490500Y-58096800D01*
X112061140Y-58096800D01*
X112080926Y-58285056D01*
X112080927Y-58285059D01*
X112139418Y-58465077D01*
X112139421Y-58465083D01*
X112139421Y-58465084D01*
X112234067Y-58629016D01*
X112360729Y-58769688D01*
X112513865Y-58880948D01*
X112513870Y-58880951D01*
X112686792Y-58957942D01*
X112686797Y-58957944D01*
X112871954Y-58997300D01*
X112871955Y-58997300D01*
X113061244Y-58997300D01*
X113061246Y-58997300D01*
X113246403Y-58957944D01*
X113419330Y-58880951D01*
X113572471Y-58769688D01*
X113699133Y-58629016D01*
X113793779Y-58465084D01*
X113808427Y-58420000D01*
X119294341Y-58420000D01*
X119314936Y-58655403D01*
X119314938Y-58655413D01*
X119376094Y-58883655D01*
X119376096Y-58883659D01*
X119376097Y-58883663D01*
X119410734Y-58957942D01*
X119475965Y-59097830D01*
X119475967Y-59097834D01*
X119611501Y-59291395D01*
X119611506Y-59291402D01*
X119778597Y-59458493D01*
X119778603Y-59458498D01*
X119964594Y-59588730D01*
X120008219Y-59643307D01*
X120015413Y-59712805D01*
X119983890Y-59775160D01*
X119964595Y-59791880D01*
X119778922Y-59921890D01*
X119778920Y-59921891D01*
X119611891Y-60088920D01*
X119611886Y-60088926D01*
X119476400Y-60282420D01*
X119476399Y-60282422D01*
X119376570Y-60496507D01*
X119376567Y-60496513D01*
X119319364Y-60709999D01*
X119319364Y-60710000D01*
X120216314Y-60710000D01*
X120190507Y-60750156D01*
X120150000Y-60888111D01*
X120150000Y-61031889D01*
X120190507Y-61169844D01*
X120216314Y-61210000D01*
X119319364Y-61210000D01*
X119376567Y-61423486D01*
X119376570Y-61423492D01*
X119476399Y-61637578D01*
X119611894Y-61831082D01*
X119778917Y-61998105D01*
X119972421Y-62133600D01*
X120186507Y-62233429D01*
X120186516Y-62233433D01*
X120400000Y-62290634D01*
X120400000Y-61395501D01*
X120507685Y-61444680D01*
X120614237Y-61460000D01*
X120685763Y-61460000D01*
X120792315Y-61444680D01*
X120900000Y-61395501D01*
X120900000Y-62290633D01*
X121113483Y-62233433D01*
X121113492Y-62233429D01*
X121327578Y-62133600D01*
X121521082Y-61998105D01*
X121688105Y-61831082D01*
X121823600Y-61637578D01*
X121923429Y-61423492D01*
X121923432Y-61423486D01*
X121980636Y-61210000D01*
X121083686Y-61210000D01*
X121109493Y-61169844D01*
X121150000Y-61031889D01*
X121150000Y-60888111D01*
X121109493Y-60750156D01*
X121083686Y-60710000D01*
X121980636Y-60710000D01*
X121980635Y-60709999D01*
X121923432Y-60496513D01*
X121923429Y-60496507D01*
X121823600Y-60282422D01*
X121823599Y-60282420D01*
X121688113Y-60088926D01*
X121688108Y-60088920D01*
X121521078Y-59921890D01*
X121335405Y-59791879D01*
X121291780Y-59737302D01*
X121284588Y-59667804D01*
X121316110Y-59605449D01*
X121335406Y-59588730D01*
X121521401Y-59458495D01*
X121688495Y-59291401D01*
X121824035Y-59097830D01*
X121923903Y-58883663D01*
X121985063Y-58655408D01*
X122005659Y-58420000D01*
X121985063Y-58184592D01*
X121923903Y-57956337D01*
X121824035Y-57742171D01*
X121699688Y-57564585D01*
X121688496Y-57548600D01*
X121688495Y-57548599D01*
X121566567Y-57426671D01*
X121533084Y-57365351D01*
X121538068Y-57295659D01*
X121579939Y-57239725D01*
X121610915Y-57222810D01*
X121742331Y-57173796D01*
X121857546Y-57087546D01*
X121943796Y-56972331D01*
X121994091Y-56837483D01*
X122000500Y-56777873D01*
X122000499Y-56687534D01*
X122020183Y-56620497D01*
X122072986Y-56574741D01*
X122085469Y-56569838D01*
X122100634Y-56564814D01*
X122100641Y-56564809D01*
X122107182Y-56561760D01*
X122107208Y-56561816D01*
X122113990Y-56558532D01*
X122113963Y-56558478D01*
X122120406Y-56555240D01*
X122120417Y-56555237D01*
X122184583Y-56513034D01*
X122249956Y-56472712D01*
X122249962Y-56472705D01*
X122255625Y-56468229D01*
X122255662Y-56468277D01*
X122261504Y-56463518D01*
X122261464Y-56463471D01*
X122266991Y-56458832D01*
X122266996Y-56458830D01*
X122319686Y-56402981D01*
X127029070Y-51693595D01*
X127090391Y-51660112D01*
X127090727Y-51660039D01*
X127156103Y-51646144D01*
X127329030Y-51569151D01*
X127482171Y-51457888D01*
X127608833Y-51317216D01*
X127703479Y-51153284D01*
X127761974Y-50973256D01*
X127781760Y-50785000D01*
X127761974Y-50596744D01*
X127703479Y-50416716D01*
X127608833Y-50252784D01*
X127482171Y-50112112D01*
X127482170Y-50112111D01*
X127329034Y-50000851D01*
X127329029Y-50000848D01*
X127156107Y-49923857D01*
X127156102Y-49923855D01*
X127010301Y-49892865D01*
X126970946Y-49884500D01*
X126781654Y-49884500D01*
X126749197Y-49891398D01*
X126596497Y-49923855D01*
X126596492Y-49923857D01*
X126423570Y-50000848D01*
X126423565Y-50000851D01*
X126270429Y-50112111D01*
X126143766Y-50252785D01*
X126049121Y-50416715D01*
X126049119Y-50416719D01*
X125993779Y-50587039D01*
X125963529Y-50636401D01*
X121973515Y-54626415D01*
X121912192Y-54659900D01*
X121842500Y-54654916D01*
X121811523Y-54638001D01*
X121742331Y-54586204D01*
X121742328Y-54586202D01*
X121607482Y-54535908D01*
X121607483Y-54535908D01*
X121547883Y-54529501D01*
X121547881Y-54529500D01*
X121547873Y-54529500D01*
X121547864Y-54529500D01*
X119752129Y-54529500D01*
X119752123Y-54529501D01*
X119692516Y-54535908D01*
X119557671Y-54586202D01*
X119557664Y-54586206D01*
X119442455Y-54672452D01*
X119442452Y-54672455D01*
X119356206Y-54787664D01*
X119356202Y-54787671D01*
X119305908Y-54922517D01*
X119299501Y-54982116D01*
X119299500Y-54982135D01*
X119299500Y-56777870D01*
X119299501Y-56777876D01*
X119305908Y-56837483D01*
X119356202Y-56972328D01*
X119356206Y-56972335D01*
X119442452Y-57087544D01*
X119442455Y-57087547D01*
X119557664Y-57173793D01*
X119557671Y-57173797D01*
X119689081Y-57222810D01*
X119745015Y-57264681D01*
X119769432Y-57330145D01*
X119754580Y-57398418D01*
X119733430Y-57426673D01*
X119611503Y-57548600D01*
X119475965Y-57742169D01*
X119475964Y-57742171D01*
X119376098Y-57956335D01*
X119376094Y-57956344D01*
X119314938Y-58184586D01*
X119314936Y-58184596D01*
X119294341Y-58419999D01*
X119294341Y-58420000D01*
X113808427Y-58420000D01*
X113835922Y-58335378D01*
X113866169Y-58286019D01*
X119763788Y-52388401D01*
X119776042Y-52378586D01*
X119775859Y-52378364D01*
X119781866Y-52373392D01*
X119781877Y-52373386D01*
X119812775Y-52340482D01*
X119829227Y-52322964D01*
X119839671Y-52312518D01*
X119850120Y-52302071D01*
X119854379Y-52296578D01*
X119858152Y-52292161D01*
X119890062Y-52258182D01*
X119899715Y-52240620D01*
X119910389Y-52224370D01*
X119922673Y-52208536D01*
X119941180Y-52165767D01*
X119943749Y-52160524D01*
X119966196Y-52119693D01*
X119966197Y-52119692D01*
X119971177Y-52100291D01*
X119977478Y-52081888D01*
X119985438Y-52063496D01*
X119992730Y-52017449D01*
X119993911Y-52011752D01*
X120005500Y-51966619D01*
X120005500Y-51946583D01*
X120007027Y-51927182D01*
X120010160Y-51907404D01*
X120005775Y-51861015D01*
X120005500Y-51855177D01*
X120005500Y-51498687D01*
X120025185Y-51431648D01*
X120037350Y-51415715D01*
X120055891Y-51395122D01*
X120112533Y-51332216D01*
X120207179Y-51168284D01*
X120265674Y-50988256D01*
X120285460Y-50800000D01*
X120265674Y-50611744D01*
X120207179Y-50431716D01*
X120112533Y-50267784D01*
X119985871Y-50127112D01*
X119985870Y-50127111D01*
X119832734Y-50015851D01*
X119832729Y-50015848D01*
X119659807Y-49938857D01*
X119659802Y-49938855D01*
X119514001Y-49907865D01*
X119474646Y-49899500D01*
X119285354Y-49899500D01*
X119252897Y-49906398D01*
X119100197Y-49938855D01*
X119100192Y-49938857D01*
X118927270Y-50015848D01*
X118927265Y-50015851D01*
X118774129Y-50127111D01*
X118647466Y-50267785D01*
X118552821Y-50431715D01*
X118552818Y-50431722D01*
X118494639Y-50610781D01*
X118494326Y-50611744D01*
X118474540Y-50800000D01*
X118494326Y-50988256D01*
X118494327Y-50988259D01*
X118552818Y-51168277D01*
X118552821Y-51168284D01*
X118647467Y-51332216D01*
X118690772Y-51380310D01*
X118722650Y-51415715D01*
X118752880Y-51478706D01*
X118754500Y-51498687D01*
X118754500Y-51577147D01*
X118734815Y-51644186D01*
X118718181Y-51664828D01*
X116407181Y-53975828D01*
X116345858Y-54009313D01*
X116276166Y-54004329D01*
X116220233Y-53962457D01*
X116195816Y-53896993D01*
X116195500Y-53888147D01*
X116195500Y-44563665D01*
X116215185Y-44496626D01*
X116267989Y-44450871D01*
X116337147Y-44440927D01*
X116371914Y-44451287D01*
X116376513Y-44453432D01*
X116376516Y-44453433D01*
X116590000Y-44510634D01*
X116590000Y-43615501D01*
X116697685Y-43664680D01*
X116804237Y-43680000D01*
X116875763Y-43680000D01*
X116982315Y-43664680D01*
X117090000Y-43615501D01*
X117090000Y-44510633D01*
X117303483Y-44453433D01*
X117303492Y-44453429D01*
X117517578Y-44353600D01*
X117711082Y-44218105D01*
X117878105Y-44051082D01*
X118008119Y-43865405D01*
X118062696Y-43821781D01*
X118132195Y-43814588D01*
X118194549Y-43846110D01*
X118211269Y-43865405D01*
X118341505Y-44051401D01*
X118508599Y-44218495D01*
X118605384Y-44286265D01*
X118702165Y-44354032D01*
X118702167Y-44354033D01*
X118702170Y-44354035D01*
X118916337Y-44453903D01*
X119144592Y-44515063D01*
X119321034Y-44530500D01*
X119379999Y-44535659D01*
X119380000Y-44535659D01*
X119380001Y-44535659D01*
X119438966Y-44530500D01*
X119615408Y-44515063D01*
X119843663Y-44453903D01*
X120057830Y-44354035D01*
X120251401Y-44218495D01*
X120418495Y-44051401D01*
X120548425Y-43865842D01*
X120603002Y-43822217D01*
X120672500Y-43815023D01*
X120734855Y-43846546D01*
X120751575Y-43865842D01*
X120881281Y-44051082D01*
X120881505Y-44051401D01*
X121048599Y-44218495D01*
X121145384Y-44286265D01*
X121242165Y-44354032D01*
X121242167Y-44354033D01*
X121242170Y-44354035D01*
X121456337Y-44453903D01*
X121684592Y-44515063D01*
X121861034Y-44530500D01*
X121919999Y-44535659D01*
X121920000Y-44535659D01*
X121920001Y-44535659D01*
X121978966Y-44530500D01*
X122155408Y-44515063D01*
X122383663Y-44453903D01*
X122597830Y-44354035D01*
X122791401Y-44218495D01*
X122958495Y-44051401D01*
X123088425Y-43865842D01*
X123143002Y-43822217D01*
X123212500Y-43815023D01*
X123274855Y-43846546D01*
X123291575Y-43865842D01*
X123421281Y-44051082D01*
X123421505Y-44051401D01*
X123588599Y-44218495D01*
X123685384Y-44286265D01*
X123782165Y-44354032D01*
X123782167Y-44354033D01*
X123782170Y-44354035D01*
X123996337Y-44453903D01*
X124224592Y-44515063D01*
X124401034Y-44530500D01*
X124459999Y-44535659D01*
X124460000Y-44535659D01*
X124460001Y-44535659D01*
X124518966Y-44530500D01*
X124695408Y-44515063D01*
X124923663Y-44453903D01*
X125137830Y-44354035D01*
X125331401Y-44218495D01*
X125453329Y-44096566D01*
X125514648Y-44063084D01*
X125584340Y-44068068D01*
X125640274Y-44109939D01*
X125657189Y-44140917D01*
X125706202Y-44272328D01*
X125706206Y-44272335D01*
X125792452Y-44387544D01*
X125792455Y-44387547D01*
X125907664Y-44473793D01*
X125907671Y-44473797D01*
X126042517Y-44524091D01*
X126042516Y-44524091D01*
X126049444Y-44524835D01*
X126102127Y-44530500D01*
X127897872Y-44530499D01*
X127957483Y-44524091D01*
X128092331Y-44473796D01*
X128207546Y-44387546D01*
X128293796Y-44272331D01*
X128344091Y-44137483D01*
X128350500Y-44077873D01*
X128350499Y-42282128D01*
X128344091Y-42222517D01*
X128342810Y-42219083D01*
X128293797Y-42087671D01*
X128293793Y-42087664D01*
X128207547Y-41972455D01*
X128207544Y-41972452D01*
X128092335Y-41886206D01*
X128092328Y-41886202D01*
X127960917Y-41837189D01*
X127904983Y-41795318D01*
X127880566Y-41729853D01*
X127895418Y-41661580D01*
X127916563Y-41633332D01*
X128038495Y-41511401D01*
X128174035Y-41317830D01*
X128273903Y-41103663D01*
X128335063Y-40875408D01*
X128355659Y-40640000D01*
X128335063Y-40404592D01*
X128273903Y-40176337D01*
X128174035Y-39962171D01*
X128165554Y-39950058D01*
X128038494Y-39768597D01*
X127871402Y-39601506D01*
X127871395Y-39601501D01*
X127871286Y-39601425D01*
X127819558Y-39565204D01*
X127677834Y-39465967D01*
X127677830Y-39465965D01*
X127677828Y-39465964D01*
X127463663Y-39366097D01*
X127463659Y-39366096D01*
X127463655Y-39366094D01*
X127235413Y-39304938D01*
X127235403Y-39304936D01*
X127000001Y-39284341D01*
X126999999Y-39284341D01*
X126764596Y-39304936D01*
X126764586Y-39304938D01*
X126536344Y-39366094D01*
X126536335Y-39366098D01*
X126322171Y-39465964D01*
X126322169Y-39465965D01*
X126160599Y-39579098D01*
X126094393Y-39601425D01*
X126026626Y-39584415D01*
X126001795Y-39565204D01*
X125019303Y-38582712D01*
X125009480Y-38570450D01*
X125009259Y-38570634D01*
X125004286Y-38564623D01*
X124985659Y-38547131D01*
X124953864Y-38517273D01*
X124943419Y-38506828D01*
X124932975Y-38496383D01*
X124927486Y-38492125D01*
X124923061Y-38488347D01*
X124889082Y-38456438D01*
X124889080Y-38456436D01*
X124889077Y-38456435D01*
X124871529Y-38446788D01*
X124855263Y-38436104D01*
X124839433Y-38423825D01*
X124796668Y-38405318D01*
X124791422Y-38402748D01*
X124750593Y-38380303D01*
X124750592Y-38380302D01*
X124731193Y-38375322D01*
X124712781Y-38369018D01*
X124694398Y-38361062D01*
X124694392Y-38361060D01*
X124648374Y-38353772D01*
X124642652Y-38352587D01*
X124597521Y-38341000D01*
X124597519Y-38341000D01*
X124577484Y-38341000D01*
X124558086Y-38339473D01*
X124550662Y-38338297D01*
X124538305Y-38336340D01*
X124538304Y-38336340D01*
X124491916Y-38340725D01*
X124486078Y-38341000D01*
X114394536Y-38341000D01*
X114378919Y-38339276D01*
X114378892Y-38339562D01*
X114371130Y-38338827D01*
X114302002Y-38341000D01*
X114272449Y-38341000D01*
X114271728Y-38341090D01*
X114265556Y-38341869D01*
X114259744Y-38342326D01*
X114213172Y-38343790D01*
X114213171Y-38343790D01*
X114193928Y-38349381D01*
X114174878Y-38353325D01*
X114155010Y-38355834D01*
X114155008Y-38355835D01*
X114111683Y-38372988D01*
X114106156Y-38374880D01*
X114061409Y-38387881D01*
X114061408Y-38387882D01*
X114044166Y-38398079D01*
X114026698Y-38406637D01*
X114008068Y-38414013D01*
X114008066Y-38414014D01*
X113970375Y-38441398D01*
X113965493Y-38444605D01*
X113925378Y-38468330D01*
X113911207Y-38482500D01*
X113896422Y-38495128D01*
X113880211Y-38506907D01*
X113850508Y-38542810D01*
X113846576Y-38547131D01*
X112741208Y-39652498D01*
X112728951Y-39662319D01*
X112729134Y-39662540D01*
X112723123Y-39667512D01*
X112675772Y-39717935D01*
X112654889Y-39738818D01*
X112654877Y-39738831D01*
X112650621Y-39744316D01*
X112646837Y-39748746D01*
X112614937Y-39782717D01*
X112614936Y-39782719D01*
X112605284Y-39800275D01*
X112594610Y-39816525D01*
X112582329Y-39832360D01*
X112582324Y-39832367D01*
X112563815Y-39875137D01*
X112561245Y-39880383D01*
X112538803Y-39921205D01*
X112533822Y-39940606D01*
X112527521Y-39959009D01*
X112519562Y-39977401D01*
X112519561Y-39977404D01*
X112512271Y-40023426D01*
X112511087Y-40029145D01*
X112499501Y-40074271D01*
X112499500Y-40074281D01*
X112499500Y-40094315D01*
X112497973Y-40113714D01*
X112494840Y-40133493D01*
X112494840Y-40133494D01*
X112499225Y-40179882D01*
X112499500Y-40185720D01*
X112499500Y-43583956D01*
X112497775Y-43599573D01*
X112498061Y-43599600D01*
X112497326Y-43607366D01*
X112499500Y-43676515D01*
X112499500Y-43706044D01*
X112499501Y-43706061D01*
X112500368Y-43712932D01*
X112500826Y-43718751D01*
X112502290Y-43765325D01*
X112502291Y-43765328D01*
X112507880Y-43784568D01*
X112511824Y-43803612D01*
X112514336Y-43823493D01*
X112523463Y-43846546D01*
X112531490Y-43866820D01*
X112533382Y-43872348D01*
X112546381Y-43917089D01*
X112556580Y-43934335D01*
X112565138Y-43951804D01*
X112572514Y-43970433D01*
X112599898Y-44008124D01*
X112603106Y-44013008D01*
X112626827Y-44053117D01*
X112626833Y-44053125D01*
X112640990Y-44067281D01*
X112653628Y-44082077D01*
X112665405Y-44098287D01*
X112665406Y-44098288D01*
X112701309Y-44127989D01*
X112705620Y-44131911D01*
X114400181Y-45826472D01*
X114433666Y-45887795D01*
X114436500Y-45914153D01*
X114436500Y-53051247D01*
X114416815Y-53118286D01*
X114400181Y-53138928D01*
X114014528Y-53524581D01*
X113953205Y-53558066D01*
X113926847Y-53560900D01*
X113867654Y-53560900D01*
X113835197Y-53567798D01*
X113682497Y-53600255D01*
X113682492Y-53600257D01*
X113509570Y-53677248D01*
X113509565Y-53677251D01*
X113356429Y-53788511D01*
X113229766Y-53929185D01*
X113135121Y-54093115D01*
X113135118Y-54093122D01*
X113076627Y-54273140D01*
X113076626Y-54273144D01*
X113056840Y-54461400D01*
X113076626Y-54649656D01*
X113076627Y-54649659D01*
X113135118Y-54829677D01*
X113135121Y-54829684D01*
X113229767Y-54993616D01*
X113356429Y-55134288D01*
X113509565Y-55245548D01*
X113509570Y-55245551D01*
X113682492Y-55322542D01*
X113682497Y-55322544D01*
X113749542Y-55336795D01*
X113811024Y-55369987D01*
X113844800Y-55431150D01*
X113840148Y-55500865D01*
X113811442Y-55545766D01*
X113373828Y-55983381D01*
X113312505Y-56016866D01*
X113286147Y-56019700D01*
X113226954Y-56019700D01*
X113194497Y-56026598D01*
X113041797Y-56059055D01*
X113041792Y-56059057D01*
X112868870Y-56136048D01*
X112868865Y-56136051D01*
X112715729Y-56247311D01*
X112589066Y-56387985D01*
X112494421Y-56551915D01*
X112494418Y-56551922D01*
X112450355Y-56687536D01*
X112435926Y-56731944D01*
X112416140Y-56920200D01*
X112435926Y-57108456D01*
X112435927Y-57108459D01*
X112476647Y-57233783D01*
X112478642Y-57303624D01*
X112442562Y-57363457D01*
X112431603Y-57372418D01*
X112360728Y-57423912D01*
X112360723Y-57423916D01*
X112234066Y-57564585D01*
X112139421Y-57728515D01*
X112139418Y-57728522D01*
X112080927Y-57908540D01*
X112080926Y-57908544D01*
X112061140Y-58096800D01*
X110490500Y-58096800D01*
X110490500Y-36961070D01*
X110491031Y-36952970D01*
X110492962Y-36938296D01*
X110504624Y-36864664D01*
X110512528Y-36836637D01*
X110522661Y-36812174D01*
X110524670Y-36807817D01*
X110548569Y-36760913D01*
X110560659Y-36741750D01*
X110579933Y-36716633D01*
X110585253Y-36710565D01*
X110624565Y-36671253D01*
X110630633Y-36665933D01*
X110655750Y-36646659D01*
X110674913Y-36634569D01*
X110721817Y-36610670D01*
X110726174Y-36608661D01*
X110750637Y-36598528D01*
X110778664Y-36590624D01*
X110852284Y-36578963D01*
X110861045Y-36577810D01*
X110866970Y-36577031D01*
X110875070Y-36576500D01*
X130424930Y-36576500D01*
X130433030Y-36577031D01*
G37*
G04 #@! TD.AperFunction*
M02*
